<svg xmlns="http://www.w3.org/2000/svg" width="32" height="32" viewBox="0 0 32 32">
    <path fill-rule="evenodd" clip-rule="evenodd"
        d="M5.66602 16C5.66602 15.4477 6.11373 15 6.66602 15H25.3327C25.885 15 26.3327 15.4477 26.3327 16C26.3327 16.5523 25.885 17 25.3327 17H6.66602C6.11373 17 5.66602 16.5523 5.66602 16Z" />
    <path fill-rule="evenodd" clip-rule="evenodd"
        d="M26.0398 15.2929C26.4303 15.6834 26.4303 16.3166 26.0398 16.7071L19.3731 23.3738C18.9826 23.7643 18.3494 23.7643 17.9589 23.3738C17.5684 22.9832 17.5684 22.3501 17.9589 21.9596L24.6256 15.2929C25.0161 14.9024 25.6493 14.9024 26.0398 15.2929Z" />
    <path fill-rule="evenodd" clip-rule="evenodd"
        d="M17.9589 8.62639C18.3494 8.23587 18.9826 8.23587 19.3731 8.62639L26.0398 15.2931C26.4303 15.6836 26.4303 16.3167 26.0398 16.7073C25.6493 17.0978 25.0161 17.0978 24.6256 16.7073L17.9589 10.0406C17.5684 9.65008 17.5684 9.01691 17.9589 8.62639Z" />
</svg>