<svg xmlns="http://www.w3.org/2000/svg" width="32" height="32" viewBox="0 0 32 32">
    <path fill-rule="evenodd" clip-rule="evenodd"
        d="M26.334 16C26.334 15.4477 25.8863 15 25.334 15H6.66732C6.11503 15 5.66732 15.4477 5.66732 16C5.66732 16.5523 6.11503 17 6.66732 17H25.334C25.8863 17 26.334 16.5523 26.334 16Z" />
    <path fill-rule="evenodd" clip-rule="evenodd"
        d="M5.96021 15.2929C5.56969 15.6834 5.56969 16.3166 5.96021 16.7071L12.6269 23.3738C13.0174 23.7643 13.6506 23.7643 14.0411 23.3738C14.4316 22.9832 14.4316 22.3501 14.0411 21.9596L7.37442 15.2929C6.9839 14.9024 6.35074 14.9024 5.96021 15.2929Z" />
    <path fill-rule="evenodd" clip-rule="evenodd"
        d="M14.0411 8.62639C13.6506 8.23586 13.0174 8.23586 12.6269 8.62639L5.96021 15.2931C5.56969 15.6836 5.56969 16.3167 5.96021 16.7073C6.35074 17.0978 6.9839 17.0978 7.37442 16.7073L14.0411 10.0406C14.4316 9.65008 14.4316 9.01691 14.0411 8.62639Z" />
</svg>