<svg xmlns="http://www.w3.org/2000/svg" width="32" height="32" viewBox="0 0 32 32">
    <path fill-rule="evenodd" clip-rule="evenodd"
        d="M16 4.33301C16.5523 4.33301 17 4.78072 17 5.33301V17.1417L20.0343 14.1073C20.4249 13.7168 21.058 13.7168 21.4486 14.1073C21.8391 14.4979 21.8391 15.131 21.4486 15.5216L16.7569 20.2132C16.5736 20.4254 16.3025 20.5597 16 20.5597C15.6967 20.5597 15.4249 20.4246 15.2415 20.2114L10.5517 15.5216C10.1612 15.131 10.1612 14.4979 10.5517 14.1073C10.9422 13.7168 11.5754 13.7168 11.9659 14.1073L15 17.1415V5.33301C15 4.78072 15.4477 4.33301 16 4.33301ZM6.3335 21.9248C6.3335 21.3725 5.88578 20.9248 5.3335 20.9248C4.78121 20.9248 4.3335 21.3725 4.3335 21.9248C4.3335 25.0956 6.90399 27.6661 10.0748 27.6661H21.9255C25.0963 27.6661 27.6668 25.0956 27.6668 21.9248C27.6668 21.3725 27.2191 20.9248 26.6668 20.9248C26.1145 20.9248 25.6668 21.3725 25.6668 21.9248C25.6668 23.9911 23.9918 25.6661 21.9255 25.6661H10.0748C8.00855 25.6661 6.3335 23.9911 6.3335 21.9248Z" />
</svg>