<svg xmlns="http://www.w3.org/2000/svg" width="24" height="24" viewBox="0 0 24 24" fill="none">
    <path d="M12 3C16.971 3 21 7.029 21 12C21 16.971 16.971 21 12 21C7.029 21 3 16.971 3 12C3 7.029 7.029 3 12 3Z"
        fill="#F4442E" />
    <path fill-rule="evenodd" clip-rule="evenodd"
        d="M12 6.5C12.5523 6.5 13 6.94772 13 7.5V12C13 12.5523 12.5523 13 12 13C11.4477 13 11 12.5523 11 12V7.5C11 6.94772 11.4477 6.5 12 6.5Z"
        fill="white" />
    <path
        d="M13 16C13 16.5523 12.5523 17 12 17C11.4477 17 11 16.5523 11 16C11 15.4477 11.4477 15 12 15C12.5523 15 13 15.4477 13 16Z"
        fill="white" />
    <path fill-rule="evenodd" clip-rule="evenodd"
        d="M12 17C12.5523 17 13 16.5523 13 16C13 15.4477 12.5523 15 12 15C11.4477 15 11 15.4477 11 16C11 16.5523 11.4477 17 12 17Z"
        fill="white" />
</svg>