<svg xmlns="http://www.w3.org/2000/svg" width="24" height="24" viewBox="0 0 24 24">
    <path fill-rule="evenodd" clip-rule="evenodd"
        d="M15.8489 10.3229C14.8679 11.3039 13.5053 11.9216 11.9975 11.9216C10.5078 11.9216 9.12713 11.3039 8.14612 10.3229C7.16511 9.34187 6.54744 7.97936 6.54744 6.47152C6.54744 4.96368 7.16511 3.60117 8.14612 2.62016C9.12713 1.63915 10.4896 1.02148 11.9975 1.02148C13.5053 1.02148 14.8679 1.63915 15.8489 2.62016C16.8299 3.60117 17.4475 4.96368 17.4475 6.47152C17.4475 7.97936 16.8299 9.34187 15.8489 10.3229ZM11.9975 3.98267C11.3253 3.98267 10.7076 4.25517 10.2535 4.70934C9.81745 5.16351 9.52678 5.78118 9.52678 6.45335C9.52678 7.12552 9.79928 7.74319 10.2535 8.19736C10.6895 8.65153 11.3071 8.92404 11.9975 8.92404C12.6696 8.92404 13.2873 8.65153 13.7415 8.19736C14.1957 7.76136 14.4682 7.14369 14.4682 6.45335C14.4682 5.78118 14.1957 5.16351 13.7415 4.70934C13.3055 4.25517 12.6878 3.98267 11.9975 3.98267Z" />
    <path
        d="M17.7383 11.9397L19.3369 14.1198C19.4278 14.2288 19.4096 14.3741 19.2643 14.4649C17.9199 15.5731 16.3576 16.2998 14.7226 16.6813L18.1016 22.64C18.1924 22.8216 18.0834 23.0215 17.8836 23.0215H14.5772C14.4682 23.0215 14.3774 22.9488 14.3411 22.858L11.9794 17.5896L9.61767 22.858C9.58134 22.967 9.4905 23.0215 9.3815 23.0215H6.07513C5.89347 23.0215 5.7663 22.8035 5.85713 22.64L9.23617 16.6813C7.60115 16.2998 6.0388 15.5549 4.69445 14.4649C4.60362 14.3741 4.58545 14.2288 4.65812 14.1198L6.2568 11.9397C6.34764 11.8307 6.52931 11.8126 6.63831 11.9034C8.14616 13.1933 9.99918 14.0289 11.9975 14.0289C13.9959 14.0289 15.8489 13.1933 17.3568 11.9034C17.4658 11.7944 17.6474 11.8126 17.7383 11.9397Z" />
</svg>