<svg width="373" height="373" viewBox="0 0 373 373" fill="none" xmlns="http://www.w3.org/2000/svg">
<g clip-path="url(#clip0_931_9027)">
<path d="M358.217 114.264C340.285 71.7051 307.162 37.3209 265.28 17.7872C223.398 -1.74656 175.744 -5.03597 131.57 8.55754C87.3966 22.151 49.8551 51.6576 26.2342 91.3486C2.61319 131.04 -5.40184 178.083 3.74511 223.346C12.8921 268.609 38.5484 308.861 75.733 336.289C112.918 363.716 158.977 376.361 204.97 371.77C250.963 367.178 293.607 345.677 324.623 311.441C355.639 277.204 372.815 232.676 372.815 186.5C372.85 161.687 367.885 137.12 358.217 114.264ZM365.392 214.083C365.265 219.17 364.857 224.246 364.169 229.288C360.236 236.625 354.476 243.664 347.034 250.258C348.109 240.641 348.303 230.947 347.616 221.295C347.431 218.581 347.184 215.867 346.875 213.154C348.223 211.982 349.524 210.795 350.776 209.594C356.45 204.125 360.98 198.411 364.344 192.539C365.223 199.685 365.573 206.885 365.392 214.083ZM9.63057 194.189C9.68984 193.664 9.75651 193.138 9.81948 192.613C13.1791 198.463 17.698 204.158 23.3505 209.605C24.6024 210.811 25.9063 212.001 27.262 213.172C25.7926 225.499 25.7479 237.954 27.1286 250.291C19.7205 243.738 13.9791 236.744 10.0417 229.454C8.44485 217.761 8.30675 205.916 9.63057 194.189ZM24.4135 99.1705C28.145 92.2234 32.4951 85.6261 37.4111 79.4585C35.2598 84.4296 34.1264 89.7807 34.0774 95.1963C31.292 98.6969 28.6658 102.295 26.1989 105.99C21.7555 112.65 17.8443 119.65 14.5014 126.923C14.896 121.429 16.2761 116.051 18.5759 111.045H18.5389C20.3489 107.004 22.2997 103.044 24.3913 99.1631L24.4135 99.1705ZM304.071 48.9228C300.142 46.4041 296.079 44.0654 291.881 41.9068C285.029 38.4066 277.929 35.4148 270.638 32.9556C268.801 29.6724 266.457 26.6991 263.693 24.1449C274.05 26.784 283.973 30.8964 293.159 36.3563C297.744 40.3342 301.408 44.5489 304.078 48.9154L304.071 48.9228ZM349.698 99.1705L349.735 99.152C351.824 103.03 353.775 106.991 355.587 111.034H355.55C357.85 116.04 359.23 121.418 359.625 126.912C356.28 119.64 352.368 112.642 347.923 105.983C345.454 102.283 342.828 98.6845 340.045 95.1889C339.994 89.8254 338.878 84.5253 336.763 79.5954C341.658 85.7165 345.987 92.2683 349.698 99.1705ZM354.391 150.636C349.243 138.072 342.728 126.112 334.963 114.971C336.668 111.763 337.979 108.361 338.867 104.84C339.511 102.26 339.891 99.6215 340 96.9651C342.455 100.103 344.782 103.32 346.983 106.616C351.893 113.968 356.146 121.736 359.695 129.832C359.629 136 358.294 142.089 355.772 147.72C355.343 148.692 354.882 149.661 354.391 150.628V150.636ZM346.508 221.38C347.217 231.372 346.969 241.408 345.768 251.353C338.067 257.958 328.662 264.105 317.694 269.637C317.75 269.045 317.817 268.456 317.869 267.86C318.867 255.998 318.804 244.07 317.68 232.218C328.518 226.786 337.985 220.688 345.831 214.046C346.115 216.49 346.341 218.933 346.508 221.372V221.38ZM318.754 315.107C312.59 320.443 305.201 325.324 296.818 329.679C299.17 326.48 301.311 323.132 303.226 319.655C305.856 314.864 308.117 309.88 309.99 304.746C319.046 300.224 327.066 295.221 333.937 289.789C334.515 289.335 335.083 288.876 335.641 288.413C331.34 298.081 325.651 307.071 318.754 315.1V315.107ZM273.605 349.317C266.474 352.82 259.07 355.738 251.466 358.043C256.007 354.451 260.081 349.705 263.689 343.804C273.728 340.953 283.516 337.281 292.951 332.825C287.52 339.412 280.971 344.995 273.605 349.317ZM187.611 367.164C187.611 364.204 187.611 359.808 187.611 354.076C200.352 354.063 213.079 353.239 225.715 351.608C225.537 352.13 225.345 352.644 225.167 353.147C223.218 358.399 221.036 362.387 218.618 365.111C208.338 366.462 197.98 367.148 187.611 367.164ZM155.512 365.114C152.834 362.098 150.448 357.547 148.392 351.608C161.028 353.239 173.755 354.063 186.496 354.076V367.164C176.135 367.147 165.785 366.462 155.512 365.114ZM100.632 349.395C93.2821 345.063 86.7451 339.483 81.3155 332.906C90.7281 337.341 100.489 340.997 110.5 343.837C114.096 349.706 118.212 354.487 122.775 358.098C115.171 355.8 107.766 352.889 100.632 349.395ZM38.5816 288.494C39.1076 288.927 39.6335 289.356 40.1743 289.782C47.0565 295.221 55.0906 300.232 64.1619 304.757V304.794C67.6252 314.178 72.0775 322.534 77.4077 329.739C69.0439 325.402 61.6654 320.543 55.5018 315.233C48.6036 307.179 42.9048 298.174 38.5816 288.494ZM28.2732 214.049C36.1332 220.71 45.6082 226.805 56.4611 232.237C55.2576 244.672 55.239 257.194 56.4056 269.633C45.4563 264.108 36.0628 257.977 28.3695 251.386C26.8785 238.987 26.8462 226.456 28.2732 214.049ZM34.1108 96.9503C34.2205 99.6067 34.6002 102.245 35.2442 104.825C36.1368 108.362 37.4552 111.777 39.1705 114.997C31.4025 126.128 24.8825 138.078 19.7279 150.632C19.234 149.662 18.771 148.687 18.3388 147.705C15.8174 142.074 14.4822 135.985 14.4162 129.817C17.9648 121.721 22.2186 113.953 27.1286 106.601C29.3214 103.312 31.6488 100.096 34.1108 96.9503ZM63.71 67.5654C63.71 67.6394 63.71 67.7134 63.71 67.7837C63.9635 72.82 65.3283 77.738 67.7067 82.1857C58.0197 91.1874 49.2239 101.101 41.4411 111.789C40.9152 112.514 40.3954 113.242 39.8817 113.972C38.3345 110.984 37.1375 107.828 36.3147 104.566C35.5813 101.627 35.2033 98.6102 35.1887 95.5811C43.561 85.1556 53.1342 75.7521 63.71 67.5654ZM100.451 45.3297C100.607 48.8373 101.531 52.2681 103.158 55.38C90.7974 62.8846 79.2123 71.5961 68.5735 81.3864C66.3454 77.1623 65.0649 72.5041 64.8212 67.7356C64.8212 67.3989 64.8212 67.0585 64.8027 66.7217C74.1585 59.5871 84.1696 53.3537 94.702 48.105C96.6022 47.1355 98.5283 46.2215 100.451 45.3297ZM279.409 48.105C289.935 53.3547 299.94 59.5881 309.29 66.7217C309.29 67.0585 309.29 67.3989 309.29 67.7356C309.055 72.483 307.791 77.1228 305.586 81.3346C294.945 71.5508 283.35 62.8559 270.975 55.38C272.603 52.2681 273.527 48.8373 273.683 45.3297C275.583 46.2215 277.509 47.1355 279.409 48.105ZM338.923 95.5811C338.913 98.6096 338.54 101.626 337.811 104.566C336.99 107.814 335.8 110.958 334.263 113.935C329.463 107.134 324.248 100.636 318.646 94.4784C314.742 90.2057 310.668 86.0958 306.423 82.1487C308.787 77.7127 310.143 72.8104 310.394 67.7911C310.394 67.7208 310.394 67.6468 310.394 67.5728C320.972 75.7568 330.547 85.1577 338.923 95.5811ZM319.243 132.452C311.971 119.955 303.601 108.129 294.233 97.1131C299.256 92.7244 303.167 88.0434 305.886 83.1552C310.025 87.0209 313.997 91.0444 317.802 95.2259C323.502 101.489 328.8 108.106 333.663 115.038C330.414 120.999 325.699 126.735 319.554 132.182C319.45 132.271 319.339 132.359 319.239 132.452H319.243ZM316.78 267.757C316.705 268.586 316.62 269.404 316.535 270.221C315.12 270.924 313.678 271.616 312.209 272.297C301.663 277.14 290.767 281.181 279.613 284.386C280.462 271.891 280.462 259.352 279.613 246.857C280.691 246.546 281.761 246.232 282.828 245.906C294.432 242.447 305.735 238.049 316.624 232.755C317.704 244.395 317.755 256.108 316.776 267.757H316.78ZM65.062 303.965C61.4653 294.085 59.0095 283.188 57.7242 271.528C58.9466 272.127 60.1813 272.719 61.4283 273.304C72.1563 278.229 83.2452 282.329 94.5983 285.567C95.4798 297.105 97.1911 307.743 99.6729 317.246C92.4573 315.148 85.5344 312.783 78.9745 310.167C74.0999 308.218 69.4612 306.151 65.0583 303.965H65.062ZM57.5279 232.755C68.4039 238.043 79.6929 242.438 91.2831 245.895C92.3647 246.224 93.45 246.543 94.5427 246.861C94.3377 249.984 94.1809 253.084 94.0723 256.16C93.7238 265.566 93.8721 274.985 94.5168 284.375C83.3624 281.171 72.4661 277.13 61.921 272.286C60.4393 271.605 58.996 270.912 57.5909 270.207C56.3701 257.753 56.349 245.212 57.5279 232.755ZM54.5647 132.171C48.4307 126.735 43.7228 121.01 40.4892 115.064C41.1041 114.183 41.7288 113.305 42.3634 112.429C50.0453 101.881 58.7203 92.0921 68.2697 83.1959C70.9885 88.0693 74.8889 92.7355 79.9005 97.1094C70.5378 108.135 62.1744 119.969 54.9091 132.474L54.5647 132.171ZM148.867 20.2669C157.92 20.6841 166.922 21.8738 175.773 23.823C176.929 24.0746 178.081 24.3411 179.236 24.6149C167.937 23.5399 156.564 23.4644 145.251 24.3892C146.251 22.8478 147.468 21.4593 148.867 20.2669ZM175.414 10.0168C177.085 11.8057 178.634 13.7059 180.047 15.7043C181.877 18.2884 183.572 20.9648 185.126 23.7231C180.476 19.8541 175.46 16.4461 170.15 13.547C168.95 12.9031 167.757 12.3049 166.572 11.7523C169.482 10.9967 172.434 10.4171 175.414 10.0168ZM207.613 11.7708C202.265 14.3001 197.2 17.3887 192.504 20.9848C191.319 21.8803 190.13 22.835 188.941 23.7934C192.226 18.0023 195.497 13.3768 198.697 10.0168C201.702 10.4214 204.679 11.0072 207.613 11.7708ZM228.878 24.4225C220.938 23.7737 212.965 23.6204 205.006 23.9636C201.548 24.1116 198.099 24.3522 194.656 24.6852C204.7 22.2384 214.958 20.7711 225.285 20.3039C226.675 21.4973 227.885 22.8844 228.878 24.4225ZM263.674 164.475C267.523 177.837 270.631 191.044 273.023 203.918C259.699 207.686 246.121 210.493 232.393 212.318C231.416 202.023 230.219 191.532 228.8 180.934C228.275 176.987 227.723 173.075 227.145 169.197C239.223 167.584 251.171 165.111 262.896 161.796C263.161 162.692 263.42 163.583 263.674 164.471V164.475ZM278.45 284.738C264.277 288.75 249.833 291.735 235.231 293.671C235.679 281.929 235.679 269.333 235.231 256.108C249.844 254.167 264.299 251.185 278.487 247.186C279.324 259.684 279.312 272.224 278.45 284.72V284.738ZM95.1946 256.212C95.2983 253.227 95.449 250.217 95.6465 247.183C109.835 251.177 124.29 254.155 138.903 256.093C138.706 261.977 138.595 267.768 138.573 273.433C138.543 280.464 138.654 287.21 138.895 293.652C124.287 291.719 109.838 288.732 95.6613 284.716C94.9957 275.23 94.8399 265.715 95.1946 256.212ZM165.202 86.5151C172.271 87.4221 179.391 87.8843 186.518 87.8991V127.064C176.294 127.048 166.081 126.383 155.941 125.073C158.453 113.006 161.209 101.302 164.187 90.1896C164.513 88.9512 164.842 87.7264 165.176 86.5151H165.202ZM155.79 47.0282C158.416 48.301 161.141 49.3603 163.938 50.1957C157.15 59.0906 150.944 68.4141 145.359 78.1078C144.813 79.0502 144.271 79.9975 143.733 80.9497C138.008 79.31 132.432 77.1895 127.064 74.611C131.499 69.5908 136.063 64.8148 140.755 60.283C145.679 55.5317 150.69 51.1134 155.79 47.0282ZM186.496 28.3079V52.2865C183.1 52.2701 179.707 52.0539 176.336 51.6389C179.265 43.671 182.658 35.8808 186.496 28.3079ZM175.203 51.4909C172.041 51.0584 168.911 50.4218 165.831 49.5852C171.663 42.0293 178.129 34.9841 185.159 28.5262C181.411 35.9884 178.087 43.6554 175.203 51.4909ZM187.596 28.3005C191.436 35.8756 194.83 43.6683 197.76 51.6389C194.388 52.0539 190.994 52.2701 187.596 52.2865V28.3005ZM188.959 28.5299C195.471 34.4505 201.942 41.4813 208.265 49.5852C205.191 50.4211 202.065 51.0577 198.909 51.4909C196.029 43.6573 192.711 35.9916 188.971 28.5299H188.959ZM205.809 44.7376C201.143 39.0345 196.102 33.6483 190.719 28.615C193.865 30.3024 197.017 32.1316 200.175 34.1027C206.138 37.8324 211.89 41.8894 217.403 46.2548C214.829 47.4577 212.165 48.4598 209.436 49.2521C208.235 47.735 207.032 46.2067 205.82 44.7376H205.809ZM164.679 49.2595C161.958 48.4703 159.301 47.4719 156.734 46.2733C165.08 39.609 174.005 33.7031 183.403 28.6261C176.613 34.9857 170.351 41.8863 164.679 49.2595ZM146.333 78.6666C151.965 68.8913 158.235 59.4967 165.102 50.5436C168.297 51.4273 171.547 52.0961 174.832 52.5455C171.213 62.3182 167.706 73.301 164.379 85.2681C157.777 84.3907 151.244 83.0528 144.829 81.2643C145.323 80.3959 145.824 79.53 146.333 78.6666ZM175.943 52.7083C179.445 53.1484 182.97 53.3783 186.5 53.3966V86.789C179.473 86.7728 172.453 86.318 165.483 85.4272C168.835 73.3454 172.347 62.3886 175.943 52.7083ZM186.496 128.159V170.747C173.708 170.732 160.933 169.897 148.252 168.246C150.389 153.962 152.889 139.827 155.712 126.15C165.919 127.473 176.2 128.144 186.493 128.159H186.496ZM186.496 171.854V215.311C171.9 215.3 157.321 214.348 142.848 212.462C144.199 198.164 145.959 183.684 148.089 169.337C160.823 170.997 173.651 171.837 186.493 171.854H186.496ZM186.496 216.421V258.173C170.962 258.161 155.446 257.143 140.044 255.127C140.514 241.669 141.429 227.715 142.744 213.568C157.25 215.455 171.863 216.408 186.493 216.421H186.496ZM187.607 216.421C202.25 216.409 216.877 215.455 231.397 213.565C232.734 227.889 233.619 241.817 234.101 255.124C218.685 257.141 203.155 258.16 187.607 258.173V216.421ZM187.607 215.311V171.854C200.462 171.839 213.302 170.999 226.048 169.337C226.621 173.225 227.173 177.138 227.704 181.075C229.123 191.677 230.319 202.167 231.293 212.458C216.807 214.348 202.213 215.301 187.604 215.311H187.607ZM187.607 170.747V128.159C197.915 128.145 208.211 127.472 218.433 126.146C221.218 139.645 223.719 153.751 225.885 168.242C213.192 169.896 200.405 170.733 187.604 170.747H187.607ZM187.607 127.083V87.8991C194.745 87.8833 201.875 87.4199 208.954 86.5114C212.288 98.5858 215.392 111.515 218.214 125.07C208.063 126.382 197.839 127.048 187.604 127.064L187.607 127.083ZM187.607 86.8075C187.607 74.5296 187.607 63.347 187.607 53.4151C191.139 53.3905 194.665 53.1545 198.168 52.7083C198.22 52.8489 198.275 52.9858 198.327 53.1265C201.953 62.9436 205.409 73.7858 208.65 85.4235C201.67 86.3175 194.641 86.7735 187.604 86.789L187.607 86.8075ZM199.372 52.7638C199.349 52.6972 199.323 52.6343 199.301 52.5714C202.579 52.1141 205.822 51.4379 209.01 50.5473C216.479 60.2994 223.253 70.5637 229.282 81.2643C222.879 83.0527 216.359 84.3931 209.769 85.2755C206.498 73.549 203.02 62.6291 199.368 52.7453L199.372 52.7638ZM210.169 50.2142C212.978 49.3746 215.716 48.3117 218.355 47.0356C228.713 55.3768 238.328 64.5995 247.091 74.5999C241.715 77.1811 236.129 79.3017 230.393 80.9386C224.378 70.2315 217.619 59.9587 210.165 50.1957L210.169 50.2142ZM219.448 46.4879C221.629 45.3644 223.684 44.011 225.578 42.4508C229.282 44.4441 232.973 46.5657 236.649 48.8155C245.05 53.986 253.106 59.6954 260.767 65.9076C256.875 69.101 252.631 71.8398 248.117 74.0707C239.369 64.0663 229.776 54.8319 219.444 46.4694L219.448 46.4879ZM218.511 45.7479C212.838 41.2199 206.911 37.0181 200.761 33.1628C198.022 31.4532 195.287 29.8497 192.556 28.3523C203.578 31.9226 214.265 36.4533 224.493 41.892C222.638 43.3749 220.632 44.6574 218.507 45.7183L218.511 45.7479ZM155.638 45.7479C153.511 44.6856 151.502 43.4018 149.644 41.9179C151.973 40.6845 154.319 39.4979 156.682 38.3582C164.724 34.4656 173.023 31.1274 181.522 28.3671C172.41 33.4039 163.749 39.214 155.634 45.7331L155.638 45.7479ZM154.701 46.4879C149.72 50.5016 144.816 54.836 139.988 59.4911C135.217 64.0969 130.575 68.9691 126.061 74.1077C121.535 71.879 117.281 69.1389 113.382 65.9409C124.355 57.0445 136.135 49.1915 148.57 42.4841C150.463 44.0315 152.517 45.3714 154.697 46.4805L154.701 46.4879ZM125.309 74.981C116.032 85.6585 107.575 97.0202 100.01 108.969C92.7907 105.339 86.5864 101.328 81.4636 96.9799L82.2267 96.0807C91.4433 85.4141 101.569 75.5662 112.489 66.6477C116.429 69.8993 120.729 72.6891 125.305 74.9625L125.309 74.981ZM126.335 75.4917C131.757 78.1258 137.394 80.2947 143.185 81.9748C136.534 93.8892 130.575 106.176 125.338 118.775C117.606 116.561 110.061 113.739 102.773 110.338C102.181 110.057 101.594 109.773 101.014 109.487C108.58 97.5309 117.044 86.1652 126.331 75.488L126.335 75.4917ZM144.277 82.293C150.77 84.121 157.383 85.4886 164.068 86.3856C163.747 87.555 163.426 88.7329 163.105 89.9195C160.116 101.073 157.349 112.821 154.83 124.936C145.23 123.661 135.732 121.707 126.409 119.09C131.649 106.484 137.614 94.1922 144.274 82.2745L144.277 82.293ZM154.608 126.021C151.789 139.712 149.289 153.836 147.152 168.12C135.13 166.521 123.238 164.066 111.567 160.775C115.667 146.982 120.479 133.411 125.983 120.115C135.372 122.752 144.936 124.72 154.604 126.002L154.608 126.021ZM146.981 169.193C144.855 183.536 143.096 198.016 141.744 212.314C128.019 210.495 114.443 207.692 101.121 203.925C103.772 189.725 107.152 175.671 111.248 161.818C122.968 165.125 134.909 167.59 146.981 169.193ZM141.64 213.42C140.321 227.563 139.418 241.517 138.932 254.976C124.33 253.037 109.885 250.055 95.7095 246.05C96.6717 232.287 98.4117 218.588 100.921 205.02C114.275 208.79 127.883 211.597 141.64 213.42ZM139.677 273.437C139.699 267.82 139.81 262.077 140.003 256.241C155.418 258.254 170.947 259.27 186.493 259.283V296.838C170.951 296.83 155.425 295.819 140.014 293.811C139.767 287.353 139.655 280.561 139.677 273.437ZM186.496 297.948V329.061C171.855 329.044 157.23 328.076 142.714 326.164C141.418 316.991 140.518 306.526 140.047 294.933C155.449 296.933 170.965 297.94 186.496 297.948ZM187.607 297.948C203.144 297.938 218.665 296.927 234.071 294.922C233.824 300.936 233.454 306.707 232.96 312.236C232.523 317.17 231.998 321.81 231.386 326.157C216.868 328.068 202.24 329.036 187.596 329.054C187.608 319.947 187.607 309.527 187.604 297.948H187.607ZM187.607 296.838V259.283C203.167 259.271 218.71 258.254 234.138 256.238C234.575 269.47 234.571 282.066 234.116 293.808C218.693 295.817 203.157 296.829 187.604 296.838H187.607ZM235.209 254.957C234.742 241.636 233.838 227.722 232.501 213.402C246.267 211.581 259.884 208.771 273.246 204.994C275.752 218.564 277.483 232.266 278.431 246.032C264.256 250.037 249.811 253.02 235.209 254.957ZM226.985 168.083C224.837 153.607 222.318 139.505 219.533 125.998C229.205 124.705 238.774 122.727 248.165 120.078C253.674 133.376 258.486 146.951 262.582 160.749C250.905 164.042 239.008 166.498 226.982 168.098L226.985 168.083ZM219.311 124.918C216.496 111.371 213.384 98.4452 210.05 86.3671C216.732 85.4689 223.342 84.1001 229.83 82.2708C236.501 94.1777 242.475 106.461 247.721 119.06C238.402 121.683 228.908 123.641 219.311 124.918ZM230.971 81.9452C236.77 80.2612 242.414 78.0861 247.843 75.4436C257.131 86.1161 265.584 97.4864 273.127 109.454C272.538 109.743 271.946 110.031 271.342 110.32C264.069 113.714 256.54 116.532 248.825 118.746C243.591 106.144 237.63 93.8568 230.971 81.9452ZM248.869 74.9144C253.434 72.6422 257.723 69.8549 261.652 66.607C272.561 75.5411 282.675 85.4025 291.881 96.0807L292.648 96.9762C287.529 101.32 281.335 105.328 274.127 108.954C266.588 96.986 258.144 85.6111 248.869 74.9292V74.9144ZM292.725 95.3406C283.52 84.6677 273.409 74.8079 262.508 65.8706C265.662 63.1601 268.338 59.9406 270.427 56.3458C282.806 63.826 294.399 72.5339 305.03 82.3374C303.412 85.2407 301.488 87.9625 299.289 90.4561C297.487 92.5093 295.551 94.4403 293.492 96.2361L292.725 95.3406ZM261.611 65.1564C253.859 58.866 245.705 53.0861 237.201 47.8534C233.65 45.6776 230.066 43.6164 226.448 41.67C227.908 40.3547 229.157 38.8234 230.152 37.1296C240.492 40.842 250.541 45.3183 260.215 50.5214C263.353 52.2063 266.44 53.959 269.475 55.7796C267.612 59.0915 264.96 62.2368 261.622 65.1712L261.611 65.1564ZM225.408 41.1039C215.379 35.746 204.91 31.2546 194.116 27.6788C206.011 29.6911 217.711 32.7218 229.086 36.7374C228.098 38.3786 226.861 39.8566 225.419 41.1187L225.408 41.1039ZM195.682 26.8203C207.491 27.2982 219.238 28.765 230.801 31.2053C230.723 32.7849 230.321 34.3317 229.619 35.7494C218.577 31.8441 207.23 28.8624 195.693 26.8351L195.682 26.8203ZM195.49 25.7102C198.675 25.4216 201.86 25.207 205.043 25.0663C213.207 24.7129 221.385 24.886 229.526 25.5844C230.248 26.9818 230.677 28.5117 230.786 30.0804C219.167 27.6431 207.364 26.1825 195.501 25.7139L195.49 25.7102ZM192.897 23.9599C197.793 21.7664 202.824 19.8841 207.958 18.3242C211.454 17.2708 214.911 16.4074 218.329 15.7339C220.329 16.7185 222.229 17.8933 224.004 19.2419C213.509 19.805 203.093 21.3863 192.904 23.9636L192.897 23.9599ZM207.639 17.2622C201.904 19.0104 196.297 21.1556 190.86 23.6824C191.63 23.0681 192.404 22.465 193.175 21.8803C198.154 18.0606 203.562 14.832 209.287 12.2593C211.818 12.9883 214.293 13.8947 216.696 14.9717C213.703 15.5983 210.686 16.363 207.647 17.2659L207.639 17.2622ZM187.6 23.9229V9.25084C190.873 9.26901 194.143 9.47162 197.394 9.85771C194.186 13.3472 190.904 18.0615 187.607 23.9451L187.6 23.9229ZM186.489 23.8785C183.207 18.0171 179.944 13.3176 176.74 9.817C179.98 9.44621 183.239 9.2572 186.5 9.25084L186.489 23.8785ZM183.233 23.6195C174.997 19.7635 166.356 16.8369 157.471 14.8939C159.873 13.8177 162.348 12.915 164.879 12.1927C170.95 14.8792 177.099 18.7276 183.244 23.6417L183.233 23.6195ZM181.299 23.9599C179.536 23.5196 177.769 23.1014 175.999 22.7166C167.486 20.8445 158.834 19.6664 150.13 19.1938C151.907 17.8471 153.808 16.6724 155.808 15.6858C164.595 17.4822 173.15 20.2653 181.311 23.9821L181.299 23.9599ZM178.929 25.6806C166.951 26.135 155.033 27.6006 143.303 30.0619C143.414 28.4822 143.848 26.942 144.577 25.5363C156.013 24.563 167.514 24.6187 178.94 25.7028L178.929 25.6806ZM178.758 26.7907C167.108 28.8369 155.647 31.842 144.492 35.7753C143.776 34.3474 143.366 32.7858 143.288 31.1905C154.971 28.738 166.84 27.276 178.77 26.8203L178.758 26.7907ZM179.784 27.7454C171.718 30.4441 163.834 33.6603 156.182 37.3739C153.683 38.5802 151.196 39.842 148.722 41.1594C147.271 39.9073 146.022 38.4396 145.018 36.8077C156.336 32.8255 167.97 29.8039 179.796 27.775L179.784 27.7454ZM147.681 41.6663C135.25 48.3962 123.47 56.2637 112.493 65.1675C109.159 62.2294 106.481 59.073 104.621 55.7537C107.656 53.9307 110.743 52.1767 113.882 50.4918C123.561 45.2947 133.618 40.8305 143.966 37.137C144.967 38.8381 146.224 40.3757 147.692 41.6959L147.681 41.6663ZM111.622 65.8854C100.71 74.8106 90.59 84.6607 81.3747 95.3258C81.1191 95.6218 80.8673 95.9253 80.6117 96.2213C78.5557 94.4355 76.6216 92.5144 74.8222 90.4709C72.6374 87.9919 70.7227 85.2877 69.1105 82.404C79.739 72.5952 91.321 63.8708 103.684 56.3606C105.78 59.9677 108.467 63.1975 111.633 65.915L111.622 65.8854ZM80.7487 97.8347C85.8937 102.19 92.1499 106.242 99.4358 109.913C94.2501 118.183 89.3903 126.79 84.9677 135.653C82.8786 139.834 80.8957 144.053 79.0189 148.308C70.0069 143.797 62.2284 138.765 55.7685 133.214C63.0245 120.702 71.3845 108.862 80.7487 97.8347ZM85.9344 136.145C90.3571 127.286 95.1946 118.679 100.406 110.412C101.029 110.716 101.651 111.023 102.288 111.323C109.586 114.731 117.141 117.56 124.883 119.785C119.385 133.084 114.575 146.657 110.474 160.449C104.744 158.788 99.1802 156.923 93.8241 154.854C88.9347 152.967 84.3182 150.95 79.9746 148.804C81.8686 144.553 83.8552 140.334 85.9344 136.145ZM93.4389 155.89C98.8209 157.97 104.414 159.842 110.174 161.515C106.079 175.366 102.699 189.417 100.047 203.614C96.5898 202.61 93.2055 201.548 89.8941 200.428C81.4663 197.607 73.234 194.234 65.2509 190.33C69.0047 176.493 73.78 162.953 79.5375 149.822C83.9058 151.968 88.5421 153.991 93.4463 155.89H93.4389ZM89.5459 201.483C92.9166 202.622 96.3503 203.698 99.8469 204.71C97.337 218.276 95.5908 231.973 94.6168 245.736C93.6093 245.442 92.6055 245.145 91.6054 244.844C79.9368 241.366 68.576 236.93 57.639 231.582C57.8316 229.579 58.0514 227.564 58.2984 225.539C59.738 214.028 61.9656 202.628 64.9657 191.421C72.9315 195.305 81.1423 198.666 89.5459 201.483ZM95.7465 285.9C109.911 289.887 124.343 292.855 138.932 294.781C139.395 306.271 140.284 316.754 141.581 326.012C127.846 324.178 114.26 321.368 100.925 317.605C98.3912 308.117 96.654 297.467 95.7465 285.9ZM141.744 327.152C142.57 332.832 143.551 338.035 144.685 342.694C145.344 345.407 146.052 347.931 146.807 350.265C134.793 348.655 122.91 346.191 111.248 342.89C108.645 338.532 106.438 333.95 104.655 329.198C103.42 325.935 102.295 322.487 101.28 318.856C114.556 322.567 128.078 325.339 141.744 327.152ZM142.877 327.307C157.34 329.196 171.91 330.153 186.496 330.171V352.966C173.622 352.951 160.761 352.103 147.996 350.427C145.94 344.137 144.207 336.366 142.877 327.307ZM187.607 330.171C202.196 330.153 216.768 329.196 231.234 327.307C229.908 336.366 228.197 344.103 226.108 350.439C213.342 352.11 200.482 352.955 187.607 352.966V330.171ZM232.375 327.152C246.046 325.337 259.572 322.564 272.853 318.852C270.305 328.066 266.993 336.155 262.945 342.882C251.264 346.195 239.361 348.668 227.326 350.283C229.367 343.952 231.064 336.214 232.375 327.152ZM232.538 326.009C233.133 321.733 233.645 317.177 234.075 312.339C234.571 306.744 234.942 300.868 235.186 294.777C249.771 292.853 264.198 289.885 278.357 285.896C277.45 297.464 275.716 308.099 273.172 317.598C259.844 321.36 246.265 324.169 232.538 326.005V326.009ZM278.379 296.613C278.846 293.008 279.225 289.325 279.517 285.563C290.864 282.325 301.948 278.227 312.672 273.304C313.934 272.719 315.177 272.125 316.402 271.52C315.109 283.295 312.657 294.133 309.094 303.943C304.678 306.134 300.022 308.208 295.126 310.167C288.573 312.78 281.658 315.14 274.453 317.239C276.194 310.452 277.505 303.563 278.379 296.613ZM282.506 244.844C281.518 245.145 280.53 245.439 279.543 245.725C278.58 231.961 276.835 218.264 274.316 204.698C277.798 203.689 281.217 202.618 284.573 201.483C292.997 198.659 301.228 195.288 309.212 191.392C312.751 204.559 315.197 217.995 316.524 231.563C305.57 236.919 294.192 241.361 282.506 244.844ZM284.21 200.439C280.906 201.559 277.539 202.616 274.109 203.61C271.686 190.63 268.553 177.423 264.741 164.175C264.485 163.287 264.223 162.403 263.96 161.515C269.708 159.846 275.29 157.977 280.665 155.901C285.569 154.007 290.204 151.983 294.57 149.829C300.352 162.945 305.148 176.473 308.92 190.3C300.916 194.217 292.661 197.601 284.21 200.428V200.439ZM280.265 154.865C274.92 156.93 269.364 158.791 263.648 160.453C259.552 146.659 254.747 133.086 249.254 119.785C256.984 117.561 264.528 114.735 271.816 111.334C272.46 111.027 273.094 110.719 273.723 110.409C278.882 118.631 283.697 127.213 288.169 136.156C290.263 140.35 292.249 144.568 294.126 148.811C289.777 150.948 285.157 152.962 280.265 154.854V154.865ZM289.155 135.664C284.71 126.738 279.894 118.154 274.709 109.909C281.984 106.242 288.229 102.194 293.37 97.8458C302.74 108.863 311.107 120.694 318.369 133.199C311.894 138.75 304.112 143.797 295.107 148.315C293.24 144.072 291.259 139.851 289.162 135.653L289.155 135.664ZM269.99 54.799C266.96 52.9834 263.879 51.2306 260.748 49.5408C251.07 44.3371 241.019 39.8572 230.678 36.1379C231.391 34.6715 231.81 33.0801 231.912 31.4532C245.895 34.4722 259.52 38.9586 272.56 44.8376C272.478 48.3109 271.599 51.7189 269.99 54.799ZM231.923 30.3209C231.854 28.7232 231.477 27.1538 230.812 25.6991C244.093 26.9092 257.19 29.6484 269.842 33.8622C271.459 36.8692 272.383 40.1993 272.546 43.609C259.507 37.7717 245.892 33.3179 231.923 30.3209ZM230.234 24.5335C229.321 22.9425 228.177 21.4949 226.841 20.2373C231.009 20.1041 235.136 20.1522 239.22 20.3816C246.688 20.7936 254.105 21.8635 261.385 23.5788C264.379 26.1075 266.956 29.0907 269.023 32.419C256.434 28.332 243.421 25.6865 230.234 24.5335ZM239.283 19.2752C234.794 19.0285 230.252 18.994 225.659 19.1716C223.934 17.7329 222.066 16.4732 220.085 15.412C229.715 13.6839 239.013 13.4619 247.795 14.7274C251.926 16.7543 255.841 19.1929 259.481 22.0061C252.831 20.5662 246.077 19.653 239.283 19.2752ZM218.481 14.5794C216.024 13.3851 213.481 12.377 210.873 11.5636C217.54 8.866 223.974 7.64117 230.075 7.9224C235.044 9.34117 239.906 11.1107 244.624 13.2177C235.89 12.3947 227.082 12.8535 218.481 14.5794ZM209.199 11.0603C206.071 10.1752 202.889 9.49896 199.672 9.03623C203.005 5.78358 206.269 3.94077 209.373 3.62994C215.003 4.3732 220.584 5.44445 226.089 6.83819C220.655 7.14532 214.999 8.56257 209.199 11.0603ZM206.317 3.2488C203.724 4.2183 201.068 6.09441 198.349 8.85121C194.787 8.39616 191.199 8.15889 187.607 8.14072C187.607 5.1582 187.607 3.14519 187.607 2.16828C193.859 2.18445 200.105 2.54517 206.317 3.2488ZM186.5 8.14072C182.923 8.15764 179.351 8.39367 175.803 8.8475C173.086 6.08947 170.433 4.22077 167.843 3.2414C174.037 2.54224 180.266 2.18399 186.5 2.16828V8.14072ZM164.753 3.62994C167.835 3.93337 171.073 5.74287 174.443 9.03252C171.249 9.49503 168.089 10.1662 164.983 11.0418C159.19 8.52556 153.567 7.10832 148.155 6.80118C153.622 5.42626 159.164 4.36742 164.753 3.62994ZM163.312 11.5414C160.7 12.3508 158.153 13.3565 155.693 14.5498C153.965 14.2168 152.251 13.9269 150.552 13.6802C143.629 12.6609 136.609 12.4808 129.642 13.1437C134.339 11.0579 139.176 9.30453 144.118 7.8965C150.319 7.60417 156.756 8.8808 163.312 11.5414ZM150.385 14.7792C151.611 14.9532 152.845 15.1493 154.089 15.3787C152.102 16.44 150.226 17.6996 148.493 19.1383C137.733 18.6652 126.956 19.4852 116.393 21.5806L114.734 21.9284C118.392 19.1118 122.326 16.672 126.476 14.646C134.411 13.5552 142.462 13.6 150.385 14.7792ZM116.6 22.6685C126.701 20.6605 137.001 19.8334 147.292 20.204C145.95 21.4631 144.8 22.9132 143.881 24.5076C137.039 25.1241 130.237 26.1286 123.509 27.516C117.286 28.7965 111.14 30.4223 105.099 32.3857C107.185 29.039 109.787 26.0419 112.807 23.5048C114.069 23.2063 115.337 22.9275 116.612 22.6685H116.6ZM123.727 28.5891C130.189 27.2569 136.719 26.2798 143.288 25.6621C142.62 27.1235 142.243 28.7008 142.177 30.3061C128.211 33.3086 114.6 37.7674 101.566 43.609C101.73 40.1855 102.66 36.8424 104.288 33.8252C110.662 31.6996 117.157 29.9561 123.738 28.6039L123.727 28.5891ZM142.199 31.4532C142.302 33.0947 142.726 34.7001 143.448 36.1786C133.1 39.8798 123.044 44.3475 113.363 49.5445C110.237 51.2245 107.156 52.9784 104.121 54.8064C102.512 51.7237 101.633 48.3132 101.551 44.8376C114.591 38.9586 128.216 34.4722 142.199 31.4532ZM39.7669 116.096C43.0635 121.98 47.7603 127.638 53.8238 133.011C53.9942 133.162 54.1757 133.314 54.3498 133.466C47.32 145.676 41.4494 158.517 36.8148 171.82C29.7363 165.607 24.2209 158.932 20.402 151.92C25.5079 139.298 32.0027 127.283 39.7669 116.096ZM55.1906 134.202C61.7061 139.753 69.518 144.804 78.5263 149.326C72.7746 162.458 68.0006 175.996 64.2434 189.83C53.9313 184.65 45.0304 178.873 37.7148 172.609C42.3231 159.288 48.1741 146.429 55.1906 134.202ZM63.9323 190.918C60.8936 202.245 58.6375 213.767 57.1797 225.402C56.9451 227.294 56.7377 229.177 56.5575 231.049C45.686 225.572 36.2184 219.422 28.4065 212.721C29.8377 200.962 32.3561 189.361 35.9295 178.067C36.3814 176.619 36.853 175.174 37.3444 173.734C44.7044 179.987 53.6312 185.76 63.9471 190.918H63.9323ZM56.5241 270.943C57.7539 282.525 60.1208 293.375 63.6026 303.244C55.0277 298.888 47.4084 294.096 40.8485 288.912C39.715 288.017 38.626 287.11 37.563 286.2C34.3043 278.491 31.8227 270.477 30.1548 262.277C29.5251 259.23 28.9992 256.146 28.5769 253.026C36.2999 259.494 45.6786 265.518 56.5389 270.943H56.5241ZM65.6065 305.479C69.7205 307.484 74.0419 309.39 78.5707 311.196C85.3566 313.905 92.5314 316.343 100.014 318.5C101.073 322.397 102.269 326.101 103.595 329.602C105.265 334.046 107.295 338.347 109.666 342.46C99.357 339.487 89.3267 335.622 79.6894 330.908C74.0184 323.644 69.2883 315.122 65.6213 305.479H65.6065ZM112.078 344.289C123.598 347.486 135.328 349.877 147.181 351.445C149.148 357.214 151.415 361.721 153.937 364.903C144.477 363.608 135.12 361.649 125.935 359.042C120.753 355.553 116.119 350.601 112.093 344.289H112.078ZM226.926 351.441C238.795 349.871 250.54 347.475 262.074 344.27C258.122 350.498 253.507 355.475 248.251 359.012C239.047 361.627 229.671 363.593 220.192 364.896C222.733 361.71 224.989 357.203 226.941 351.441H226.926ZM264.485 342.431L264.752 341.968C268.553 335.308 271.679 327.444 274.105 318.493C281.576 316.339 288.743 313.901 295.522 311.196C300.061 309.385 304.393 307.472 308.52 305.457C306.747 310.151 304.642 314.714 302.223 319.111C299.969 323.211 297.395 327.127 294.526 330.823C284.875 335.559 274.828 339.443 264.5 342.431H264.485ZM333.233 288.912C326.684 294.093 319.076 298.874 310.516 303.222C313.968 293.423 316.328 282.632 317.554 270.939C328.429 265.507 337.804 259.468 345.545 252.981C344.324 262.197 342.129 271.259 338.997 280.013C338.256 282.085 337.459 284.119 336.607 286.115C335.541 287.054 334.415 287.991 333.248 288.912H333.233ZM317.561 231.03C316.214 217.471 313.753 204.045 310.205 190.889C320.513 185.73 329.433 179.958 336.793 173.704C341.101 186.364 344.08 199.438 345.682 212.713C337.896 219.408 328.436 225.558 317.576 231.03H317.561ZM309.912 189.797C306.143 175.972 301.354 162.444 295.585 149.326C304.619 144.793 312.442 139.723 318.965 134.154C323.306 141.728 327.208 149.545 330.651 157.566C332.792 162.555 334.722 167.554 336.441 172.564C329.118 178.844 320.228 184.624 309.927 189.797H309.912ZM331.64 157.145C328.15 149.018 324.192 141.099 319.787 133.429L320.273 133.011C326.351 127.627 331.055 121.954 334.348 116.055C342.108 127.254 348.597 139.28 353.694 151.912C349.894 158.917 344.375 165.604 337.308 171.795C335.626 166.903 333.742 162.019 331.655 157.145H331.64ZM360.162 122.168C363.79 131.886 366.582 141.895 368.507 152.086C366.562 144.394 363.989 136.875 360.814 129.603C360.81 127.11 360.592 124.623 360.162 122.168ZM338.882 93.7753C330.492 83.5096 320.941 74.2488 310.42 66.1778C310.353 61.3605 309.239 56.6154 307.153 52.2717C317.046 59.0094 326.012 67.0137 333.822 76.08C336.926 81.86 338.622 87.8029 338.882 93.7753ZM309.29 65.3082C300.078 58.3458 290.243 52.2476 279.909 47.0911C277.855 46.0624 275.777 45.0756 273.675 44.1308C273.604 40.7526 272.808 37.4289 271.342 34.3839C278.208 36.7492 284.899 39.5932 291.366 42.8949C296.148 45.3439 300.791 48.0543 305.275 51.0135C307.687 55.41 309.061 60.2997 309.29 65.3082ZM287.629 32.0231C279.47 27.8552 270.839 24.6822 261.922 22.5723C258.637 19.8036 255.079 17.3748 251.303 15.3232C257.596 16.5222 263.696 18.5725 269.434 21.4178L269.453 21.377C273.112 23.2001 276.702 25.1403 280.22 27.1978V27.2274C282.858 28.7692 285.326 30.3678 287.625 32.0231H287.629ZM248.121 13.6506C244.412 11.812 240.592 10.2054 236.683 8.8401C237.168 8.95482 237.646 9.07693 238.124 9.21014V9.15833C243.951 10.8309 249.699 12.7971 255.366 15.0568C252.998 14.4795 250.583 14.0108 248.121 13.6506ZM135.988 9.25084C136.465 9.11023 136.947 8.98812 137.428 8.8808C133.579 10.2245 129.815 11.8 126.157 13.5988C123.73 13.9516 121.344 14.4191 119.001 15.0013C124.579 12.781 130.236 10.8507 135.973 9.21014L135.988 9.25084ZM104.677 21.4103C110.457 18.5349 116.601 16.4597 122.942 15.2418C119.154 17.291 115.583 19.7185 112.285 22.4872C103.427 24.5614 94.8518 27.6961 86.7456 31.8233C88.9681 30.2395 91.356 28.7014 93.9093 27.2089V27.1793C97.4282 25.1219 101.017 23.1816 104.677 21.3585V21.4103ZM81.1191 36.2378C90.2742 30.7732 100.176 26.6684 110.515 24.0524C107.723 26.6239 105.358 29.6215 103.507 32.9334C91.7636 36.8666 80.5421 42.2096 70.0884 48.8451C72.7813 44.4453 76.4705 40.2232 81.1191 36.2378ZM102.806 34.3358C101.33 37.3898 100.529 40.7254 100.458 44.116C98.3616 45.0732 96.2836 46.0599 94.2242 47.0763C83.8814 52.2349 74.0385 58.3382 64.8212 65.3082C65.0565 60.2637 66.4507 55.3409 68.8957 50.921C79.4541 43.9978 90.8405 38.4259 102.788 34.3358H102.806ZM63.71 66.1778C53.1883 74.2488 43.6374 83.5096 35.2479 93.7753C35.5109 87.7326 37.2481 81.7194 40.4151 75.8728C47.8383 67.2566 56.321 59.6115 65.6621 53.1191L67.0215 52.1829C64.9092 56.5507 63.779 61.3274 63.71 66.1778ZM13.3346 129.603C10.1471 136.873 7.56161 144.393 5.60425 152.086C7.52967 141.895 10.3215 131.886 13.9495 122.168C13.5192 124.623 13.3011 127.11 13.2976 129.603H13.3346ZM13.4161 132.248C13.7826 137.743 15.1168 143.129 17.3573 148.16C17.9203 149.448 18.5376 150.726 19.2093 151.994C14.4124 163.909 11.0382 176.348 9.15645 189.053C5.59684 181.937 3.77443 174.622 3.75962 167.254C5.46069 155.224 8.69335 143.46 13.3791 132.248H13.4161ZM19.9094 153.263C23.8246 160.201 29.3955 166.803 36.4629 172.953C35.9221 174.544 35.401 176.139 34.8997 177.737C31.3788 188.857 28.872 200.273 27.4101 211.844C26.2717 210.84 25.1704 209.827 24.1061 208.806C18.1092 203.026 13.4087 196.965 10.0306 190.755C11.7972 177.909 15.1014 165.322 19.8723 153.263H19.9094ZM27.3546 251.938C27.8114 255.512 28.3954 259.034 29.1066 262.502C30.6438 270.029 32.858 277.402 35.7221 284.531C29.1029 278.54 23.9616 272.19 20.3835 265.563C15.6601 255.016 12.3438 243.895 10.5195 232.485C14.5755 239.286 20.2279 245.81 27.3175 251.938H27.3546ZM12.2679 246.017C9.78566 238.758 7.76538 231.35 6.21912 223.837C7.03031 225.874 7.95658 227.863 8.99347 229.795C9.73797 235.264 10.8166 240.683 12.2234 246.021L12.2679 246.017ZM36.7147 286.869C40.1398 294.937 44.4903 302.58 49.679 309.645C48.9715 308.905 48.2788 308.139 47.6158 307.377C38.6776 297.116 30.9105 285.892 24.458 273.914C28.0498 278.661 32.1443 283.005 36.6703 286.873L36.7147 286.869ZM60.5134 320.576C66.346 324.823 72.5336 328.561 79.0078 331.748C82.5706 336.323 86.6332 340.487 91.1201 344.163C82.3816 338.851 74.1026 332.819 66.3695 326.131C64.3274 324.357 62.3568 322.507 60.4578 320.58L60.5134 320.576ZM125.464 360.048C125.921 360.352 126.38 360.645 126.842 360.929C124.346 360.066 121.864 359.151 119.397 358.183C121.387 358.84 123.41 359.461 125.464 360.048ZM129.539 361.159C137.924 363.344 146.436 365.009 155.026 366.143C155.897 367.099 156.878 367.947 157.949 368.67C150.526 367.499 143.183 365.87 135.962 363.793V363.741C133.744 363.106 131.596 362.25 129.55 361.185L129.539 361.159ZM156.76 366.369C166.621 367.606 176.55 368.234 186.489 368.249V370.935C178.498 370.917 170.516 370.384 162.594 369.34V369.314C160.546 369.066 158.597 368.067 156.771 366.395L156.76 366.369ZM187.6 368.249C197.545 368.232 207.48 367.604 217.348 366.369C215.495 368.052 213.558 369.04 211.491 369.329V369.355C203.569 370.399 195.587 370.931 187.596 370.95L187.6 368.249ZM219.114 366.136C227.718 365.008 236.243 363.346 244.639 361.159C242.56 362.239 240.377 363.107 238.124 363.749V363.801C230.918 365.873 223.591 367.5 216.184 368.67C217.263 367.956 218.25 367.113 219.125 366.162L219.114 366.136ZM248.747 359.989C250.757 359.412 252.732 358.804 254.673 358.165C252.256 359.117 249.82 360.016 247.365 360.863C247.865 360.607 248.321 360.319 248.777 360.015L248.747 359.989ZM295.263 331.659C301.713 328.476 307.878 324.746 313.69 320.51C311.767 322.441 309.769 324.304 307.697 326.097C300.042 332.717 291.853 338.693 283.213 343.967C287.687 340.338 291.739 336.218 295.292 331.685L295.263 331.659ZM326.506 307.355C325.932 308.014 325.336 308.665 324.729 309.312C329.854 302.316 334.148 294.748 337.526 286.762C342.022 282.919 346.093 278.606 349.668 273.896C343.215 285.874 335.448 297.097 326.51 307.359L326.506 307.355ZM353.843 265.333C350.279 271.994 345.134 278.392 338.493 284.42C339.029 283.085 339.544 281.728 340.037 280.349C343.335 271.129 345.604 261.574 346.805 251.856C353.931 245.691 359.599 239.127 363.692 232.281C361.894 243.692 358.592 254.814 353.872 265.359L353.843 265.333ZM365.218 229.602C366.217 227.724 367.112 225.791 367.899 223.815C366.406 231.08 364.47 238.247 362.103 245.277C363.461 240.128 364.511 234.902 365.247 229.628L365.218 229.602ZM349.972 208.78C348.912 209.801 347.815 210.81 346.679 211.807C345.027 198.563 342.013 185.524 337.685 172.897C344.723 166.755 350.309 160.157 354.217 153.222C359.003 165.271 362.324 177.85 364.11 190.689C360.732 196.931 356.021 203.007 350.001 208.806L349.972 208.78ZM354.909 151.953C355.579 150.687 356.196 149.413 356.761 148.13C359.002 143.099 360.336 137.713 360.702 132.219C365.392 143.43 368.628 155.194 370.333 167.224C370.333 174.566 368.507 181.863 364.966 188.961C363.083 176.284 359.717 163.872 354.939 151.979L354.909 151.953ZM326.51 65.5894C327.961 67.2554 329.321 68.9984 330.585 70.8106C323.244 63.0263 315.029 56.115 306.101 50.2142C303.935 46.2905 301.243 42.6801 298.1 39.4831C301.442 41.745 304.651 44.1988 307.708 46.8321C311.101 49.7653 314.397 52.8304 317.594 56.0276C320.701 59.1334 323.683 62.3293 326.54 65.6153L326.51 65.5894ZM56.4908 56.0646C59.6862 52.8576 62.9815 49.7924 66.3769 46.8691C69.4601 44.2084 72.6941 41.7275 76.0631 39.4387C72.9142 42.6272 70.2139 46.2286 68.0364 50.1439C67.014 50.8174 66.0028 51.5032 65.0027 52.2014C57.3111 57.5527 50.188 63.6767 43.7451 70.4776C44.9032 68.8396 46.1774 67.2176 47.5677 65.6116C50.4272 62.3281 53.4016 59.1458 56.4908 56.0646ZM3.04844 173.245C3.90918 179.456 5.88819 185.46 8.88976 190.966C8.75271 191.999 8.62677 193.035 8.51935 194.067C7.30852 204.84 7.31472 215.715 8.53787 226.486C6.38647 221.949 4.92577 217.116 4.20411 212.147H4.17447C2.99512 203.649 2.40477 195.079 2.40763 186.5C2.40763 182.059 2.62123 177.641 3.04844 173.245ZM369.94 212.155H369.911C369.202 217.055 367.77 221.824 365.662 226.305C366.119 222.291 366.399 218.228 366.503 214.116C366.697 206.36 366.278 198.601 365.251 190.911C368.236 185.422 370.205 179.44 371.063 173.252C371.49 177.644 371.704 182.059 371.704 186.5C371.708 195.082 371.119 203.654 369.94 212.155Z" fill="#0F1014" fill-opacity="0.12"/>
</g>
<defs>
<clipPath id="clip0_931_9027">
<rect width="373" height="373" fill="white"/>
</clipPath>
</defs>
</svg>
