<svg width="120" height="40" viewBox="0 0 120 40" fill="none" xmlns="http://www.w3.org/2000/svg">
<g clip-path="url(#clip0_382_3969)">
<path d="M110.135 0.00013H9.53468C9.16798 0.00013 8.80568 0.00013 8.43995 0.00213C8.1338 0.00413 7.83009 0.00994 7.521 0.01483C6.84951 0.0227318 6.17961 0.0818063 5.5171 0.19154C4.85552 0.303663 4.21467 0.515046 3.61622 0.81854C3.0185 1.1246 2.47235 1.5223 1.99757 1.9972C1.5203 2.47077 1.12246 3.01815 0.81935 3.61829C0.5154 4.21724 0.304641 4.85907 0.19435 5.52161C0.0830109 6.18332 0.0230984 6.85265 0.01515 7.52361C0.00587 7.83021 0.00489 8.13783 0 8.44447V31.5587C0.00489 31.8692 0.00587 32.17 0.01515 32.4806C0.0231008 33.1516 0.0830134 33.8209 0.19435 34.4825C0.304336 35.1455 0.515108 35.7877 0.81935 36.3868C1.12233 36.985 1.52022 37.5302 1.99757 38.0011C2.47054 38.4781 3.01705 38.8761 3.61622 39.1798C4.21467 39.4841 4.85545 39.6968 5.5171 39.8106C6.17972 39.9195 6.84956 39.9786 7.521 39.9874C7.83009 39.9942 8.1338 39.9981 8.43995 39.9981C8.80567 40.0001 9.168 40.0001 9.53468 40.0001H110.135C110.494 40.0001 110.859 40.0001 111.219 39.9981C111.523 39.9981 111.836 39.9942 112.141 39.9874C112.811 39.9791 113.479 39.92 114.141 39.8106C114.804 39.696 115.448 39.4834 116.049 39.1798C116.647 38.8759 117.193 38.478 117.666 38.0011C118.142 37.5284 118.541 36.9836 118.848 36.3868C119.15 35.7872 119.358 35.1451 119.467 34.4825C119.578 33.8208 119.64 33.1516 119.652 32.4806C119.656 32.17 119.656 31.8692 119.656 31.5587C119.664 31.1954 119.664 30.8341 119.664 30.4649V9.53626C119.664 9.17005 119.664 8.80677 119.656 8.44447C119.656 8.13783 119.656 7.83021 119.652 7.52357C119.64 6.85255 119.578 6.18337 119.467 5.52157C119.358 4.85941 119.149 4.21763 118.848 3.61825C118.23 2.41533 117.252 1.43616 116.049 0.81845C115.448 0.515697 114.804 0.30437 114.141 0.19145C113.48 0.0812328 112.811 0.0221378 112.141 0.01469C111.836 0.00981 111.523 0.00395 111.219 0.002C110.859 0 110.494 0.00013 110.135 0.00013Z" fill="#A6A6A6"/>
<path d="M8.44487 39.125C8.14019 39.125 7.84287 39.1211 7.54058 39.1143C6.91436 39.1061 6.2896 39.0516 5.67144 38.9512C5.09503 38.8519 4.53664 38.6673 4.0147 38.4033C3.49754 38.1415 3.02585 37.7983 2.6177 37.3867C2.20364 36.98 1.85891 36.5082 1.59719 35.9902C1.33258 35.4688 1.14945 34.9099 1.05419 34.333C0.951311 33.7131 0.895651 33.0863 0.887687 32.458C0.881347 32.2471 0.873047 31.5449 0.873047 31.5449V8.44434C0.873047 8.44434 0.881887 7.75293 0.887737 7.5498C0.895363 6.92248 0.950699 6.29665 1.05327 5.67773C1.14871 5.09925 1.33197 4.53875 1.59673 4.01563C1.85749 3.49794 2.2003 3.02586 2.61187 2.61768C3.02297 2.20562 3.49617 1.8606 4.01421 1.59521C4.53495 1.33209 5.09228 1.14873 5.66753 1.05127C6.28772 0.949836 6.91465 0.894996 7.54304 0.88721L8.44536 0.875H111.214L112.127 0.8877C112.75 0.895099 113.371 0.94945 113.985 1.05029C114.566 1.14898 115.13 1.33362 115.656 1.59814C116.694 2.13299 117.539 2.97916 118.071 4.01807C118.332 4.53758 118.512 5.09351 118.607 5.66699C118.71 6.29099 118.768 6.92174 118.78 7.5542C118.783 7.8374 118.783 8.1416 118.783 8.44434C118.791 8.81934 118.791 9.17627 118.791 9.53613V30.4648C118.791 30.8281 118.791 31.1826 118.783 31.54C118.783 31.8652 118.783 32.1631 118.779 32.4697C118.768 33.0909 118.711 33.7104 118.608 34.3232C118.515 34.9043 118.333 35.4675 118.068 35.9932C117.805 36.5056 117.462 36.9733 117.053 37.3789C116.644 37.7927 116.172 38.1379 115.653 38.4014C115.128 38.6674 114.566 38.8527 113.985 38.9512C113.367 39.0522 112.742 39.1067 112.116 39.1143C111.823 39.1211 111.517 39.125 111.219 39.125L110.135 39.127L8.44487 39.125Z" fill="black"/>
<path d="M24.768 20.3008C24.7788 19.4662 25.0005 18.6478 25.4125 17.9218C25.8245 17.1959 26.4135 16.5859 27.1246 16.1488C26.6728 15.5036 26.0769 14.9727 25.3841 14.5981C24.6912 14.2236 23.9206 14.0157 23.1334 13.9911C21.4542 13.8148 19.8262 14.9959 18.9705 14.9959C18.0982 14.9959 16.7807 14.0086 15.362 14.0378C14.4443 14.0674 13.55 14.3343 12.7661 14.8123C11.9822 15.2904 11.3356 15.9633 10.8891 16.7656C8.9551 20.1141 10.3977 25.0351 12.2503 27.7417C13.1772 29.0671 14.2605 30.5475 15.6779 30.495C17.065 30.4375 17.583 29.6105 19.2573 29.6105C20.9161 29.6105 21.4021 30.495 22.8483 30.4616C24.3367 30.4375 25.2745 29.1304 26.1688 27.7925C26.8348 26.8481 27.3473 25.8044 27.6873 24.7C26.8225 24.3343 26.0846 23.7221 25.5655 22.9398C25.0464 22.1575 24.769 21.2397 24.768 20.3008Z" fill="white"/>
<path d="M22.0356 12.2108C22.8471 11.2366 23.247 9.98445 23.1501 8.72021C21.9103 8.85044 20.765 9.44299 19.9426 10.3798C19.5404 10.8375 19.2324 11.3699 19.0362 11.9467C18.8399 12.5235 18.7593 13.1333 18.7988 13.7412C19.419 13.7476 20.0325 13.6132 20.5932 13.3481C21.1538 13.083 21.647 12.6942 22.0356 12.2108Z" fill="white"/>
<path d="M42.3008 27.1397H37.5674L36.4307 30.4961H34.4258L38.9092 18.0781H40.9922L45.4756 30.4961H43.4365L42.3008 27.1397ZM38.0576 25.5908H41.8096L39.96 20.1436H39.9082L38.0576 25.5908Z" fill="white"/>
<path d="M55.1573 25.9699C55.1573 28.7834 53.6514 30.591 51.3789 30.591C50.8033 30.6211 50.2308 30.4885 49.727 30.2084C49.2232 29.9283 48.8085 29.5119 48.5303 29.007H48.4873V33.4914H46.6289V21.4426H48.4278V22.9485H48.4619C48.7529 22.446 49.1746 22.0318 49.6823 21.7499C50.1899 21.4681 50.7644 21.3291 51.3448 21.3479C53.6426 21.3479 55.1573 23.1643 55.1573 25.9699ZM53.2471 25.9699C53.2471 24.1369 52.2998 22.9319 50.8545 22.9319C49.4346 22.9319 48.4795 24.1623 48.4795 25.9699C48.4795 27.7942 49.4346 29.0158 50.8545 29.0158C52.2998 29.0158 53.2471 27.8196 53.2471 25.9699Z" fill="white"/>
<path d="M65.1221 25.9699C65.1221 28.7834 63.6162 30.591 61.3438 30.591C60.7681 30.6211 60.1956 30.4885 59.6918 30.2084C59.188 29.9283 58.7733 29.5119 58.4952 29.007H58.4521V33.4914H56.5938V21.4426H58.3926V22.9484H58.4268C58.7177 22.446 59.1394 22.0318 59.6471 21.7499C60.1547 21.4681 60.7292 21.3291 61.3096 21.3479C63.6075 21.3479 65.1221 23.1643 65.1221 25.9699ZM63.2119 25.9699C63.2119 24.1369 62.2647 22.9318 60.8194 22.9318C59.3994 22.9318 58.4444 24.1623 58.4444 25.9699C58.4444 27.7942 59.3994 29.0158 60.8194 29.0158C62.2647 29.0158 63.2119 27.8195 63.2119 25.9699Z" fill="white"/>
<path d="M71.709 27.0362C71.8467 28.2676 73.043 29.0762 74.6778 29.0762C76.2442 29.0762 77.3711 28.2676 77.3711 27.1572C77.3711 26.1934 76.6914 25.6162 75.0821 25.2207L73.4727 24.833C71.1924 24.2822 70.1338 23.2158 70.1338 21.4854C70.1338 19.3428 72.001 17.8711 74.6524 17.8711C77.2764 17.8711 79.0752 19.3428 79.1358 21.4854H77.2598C77.1475 20.2461 76.1231 19.4981 74.626 19.4981C73.1289 19.4981 72.1045 20.2549 72.1045 21.3565C72.1045 22.2344 72.7588 22.751 74.3594 23.1465L75.7275 23.4824C78.2754 24.0849 79.334 25.1084 79.334 26.9248C79.334 29.248 77.4834 30.7031 74.54 30.7031C71.7861 30.7031 69.9268 29.2822 69.8066 27.0361L71.709 27.0362Z" fill="white"/>
<path d="M83.3437 19.2998V21.4424H85.0654V22.9141H83.3437V27.9053C83.3437 28.6807 83.6885 29.042 84.4453 29.042C84.6497 29.0384 84.8538 29.0241 85.0566 28.999V30.4619C84.7164 30.5255 84.3705 30.5543 84.0244 30.5478C82.1914 30.5478 81.4766 29.8593 81.4766 28.1035V22.9141H80.1602V21.4424H81.4765V19.2998H83.3437Z" fill="white"/>
<path d="M86.0645 25.9697C86.0645 23.1211 87.7422 21.3311 90.3584 21.3311C92.9834 21.3311 94.6533 23.1211 94.6533 25.9697C94.6533 28.8262 92.9922 30.6084 90.3584 30.6084C87.7255 30.6084 86.0645 28.8262 86.0645 25.9697ZM92.7598 25.9697C92.7598 24.0156 91.8643 22.8623 90.3584 22.8623C88.8525 22.8623 87.958 24.0244 87.958 25.9697C87.958 27.9316 88.8525 29.0762 90.3584 29.0762C91.8643 29.0762 92.7598 27.9316 92.7598 25.9697Z" fill="white"/>
<path d="M96.1836 21.4425H97.9561V22.9835H97.9991C98.119 22.5022 98.4009 22.0769 98.7975 21.779C99.1941 21.4811 99.6812 21.3288 100.177 21.3478C100.391 21.347 100.605 21.3703 100.814 21.4171V23.1554C100.543 23.0728 100.261 23.0348 99.9785 23.0431C99.7085 23.0321 99.4394 23.0797 99.1895 23.1826C98.9397 23.2855 98.7151 23.4412 98.5311 23.6391C98.3471 23.837 98.2082 24.0724 98.1237 24.3291C98.0393 24.5857 98.0114 24.8576 98.042 25.1261V30.4962H96.1836L96.1836 21.4425Z" fill="white"/>
<path d="M109.382 27.8369C109.132 29.4805 107.531 30.6084 105.483 30.6084C102.85 30.6084 101.215 28.8437 101.215 26.0127C101.215 23.1729 102.858 21.3311 105.405 21.3311C107.91 21.3311 109.485 23.0518 109.485 25.7969V26.4336H103.091V26.5459C103.061 26.8791 103.103 27.2148 103.213 27.5306C103.323 27.8464 103.5 28.1352 103.73 28.3778C103.96 28.6203 104.24 28.8111 104.549 28.9374C104.859 29.0637 105.192 29.1226 105.526 29.1103C105.966 29.1515 106.406 29.0498 106.783 28.8203C107.16 28.5909 107.452 28.246 107.617 27.8369L109.382 27.8369ZM103.1 25.1348H107.626C107.643 24.8352 107.597 24.5354 107.493 24.2541C107.388 23.9729 107.226 23.7164 107.018 23.5006C106.809 23.2849 106.558 23.1145 106.281 23.0003C106.003 22.8861 105.705 22.8305 105.405 22.8369C105.103 22.8351 104.803 22.8933 104.523 23.008C104.243 23.1227 103.988 23.2918 103.774 23.5054C103.559 23.7191 103.389 23.973 103.274 24.2527C103.158 24.5323 103.099 24.8321 103.1 25.1348Z" fill="white"/>
<path d="M36.7393 11.2534H37.5371C37.6744 11.2705 37.8138 11.259 37.9465 11.2195C38.0792 11.1801 38.2022 11.1136 38.3079 11.0242C38.4136 10.9349 38.4997 10.8246 38.5606 10.7003C38.6216 10.576 38.6561 10.4405 38.6621 10.3022C38.6621 9.75193 38.248 9.39646 37.5459 9.39646C37.4052 9.3768 37.262 9.38553 37.1247 9.42214C36.9874 9.45875 36.8588 9.52249 36.7466 9.60961C36.6344 9.69672 36.5407 9.80544 36.4712 9.92935C36.4017 10.0533 36.3577 10.1898 36.3418 10.331H35.4658C35.4809 10.0747 35.5485 9.82428 35.6646 9.59527C35.7807 9.36626 35.9426 9.16359 36.1404 8.99989C36.3382 8.83618 36.5676 8.71494 36.8142 8.64372C37.0609 8.5725 37.3196 8.55282 37.5742 8.58591C38.749 8.58591 39.5762 9.24362 39.5762 10.1904C39.5789 10.5076 39.4728 10.8161 39.2755 11.0645C39.0783 11.3129 38.8018 11.486 38.4922 11.5551V11.6255C38.8592 11.6417 39.2048 11.8027 39.4535 12.073C39.7022 12.3434 39.8337 12.7013 39.8193 13.0683C39.7922 13.3322 39.7126 13.588 39.5853 13.8208C39.458 14.0535 39.2855 14.2585 39.078 14.4237C38.8704 14.5889 38.632 14.7111 38.3766 14.7829C38.1212 14.8548 37.8541 14.875 37.5908 14.8423C37.327 14.8782 37.0587 14.8607 36.8018 14.7907C36.5449 14.7208 36.3047 14.5998 36.0955 14.4351C35.8864 14.2703 35.7126 14.0651 35.5844 13.8317C35.4562 13.5983 35.3764 13.3415 35.3496 13.0766H36.2393C36.293 13.6474 36.8174 14.0156 37.5908 14.0156C38.3643 14.0156 38.8691 13.6021 38.8691 13.0191C38.8691 12.4277 38.3935 12.0635 37.5625 12.0635H36.7393V11.2534Z" fill="white"/>
<path d="M40.8301 13.4243C40.8301 12.6138 41.4346 12.1465 42.5049 12.0801L43.7246 12.0098V11.6211C43.7246 11.1455 43.4111 10.877 42.8027 10.877C42.3066 10.877 41.9639 11.0591 41.8643 11.3774H41.0039C41.0947 10.604 41.8232 10.1079 42.8447 10.1079C43.9736 10.1079 44.6104 10.6699 44.6104 11.6211V14.6978H43.7539V14.0649H43.6836C43.5409 14.2919 43.3405 14.477 43.1029 14.6012C42.8652 14.7254 42.5989 14.7843 42.3311 14.7719C42.142 14.7916 41.951 14.7714 41.7702 14.7127C41.5894 14.654 41.423 14.5581 41.2816 14.4311C41.1402 14.3042 41.0269 14.149 40.9492 13.9756C40.8714 13.8021 40.8308 13.6144 40.8301 13.4243ZM43.7246 13.0395V12.6631L42.625 12.7334C42.0048 12.7749 41.7236 12.9858 41.7236 13.3828C41.7236 13.7881 42.0751 14.0239 42.5586 14.0239C42.7002 14.0383 42.8433 14.024 42.9793 13.9819C43.1153 13.9398 43.2415 13.8708 43.3503 13.7789C43.4591 13.6871 43.5483 13.5743 43.6126 13.4473C43.6769 13.3202 43.715 13.1816 43.7246 13.0395Z" fill="white"/>
<path d="M46.9687 10.9429V14.6978H46.0801V10.1948H49.045V10.9428L46.9687 10.9429Z" fill="white"/>
<path d="M54.4297 12.4443C54.4297 13.875 53.7061 14.7719 52.5693 14.7719C52.2903 14.791 52.0116 14.7299 51.7661 14.5959C51.5206 14.4619 51.3185 14.2606 51.1836 14.0156H51.1133V16.1948H50.2246V10.1948H51.0801V10.939H51.1465C51.2838 10.6854 51.4886 10.4747 51.7381 10.3302C51.9877 10.1857 52.2723 10.113 52.5606 10.1201C53.7061 10.1201 54.4297 11.0131 54.4297 12.4443ZM53.5156 12.4443C53.5156 11.4931 53.0654 10.9184 52.3125 10.9184C51.5645 10.9184 51.0967 11.5053 51.0967 12.4482C51.0967 13.3867 51.5645 13.9741 52.3086 13.9741C53.0654 13.9741 53.5156 13.3994 53.5156 12.4443Z" fill="white"/>
<path d="M55.6133 16.3106V15.5454C55.7095 15.5576 55.8064 15.5632 55.9033 15.562C56.0927 15.576 56.2805 15.5197 56.4308 15.4037C56.5811 15.2877 56.6833 15.1203 56.7178 14.9336L56.7842 14.7144L55.1543 10.1948H56.1221L57.251 13.7715H57.3213L58.4463 10.1948H59.3887L57.71 14.8838C57.3252 15.9795 56.8995 16.3311 55.9815 16.3311C55.9073 16.3311 55.6963 16.3228 55.6133 16.3106Z" fill="white"/>
<path d="M60.082 13.42H60.9668C61.0537 13.817 61.4258 14.024 61.9463 14.024C62.5381 14.024 62.9014 13.7633 62.9014 13.358C62.9014 12.9239 62.5752 12.7169 61.9463 12.7169H61.2725V12.0265H61.9346C62.4717 12.0265 62.7451 11.8199 62.7451 11.4435C62.7451 11.1129 62.4805 10.8605 61.9346 10.8605C61.4375 10.8605 61.0742 11.0714 61.0166 11.4269H60.1602C60.2242 11.0184 60.446 10.6514 60.7778 10.4048C61.1096 10.1581 61.525 10.0516 61.9346 10.108C63.0049 10.108 63.6172 10.5919 63.6172 11.3527C63.6222 11.5645 63.5543 11.7717 63.4249 11.9395C63.2955 12.1073 63.1124 12.2256 62.9062 12.2746V12.3449C63.1517 12.3765 63.377 12.4972 63.5394 12.6839C63.7017 12.8707 63.7899 13.1106 63.7871 13.358C63.7871 14.214 63.0586 14.7804 61.9463 14.7804C60.9629 14.7804 60.1641 14.3297 60.082 13.42Z" fill="white"/>
<path d="M65.0664 14.6978V10.1948H65.9473V13.292H66.0176L68.0928 10.1948H68.9736V14.6978H68.0928V11.584H68.0264L65.9473 14.6978L65.0664 14.6978Z" fill="white"/>
<path d="M73.8272 10.9428H72.4092V14.6977H71.5196V10.9428H70.1016V10.1948H73.8272V10.9428Z" fill="white"/>
<path d="M78.6139 13.482C78.4928 13.8935 78.231 14.2494 77.8742 14.4875C77.5174 14.7257 77.0883 14.8309 76.6618 14.7847C76.3651 14.7926 76.0703 14.7358 75.7978 14.6182C75.5253 14.5007 75.2816 14.3253 75.0837 14.1041C74.8858 13.883 74.7384 13.6214 74.6517 13.3376C74.565 13.0538 74.5411 12.7545 74.5817 12.4605C74.5422 12.1656 74.5665 11.8657 74.653 11.581C74.7395 11.2964 74.8861 11.0336 75.083 10.8105C75.2799 10.5874 75.5224 10.4093 75.7941 10.2881C76.0658 10.1669 76.3604 10.1054 76.6579 10.108C77.9108 10.108 78.6676 10.964 78.6676 12.378V12.6881H75.488V12.7379C75.4739 12.9032 75.4945 13.0696 75.5486 13.2264C75.6027 13.3832 75.6889 13.527 75.8019 13.6485C75.9148 13.77 76.0519 13.8665 76.2044 13.9318C76.3569 13.9972 76.5213 14.0299 76.6872 14.0279C76.8996 14.0533 77.1148 14.0149 77.3054 13.9177C77.496 13.8205 77.6533 13.6689 77.7575 13.482L78.6139 13.482ZM75.4879 12.0308H77.7614C77.7726 11.8798 77.7521 11.7281 77.7012 11.5854C77.6503 11.4427 77.5702 11.3123 77.4659 11.2024C77.3616 11.0926 77.2355 11.0058 77.0957 10.9475C76.9558 10.8893 76.8054 10.861 76.654 10.8643C76.5002 10.8623 76.3476 10.891 76.2052 10.9489C76.0627 11.0068 75.9333 11.0926 75.8246 11.2014C75.7159 11.3101 75.6301 11.4396 75.5723 11.582C75.5145 11.7245 75.4858 11.8771 75.4879 12.0308Z" fill="white"/>
<path d="M82.3809 10.1948H84.4111C85.292 10.1948 85.8086 10.6411 85.8086 11.3398C85.81 11.5615 85.7351 11.777 85.5967 11.9501C85.4582 12.1233 85.2644 12.2436 85.0479 12.291V12.3613C85.3108 12.3779 85.5574 12.4949 85.7366 12.6881C85.9158 12.8813 86.0139 13.1359 86.0107 13.3994C86.0107 14.185 85.4199 14.6977 84.4316 14.6977H82.3809V10.1948ZM83.2617 10.877V12.043H84.1426C84.6797 12.043 84.9365 11.8364 84.9365 11.4556C84.9365 11.1045 84.7129 10.8769 84.2412 10.8769L83.2617 10.877ZM83.2617 12.6963V14.0156H84.3155C84.8409 14.0156 85.1221 13.7837 85.1221 13.3579C85.1221 12.9072 84.8038 12.6963 84.2041 12.6963L83.2617 12.6963Z" fill="white"/>
</g>
<defs>
<clipPath id="clip0_382_3969">
<rect width="119.664" height="40" fill="white"/>
</clipPath>
</defs>
</svg>
