<svg width="336" height="203" viewBox="0 0 336 203" fill="none" xmlns="http://www.w3.org/2000/svg">
<path d="M167.999 142.981C167.779 142.981 167.567 143.069 167.411 143.224C167.256 143.38 167.168 143.592 167.168 143.812V200.813C167.168 201.033 167.256 201.245 167.411 201.4C167.567 201.556 167.779 201.644 167.999 201.644C168.22 201.644 168.431 201.556 168.587 201.4C168.743 201.245 168.83 201.033 168.83 200.813V143.812C168.83 143.592 168.743 143.38 168.587 143.224C168.431 143.069 168.22 142.981 167.999 142.981Z" fill="url(#paint0_linear_382_3877)"/>
<path d="M176.266 143.436C176.219 143.228 176.094 143.045 175.916 142.926C175.738 142.807 175.522 142.762 175.311 142.799C175.101 142.835 174.912 142.952 174.785 143.124C174.658 143.296 174.603 143.51 174.63 143.722L184.558 200.41C184.592 200.603 184.693 200.777 184.842 200.903C184.992 201.028 185.181 201.098 185.376 201.098C185.425 201.103 185.474 201.103 185.522 201.098C185.737 201.058 185.928 200.935 186.052 200.755C186.177 200.575 186.225 200.353 186.187 200.138L176.266 143.436Z" fill="url(#paint1_linear_382_3877)"/>
<path d="M183.597 142.602C183.519 142.401 183.365 142.238 183.169 142.149C182.972 142.059 182.749 142.049 182.546 142.122C182.342 142.194 182.175 142.342 182.079 142.535C181.983 142.728 181.966 142.951 182.031 143.157L201.782 198.91C201.837 199.078 201.944 199.224 202.087 199.327C202.231 199.43 202.403 199.484 202.58 199.482C202.674 199.482 202.767 199.465 202.856 199.432C203.063 199.359 203.233 199.206 203.328 199.007C203.423 198.808 203.435 198.58 203.361 198.372L183.597 142.602Z" fill="url(#paint2_linear_382_3877)"/>
<path d="M190.749 141.325C190.697 141.229 190.626 141.144 190.542 141.075C190.457 141.006 190.359 140.955 190.255 140.924C190.15 140.893 190.04 140.882 189.932 140.894C189.823 140.905 189.718 140.937 189.622 140.989C189.525 141.041 189.441 141.112 189.372 141.196C189.303 141.281 189.251 141.379 189.22 141.483C189.189 141.588 189.179 141.698 189.19 141.806C189.201 141.915 189.234 142.02 189.286 142.116L218.642 196.314C218.713 196.446 218.819 196.556 218.948 196.633C219.077 196.709 219.224 196.75 219.374 196.75C219.512 196.749 219.647 196.715 219.769 196.65C219.962 196.544 220.105 196.366 220.168 196.155C220.23 195.944 220.206 195.716 220.102 195.523L190.749 141.325Z" fill="url(#paint3_linear_382_3877)"/>
<path d="M197.649 139.632C197.583 139.545 197.501 139.471 197.407 139.416C197.313 139.36 197.209 139.324 197.101 139.308C196.993 139.293 196.883 139.299 196.777 139.326C196.672 139.353 196.572 139.401 196.485 139.466C196.398 139.532 196.324 139.614 196.268 139.708C196.213 139.801 196.176 139.905 196.161 140.013C196.145 140.122 196.151 140.232 196.178 140.337C196.205 140.443 196.253 140.542 196.319 140.63L234.958 192.699C235.035 192.803 235.136 192.887 235.251 192.945C235.367 193.003 235.494 193.032 235.623 193.032C235.778 193.032 235.929 192.989 236.06 192.908C236.192 192.827 236.298 192.71 236.367 192.572C236.436 192.434 236.465 192.28 236.451 192.126C236.437 191.972 236.381 191.825 236.288 191.702L197.649 139.632Z" fill="url(#paint4_linear_382_3877)"/>
<path d="M204.223 137.508C204.07 137.349 203.86 137.258 203.64 137.254C203.419 137.25 203.206 137.333 203.047 137.486C202.889 137.639 202.797 137.849 202.793 138.069C202.789 138.29 202.873 138.503 203.026 138.662L250.527 188.025C250.602 188.103 250.693 188.166 250.793 188.21C250.893 188.253 251.001 188.277 251.11 188.279C251.219 188.281 251.328 188.261 251.429 188.221C251.531 188.181 251.623 188.122 251.702 188.046C251.781 187.97 251.844 187.88 251.887 187.78C251.931 187.68 251.954 187.572 251.956 187.463C251.958 187.354 251.939 187.245 251.899 187.144C251.859 187.042 251.799 186.949 251.724 186.871L204.223 137.508Z" fill="url(#paint5_linear_382_3877)"/>
<path d="M210.411 135.008C210.327 134.937 210.23 134.884 210.126 134.851C210.021 134.818 209.911 134.806 209.802 134.816C209.692 134.826 209.586 134.857 209.489 134.908C209.392 134.959 209.306 135.029 209.236 135.113C209.166 135.198 209.114 135.295 209.081 135.4C209.049 135.505 209.038 135.615 209.049 135.724C209.059 135.834 209.092 135.94 209.143 136.036C209.195 136.133 209.266 136.218 209.351 136.288L265.191 182.402C265.274 182.478 265.372 182.537 265.478 182.574C265.584 182.611 265.697 182.626 265.81 182.618C265.922 182.611 266.032 182.58 266.132 182.528C266.232 182.477 266.321 182.405 266.393 182.319C266.465 182.232 266.518 182.131 266.55 182.023C266.581 181.915 266.591 181.801 266.577 181.689C266.564 181.577 266.528 181.469 266.471 181.372C266.414 181.274 266.338 181.189 266.248 181.122L210.411 135.008Z" fill="url(#paint6_linear_382_3877)"/>
<path d="M279.72 174.499L216.136 132.141C216.046 132.077 215.943 132.032 215.834 132.008C215.726 131.984 215.613 131.982 215.504 132.002C215.395 132.022 215.29 132.064 215.198 132.126C215.105 132.187 215.025 132.266 214.964 132.359C214.902 132.451 214.859 132.555 214.839 132.665C214.818 132.774 214.819 132.886 214.843 132.995C214.866 133.104 214.911 133.207 214.975 133.298C215.039 133.389 215.121 133.466 215.215 133.525L278.783 175.875C278.918 175.967 279.078 176.016 279.241 176.015C279.42 176.015 279.594 175.958 279.737 175.852C279.881 175.745 279.986 175.596 280.038 175.425C280.09 175.254 280.085 175.071 280.025 174.903C279.965 174.735 279.852 174.591 279.704 174.492L279.72 174.499Z" fill="url(#paint7_linear_382_3877)"/>
<path d="M291.943 167.077L221.344 128.936C221.15 128.839 220.927 128.822 220.721 128.887C220.515 128.952 220.343 129.095 220.24 129.285C220.138 129.475 220.113 129.698 220.172 129.906C220.231 130.114 220.369 130.291 220.556 130.399L291.152 168.54C291.274 168.605 291.41 168.639 291.548 168.64C291.733 168.64 291.913 168.578 292.059 168.465C292.205 168.351 292.309 168.192 292.354 168.013C292.4 167.833 292.384 167.644 292.31 167.474C292.235 167.305 292.106 167.165 291.943 167.077Z" fill="url(#paint8_linear_382_3877)"/>
<path d="M302.832 158.918L225.974 125.428C225.874 125.381 225.765 125.354 225.653 125.349C225.542 125.344 225.431 125.362 225.327 125.401C225.223 125.44 225.127 125.5 225.046 125.576C224.966 125.653 224.901 125.745 224.857 125.847C224.812 125.949 224.788 126.059 224.787 126.17C224.786 126.281 224.807 126.392 224.849 126.495C224.891 126.598 224.954 126.691 225.033 126.77C225.112 126.848 225.206 126.91 225.309 126.951L302.167 160.457C302.369 160.545 302.598 160.549 302.804 160.469C303.009 160.388 303.174 160.229 303.262 160.026C303.35 159.824 303.355 159.595 303.274 159.39C303.193 159.184 303.034 159.019 302.832 158.931V158.918Z" fill="url(#paint9_linear_382_3877)"/>
<path d="M312.248 150.153L229.978 121.651C229.875 121.615 229.765 121.6 229.656 121.606C229.547 121.613 229.44 121.641 229.342 121.688C229.244 121.736 229.156 121.803 229.083 121.884C229.011 121.966 228.955 122.061 228.919 122.165C228.883 122.268 228.868 122.377 228.874 122.486C228.881 122.595 228.909 122.702 228.957 122.801C229.004 122.899 229.071 122.987 229.153 123.059C229.234 123.132 229.329 123.188 229.433 123.224L311.703 151.722C311.791 151.753 311.883 151.769 311.976 151.769C312.172 151.768 312.362 151.699 312.511 151.572C312.661 151.445 312.761 151.269 312.794 151.076C312.827 150.882 312.79 150.684 312.69 150.515C312.59 150.346 312.434 150.218 312.248 150.153Z" fill="url(#paint10_linear_382_3877)"/>
<path d="M320.092 140.833L233.31 117.648C233.098 117.595 232.874 117.628 232.686 117.738C232.499 117.849 232.362 118.029 232.305 118.24C232.249 118.45 232.278 118.675 232.386 118.864C232.493 119.054 232.671 119.194 232.881 119.254L319.663 142.439C319.733 142.456 319.804 142.465 319.876 142.466C320.077 142.464 320.27 142.391 320.421 142.258C320.571 142.125 320.669 141.942 320.695 141.743C320.722 141.544 320.675 141.343 320.564 141.175C320.453 141.008 320.286 140.886 320.092 140.833Z" fill="url(#paint11_linear_382_3877)"/>
<path d="M326.269 131.07L235.919 113.448C235.812 113.426 235.702 113.426 235.594 113.446C235.487 113.467 235.385 113.509 235.293 113.569C235.202 113.63 235.124 113.708 235.062 113.798C235.001 113.889 234.959 113.991 234.937 114.098C234.915 114.205 234.914 114.316 234.935 114.423C234.956 114.53 234.998 114.633 235.058 114.724C235.119 114.815 235.196 114.894 235.287 114.955C235.378 115.016 235.48 115.059 235.587 115.08L325.937 132.703C325.99 132.713 326.043 132.719 326.097 132.72C326.317 132.741 326.537 132.673 326.708 132.533C326.879 132.392 326.986 132.189 327.008 131.968C327.029 131.748 326.961 131.528 326.821 131.357C326.68 131.186 326.477 131.078 326.256 131.057L326.269 131.07Z" fill="url(#paint12_linear_382_3877)"/>
<path d="M330.722 120.976L237.798 109.126C237.689 109.112 237.578 109.12 237.472 109.149C237.366 109.178 237.266 109.228 237.18 109.295C237.093 109.363 237.02 109.447 236.965 109.542C236.911 109.638 236.876 109.743 236.862 109.852C236.848 109.961 236.856 110.072 236.885 110.178C236.914 110.284 236.964 110.384 237.031 110.471C237.099 110.558 237.183 110.63 237.278 110.685C237.374 110.739 237.479 110.774 237.589 110.788L330.512 122.639C330.548 122.642 330.583 122.642 330.619 122.639C330.839 122.652 331.056 122.578 331.222 122.431C331.387 122.285 331.488 122.079 331.502 121.859C331.515 121.638 331.441 121.421 331.295 121.256C331.148 121.09 330.942 120.99 330.722 120.976Z" fill="url(#paint13_linear_382_3877)"/>
<path d="M333.392 110.658L238.912 104.7C238.803 104.693 238.693 104.708 238.59 104.743C238.486 104.779 238.391 104.834 238.309 104.907C238.227 104.979 238.16 105.067 238.112 105.165C238.064 105.264 238.036 105.37 238.029 105.48C238.022 105.589 238.037 105.698 238.072 105.802C238.108 105.905 238.164 106 238.236 106.082C238.308 106.164 238.396 106.231 238.494 106.279C238.593 106.327 238.7 106.356 238.809 106.362L333.285 112.317H333.338C333.559 112.324 333.773 112.244 333.934 112.093C334.095 111.942 334.189 111.733 334.196 111.513C334.203 111.292 334.122 111.078 333.972 110.917C333.821 110.756 333.612 110.662 333.392 110.655V110.658Z" fill="url(#paint14_linear_382_3877)"/>
<path d="M334.25 100.231H239.251C239.031 100.231 238.819 100.319 238.663 100.475C238.508 100.631 238.42 100.842 238.42 101.063C238.42 101.283 238.508 101.495 238.663 101.65C238.819 101.806 239.031 101.894 239.251 101.894H334.25C334.47 101.894 334.682 101.806 334.838 101.65C334.993 101.495 335.081 101.283 335.081 101.063C335.081 100.842 334.993 100.631 334.838 100.475C334.682 100.319 334.47 100.231 334.25 100.231Z" fill="url(#paint15_linear_382_3877)"/>
<path d="M238.031 96.6468C238.044 96.8573 238.137 97.0549 238.291 97.1993C238.445 97.3438 238.648 97.4244 238.859 97.4248H238.912L333.392 91.4664C333.501 91.4595 333.608 91.431 333.706 91.3828C333.804 91.3346 333.892 91.2675 333.964 91.1854C334.036 91.1032 334.092 91.0077 334.127 90.9042C334.162 90.8006 334.177 90.6911 334.17 90.582C334.163 90.4728 334.134 90.3661 334.086 90.2679C334.038 90.1698 333.971 90.082 333.889 90.0098C333.807 89.9375 333.711 89.8822 333.608 89.8468C333.504 89.8115 333.395 89.797 333.285 89.8039L238.822 95.7623C238.712 95.7679 238.604 95.7952 238.504 95.8427C238.405 95.8903 238.316 95.9571 238.242 96.0394C238.168 96.1216 238.112 96.2177 238.076 96.322C238.039 96.4262 238.024 96.5366 238.031 96.6468Z" fill="url(#paint16_linear_382_3877)"/>
<path d="M236.868 92.278C236.893 92.479 236.991 92.6639 237.142 92.798C237.294 92.9321 237.49 93.0061 237.692 93.0062H237.799L330.722 81.1559C330.943 81.1281 331.143 81.0139 331.28 80.8384C331.416 80.6628 331.477 80.4404 331.449 80.2199C331.421 79.9994 331.307 79.799 331.131 79.6628C330.956 79.5265 330.733 79.4656 330.513 79.4934L237.589 91.3503C237.371 91.3777 237.172 91.4909 237.036 91.6648C236.901 91.8388 236.84 92.0593 236.868 92.278Z" fill="url(#paint17_linear_382_3877)"/>
<path d="M234.946 88.0121C234.984 88.1996 235.087 88.368 235.235 88.489C235.383 88.6101 235.569 88.6765 235.76 88.6771C235.814 88.6818 235.869 88.6818 235.923 88.6771L326.273 71.0546C326.49 71.0105 326.68 70.8822 326.802 70.698C326.924 70.5137 326.967 70.2886 326.923 70.0721C326.879 69.8556 326.751 69.6655 326.567 69.5436C326.382 69.4217 326.157 69.3779 325.941 69.422L235.591 87.0445C235.378 87.0902 235.192 87.2168 235.072 87.3975C234.951 87.5781 234.906 87.7986 234.946 88.0121Z" fill="url(#paint18_linear_382_3877)"/>
<path d="M232.285 83.889C232.333 84.0662 232.437 84.2228 232.583 84.3346C232.728 84.4464 232.906 84.5071 233.09 84.5074C233.162 84.5073 233.233 84.4972 233.303 84.4775L320.085 61.2923C320.295 61.2325 320.473 61.0927 320.58 60.9031C320.688 60.7134 320.717 60.489 320.66 60.2784C320.604 60.0677 320.467 59.8876 320.279 59.7768C320.092 59.6661 319.868 59.6336 319.656 59.6863L232.874 82.8715C232.661 82.9292 232.48 83.0685 232.37 83.2591C232.26 83.4496 232.229 83.676 232.285 83.889Z" fill="url(#paint19_linear_382_3877)"/>
<path d="M228.917 79.9589C228.973 80.1225 229.08 80.2643 229.221 80.3644C229.362 80.4646 229.531 80.5181 229.705 80.5175C229.797 80.5175 229.889 80.5029 229.977 80.4743L312.248 51.9724C312.354 51.9395 312.453 51.8855 312.539 51.8136C312.624 51.7416 312.694 51.6532 312.745 51.5536C312.795 51.4539 312.825 51.3452 312.833 51.2338C312.84 51.1224 312.825 51.0106 312.788 50.9051C312.752 50.7996 312.694 50.7026 312.619 50.6199C312.544 50.5371 312.453 50.4703 312.352 50.4234C312.251 50.3766 312.141 50.3506 312.029 50.3471C311.918 50.3436 311.807 50.3626 311.702 50.403L229.432 78.9016C229.329 78.9371 229.233 78.9926 229.152 79.065C229.07 79.1374 229.003 79.2252 228.955 79.3234C228.907 79.4216 228.879 79.5283 228.873 79.6373C228.866 79.7464 228.881 79.8557 228.917 79.9589Z" fill="url(#paint20_linear_382_3877)"/>
<path d="M224.88 76.2678C224.945 76.4159 225.051 76.542 225.186 76.6306C225.321 76.7192 225.48 76.7664 225.641 76.7665C225.756 76.7661 225.869 76.7423 225.974 76.6967L302.831 43.2073C303.034 43.1191 303.193 42.9541 303.273 42.7487C303.354 42.5432 303.35 42.3141 303.262 42.1117C303.174 41.9093 303.009 41.7503 302.803 41.6695C302.598 41.5888 302.369 41.5929 302.166 41.6811L225.309 75.1738C225.107 75.2621 224.948 75.4269 224.868 75.632C224.787 75.8371 224.792 76.0658 224.88 76.2678Z" fill="url(#paint21_linear_382_3877)"/>
<path d="M220.219 72.8532C220.271 72.9489 220.341 73.0334 220.425 73.1019C220.51 73.1705 220.607 73.2216 220.712 73.2525C220.816 73.2834 220.925 73.2934 221.034 73.2819C221.142 73.2705 221.247 73.2377 221.343 73.1857L291.942 35.0446C292.136 34.9397 292.281 34.762 292.344 34.5506C292.407 34.3392 292.383 34.1114 292.278 33.9174C292.173 33.7234 291.995 33.579 291.784 33.5161C291.573 33.4531 291.345 33.4767 291.151 33.5816L220.554 71.726C220.458 71.7776 220.373 71.8478 220.304 71.9325C220.235 72.0172 220.183 72.1148 220.152 72.2196C220.12 72.3244 220.11 72.4343 220.122 72.5431C220.133 72.6518 220.166 72.7572 220.219 72.8532Z" fill="url(#paint22_linear_382_3877)"/>
<path d="M214.982 69.7545C215.059 69.8682 215.162 69.9613 215.283 70.0256C215.404 70.09 215.54 70.1236 215.677 70.1235C215.84 70.1245 216 70.0758 216.136 69.9839L279.72 27.6267C279.814 27.5678 279.896 27.4906 279.959 27.3996C280.023 27.3086 280.068 27.2057 280.092 27.097C280.115 26.9883 280.117 26.876 280.096 26.7667C280.075 26.6574 280.033 26.5534 279.971 26.4609C279.91 26.3683 279.83 26.289 279.737 26.2278C279.644 26.1665 279.54 26.1245 279.431 26.1042C279.322 26.084 279.209 26.0859 279.101 26.1098C278.992 26.1337 278.889 26.1792 278.799 26.2435L215.215 68.6007C215.031 68.7232 214.904 68.9133 214.86 69.1295C214.817 69.3457 214.86 69.5704 214.982 69.7545Z" fill="url(#paint23_linear_382_3877)"/>
<path d="M209.23 67.0079C209.309 67.1018 209.407 67.1772 209.518 67.229C209.629 67.2807 209.749 67.3074 209.872 67.3072C210.065 67.3081 210.252 67.241 210.401 67.1176L266.237 21.0032C266.328 20.9359 266.404 20.851 266.46 20.7535C266.517 20.656 266.553 20.548 266.566 20.4361C266.58 20.3242 266.571 20.2107 266.539 20.1025C266.507 19.9943 266.454 19.8937 266.382 19.8068C266.31 19.7198 266.222 19.6484 266.121 19.5969C266.021 19.5453 265.911 19.5147 265.799 19.5069C265.687 19.4991 265.574 19.5142 265.467 19.5514C265.361 19.5885 265.263 19.6469 265.18 19.7231L209.35 65.8375C209.265 65.9065 209.195 65.9914 209.143 66.0876C209.091 66.1837 209.058 66.2892 209.047 66.3979C209.036 66.5066 209.047 66.6164 209.078 66.7211C209.109 66.8258 209.161 66.9232 209.23 67.0079Z" fill="url(#paint24_linear_382_3877)"/>
<path d="M203.049 64.6373C203.207 64.79 203.42 64.8736 203.64 64.8699C203.86 64.8661 204.069 64.7753 204.222 64.6173L251.723 15.2543C251.876 15.0956 251.96 14.8826 251.956 14.6622C251.952 14.4418 251.861 14.232 251.702 14.079C251.543 13.926 251.33 13.8423 251.11 13.8463C250.889 13.8504 250.679 13.9418 250.526 14.1006L203.025 63.4635C202.95 63.542 202.89 63.6346 202.85 63.7362C202.81 63.8377 202.791 63.9461 202.793 64.0552C202.795 64.1643 202.819 64.2719 202.863 64.3717C202.907 64.4716 202.97 64.5619 203.049 64.6373Z" fill="url(#paint25_linear_382_3877)"/>
<path d="M196.485 62.6754C196.663 62.8061 196.885 62.8613 197.103 62.8289C197.321 62.7965 197.517 62.6792 197.649 62.5025L236.289 10.433C236.421 10.2567 236.478 10.035 236.447 9.81672C236.416 9.59847 236.299 9.40155 236.123 9.26927C236.035 9.20378 235.936 9.15612 235.83 9.12903C235.724 9.10194 235.614 9.09595 235.506 9.11138C235.288 9.14256 235.091 9.25915 234.959 9.43552L196.312 61.5117C196.247 61.5994 196.2 61.6991 196.173 61.8051C196.147 61.9111 196.141 62.0213 196.157 62.1294C196.174 62.2375 196.211 62.3413 196.267 62.435C196.323 62.5287 196.397 62.6104 196.485 62.6754Z" fill="url(#paint26_linear_382_3877)"/>
<path d="M189.613 61.1357C189.807 61.2411 190.034 61.2652 190.246 61.2028C190.457 61.1405 190.635 60.9968 190.74 60.8032L220.097 6.60575C220.149 6.50969 220.181 6.40433 220.193 6.2957C220.204 6.18707 220.194 6.07727 220.162 5.97261C220.131 5.86794 220.08 5.77044 220.011 5.68568C219.942 5.60091 219.857 5.53054 219.761 5.47857C219.665 5.42661 219.56 5.39408 219.451 5.38284C219.342 5.37159 219.233 5.38186 219.128 5.41304C219.023 5.44423 218.926 5.49572 218.841 5.56458C218.756 5.63345 218.686 5.71834 218.634 5.8144L189.281 60.0086C189.175 60.2022 189.151 60.4296 189.214 60.641C189.276 60.8524 189.42 61.0303 189.613 61.1357Z" fill="url(#paint27_linear_382_3877)"/>
<path d="M182.537 60.0287C182.626 60.0613 182.719 60.0781 182.813 60.0785C182.986 60.0787 183.154 60.0253 183.294 59.9258C183.435 59.8264 183.541 59.6857 183.598 59.5233L203.349 3.76967C203.414 3.56408 203.397 3.34113 203.301 3.14793C203.205 2.95473 203.038 2.8064 202.834 2.73431C202.631 2.66222 202.407 2.672 202.211 2.76159C202.015 2.85117 201.861 3.01354 201.783 3.21439L182.032 58.968C181.959 59.1757 181.97 59.404 182.065 59.6029C182.16 59.8018 182.33 59.9549 182.537 60.0287Z" fill="url(#paint28_linear_382_3877)"/>
<path d="M175.315 59.3639C175.362 59.3688 175.41 59.3688 175.458 59.3639C175.653 59.3637 175.842 59.2945 175.992 59.1686C176.141 59.0428 176.242 58.8682 176.276 58.6756L186.207 1.98766C186.245 1.77029 186.195 1.54675 186.068 1.36623C185.941 1.18571 185.748 1.063 185.531 1.02508C185.313 0.987157 185.09 1.03714 184.909 1.16403C184.729 1.29092 184.606 1.48434 184.568 1.70172L174.63 58.4029C174.611 58.5111 174.613 58.622 174.638 58.7291C174.662 58.8362 174.707 58.9374 174.771 59.0268C174.835 59.1163 174.916 59.1921 175.009 59.25C175.102 59.3078 175.206 59.3466 175.315 59.3639Z" fill="url(#paint29_linear_382_3877)"/>
<path d="M167.999 0.481445C167.779 0.481445 167.567 0.569025 167.411 0.724915C167.256 0.880804 167.168 1.09223 167.168 1.3127V58.3132C167.168 58.5336 167.256 58.7451 167.411 58.9009C167.567 59.0568 167.779 59.1444 167.999 59.1444C168.22 59.1444 168.431 59.0568 168.587 58.9009C168.743 58.7451 168.83 58.5336 168.83 58.3132V1.3127C168.83 1.09223 168.743 0.880804 168.587 0.724915C168.431 0.569025 168.22 0.481445 167.999 0.481445Z" fill="url(#paint30_linear_382_3877)"/>
<path d="M151.441 1.7149C151.403 1.49752 151.28 1.30412 151.1 1.17722C150.919 1.05033 150.695 1.00034 150.478 1.03826C150.261 1.07618 150.067 1.1989 149.94 1.37942C149.814 1.55994 149.764 1.78348 149.801 2.00085L159.733 58.6888C159.767 58.8814 159.867 59.056 160.017 59.1818C160.166 59.3077 160.356 59.3768 160.551 59.377C160.599 59.382 160.647 59.382 160.694 59.377C160.91 59.3374 161.1 59.214 161.225 59.0339C161.35 58.8538 161.398 58.6317 161.359 58.4161L151.441 1.7149Z" fill="url(#paint31_linear_382_3877)"/>
<path d="M152.402 59.5235C152.459 59.6859 152.565 59.8266 152.706 59.9261C152.846 60.0255 153.014 60.0789 153.186 60.0788C153.28 60.0784 153.374 60.0615 153.462 60.0289C153.67 59.9552 153.84 59.802 153.934 59.6031C154.029 59.4043 154.041 59.1759 153.968 58.9682L134.217 3.21462C134.183 3.10839 134.129 3.01005 134.056 2.92543C133.983 2.84082 133.895 2.77166 133.795 2.72207C133.695 2.67247 133.586 2.64346 133.475 2.63676C133.364 2.63005 133.252 2.6458 133.147 2.68305C133.042 2.7203 132.946 2.77829 132.863 2.85358C132.781 2.92887 132.715 3.01993 132.669 3.12132C132.623 3.22272 132.597 3.33239 132.594 3.44381C132.591 3.55523 132.61 3.66612 132.651 3.76989L152.402 59.5235Z" fill="url(#paint32_linear_382_3877)"/>
<path d="M145.25 60.7998C145.354 60.9938 145.532 61.1382 145.744 61.2012C145.955 61.2642 146.183 61.2406 146.377 61.1356C146.571 61.0307 146.715 60.853 146.778 60.6416C146.841 60.4302 146.817 60.2025 146.713 60.0085L117.356 5.81098C117.304 5.71491 117.234 5.63003 117.149 5.56116C117.064 5.4923 116.967 5.4408 116.862 5.40962C116.757 5.37843 116.648 5.36818 116.539 5.37942C116.43 5.39066 116.325 5.42319 116.229 5.47515C116.133 5.52711 116.048 5.59748 115.979 5.68225C115.91 5.76702 115.859 5.86452 115.828 5.96919C115.796 6.07386 115.786 6.18364 115.797 6.29227C115.809 6.40091 115.841 6.50627 115.893 6.60233L145.25 60.7998Z" fill="url(#paint33_linear_382_3877)"/>
<path d="M138.35 62.4927C138.416 62.5801 138.498 62.6536 138.592 62.7093C138.686 62.7649 138.79 62.8014 138.898 62.8169C139.006 62.8323 139.116 62.8263 139.222 62.7992C139.327 62.7721 139.427 62.7245 139.514 62.659C139.601 62.5935 139.675 62.5114 139.73 62.4175C139.786 62.3236 139.823 62.2196 139.838 62.1115C139.854 62.0035 139.848 61.8934 139.82 61.7877C139.793 61.6819 139.746 61.5826 139.68 61.4952L101.047 9.44237C100.982 9.35504 100.899 9.28146 100.806 9.22585C100.712 9.17023 100.608 9.13365 100.5 9.11822C100.392 9.10278 100.281 9.10878 100.176 9.13587C100.07 9.16296 99.9706 9.21062 99.8833 9.27612C99.796 9.34161 99.7224 9.42367 99.6668 9.5176C99.6112 9.61153 99.5746 9.71549 99.5591 9.82355C99.5437 9.93162 99.5497 10.0417 99.5768 10.1474C99.6039 10.2532 99.6515 10.3525 99.717 10.4399L138.35 62.4927Z" fill="url(#paint34_linear_382_3877)"/>
<path d="M131.777 64.6173C131.93 64.776 132.139 64.8675 132.36 64.8715C132.58 64.8756 132.793 64.7919 132.952 64.6389C133.111 64.4859 133.202 64.2761 133.206 64.0557C133.21 63.8353 133.127 63.6222 132.974 63.4635L85.4727 14.1006C85.3197 13.9418 85.1099 13.8504 84.8895 13.8463C84.6691 13.8423 84.4561 13.926 84.2974 14.079C84.1386 14.232 84.0472 14.4418 84.0431 14.6622C84.0391 14.8826 84.1227 15.0956 84.2757 15.2543L131.777 64.6173Z" fill="url(#paint35_linear_382_3877)"/>
<path d="M125.59 67.1176C125.738 67.241 125.926 67.3081 126.119 67.3072C126.289 67.3071 126.456 67.2544 126.596 67.1563C126.736 67.0582 126.842 66.9194 126.9 66.7589C126.958 66.5983 126.965 66.4237 126.921 66.2588C126.876 66.094 126.782 65.9469 126.651 65.8375L70.8106 19.7231C70.7275 19.6469 70.6297 19.5885 70.5233 19.5514C70.4168 19.5142 70.304 19.4991 70.1915 19.5069C70.079 19.5147 69.9693 19.5453 69.8691 19.5969C69.7688 19.6484 69.6801 19.7198 69.6083 19.8068C69.5365 19.8937 69.4832 19.9943 69.4515 20.1025C69.4198 20.2107 69.4104 20.3242 69.424 20.4361C69.4376 20.548 69.4737 20.656 69.5303 20.7535C69.5869 20.851 69.6628 20.9359 69.7532 21.0032L125.59 67.1176Z" fill="url(#paint36_linear_382_3877)"/>
<path d="M56.2973 27.6264L119.865 69.9836C120 70.0751 120.16 70.1238 120.323 70.1232C120.502 70.1234 120.676 70.0662 120.819 69.96C120.963 69.8538 121.068 69.7042 121.12 69.5334C121.172 69.3626 121.167 69.1796 121.107 69.0116C121.047 68.8436 120.934 68.6994 120.786 68.6004L57.2183 26.2498C57.1276 26.1855 57.0249 26.14 56.9163 26.1161C56.8077 26.0922 56.6953 26.0903 56.586 26.1106C56.4766 26.1309 56.3725 26.1729 56.2796 26.2341C56.1868 26.2954 56.1072 26.3746 56.0456 26.4672C55.984 26.5598 55.9415 26.6638 55.9208 26.773C55.9001 26.8823 55.9015 26.9946 55.925 27.1033C55.9484 27.212 55.9935 27.3149 56.0574 27.4059C56.1214 27.4969 56.2029 27.5741 56.2973 27.633V27.6264Z" fill="url(#paint37_linear_382_3877)"/>
<path d="M44.0571 35.048L114.657 73.1891C114.85 73.2857 115.073 73.3033 115.279 73.2381C115.485 73.1729 115.658 73.03 115.76 72.8398C115.863 72.6496 115.887 72.4269 115.828 72.219C115.769 72.0111 115.632 71.8343 115.445 71.7261L44.8484 33.585C44.6544 33.4801 44.4267 33.4565 44.2153 33.5195C44.0039 33.5825 43.8262 33.7268 43.7213 33.9208C43.6163 34.1149 43.5927 34.3426 43.6557 34.554C43.7187 34.7654 43.8631 34.9431 44.0571 35.048Z" fill="url(#paint38_linear_382_3877)"/>
<path d="M33.1678 43.2074L110.025 76.6968C110.13 76.7424 110.243 76.7662 110.358 76.7666C110.549 76.7664 110.733 76.7006 110.881 76.5801C111.029 76.4597 111.131 76.292 111.17 76.1053C111.209 75.9185 111.183 75.724 111.096 75.5544C111.008 75.3848 110.865 75.2505 110.69 75.174L33.8328 41.6679C33.6305 41.5797 33.4013 41.5756 33.1959 41.6563C32.9904 41.7371 32.8254 41.8961 32.7373 42.0985C32.6491 42.3009 32.6449 42.53 32.7257 42.7355C32.8064 42.9409 32.9655 43.1059 33.1678 43.1941V43.2074Z" fill="url(#paint39_linear_382_3877)"/>
<path d="M23.7508 51.9724L106.021 80.4743C106.109 80.5029 106.201 80.5175 106.294 80.5175C106.49 80.5171 106.68 80.4474 106.83 80.3206C106.979 80.1937 107.079 80.018 107.112 79.8246C107.145 79.6311 107.108 79.4323 107.008 79.2634C106.908 79.0945 106.752 78.9663 106.567 78.9016L24.2961 50.403C24.192 50.3626 24.0808 50.3436 23.9692 50.3471C23.8576 50.3506 23.7478 50.3766 23.6464 50.4234C23.5451 50.4703 23.4542 50.5371 23.3793 50.6199C23.3043 50.7026 23.2468 50.7996 23.2101 50.9051C23.1735 51.0106 23.1584 51.1224 23.1659 51.2338C23.1734 51.3452 23.2033 51.4539 23.2538 51.5536C23.3042 51.6532 23.3743 51.7416 23.4596 51.8136C23.545 51.8855 23.644 51.9395 23.7508 51.9724Z" fill="url(#paint40_linear_382_3877)"/>
<path d="M15.9076 61.2921L102.69 84.4773C102.759 84.4971 102.831 84.5072 102.903 84.5073C103.106 84.5091 103.302 84.4367 103.456 84.3037C103.609 84.1706 103.708 83.9861 103.735 83.7849C103.761 83.5838 103.713 83.3798 103.6 83.2115C103.486 83.0433 103.315 82.9223 103.119 82.8714L16.3365 59.6861C16.2304 59.6559 16.1193 59.6471 16.0098 59.6602C15.9002 59.6733 15.7944 59.7081 15.6984 59.7625C15.6025 59.817 15.5183 59.89 15.4508 59.9773C15.3834 60.0646 15.334 60.1645 15.3055 60.271C15.277 60.3776 15.2701 60.4889 15.285 60.5982C15.3 60.7075 15.3365 60.8127 15.3926 60.9078C15.4486 61.0028 15.523 61.0857 15.6114 61.1517C15.6998 61.2177 15.8005 61.2654 15.9076 61.2921Z" fill="url(#paint41_linear_382_3877)"/>
<path d="M9.7293 71.0546L100.08 88.6771C100.134 88.6818 100.188 88.6818 100.242 88.6771C100.463 88.6978 100.683 88.6301 100.853 88.4889C101.024 88.3477 101.131 88.1444 101.152 87.924C101.173 87.7035 101.105 87.4839 100.964 87.3133C100.822 87.1428 100.619 87.0353 100.399 87.0146L10.0618 69.422C9.8453 69.3779 9.62016 69.4217 9.4359 69.5436C9.25164 69.6655 9.12335 69.8556 9.07926 70.0721C9.03517 70.2886 9.07888 70.5137 9.20078 70.698C9.32269 70.8822 9.5128 71.0105 9.7293 71.0546Z" fill="url(#paint42_linear_382_3877)"/>
<path d="M5.27801 81.1489L98.2018 92.9992H98.3082C98.5287 93.0129 98.7455 92.9384 98.9111 92.7922C99.0766 92.646 99.1773 92.44 99.191 92.2195C99.2046 91.9991 99.1302 91.7822 98.984 91.6167C98.8377 91.4511 98.6317 91.3504 98.4113 91.3367L5.48749 79.4997C5.26702 79.472 5.04456 79.5329 4.86903 79.6691C4.6935 79.8054 4.57928 80.0058 4.5515 80.2263C4.52372 80.4467 4.58467 80.6692 4.72091 80.8447C4.85716 81.0202 5.05755 81.1345 5.27801 81.1622V81.1489Z" fill="url(#paint43_linear_382_3877)"/>
<path d="M2.60787 91.4665L97.0877 97.4249H97.141C97.3614 97.4315 97.5755 97.3503 97.736 97.1991C97.8966 97.0479 97.9905 96.8391 97.9971 96.6186C98.0038 96.3982 97.9225 96.1841 97.7713 96.0235C97.6201 95.863 97.4113 95.769 97.1908 95.7624L2.71427 89.8074C2.60511 89.8004 2.49564 89.8149 2.39212 89.8503C2.28859 89.8856 2.19304 89.941 2.11091 90.0132C2.02878 90.0855 1.96169 90.1732 1.91346 90.2714C1.86523 90.3695 1.83681 90.4762 1.82983 90.5854C1.82284 90.6946 1.83742 90.804 1.87274 90.9076C1.90806 91.0111 1.96343 91.1066 2.03568 91.1888C2.10792 91.2709 2.19564 91.338 2.29382 91.3862C2.392 91.4345 2.49871 91.4629 2.60787 91.4699V91.4665Z" fill="url(#paint44_linear_382_3877)"/>
<path d="M97.579 101.063C97.5795 100.953 97.5583 100.845 97.5167 100.744C97.475 100.643 97.4138 100.551 97.3365 100.474C97.2593 100.397 97.1675 100.335 97.0664 100.294C96.9654 100.252 96.8571 100.231 96.7478 100.231H1.74922C1.52876 100.231 1.31733 100.319 1.16144 100.475C1.00555 100.631 0.917969 100.842 0.917969 101.063C0.917969 101.283 1.00555 101.495 1.16144 101.65C1.31733 101.806 1.52876 101.894 1.74922 101.894H96.7478C96.8571 101.894 96.9654 101.873 97.0664 101.832C97.1675 101.79 97.2593 101.729 97.3365 101.651C97.4138 101.574 97.475 101.482 97.5167 101.381C97.5583 101.28 97.5795 101.172 97.579 101.063Z" fill="url(#paint45_linear_382_3877)"/>
<path d="M97.9688 105.478C97.9551 105.258 97.8546 105.052 97.6894 104.906C97.5241 104.76 97.3077 104.686 97.0877 104.7L2.60781 110.658C2.38735 110.665 2.17872 110.76 2.02782 110.921C1.87692 111.081 1.79611 111.296 1.80316 111.516C1.81022 111.737 1.90456 111.945 2.06544 112.096C2.22632 112.247 2.44055 112.328 2.66101 112.321H2.71421L97.1775 106.362C97.2877 106.357 97.3957 106.33 97.4954 106.282C97.595 106.234 97.6842 106.168 97.7578 106.085C97.8314 106.003 97.8879 105.907 97.9241 105.803C97.9604 105.698 97.9755 105.588 97.9688 105.478Z" fill="url(#paint46_linear_382_3877)"/>
<path d="M99.1322 109.847C99.104 109.628 98.9901 109.429 98.8157 109.294C98.6412 109.159 98.4202 109.098 98.2012 109.126L5.27739 120.976C5.05693 120.99 4.85094 121.09 4.70471 121.256C4.55849 121.421 4.48402 121.638 4.49769 121.859C4.51136 122.079 4.61204 122.285 4.7776 122.431C4.94315 122.578 5.16002 122.652 5.38048 122.638C5.41586 122.642 5.45149 122.642 5.48687 122.638L98.4106 110.788C98.5202 110.775 98.626 110.739 98.7218 110.685C98.8176 110.63 98.9015 110.556 98.9687 110.469C99.0359 110.381 99.0849 110.281 99.113 110.174C99.141 110.068 99.1476 109.956 99.1322 109.847Z" fill="url(#paint47_linear_382_3877)"/>
<path d="M101.054 114.113C101.034 114.005 100.993 113.902 100.933 113.81C100.873 113.718 100.795 113.638 100.704 113.577C100.613 113.515 100.511 113.472 100.403 113.449C100.296 113.427 100.185 113.427 100.077 113.448L9.72989 131.071C9.50943 131.092 9.3064 131.2 9.16547 131.371C9.02455 131.541 8.95727 131.761 8.97843 131.982C8.9996 132.202 9.10748 132.405 9.27833 132.546C9.44919 132.687 9.66903 132.754 9.88949 132.733C9.94309 132.733 9.99651 132.727 10.0491 132.717L100.399 115.094C100.616 115.051 100.807 114.923 100.93 114.739C101.053 114.555 101.097 114.33 101.054 114.113Z" fill="url(#paint48_linear_382_3877)"/>
<path d="M103.715 118.236C103.658 118.023 103.519 117.842 103.328 117.731C103.137 117.621 102.91 117.591 102.697 117.648L15.915 140.833C15.7215 140.886 15.5538 141.008 15.4429 141.175C15.3321 141.343 15.2855 141.544 15.3119 141.743C15.3382 141.942 15.4357 142.125 15.5863 142.258C15.7368 142.391 15.9304 142.464 16.1311 142.466C16.2028 142.465 16.2742 142.456 16.3439 142.439L103.126 119.254C103.339 119.196 103.52 119.057 103.63 118.866C103.74 118.676 103.771 118.449 103.715 118.236Z" fill="url(#paint49_linear_382_3877)"/>
<path d="M107.083 122.166C107.011 121.958 106.859 121.786 106.66 121.689C106.461 121.593 106.232 121.579 106.023 121.651L23.7523 150.153C23.5671 150.218 23.4107 150.346 23.3109 150.515C23.2111 150.684 23.1743 150.883 23.2069 151.076C23.2395 151.269 23.3396 151.445 23.4893 151.572C23.639 151.699 23.8287 151.769 24.0249 151.769C24.1178 151.769 24.2101 151.754 24.2976 151.722L106.568 123.224C106.671 123.188 106.767 123.133 106.848 123.06C106.93 122.988 106.997 122.9 107.045 122.802C107.093 122.704 107.121 122.597 107.127 122.488C107.134 122.379 107.119 122.27 107.083 122.166Z" fill="url(#paint50_linear_382_3877)"/>
<path d="M111.119 125.857C111.031 125.655 110.866 125.497 110.661 125.416C110.456 125.336 110.227 125.34 110.025 125.428L33.1678 158.918C32.9655 159.006 32.8064 159.171 32.7257 159.376C32.6449 159.582 32.6491 159.811 32.7373 160.013C32.8254 160.216 32.9904 160.375 33.1959 160.455C33.4013 160.536 33.6305 160.532 33.8328 160.444L110.69 126.951C110.892 126.863 111.051 126.698 111.131 126.493C111.212 126.288 111.207 126.059 111.119 125.857Z" fill="url(#paint51_linear_382_3877)"/>
<path d="M115.798 129.272C115.746 129.176 115.676 129.091 115.591 129.023C115.506 128.954 115.409 128.903 115.305 128.872C115.2 128.842 115.091 128.832 114.983 128.843C114.874 128.854 114.769 128.887 114.674 128.939L44.0575 167.077C43.8946 167.165 43.7658 167.305 43.6913 167.474C43.6168 167.644 43.6011 167.833 43.6465 168.013C43.692 168.192 43.796 168.351 43.9421 168.465C44.0882 168.578 44.2681 168.64 44.4532 168.64C44.5912 168.639 44.727 168.605 44.8489 168.54L115.445 130.399C115.543 130.349 115.63 130.28 115.701 130.196C115.772 130.111 115.825 130.014 115.858 129.909C115.891 129.804 115.902 129.694 115.892 129.584C115.882 129.475 115.85 129.369 115.798 129.272Z" fill="url(#paint52_linear_382_3877)"/>
<path d="M121.017 132.371C120.956 132.28 120.878 132.202 120.788 132.141C120.697 132.08 120.595 132.038 120.488 132.017C120.381 131.996 120.27 131.996 120.163 132.017C120.056 132.038 119.954 132.081 119.863 132.141L56.2959 174.499C56.1474 174.598 56.0347 174.742 55.9745 174.91C55.9143 175.078 55.9098 175.261 55.9616 175.432C56.0134 175.602 56.1189 175.752 56.2623 175.858C56.4057 175.964 56.5796 176.022 56.758 176.021C56.9216 176.022 57.0816 175.974 57.2169 175.882L120.784 133.525C120.968 133.402 121.095 133.212 121.139 132.996C121.182 132.78 121.139 132.555 121.017 132.371Z" fill="url(#paint53_linear_382_3877)"/>
<path d="M126.77 135.117C126.63 134.948 126.427 134.841 126.208 134.82C125.988 134.799 125.77 134.867 125.6 135.008L69.7532 181.122C69.6628 181.189 69.5869 181.274 69.5303 181.372C69.4737 181.469 69.4376 181.577 69.424 181.689C69.4104 181.801 69.4198 181.915 69.4515 182.023C69.4832 182.131 69.5365 182.232 69.6083 182.318C69.6801 182.405 69.7688 182.477 69.8691 182.528C69.9693 182.58 70.079 182.61 70.1915 182.618C70.304 182.626 70.4168 182.611 70.5233 182.574C70.6297 182.537 70.7275 182.478 70.8106 182.402L126.651 136.288C126.735 136.219 126.806 136.134 126.858 136.038C126.91 135.941 126.942 135.836 126.953 135.727C126.964 135.619 126.954 135.509 126.922 135.404C126.891 135.299 126.839 135.202 126.77 135.117Z" fill="url(#paint54_linear_382_3877)"/>
<path d="M132.95 137.488C132.792 137.335 132.579 137.252 132.359 137.255C132.139 137.259 131.93 137.35 131.777 137.508L84.2758 186.871C84.1999 186.95 84.1402 187.043 84.1003 187.144C84.0604 187.246 84.041 187.355 84.0431 187.464C84.0453 187.574 84.069 187.682 84.1129 187.782C84.1568 187.882 84.2201 187.972 84.299 188.048C84.3775 188.124 84.4702 188.183 84.5717 188.223C84.6732 188.263 84.7817 188.283 84.8907 188.28C84.9998 188.278 85.1074 188.255 85.2073 188.211C85.3072 188.167 85.3974 188.104 85.4728 188.025L132.974 138.662C133.05 138.583 133.109 138.491 133.149 138.389C133.189 138.288 133.208 138.179 133.206 138.07C133.204 137.961 133.18 137.853 133.136 137.754C133.092 137.654 133.029 137.563 132.95 137.488Z" fill="url(#paint55_linear_382_3877)"/>
<path d="M139.515 139.45C139.337 139.319 139.115 139.264 138.897 139.296C138.679 139.329 138.483 139.446 138.351 139.623L99.7112 191.692C99.6185 191.816 99.5621 191.962 99.5483 192.116C99.5344 192.27 99.5636 192.424 99.6327 192.563C99.7017 192.701 99.8078 192.817 99.9391 192.898C100.07 192.979 100.222 193.022 100.376 193.022C100.505 193.023 100.633 192.993 100.748 192.935C100.864 192.877 100.964 192.793 101.041 192.69L139.688 140.63C139.755 140.542 139.805 140.441 139.833 140.333C139.861 140.226 139.867 140.113 139.851 140.003C139.835 139.893 139.797 139.787 139.739 139.692C139.681 139.597 139.605 139.515 139.515 139.45Z" fill="url(#paint56_linear_382_3877)"/>
<path d="M146.388 140.989C146.194 140.885 145.967 140.861 145.756 140.923C145.545 140.986 145.367 141.129 145.261 141.322L115.905 195.519C115.8 195.713 115.777 195.94 115.839 196.151C115.901 196.362 116.044 196.54 116.237 196.646C116.359 196.711 116.495 196.745 116.633 196.746C116.783 196.746 116.93 196.706 117.058 196.629C117.187 196.552 117.293 196.442 117.364 196.31L146.721 142.113C146.825 141.92 146.848 141.693 146.786 141.482C146.724 141.272 146.581 141.094 146.388 140.989Z" fill="url(#paint57_linear_382_3877)"/>
<path d="M153.462 142.096C153.255 142.023 153.026 142.035 152.827 142.13C152.629 142.224 152.475 142.394 152.402 142.602L132.651 198.355C132.578 198.563 132.59 198.792 132.684 198.99C132.779 199.189 132.949 199.342 133.157 199.416C133.245 199.448 133.338 199.465 133.433 199.466C133.605 199.466 133.773 199.413 133.913 199.313C134.054 199.214 134.16 199.073 134.217 198.911L153.968 143.157C154.041 142.949 154.029 142.721 153.935 142.522C153.84 142.323 153.67 142.17 153.462 142.096Z" fill="url(#paint58_linear_382_3877)"/>
<path d="M160.685 142.761C160.469 142.722 160.247 142.771 160.067 142.895C159.887 143.02 159.763 143.211 159.724 143.426L149.792 200.114C149.754 200.33 149.803 200.551 149.927 200.731C150.052 200.911 150.242 201.035 150.457 201.075C150.506 201.08 150.555 201.08 150.603 201.075C150.799 201.074 150.987 201.005 151.137 200.879C151.286 200.753 151.387 200.579 151.421 200.387L161.37 143.722C161.389 143.614 161.386 143.503 161.362 143.396C161.337 143.289 161.292 143.188 161.228 143.098C161.165 143.009 161.084 142.933 160.99 142.875C160.897 142.817 160.793 142.778 160.685 142.761Z" fill="url(#paint59_linear_382_3877)"/>
<defs>
<linearGradient id="paint0_linear_382_3877" x1="167.999" y1="142.981" x2="167.999" y2="201.644" gradientUnits="userSpaceOnUse">
<stop stop-color="#D2AB49" stop-opacity="0.4"/>
<stop offset="1" stop-color="#D2AB49" stop-opacity="0"/>
</linearGradient>
<linearGradient id="paint1_linear_382_3877" x1="180.412" y1="142.786" x2="180.412" y2="201.102" gradientUnits="userSpaceOnUse">
<stop stop-color="#D2AB49" stop-opacity="0.4"/>
<stop offset="1" stop-color="#D2AB49" stop-opacity="0"/>
</linearGradient>
<linearGradient id="paint2_linear_382_3877" x1="192.7" y1="142.074" x2="192.7" y2="199.482" gradientUnits="userSpaceOnUse">
<stop stop-color="#D2AB49" stop-opacity="0.4"/>
<stop offset="1" stop-color="#D2AB49" stop-opacity="0"/>
</linearGradient>
<linearGradient id="paint3_linear_382_3877" x1="204.694" y1="140.889" x2="204.694" y2="196.75" gradientUnits="userSpaceOnUse">
<stop stop-color="#D2AB49" stop-opacity="0.4"/>
<stop offset="1" stop-color="#D2AB49" stop-opacity="0"/>
</linearGradient>
<linearGradient id="paint4_linear_382_3877" x1="216.304" y1="139.3" x2="216.304" y2="193.032" gradientUnits="userSpaceOnUse">
<stop stop-color="#D2AB49" stop-opacity="0.4"/>
<stop offset="1" stop-color="#D2AB49" stop-opacity="0"/>
</linearGradient>
<linearGradient id="paint5_linear_382_3877" x1="227.375" y1="137.253" x2="227.375" y2="188.279" gradientUnits="userSpaceOnUse">
<stop stop-color="#D2AB49" stop-opacity="0.4"/>
<stop offset="1" stop-color="#D2AB49" stop-opacity="0"/>
</linearGradient>
<linearGradient id="paint6_linear_382_3877" x1="237.814" y1="134.812" x2="237.814" y2="182.62" gradientUnits="userSpaceOnUse">
<stop stop-color="#D2AB49" stop-opacity="0.4"/>
<stop offset="1" stop-color="#D2AB49" stop-opacity="0"/>
</linearGradient>
<linearGradient id="paint7_linear_382_3877" x1="247.449" y1="131.988" x2="247.449" y2="176.015" gradientUnits="userSpaceOnUse">
<stop stop-color="#D2AB49" stop-opacity="0.4"/>
<stop offset="1" stop-color="#D2AB49" stop-opacity="0"/>
</linearGradient>
<linearGradient id="paint8_linear_382_3877" x1="256.26" y1="128.848" x2="256.26" y2="168.64" gradientUnits="userSpaceOnUse">
<stop stop-color="#D2AB49" stop-opacity="0.4"/>
<stop offset="1" stop-color="#D2AB49" stop-opacity="0"/>
</linearGradient>
<linearGradient id="paint9_linear_382_3877" x1="264.059" y1="125.348" x2="264.059" y2="160.526" gradientUnits="userSpaceOnUse">
<stop stop-color="#D2AB49" stop-opacity="0.4"/>
<stop offset="1" stop-color="#D2AB49" stop-opacity="0"/>
</linearGradient>
<linearGradient id="paint10_linear_382_3877" x1="270.839" y1="121.605" x2="270.839" y2="151.769" gradientUnits="userSpaceOnUse">
<stop stop-color="#D2AB49" stop-opacity="0.4"/>
<stop offset="1" stop-color="#D2AB49" stop-opacity="0"/>
</linearGradient>
<linearGradient id="paint11_linear_382_3877" x1="276.49" y1="117.623" x2="276.49" y2="142.466" gradientUnits="userSpaceOnUse">
<stop stop-color="#D2AB49" stop-opacity="0.4"/>
<stop offset="1" stop-color="#D2AB49" stop-opacity="0"/>
</linearGradient>
<linearGradient id="paint12_linear_382_3877" x1="280.966" y1="113.431" x2="280.966" y2="132.723" gradientUnits="userSpaceOnUse">
<stop stop-color="#D2AB49" stop-opacity="0.4"/>
<stop offset="1" stop-color="#D2AB49" stop-opacity="0"/>
</linearGradient>
<linearGradient id="paint13_linear_382_3877" x1="284.179" y1="109.119" x2="284.179" y2="122.641" gradientUnits="userSpaceOnUse">
<stop stop-color="#D2AB49" stop-opacity="0.4"/>
<stop offset="1" stop-color="#D2AB49" stop-opacity="0"/>
</linearGradient>
<linearGradient id="paint14_linear_382_3877" x1="286.112" y1="104.698" x2="286.112" y2="112.318" gradientUnits="userSpaceOnUse">
<stop stop-color="#D2AB49" stop-opacity="0.4"/>
<stop offset="1" stop-color="#D2AB49" stop-opacity="0"/>
</linearGradient>
<linearGradient id="paint15_linear_382_3877" x1="286.75" y1="100.231" x2="286.75" y2="101.894" gradientUnits="userSpaceOnUse">
<stop stop-color="#D2AB49" stop-opacity="0.4"/>
<stop offset="1" stop-color="#D2AB49" stop-opacity="0"/>
</linearGradient>
<linearGradient id="paint16_linear_382_3877" x1="286.1" y1="89.8022" x2="286.1" y2="97.4248" gradientUnits="userSpaceOnUse">
<stop stop-color="#D2AB49" stop-opacity="0.4"/>
<stop offset="1" stop-color="#D2AB49" stop-opacity="0"/>
</linearGradient>
<linearGradient id="paint17_linear_382_3877" x1="284.158" y1="79.4868" x2="284.158" y2="93.0062" gradientUnits="userSpaceOnUse">
<stop stop-color="#D2AB49" stop-opacity="0.4"/>
<stop offset="1" stop-color="#D2AB49" stop-opacity="0"/>
</linearGradient>
<linearGradient id="paint18_linear_382_3877" x1="280.936" y1="69.4053" x2="280.936" y2="88.6807" gradientUnits="userSpaceOnUse">
<stop stop-color="#D2AB49" stop-opacity="0.4"/>
<stop offset="1" stop-color="#D2AB49" stop-opacity="0"/>
</linearGradient>
<linearGradient id="paint19_linear_382_3877" x1="276.473" y1="59.6616" x2="276.473" y2="84.5074" gradientUnits="userSpaceOnUse">
<stop stop-color="#D2AB49" stop-opacity="0.4"/>
<stop offset="1" stop-color="#D2AB49" stop-opacity="0"/>
</linearGradient>
<linearGradient id="paint20_linear_382_3877" x1="270.853" y1="50.3467" x2="270.853" y2="80.5175" gradientUnits="userSpaceOnUse">
<stop stop-color="#D2AB49" stop-opacity="0.4"/>
<stop offset="1" stop-color="#D2AB49" stop-opacity="0"/>
</linearGradient>
<linearGradient id="paint21_linear_382_3877" x1="264.071" y1="41.6118" x2="264.071" y2="76.7665" gradientUnits="userSpaceOnUse">
<stop stop-color="#D2AB49" stop-opacity="0.4"/>
<stop offset="1" stop-color="#D2AB49" stop-opacity="0"/>
</linearGradient>
<linearGradient id="paint22_linear_382_3877" x1="256.248" y1="33.4814" x2="256.248" y2="73.2865" gradientUnits="userSpaceOnUse">
<stop stop-color="#D2AB49" stop-opacity="0.4"/>
<stop offset="1" stop-color="#D2AB49" stop-opacity="0"/>
</linearGradient>
<linearGradient id="paint23_linear_382_3877" x1="247.477" y1="26.0903" x2="247.477" y2="70.1235" gradientUnits="userSpaceOnUse">
<stop stop-color="#D2AB49" stop-opacity="0.4"/>
<stop offset="1" stop-color="#D2AB49" stop-opacity="0"/>
</linearGradient>
<linearGradient id="paint24_linear_382_3877" x1="237.808" y1="19.5049" x2="237.808" y2="67.3072" gradientUnits="userSpaceOnUse">
<stop stop-color="#D2AB49" stop-opacity="0.4"/>
<stop offset="1" stop-color="#D2AB49" stop-opacity="0"/>
</linearGradient>
<linearGradient id="paint25_linear_382_3877" x1="227.375" y1="13.8462" x2="227.375" y2="64.87" gradientUnits="userSpaceOnUse">
<stop stop-color="#D2AB49" stop-opacity="0.4"/>
<stop offset="1" stop-color="#D2AB49" stop-opacity="0"/>
</linearGradient>
<linearGradient id="paint26_linear_382_3877" x1="216.302" y1="9.10303" x2="216.302" y2="62.838" gradientUnits="userSpaceOnUse">
<stop stop-color="#D2AB49" stop-opacity="0.4"/>
<stop offset="1" stop-color="#D2AB49" stop-opacity="0"/>
</linearGradient>
<linearGradient id="paint27_linear_382_3877" x1="204.688" y1="5.37842" x2="204.688" y2="61.2368" gradientUnits="userSpaceOnUse">
<stop stop-color="#D2AB49" stop-opacity="0.4"/>
<stop offset="1" stop-color="#D2AB49" stop-opacity="0"/>
</linearGradient>
<linearGradient id="paint28_linear_382_3877" x1="192.686" y1="2.68652" x2="192.686" y2="60.0785" gradientUnits="userSpaceOnUse">
<stop stop-color="#D2AB49" stop-opacity="0.4"/>
<stop offset="1" stop-color="#D2AB49" stop-opacity="0"/>
</linearGradient>
<linearGradient id="paint29_linear_382_3877" x1="180.418" y1="1.0127" x2="180.418" y2="59.3676" gradientUnits="userSpaceOnUse">
<stop stop-color="#D2AB49" stop-opacity="0.4"/>
<stop offset="1" stop-color="#D2AB49" stop-opacity="0"/>
</linearGradient>
<linearGradient id="paint30_linear_382_3877" x1="167.999" y1="0.481445" x2="167.999" y2="59.1444" gradientUnits="userSpaceOnUse">
<stop stop-color="#D2AB49" stop-opacity="0.4"/>
<stop offset="1" stop-color="#D2AB49" stop-opacity="0"/>
</linearGradient>
<linearGradient id="paint31_linear_382_3877" x1="155.581" y1="1.02588" x2="155.581" y2="59.3807" gradientUnits="userSpaceOnUse">
<stop stop-color="#D2AB49" stop-opacity="0.4"/>
<stop offset="1" stop-color="#D2AB49" stop-opacity="0"/>
</linearGradient>
<linearGradient id="paint32_linear_382_3877" x1="143.305" y1="2.63525" x2="143.305" y2="60.0788" gradientUnits="userSpaceOnUse">
<stop stop-color="#D2AB49" stop-opacity="0.4"/>
<stop offset="1" stop-color="#D2AB49" stop-opacity="0"/>
</linearGradient>
<linearGradient id="paint33_linear_382_3877" x1="131.303" y1="5.375" x2="131.303" y2="61.2358" gradientUnits="userSpaceOnUse">
<stop stop-color="#D2AB49" stop-opacity="0.4"/>
<stop offset="1" stop-color="#D2AB49" stop-opacity="0"/>
</linearGradient>
<linearGradient id="paint34_linear_382_3877" x1="119.699" y1="9.10986" x2="119.699" y2="62.8252" gradientUnits="userSpaceOnUse">
<stop stop-color="#D2AB49" stop-opacity="0.4"/>
<stop offset="1" stop-color="#D2AB49" stop-opacity="0"/>
</linearGradient>
<linearGradient id="paint35_linear_382_3877" x1="108.625" y1="13.8462" x2="108.625" y2="64.8717" gradientUnits="userSpaceOnUse">
<stop stop-color="#D2AB49" stop-opacity="0.4"/>
<stop offset="1" stop-color="#D2AB49" stop-opacity="0"/>
</linearGradient>
<linearGradient id="paint36_linear_382_3877" x1="98.1837" y1="19.5049" x2="98.1837" y2="67.3072" gradientUnits="userSpaceOnUse">
<stop stop-color="#D2AB49" stop-opacity="0.4"/>
<stop offset="1" stop-color="#D2AB49" stop-opacity="0"/>
</linearGradient>
<linearGradient id="paint37_linear_382_3877" x1="88.531" y1="26.0967" x2="88.531" y2="70.1232" gradientUnits="userSpaceOnUse">
<stop stop-color="#D2AB49" stop-opacity="0.4"/>
<stop offset="1" stop-color="#D2AB49" stop-opacity="0"/>
</linearGradient>
<linearGradient id="paint38_linear_382_3877" x1="79.7405" y1="33.4849" x2="79.7405" y2="73.2769" gradientUnits="userSpaceOnUse">
<stop stop-color="#D2AB49" stop-opacity="0.4"/>
<stop offset="1" stop-color="#D2AB49" stop-opacity="0"/>
</linearGradient>
<linearGradient id="paint39_linear_382_3877" x1="71.928" y1="41.5986" x2="71.928" y2="76.7666" gradientUnits="userSpaceOnUse">
<stop stop-color="#D2AB49" stop-opacity="0.4"/>
<stop offset="1" stop-color="#D2AB49" stop-opacity="0"/>
</linearGradient>
<linearGradient id="paint40_linear_382_3877" x1="65.1438" y1="50.3467" x2="65.1438" y2="80.5175" gradientUnits="userSpaceOnUse">
<stop stop-color="#D2AB49" stop-opacity="0.4"/>
<stop offset="1" stop-color="#D2AB49" stop-opacity="0"/>
</linearGradient>
<linearGradient id="paint41_linear_382_3877" x1="59.5096" y1="59.6543" x2="59.5096" y2="84.5073" gradientUnits="userSpaceOnUse">
<stop stop-color="#D2AB49" stop-opacity="0.4"/>
<stop offset="1" stop-color="#D2AB49" stop-opacity="0"/>
</linearGradient>
<linearGradient id="paint42_linear_382_3877" x1="55.109" y1="69.4053" x2="55.109" y2="88.6808" gradientUnits="userSpaceOnUse">
<stop stop-color="#D2AB49" stop-opacity="0.4"/>
<stop offset="1" stop-color="#D2AB49" stop-opacity="0"/>
</linearGradient>
<linearGradient id="paint43_linear_382_3877" x1="51.8687" y1="79.4932" x2="51.8687" y2="93.0008" gradientUnits="userSpaceOnUse">
<stop stop-color="#D2AB49" stop-opacity="0.4"/>
<stop offset="1" stop-color="#D2AB49" stop-opacity="0"/>
</linearGradient>
<linearGradient id="paint44_linear_382_3877" x1="49.9128" y1="89.8057" x2="49.9128" y2="97.4253" gradientUnits="userSpaceOnUse">
<stop stop-color="#D2AB49" stop-opacity="0.4"/>
<stop offset="1" stop-color="#D2AB49" stop-opacity="0"/>
</linearGradient>
<linearGradient id="paint45_linear_382_3877" x1="49.2485" y1="100.231" x2="49.2485" y2="101.894" gradientUnits="userSpaceOnUse">
<stop stop-color="#D2AB49" stop-opacity="0.4"/>
<stop offset="1" stop-color="#D2AB49" stop-opacity="0"/>
</linearGradient>
<linearGradient id="paint46_linear_382_3877" x1="49.8866" y1="104.698" x2="49.8866" y2="112.321" gradientUnits="userSpaceOnUse">
<stop stop-color="#D2AB49" stop-opacity="0.4"/>
<stop offset="1" stop-color="#D2AB49" stop-opacity="0"/>
</linearGradient>
<linearGradient id="paint47_linear_382_3877" x1="51.8182" y1="109.119" x2="51.8182" y2="122.641" gradientUnits="userSpaceOnUse">
<stop stop-color="#D2AB49" stop-opacity="0.4"/>
<stop offset="1" stop-color="#D2AB49" stop-opacity="0"/>
</linearGradient>
<linearGradient id="paint48_linear_382_3877" x1="55.0225" y1="113.433" x2="55.0225" y2="132.737" gradientUnits="userSpaceOnUse">
<stop stop-color="#D2AB49" stop-opacity="0.4"/>
<stop offset="1" stop-color="#D2AB49" stop-opacity="0"/>
</linearGradient>
<linearGradient id="paint49_linear_382_3877" x1="59.5235" y1="117.62" x2="59.5235" y2="142.466" gradientUnits="userSpaceOnUse">
<stop stop-color="#D2AB49" stop-opacity="0.4"/>
<stop offset="1" stop-color="#D2AB49" stop-opacity="0"/>
</linearGradient>
<linearGradient id="paint50_linear_382_3877" x1="65.1621" y1="121.605" x2="65.1621" y2="151.769" gradientUnits="userSpaceOnUse">
<stop stop-color="#D2AB49" stop-opacity="0.4"/>
<stop offset="1" stop-color="#D2AB49" stop-opacity="0"/>
</linearGradient>
<linearGradient id="paint51_linear_382_3877" x1="71.9282" y1="125.359" x2="71.9282" y2="160.513" gradientUnits="userSpaceOnUse">
<stop stop-color="#D2AB49" stop-opacity="0.4"/>
<stop offset="1" stop-color="#D2AB49" stop-opacity="0"/>
</linearGradient>
<linearGradient id="paint52_linear_382_3877" x1="79.7583" y1="128.838" x2="79.7583" y2="168.64" gradientUnits="userSpaceOnUse">
<stop stop-color="#D2AB49" stop-opacity="0.4"/>
<stop offset="1" stop-color="#D2AB49" stop-opacity="0"/>
</linearGradient>
<linearGradient id="paint53_linear_382_3877" x1="88.5405" y1="132.001" x2="88.5405" y2="176.021" gradientUnits="userSpaceOnUse">
<stop stop-color="#D2AB49" stop-opacity="0.4"/>
<stop offset="1" stop-color="#D2AB49" stop-opacity="0"/>
</linearGradient>
<linearGradient id="paint54_linear_382_3877" x1="98.1877" y1="134.816" x2="98.1877" y2="182.62" gradientUnits="userSpaceOnUse">
<stop stop-color="#D2AB49" stop-opacity="0.4"/>
<stop offset="1" stop-color="#D2AB49" stop-opacity="0"/>
</linearGradient>
<linearGradient id="paint55_linear_382_3877" x1="108.625" y1="137.255" x2="108.625" y2="188.281" gradientUnits="userSpaceOnUse">
<stop stop-color="#D2AB49" stop-opacity="0.4"/>
<stop offset="1" stop-color="#D2AB49" stop-opacity="0"/>
</linearGradient>
<linearGradient id="paint56_linear_382_3877" x1="119.702" y1="139.287" x2="119.702" y2="193.022" gradientUnits="userSpaceOnUse">
<stop stop-color="#D2AB49" stop-opacity="0.4"/>
<stop offset="1" stop-color="#D2AB49" stop-opacity="0"/>
</linearGradient>
<linearGradient id="paint57_linear_382_3877" x1="131.313" y1="140.889" x2="131.313" y2="196.746" gradientUnits="userSpaceOnUse">
<stop stop-color="#D2AB49" stop-opacity="0.4"/>
<stop offset="1" stop-color="#D2AB49" stop-opacity="0"/>
</linearGradient>
<linearGradient id="paint58_linear_382_3877" x1="143.309" y1="142.049" x2="143.309" y2="199.466" gradientUnits="userSpaceOnUse">
<stop stop-color="#D2AB49" stop-opacity="0.4"/>
<stop offset="1" stop-color="#D2AB49" stop-opacity="0"/>
</linearGradient>
<linearGradient id="paint59_linear_382_3877" x1="155.581" y1="142.748" x2="155.581" y2="201.079" gradientUnits="userSpaceOnUse">
<stop stop-color="#D2AB49" stop-opacity="0.4"/>
<stop offset="1" stop-color="#D2AB49" stop-opacity="0"/>
</linearGradient>
</defs>
</svg>
