<svg width="135" height="40" viewBox="0 0 135 40" fill="none" xmlns="http://www.w3.org/2000/svg">
<g clip-path="url(#clip0_382_3957)">
<path d="M130 0H5C2.23858 0 0 2.23858 0 5V35C0 37.7614 2.23858 40 5 40H130C132.761 40 135 37.7614 135 35V5C135 2.23858 132.761 0 130 0Z" fill="black"/>
<path d="M130 0.8C131.114 0.8 132.182 1.2425 132.97 2.03015C133.758 2.8178 134.2 3.88609 134.2 5V35C134.2 36.1139 133.758 37.1822 132.97 37.9698C132.182 38.7575 131.114 39.2 130 39.2H5C3.88609 39.2 2.8178 38.7575 2.03015 37.9698C1.2425 37.1822 0.8 36.1139 0.8 35V5C0.8 3.88609 1.2425 2.8178 2.03015 2.03015C2.8178 1.2425 3.88609 0.8 5 0.8H130ZM130 0H5C3.67392 0 2.40215 0.526784 1.46447 1.46447C0.526784 2.40215 0 3.67392 0 5V35C0 36.3261 0.526784 37.5979 1.46447 38.5355C2.40215 39.4732 3.67392 40 5 40H130C131.326 40 132.598 39.4732 133.536 38.5355C134.473 37.5979 135 36.3261 135 35V5C135 3.67392 134.473 2.40215 133.536 1.46447C132.598 0.526784 131.326 0 130 0Z" fill="#A6A6A6"/>
<path d="M68.1401 21.7501C67.3004 21.7541 66.4807 22.0067 65.7844 22.4761C65.0881 22.9455 64.5465 23.6106 64.2279 24.3875C63.9093 25.1644 63.828 26.0183 63.9942 26.8414C64.1605 27.6645 64.5668 28.4199 65.162 29.0123C65.7571 29.6047 66.5144 30.0075 67.3383 30.1699C68.1622 30.3322 69.0157 30.2469 69.7911 29.9247C70.5665 29.6024 71.2291 29.0577 71.6952 28.3592C72.1613 27.6607 72.4101 26.8398 72.4101 26.0001C72.4183 25.4381 72.3132 24.8801 72.1013 24.3595C71.8893 23.8388 71.5748 23.3662 71.1764 22.9696C70.7779 22.5731 70.3038 22.2607 69.7822 22.0512C69.2606 21.8417 68.7021 21.7393 68.1401 21.7501ZM68.1401 28.5801C67.6237 28.6162 67.1083 28.4962 66.6611 28.2355C66.2138 27.9748 65.8553 27.5857 65.6321 27.1186C65.409 26.6514 65.3315 26.128 65.4098 25.6163C65.4881 25.1045 65.7185 24.6282 66.0711 24.2492C66.4237 23.8701 66.8821 23.6059 67.3869 23.4909C67.8916 23.3759 68.4193 23.4154 68.9013 23.6042C69.3833 23.7931 69.7973 24.1225 70.0896 24.5498C70.3819 24.9771 70.5388 25.4824 70.5401 26.0001C70.5562 26.3281 70.5065 26.656 70.3938 26.9645C70.2812 27.273 70.1079 27.5558 69.8842 27.7963C69.6606 28.0368 69.391 28.23 69.0914 28.3646C68.7919 28.4992 68.4684 28.5725 68.1401 28.5801ZM58.8301 21.7501C57.99 21.7521 57.1692 22.003 56.4717 22.4712C55.7741 22.9394 55.2309 23.6039 54.9108 24.3806C54.5906 25.1574 54.5079 26.0116 54.673 26.8354C54.8381 27.6591 55.2437 28.4155 55.8384 29.0088C56.4332 29.6022 57.1905 30.006 58.0146 30.1692C58.8388 30.3324 59.6928 30.2476 60.4688 29.9256C61.2448 29.6037 61.908 29.0589 62.3745 28.3602C62.8411 27.6616 63.0901 26.8403 63.0901 26.0001C63.0982 25.4381 62.9932 24.8801 62.7813 24.3595C62.5693 23.8388 62.2548 23.3662 61.8564 22.9696C61.4579 22.5731 60.9838 22.2607 60.4622 22.0512C59.9406 21.8417 59.3821 21.7393 58.8201 21.7501H58.8301ZM58.8301 28.5801C58.3134 28.6183 57.7972 28.5 57.3487 28.2407C56.9002 27.9814 56.5402 27.593 56.3155 27.1262C56.0907 26.6594 56.0118 26.1358 56.0888 25.6234C56.1658 25.1111 56.3953 24.6339 56.7474 24.2538C57.0995 23.8737 57.5578 23.6085 58.0628 23.4925C58.5677 23.3766 59.0959 23.4154 59.5785 23.6038C60.0611 23.7922 60.4757 24.1216 60.7685 24.549C61.0613 24.9764 61.2187 25.482 61.2201 26.0001C61.2362 26.3281 61.1865 26.656 61.0738 26.9645C60.9612 27.273 60.7879 27.5558 60.5642 27.7963C60.3406 28.0368 60.071 28.23 59.7714 28.3646C59.4719 28.4992 59.1484 28.5725 58.8201 28.5801H58.8301ZM47.7401 23.0601V24.8601H52.0601C51.9924 25.7079 51.6399 26.5079 51.0601 27.1301C50.6279 27.5704 50.1083 27.9152 49.5348 28.1426C48.9613 28.3699 48.3465 28.4747 47.7301 28.4501C46.4571 28.4501 45.2362 27.9444 44.336 27.0442C43.4358 26.1441 42.9301 24.9232 42.9301 23.6501C42.9301 22.3771 43.4358 21.1562 44.336 20.256C45.2362 19.3558 46.4571 18.8501 47.7301 18.8501C48.9479 18.8303 50.1239 19.2942 51.0001 20.1401L52.2701 18.8701C51.6786 18.2711 50.9728 17.797 50.1947 17.4758C49.4166 17.1546 48.5819 16.9928 47.7401 17.0001C46.8511 16.9655 45.9643 17.1107 45.1327 17.4271C44.3012 17.7434 43.5421 18.2244 42.9009 18.8411C42.2596 19.4579 41.7495 20.1977 41.4011 21.0163C41.0527 21.8349 40.873 22.7154 40.873 23.6051C40.873 24.4948 41.0527 25.3753 41.4011 26.1939C41.7495 27.0125 42.2596 27.7524 42.9009 28.3691C43.5421 28.9859 44.3012 29.4668 45.1327 29.7831C45.9643 30.0995 46.8511 30.2447 47.7401 30.2101C48.5961 30.2488 49.4504 30.1037 50.2455 29.7846C51.0407 29.4655 51.7583 28.9798 52.3501 28.3601C53.3978 27.209 53.9571 25.6959 53.9101 24.1401C53.9133 23.7611 53.8798 23.3827 53.8101 23.0101L47.7401 23.0601ZM93.0501 24.4601C92.7893 23.6929 92.3016 23.0229 91.6516 22.539C91.0016 22.055 90.2199 21.7799 89.4101 21.7501C88.8631 21.749 88.3217 21.8602 87.8193 22.0767C87.317 22.2931 86.8644 22.6103 86.4895 23.0087C86.1146 23.407 85.8254 23.878 85.6397 24.3925C85.4541 24.907 85.3759 25.4542 85.4101 26.0001C85.3979 26.559 85.4986 27.1147 85.706 27.6338C85.9133 28.153 86.2232 28.625 86.6171 29.0217C87.0111 29.4184 87.4809 29.7316 87.9985 29.9427C88.5162 30.1538 89.0711 30.2583 89.6301 30.2501C90.3296 30.2539 91.0191 30.0841 91.6369 29.756C92.2547 29.4279 92.7815 28.9518 93.1701 28.3701L91.7201 27.3701C91.5037 27.7309 91.1973 28.0293 90.8309 28.2362C90.4646 28.443 90.0508 28.5512 89.6301 28.5501C89.1969 28.5666 88.7688 28.4524 88.4014 28.2224C88.034 27.9923 87.7444 27.657 87.5701 27.2601L93.2601 24.9101L93.0501 24.4601ZM87.2501 25.8801C87.2298 25.5708 87.2715 25.2606 87.3726 24.9676C87.4737 24.6745 87.6323 24.4047 87.8391 24.1737C88.0458 23.9428 88.2966 23.7554 88.5766 23.6225C88.8567 23.4897 89.1604 23.4141 89.4701 23.4001C89.7927 23.3789 90.1144 23.4528 90.3953 23.6128C90.6762 23.7728 90.9039 24.0118 91.0501 24.3001L87.2501 25.8801ZM82.6301 30.0001H84.5001V17.5001H82.6301V30.0001ZM79.5701 22.7001H79.5001C79.2183 22.385 78.873 22.133 78.487 21.9607C78.101 21.7884 77.6829 21.6996 77.2601 21.7001C76.1673 21.7531 75.1367 22.2245 74.3821 23.0167C73.6274 23.8089 73.2064 24.861 73.2064 25.9551C73.2064 27.0492 73.6274 28.1014 74.3821 28.8935C75.1367 29.6857 76.1673 30.1571 77.2601 30.2101C77.6839 30.2172 78.104 30.1314 78.491 29.9586C78.8781 29.7859 79.2225 29.5304 79.5001 29.2101H79.5601V29.8201C79.5601 31.4501 78.6901 32.3201 77.2901 32.3201C76.8238 32.3092 76.3713 32.1598 75.9902 31.8909C75.6091 31.622 75.3167 31.2458 75.1501 30.8101L73.5201 31.4901C73.8269 32.2365 74.3497 32.8742 75.0214 33.3214C75.6931 33.7686 76.4831 34.0049 77.2901 34.0001C79.4801 34.0001 81.2901 32.7101 81.2901 29.5701V22.0001H79.5701V22.7001ZM77.4301 28.5801C76.785 28.5233 76.1847 28.2269 75.7474 27.7493C75.31 27.2717 75.0675 26.6477 75.0675 26.0001C75.0675 25.3526 75.31 24.7285 75.7474 24.2509C76.1847 23.7734 76.785 23.477 77.4301 23.4201C77.7499 23.4365 78.0632 23.5168 78.3516 23.6562C78.6399 23.7955 78.8974 23.9912 79.1089 24.2316C79.3205 24.472 79.4818 24.7524 79.5833 25.0561C79.6848 25.3598 79.7245 25.6808 79.7001 26.0001C79.7274 26.3208 79.6893 26.6437 79.5883 26.9493C79.4872 27.2548 79.3252 27.5367 79.1121 27.7779C78.8989 28.0191 78.6391 28.2145 78.3483 28.3524C78.0575 28.4903 77.7417 28.5678 77.4201 28.5801H77.4301ZM101.81 17.5001H97.3401V30.0001H99.2101V25.2601H101.82C102.353 25.2984 102.888 25.2265 103.392 25.0488C103.896 24.8712 104.358 24.5916 104.749 24.2276C105.14 23.8636 105.452 23.4229 105.665 22.933C105.879 22.443 105.989 21.9144 105.989 21.3801C105.989 20.8458 105.879 20.3172 105.665 19.8273C105.452 19.3374 105.14 18.8967 104.749 18.5326C104.358 18.1686 103.896 17.889 103.392 17.7114C102.888 17.5337 102.353 17.4618 101.82 17.5001H101.81ZM101.81 23.5001H99.2001V19.2401H101.85C102.419 19.2401 102.965 19.4661 103.367 19.8684C103.769 20.2706 103.995 20.8162 103.995 21.3851C103.995 21.954 103.769 22.4996 103.367 22.9019C102.965 23.3041 102.419 23.5301 101.85 23.5301L101.81 23.5001ZM113.34 21.7001C112.659 21.6594 111.981 21.8185 111.39 22.1578C110.798 22.4972 110.319 23.0019 110.01 23.6101L111.67 24.3001C111.834 23.9985 112.082 23.7509 112.383 23.5876C112.685 23.4242 113.028 23.3522 113.37 23.3801C113.607 23.3524 113.848 23.3722 114.078 23.4384C114.307 23.5047 114.521 23.616 114.708 23.7658C114.894 23.9157 115.048 24.1011 115.162 24.3113C115.276 24.5215 115.346 24.7523 115.37 24.9901V25.1201C114.769 24.8021 114.1 24.6372 113.42 24.6401C111.63 24.6401 109.82 25.6401 109.82 27.4501C109.838 27.8361 109.933 28.2145 110.099 28.5632C110.266 28.9118 110.5 29.2235 110.789 29.4799C111.078 29.7363 111.416 29.9321 111.782 30.0558C112.148 30.1795 112.535 30.2286 112.92 30.2001C113.391 30.2339 113.862 30.1404 114.285 29.9292C114.707 29.7181 115.065 29.3971 115.32 29.0001H115.38V30.0001H117.18V25.1901C117.18 23.0001 115.52 21.7301 113.39 21.7301L113.34 21.7001ZM113.11 28.5501C112.5 28.5501 111.65 28.2401 111.65 27.4901C111.65 26.4901 112.71 26.1601 113.65 26.1601C114.244 26.1455 114.831 26.2905 115.35 26.5801C115.288 27.1215 115.031 27.6221 114.629 27.9896C114.227 28.3571 113.705 28.5668 113.16 28.5801L113.11 28.5501ZM123.74 22.0001L121.6 27.4201H121.54L119.32 22.0001H117.32L120.65 29.5801L118.75 33.7901H120.7L125.82 22.0001H123.74ZM106.93 30.0001H108.8V17.5001H106.93V30.0001Z" fill="white"/>
<path d="M10.4401 7.54022C10.1142 7.93132 9.9497 8.43201 9.98014 8.94022V31.0602C9.9497 31.5684 10.1142 32.0691 10.4401 32.4602L10.5101 32.5302L22.9001 20.1502V19.8602L10.5101 7.47021L10.4401 7.54022Z" fill="url(#paint0_linear_382_3957)"/>
<path d="M27.0004 24.2802L22.9004 20.1502V19.8602L27.0004 15.7202L27.0904 15.7702L32.0004 18.5602C33.4004 19.3502 33.4004 20.6502 32.0004 21.4502L27.1104 24.2302L27.0004 24.2802Z" fill="url(#paint1_linear_382_3957)"/>
<path d="M27.1195 24.22L22.8995 20L10.4395 32.46C10.7248 32.7109 11.0888 32.8541 11.4686 32.8651C11.8484 32.876 12.2201 32.754 12.5195 32.52L27.1295 24.22" fill="url(#paint2_linear_382_3957)"/>
<path d="M27.1197 15.78L12.5097 7.48005C12.2103 7.24606 11.8387 7.124 11.4589 7.13496C11.0791 7.14591 10.715 7.2892 10.4297 7.54005L22.8997 20L27.1197 15.78Z" fill="url(#paint3_linear_382_3957)"/>
<path opacity="0.2" d="M26.9995 24.1299L12.5095 32.3799C12.2207 32.5957 11.8699 32.7124 11.5095 32.7124C11.149 32.7124 10.7982 32.5957 10.5095 32.3799L10.4395 32.4499L10.5095 32.5199C10.7975 32.7373 11.1486 32.8549 11.5095 32.8549C11.8703 32.8549 12.2214 32.7373 12.5095 32.5199L27.1195 24.2199L26.9995 24.1299Z" fill="black"/>
<path opacity="0.12" d="M10.4401 32.32C10.1142 31.9289 9.9497 31.4282 9.98014 30.92V31.07C9.9497 31.5782 10.1142 32.0789 10.4401 32.47L10.5101 32.4L10.4401 32.32ZM32.0001 21.3L27.0001 24.13L27.0901 24.22L32.0001 21.44C32.2787 21.3091 32.5179 21.1071 32.6935 20.8543C32.869 20.6014 32.9748 20.3068 33.0001 20C32.9439 20.2787 32.8245 20.5408 32.6512 20.7662C32.4778 20.9915 32.2551 21.1742 32.0001 21.3Z" fill="black"/>
<path opacity="0.25" d="M12.5107 7.61994L32.0007 18.6999C32.2557 18.8258 32.4784 19.0084 32.6517 19.2338C32.8251 19.4591 32.9445 19.7212 33.0007 19.9999C32.9754 19.6932 32.8696 19.3985 32.694 19.1457C32.5185 18.8929 32.2793 18.6908 32.0007 18.5599L12.5107 7.47994C11.1107 6.68994 9.9707 7.34994 9.9707 8.94994V9.09994C10.0007 7.48994 11.1207 6.82994 12.5107 7.61994Z" fill="white"/>
<path d="M42.1091 14.27H41.3691V12.27H41.9991C42.2864 11.9656 42.5033 11.6018 42.6347 11.2044C42.766 10.807 42.8085 10.3856 42.7591 9.96997V6.99997H46.7591V12.26H47.4291V14.26H46.6891V13H42.1091V14.27ZM43.4991 9.99997C43.5458 10.8066 43.3471 11.6085 42.9291 12.3H45.9291V7.73997H43.4991V9.99997ZM53.4091 12.22C52.8245 12.8013 52.0336 13.1276 51.2091 13.1276C50.3847 13.1276 49.5937 12.8013 49.0091 12.22C48.4409 11.6185 48.1243 10.8224 48.1243 9.99497C48.1243 9.16753 48.4409 8.37145 49.0091 7.76997C49.2973 7.47972 49.64 7.24935 50.0176 7.09214C50.3952 6.93494 50.8001 6.854 51.2091 6.854C51.6181 6.854 52.0231 6.93494 52.4007 7.09214C52.7783 7.24935 53.121 7.47972 53.4091 7.76997C53.9796 8.3703 54.2977 9.16682 54.2977 9.99497C54.2977 10.8231 53.9796 11.6196 53.4091 12.22ZM49.5791 11.72C50.0121 12.1511 50.5982 12.3931 51.2091 12.3931C51.8201 12.3931 52.4062 12.1511 52.8391 11.72C53.2664 11.249 53.503 10.6359 53.503 9.99997C53.503 9.36408 53.2664 8.75095 52.8391 8.27997C52.4062 7.84885 51.8201 7.6068 51.2091 7.6068C50.5982 7.6068 50.0121 7.84885 49.5791 8.27997C49.1519 8.75095 48.9152 9.36408 48.9152 9.99997C48.9152 10.6359 49.1519 11.249 49.5791 11.72ZM58.1791 13.13C57.7663 13.1382 57.3561 13.0627 56.9732 12.9082C56.5903 12.7537 56.2426 12.5233 55.9511 12.2309C55.6596 11.9384 55.4303 11.59 55.277 11.2066C55.1237 10.8232 55.0496 10.4128 55.0591 9.99997C55.0496 9.58717 55.1237 9.17672 55.277 8.79332C55.4303 8.40993 55.6596 8.06152 55.9511 7.76908C56.2426 7.47665 56.5903 7.24623 56.9732 7.09171C57.3561 6.93719 57.7663 6.86177 58.1791 6.86997C58.5976 6.85961 59.0129 6.94421 59.3939 7.11741C59.775 7.29061 60.1118 7.54791 60.3791 7.86997L59.8391 8.38997C59.6416 8.13922 59.387 7.93938 59.0964 7.80717C58.8059 7.67495 58.4879 7.61419 58.1691 7.62997C57.8622 7.62199 57.5568 7.67637 57.2715 7.78981C56.9862 7.90326 56.7268 8.07341 56.5091 8.28997C56.0756 8.76377 55.8351 9.38273 55.8351 10.025C55.8351 10.6672 56.0756 11.2862 56.5091 11.76C56.7268 11.9765 56.9862 12.1467 57.2715 12.2601C57.5568 12.3736 57.8622 12.4279 58.1691 12.42C58.5211 12.4168 58.868 12.3353 59.1845 12.1814C59.5011 12.0274 59.7793 11.8049 59.9991 11.53L60.5391 12.07C60.267 12.4001 59.9256 12.6664 59.5391 12.85C59.1123 13.0433 58.6477 13.139 58.1791 13.13ZM63.6791 13H62.9091V7.73997H61.2291V6.99997H65.3491V7.73997H63.6791V13ZM70.6491 6.99997L68.3791 12.06C68.2883 12.3593 68.1067 12.623 67.8595 12.8147C67.6123 13.0064 67.3117 13.1165 66.9991 13.13C66.7924 13.1273 66.5884 13.0831 66.3991 13L66.5991 12.29C66.7207 12.3607 66.8585 12.3986 66.9991 12.4C67.1461 12.411 67.2929 12.3761 67.4191 12.3C67.5396 12.198 67.6325 12.0673 67.6891 11.92L67.9091 11.44L65.9091 7.00997H66.8191L68.2991 10.45L69.7391 6.99997H70.6491ZM71.5191 13V6.99997H75.8591V13H75.0891V7.73997H72.2891V13H71.5191ZM77.2291 13V6.99997H77.9991V9.56997H80.9991V6.99997H81.7691V13H80.9991V10.29H77.9991V13H77.2291ZM88.0591 12.22C87.4745 12.8013 86.6836 13.1276 85.8591 13.1276C85.0347 13.1276 84.2438 12.8013 83.6591 12.22C83.0909 11.6185 82.7743 10.8224 82.7743 9.99497C82.7743 9.16753 83.0909 8.37145 83.6591 7.76997C83.9473 7.47972 84.29 7.24935 84.6676 7.09214C85.0452 6.93494 85.4501 6.854 85.8591 6.854C86.2681 6.854 86.6731 6.93494 87.0507 7.09214C87.4282 7.24935 87.771 7.47972 88.0591 7.76997C88.6296 8.3703 88.9477 9.16682 88.9477 9.99497C88.9477 10.8231 88.6296 11.6196 88.0591 12.22ZM84.2291 11.72C84.6621 12.1511 85.2482 12.3931 85.8591 12.3931C86.4701 12.3931 87.0562 12.1511 87.4891 11.72C87.9164 11.249 88.153 10.6359 88.153 9.99997C88.153 9.36408 87.9164 8.75095 87.4891 8.27997C87.0562 7.84885 86.4701 7.6068 85.8591 7.6068C85.2482 7.6068 84.6621 7.84885 84.2291 8.27997C83.8019 8.75095 83.5652 9.36408 83.5652 9.99997C83.5652 10.6359 83.8019 11.249 84.2291 11.72ZM92.0891 13V6.99997H94.2591C94.7097 6.99146 95.1464 7.1561 95.4791 7.45997C95.6462 7.60499 95.7794 7.78495 95.8693 7.98713C95.9591 8.18931 96.0035 8.40876 95.9991 8.62997C96.0038 8.89653 95.9271 9.15818 95.7791 9.37997C95.6323 9.5954 95.4279 9.7652 95.1891 9.86997C95.4792 9.96599 95.7336 10.1472 95.9191 10.39C96.1114 10.635 96.2138 10.9386 96.2091 11.25C96.2142 11.4805 96.1685 11.7093 96.0752 11.9202C95.9818 12.131 95.8432 12.3187 95.6691 12.47C95.3209 12.7912 94.8628 12.9665 94.3891 12.96L92.0891 13ZM92.8591 9.56997H94.2591C94.3899 9.57543 94.5203 9.55231 94.6411 9.50223C94.762 9.45214 94.8706 9.37629 94.9591 9.27997C95.0477 9.19969 95.1191 9.1024 95.1693 8.9939C95.2194 8.8854 95.2471 8.76792 95.2509 8.64846C95.2546 8.52901 95.2342 8.41002 95.191 8.2986C95.1477 8.18719 95.0825 8.08563 94.9991 7.99997C94.9156 7.90545 94.8122 7.83046 94.6964 7.78035C94.5807 7.73023 94.4553 7.7062 94.3291 7.70997H92.8991L92.8591 9.56997ZM92.8591 12.26H94.4091C94.5446 12.2645 94.6793 12.2391 94.8038 12.1855C94.9283 12.1319 95.0394 12.0515 95.1291 11.95C95.3055 11.7671 95.4056 11.524 95.4091 11.27C95.4091 11.0048 95.3038 10.7504 95.1162 10.5629C94.9287 10.3753 94.6744 10.27 94.4091 10.27H92.8891L92.8591 12.26Z" fill="white" stroke="white" stroke-width="0.2" stroke-miterlimit="10"/>
</g>
<defs>
<linearGradient id="paint0_linear_382_3957" x1="21.8001" y1="8.71021" x2="5.02015" y2="25.4902" gradientUnits="userSpaceOnUse">
<stop stop-color="#00A0FF"/>
<stop offset="0.01" stop-color="#00A1FF"/>
<stop offset="0.26" stop-color="#00BEFF"/>
<stop offset="0.51" stop-color="#00D2FF"/>
<stop offset="0.76" stop-color="#00DFFF"/>
<stop offset="1" stop-color="#00E3FF"/>
</linearGradient>
<linearGradient id="paint1_linear_382_3957" x1="33.8304" y1="20.0002" x2="9.64039" y2="20.0002" gradientUnits="userSpaceOnUse">
<stop stop-color="#FFE000"/>
<stop offset="0.41" stop-color="#FFBD00"/>
<stop offset="0.78" stop-color="#FFA500"/>
<stop offset="1" stop-color="#FF9C00"/>
</linearGradient>
<linearGradient id="paint2_linear_382_3957" x1="24.8295" y1="22.3" x2="2.06945" y2="45.05" gradientUnits="userSpaceOnUse">
<stop stop-color="#FF3A44"/>
<stop offset="1" stop-color="#C31162"/>
</linearGradient>
<linearGradient id="paint3_linear_382_3957" x1="7.29969" y1="0.180048" x2="17.4597" y2="10.34" gradientUnits="userSpaceOnUse">
<stop stop-color="#32A071"/>
<stop offset="0.07" stop-color="#2DA771"/>
<stop offset="0.48" stop-color="#15CF74"/>
<stop offset="0.8" stop-color="#06E775"/>
<stop offset="1" stop-color="#00F076"/>
</linearGradient>
<clipPath id="clip0_382_3957">
<rect width="135" height="40" fill="white"/>
</clipPath>
</defs>
</svg>
