<svg width="32" height="32" viewBox="0 0 32 32" fill="none" xmlns="http://www.w3.org/2000/svg">
<circle cx="16" cy="16" r="16" fill="black"/>
<path d="M12.0766 20.9914C14.8802 20.9914 17.1531 18.6988 17.1531 15.8708C17.1531 13.0427 14.8804 10.75 12.0766 10.75C9.27287 10.75 7 13.0433 7 15.8708C7 18.6983 9.27305 20.9914 12.0766 20.9914Z" fill="white"/>
<path d="M22.7221 15.8708C22.7221 18.5328 21.5857 20.6916 20.1838 20.6916C18.7819 20.6916 17.6455 18.5328 17.6455 15.8708C17.6455 13.2088 18.7817 11.05 20.1836 11.05C21.5855 11.05 22.7221 13.2081 22.7221 15.8708Z" fill="white"/>
<path d="M25 15.8708C25 18.2553 24.6004 20.1895 24.1073 20.1895C23.6142 20.1895 23.2147 18.2558 23.2147 15.8708C23.2147 13.4858 23.6143 11.5521 24.1073 11.5521C24.6002 11.5521 25 13.4856 25 15.8708Z" fill="white"/>
</svg>
