<svg width="37" height="32" viewBox="0 0 37 32" fill="none" xmlns="http://www.w3.org/2000/svg">
<g clip-path="url(#clip0_827_495)">
<path d="M36.351 31.9207H30.3853C27.9725 31.9207 25.74 30.6351 24.5309 28.5508L12.9442 8.52769L17.8759 0L36.351 31.9207Z" fill="#D2AB49"/>
<path d="M0.572707 31.9207L5.35057 29.1698L4.77786 28.1805L0 30.9314L5.52026 21.3933C5.92327 22.0863 6.57022 22.5571 7.29141 22.7476C8.01259 22.938 8.80802 22.8587 9.50269 22.4566L9.64056 22.3773L12.817 27.8684L12.6738 27.9478C11.2791 28.7519 10.8019 30.5294 11.6079 31.9207H0.572707Z" fill="#D2AB49"/>
<path d="M18.2365 28.1118H14.8957L10.3087 20.1977L11.9791 17.3093L18.2365 28.1118Z" fill="#D2AB49"/>
</g>
<defs>
<clipPath id="clip0_827_495">
<rect width="37" height="32" fill="white"/>
</clipPath>
</defs>
</svg>
