<svg width="167" height="32" viewBox="0 0 167 32" fill="none" xmlns="http://www.w3.org/2000/svg">
<g clip-path="url(#clip0_801_4084)">
<path d="M54.6782 32H53.0025C52.3397 31.9894 51.7404 31.5874 51.4965 30.9737L47.9754 22.1445L46.2626 26.3078H46.5702L48.5004 26.3131C48.5004 26.3131 49.0625 27.7256 49.0784 27.7679L49.386 28.572L45.6528 28.5614H45.3399C45.3081 28.6461 45.2498 28.7889 45.1861 28.937L45.1278 29.0905L43.94 31.9683H41.1719L42.3809 29.0852L42.8105 28.0642C42.9589 27.715 43.1021 27.3764 43.24 27.0432L43.3301 26.8316L44.9422 22.9909C45.1808 22.4196 45.4035 21.8906 45.605 21.4039L46.6815 18.8329H49.3117L49.4761 19.2402C49.7254 19.8539 49.9693 20.4517 50.2079 21.0336C50.3617 21.3986 50.5208 21.7954 50.6905 22.2186L51.0192 23.0121C51.0458 23.0914 54.0631 30.4712 54.3176 31.0954L54.6782 32Z" fill="#D2AB49"/>
<path d="M66.3716 20.6157C65.9792 20.0073 65.3853 19.5523 64.6057 19.2614C63.8952 18.9969 62.9884 18.8593 61.9172 18.8593L56.731 18.8488L56.6992 31.9947H59.3082L59.3188 27.1278H61.4187C62.7869 27.1278 63.8315 26.9479 64.6004 26.6041C65.4436 26.2285 66.0534 25.6942 66.4193 25.017C66.7693 24.3769 66.9443 23.631 66.9443 22.8216C66.9443 21.9488 66.7534 21.2029 66.3663 20.6157H66.3716ZM64.0118 24.0119C63.8368 24.2764 63.5346 24.4827 63.1316 24.615C62.6543 24.7684 61.9914 24.8372 61.2066 24.8478H59.3294L59.34 21.1605L61.8377 21.1711C62.1293 21.1711 62.4528 21.1923 62.8028 21.2346C63.0997 21.2716 63.3755 21.351 63.6194 21.4674C63.8156 21.5626 63.9853 21.716 64.1179 21.9223C64.2452 22.1181 64.3088 22.4355 64.3088 22.8322C64.3088 23.3401 64.208 23.7368 64.0171 24.0225L64.0118 24.0119Z" fill="#D2AB49"/>
<path d="M78.2331 18.8699L78.2225 21.2293L71.647 21.2134L71.6151 32L68.9902 31.9947L69.0221 18.8488L78.2331 18.8699Z" fill="#D2AB49"/>
<path d="M93.4252 18.8751L92.7571 20.039C92.3859 20.6896 91.9987 21.3668 91.5957 22.0809C91.1556 22.8586 90.7579 23.5675 90.392 24.2023L88.1277 28.2122C87.8519 28.7042 87.555 29.2226 87.2368 29.7834L85.9694 32.0052H83.0475L84.527 29.3813C84.7392 29.0057 84.9619 28.609 85.1952 28.2016L82.2839 23.2554C81.9499 22.6734 81.6317 22.1338 81.3241 21.6154L79.6855 18.8434H82.7082L82.8938 19.182C83.196 19.711 83.4718 20.1818 83.7051 20.605L84.3627 21.7741C84.5642 22.1338 84.7657 22.4883 84.9725 22.8427C85.1581 23.1654 85.3596 23.5199 85.5717 23.9008L86.6482 25.7946L87.5974 24.0753C87.8413 23.6415 88.064 23.2448 88.2602 22.8745C88.4564 22.5042 88.658 22.1391 88.8648 21.7741L89.5064 20.6103C89.7344 20.1977 89.9943 19.7321 90.2859 19.2084L90.4768 18.8751L93.4146 18.8857L93.4252 18.8751Z" fill="#D2AB49"/>
<path d="M109.992 32H107.421L107.299 31.1377C107.166 30.1326 107.033 29.1698 106.911 28.2599C106.784 27.26 106.657 26.3237 106.54 25.4561L106.318 23.795L104.907 26.8791C104.605 27.5404 104.302 28.2017 104 28.8576C103.549 29.8363 103.136 30.7515 102.743 31.5926L102.574 31.9788H100.824L98.9572 27.8843C98.655 27.2177 98.3527 26.567 98.0558 25.9375L97.0588 23.7527L95.9293 31.9577H93.3203L93.4264 31.2065C93.4953 30.7251 93.5642 30.2489 93.6332 29.7781L94.5453 23.3559C94.6566 22.6312 94.7468 21.9593 94.8316 21.3404C94.9165 20.7161 95.0119 20.0602 95.1127 19.3672L95.1975 18.8064H96.4596C97.0906 18.8064 97.6633 19.1767 97.9285 19.748C98.2414 20.4252 98.6444 21.298 98.8618 21.7689L99.1747 22.4566C99.4504 23.0544 99.7208 23.6522 99.9913 24.2394L101.688 27.9372L105.469 19.7692C105.734 19.1926 106.312 18.8276 106.949 18.8276H108.211L108.29 19.3936C108.338 19.748 108.38 20.0919 108.428 20.4305C108.471 20.7426 108.508 21.0494 108.55 21.3509L109.351 27.3129C109.446 28.0324 109.536 28.6989 109.621 29.3179C109.701 29.9421 109.786 30.5822 109.87 31.2435L109.971 31.9841L109.992 32Z" fill="#D2AB49"/>
<path d="M115.344 21.1658L115.338 24.1759L121.76 24.1865L121.755 26.4824L115.333 26.4665L115.322 29.6512L122.142 29.6724V32L112.719 31.9789L112.756 18.8329L122.163 18.854V21.1817L115.344 21.1658Z" fill="#D2AB49"/>
<path d="M126.188 30.7039L126.193 30.7089H126.188V30.7039Z" fill="#D2AB49"/>
<path d="M126.188 30.7039L126.193 30.7089H126.188V30.7039Z" fill="#D2AB49"/>
<path d="M136.374 18.8487L136.336 32L133.712 31.9947L133.727 26.5035L127.369 26.4877L127.353 31.9735H126.929H124.729L124.76 18.8223L127.385 18.8276L127.369 24.1494L133.733 24.1653L133.749 18.8487H136.374Z" fill="#D2AB49"/>
<path d="M149.96 18.8646L149.955 21.2293L145.256 21.2134L145.23 32L142.615 31.9947L142.642 21.2081L137.928 21.1975L137.938 18.8381L149.96 18.8646Z" fill="#D2AB49"/>
<path d="M165.466 25.4349C165.073 24.8159 164.479 24.361 163.7 24.07C162.984 23.8002 162.077 23.6627 161.011 23.6627L158.429 23.6521L158.44 18.8434L151.35 18.8275V19.5734C151.35 20.4675 152.076 21.1922 152.972 21.1975H155.831L155.804 31.9894L160.508 31.9999C161.828 31.9999 162.899 31.8254 163.689 31.4709C164.532 31.0953 165.148 30.5557 165.513 29.8733C165.863 29.2279 166.038 28.4767 166.038 27.662C166.038 26.7786 165.848 26.0274 165.466 25.4296V25.4349ZM163.101 28.8576C162.915 29.1274 162.618 29.3337 162.21 29.4607C161.743 29.6141 161.096 29.6934 160.29 29.6934H158.413L158.424 25.9533L160.916 25.9639C161.239 25.9639 161.568 25.9851 161.892 26.0274C162.178 26.0591 162.448 26.1438 162.698 26.2654C162.894 26.3607 163.064 26.5141 163.196 26.7257C163.323 26.932 163.387 27.2494 163.387 27.6567C163.387 28.1646 163.292 28.5719 163.095 28.8576H163.101Z" fill="#D2AB49"/>
<path d="M73.7098 10.8554C73.7098 11.8711 72.978 12.5958 71.9757 12.5958C71.069 12.5958 70.3796 11.9927 70.2629 11.1199H69.5736V12.5588H68.9531V9.15723H69.5736V10.5485H70.2682C70.3955 9.69682 71.0796 9.12549 71.9757 9.12549C72.9727 9.12549 73.7098 9.83966 73.7098 10.8607V10.8554ZM73.1 10.8554C73.1 10.1306 72.6121 9.65979 71.9811 9.65979C71.35 9.65979 70.8622 10.1306 70.8622 10.8554C70.8622 11.5801 71.3447 12.0562 71.9811 12.0562C72.6174 12.0562 73.1 11.5854 73.1 10.8554Z" fill="#D2AB49"/>
<path d="M78.6093 10.8554C78.6093 11.9028 77.8828 12.5958 76.8858 12.5958C76.4033 12.5958 75.9791 12.4107 75.6927 12.0456V13.8073H75.0723V9.15723H75.6662V9.69682C75.9419 9.31593 76.3821 9.12549 76.8805 9.12549C77.8775 9.12549 78.604 9.8185 78.604 10.8607L78.6093 10.8554ZM77.9835 10.8554C77.9835 10.1359 77.4904 9.65979 76.8328 9.65979C76.1753 9.65979 75.6874 10.1359 75.6874 10.8554C75.6874 11.5748 76.1806 12.0562 76.8328 12.0562C77.4851 12.0562 77.9835 11.5801 77.9835 10.8554Z" fill="#D2AB49"/>
<path d="M79.9785 9.15198H80.5989V11.6278L82.6883 9.15198H83.2504V12.5535H82.6299V10.0778L80.5459 12.5535H79.9785V9.15198Z" fill="#D2AB49"/>
<path d="M88.3932 12.0139V13.3418H87.8152V12.5535H84.9622V13.3418H84.3789V12.0139H84.5592C85.0471 11.9875 85.1319 11.1622 85.1796 10.2999L85.2327 9.15198H87.8788V12.0139H88.3985H88.3932ZM85.344 12.0139H87.253V9.69157H85.7736L85.7417 10.3475C85.7152 11.0564 85.6516 11.7494 85.344 12.0192V12.0139Z" fill="#D2AB49"/>
<path d="M89.6719 9.15198H90.2923V11.6278L92.3816 9.15198H92.9437V12.5535H92.3233V10.0778L90.2393 12.5535H89.6719V9.15198Z" fill="#D2AB49"/>
<path d="M97.3396 9.1519V12.5534H96.7192V11.178C96.3692 11.3367 95.998 11.4372 95.6162 11.4372C94.7836 11.4372 94.2852 11.0669 94.2852 10.2575V9.1519H94.9056V10.2152C94.9056 10.6966 95.2291 10.9294 95.7487 10.9294C96.0563 10.9294 96.3904 10.8447 96.7192 10.7019V9.14661H97.3396V9.1519Z" fill="#D2AB49"/>
<path d="M102.086 11.0564H99.3177C99.3972 11.6542 99.8798 12.0509 100.553 12.0509C100.951 12.0509 101.285 11.9187 101.54 11.6383L101.879 12.0351C101.571 12.3948 101.099 12.5852 100.532 12.5852C99.4291 12.5852 98.6973 11.8605 98.6973 10.8448C98.6973 9.82908 99.4238 9.10962 100.41 9.10962C101.396 9.10962 102.096 9.81321 102.096 10.8607C102.096 10.9136 102.091 10.9876 102.086 11.0458V11.0564ZM99.3177 10.612H101.508C101.444 10.0407 101.015 9.63863 100.415 9.63863C99.8162 9.63863 99.3866 10.0354 99.323 10.612H99.3177Z" fill="#D2AB49"/>
<path d="M103.215 10.8554C103.215 9.8397 103.968 9.12024 105.018 9.12024C105.628 9.12024 106.137 9.36888 106.407 9.84499L105.935 10.1465C105.718 9.81325 105.384 9.65983 105.007 9.65983C104.339 9.65983 103.835 10.1307 103.835 10.8554C103.835 11.5801 104.339 12.0563 105.007 12.0563C105.378 12.0563 105.712 11.9028 105.935 11.5696L106.407 11.8658C106.137 12.3419 105.628 12.5959 105.018 12.5959C103.968 12.5959 103.215 11.8711 103.215 10.8554Z" fill="#D2AB49"/>
<path d="M109.011 11.1146H108.3V12.5535H107.68V9.15198H108.3V10.5909H109.021L110.13 9.15198H110.792L109.499 10.7866L110.883 12.5535H110.156L109.011 11.1146Z" fill="#D2AB49"/>
<path d="M111.578 10.8554C111.578 9.8397 112.331 9.12024 113.355 9.12024C114.378 9.12024 115.126 9.8397 115.126 10.8554C115.126 11.8711 114.378 12.5959 113.355 12.5959C112.331 12.5959 111.578 11.8711 111.578 10.8554ZM114.5 10.8554C114.5 10.1307 114.012 9.65983 113.355 9.65983C112.697 9.65983 112.204 10.1307 112.204 10.8554C112.204 11.5801 112.697 12.0563 113.355 12.0563C114.012 12.0563 114.5 11.5801 114.5 10.8554Z" fill="#D2AB49"/>
<path d="M119.568 11.0564H116.8C116.88 11.6542 117.362 12.0509 118.036 12.0509C118.433 12.0509 118.767 11.9187 119.022 11.6383L119.361 12.0351C119.054 12.3948 118.582 12.5852 118.014 12.5852C116.911 12.5852 116.18 11.8605 116.18 10.8448C116.18 9.82908 116.906 9.10962 117.893 9.10962C118.879 9.10962 119.579 9.81321 119.579 10.8607C119.579 10.9136 119.574 10.9876 119.568 11.0458V11.0564ZM116.8 10.612H118.99C118.927 10.0407 118.497 9.63863 117.898 9.63863C117.299 9.63863 116.869 10.0354 116.805 10.612H116.8Z" fill="#D2AB49"/>
<path d="M125.9 10.5009V12.5535H125.317V12.1038C125.11 12.4107 124.733 12.5905 124.198 12.5905C123.423 12.5905 122.936 12.1779 122.936 11.5907C122.936 11.0458 123.291 10.5961 124.309 10.5961H125.285V10.4745C125.285 9.95604 124.982 9.6545 124.373 9.6545C123.97 9.6545 123.556 9.79734 123.291 10.0195L123.031 9.55928C123.386 9.2789 123.895 9.12549 124.442 9.12549C125.375 9.12549 125.9 9.57515 125.9 10.5062V10.5009ZM125.279 11.5166V11.0405H124.325C123.715 11.0405 123.54 11.2786 123.54 11.5695C123.54 11.9081 123.821 12.1197 124.293 12.1197C124.765 12.1197 125.126 11.9081 125.279 11.5166Z" fill="#D2AB49"/>
<path d="M130 9.69157H128.107V12.5535H127.486V9.15198H129.995V9.69157H130Z" fill="#D2AB49"/>
<path d="M134.029 11.0564H131.261C131.341 11.6542 131.823 12.0509 132.497 12.0509C132.894 12.0509 133.228 11.9187 133.483 11.6383L133.822 12.0351C133.515 12.3948 133.043 12.5852 132.475 12.5852C131.372 12.5852 130.641 11.8605 130.641 10.8448C130.641 9.82908 131.367 9.10962 132.353 9.10962C133.34 9.10962 134.04 9.81321 134.04 10.8607C134.04 10.9136 134.034 10.9876 134.029 11.0458V11.0564ZM131.261 10.612H133.451C133.388 10.0407 132.958 9.63863 132.359 9.63863C131.76 9.63863 131.33 10.0354 131.266 10.612H131.261Z" fill="#D2AB49"/>
<path d="M135.477 9.15198H136.097V10.5962H138.043V9.15198H138.664V12.5535H138.043V11.1305H136.097V12.5535H135.477V9.15198Z" fill="#D2AB49"/>
<path d="M142.88 9.69157H141.634V12.5535H141.014V9.69157H139.768V9.15198H142.88V9.69157Z" fill="#D2AB49"/>
<path d="M143.527 10.8554C143.527 9.8397 144.28 9.12024 145.33 9.12024C145.94 9.12024 146.449 9.36888 146.72 9.84499L146.248 10.1465C146.03 9.81325 145.696 9.65983 145.32 9.65983C144.652 9.65983 144.148 10.1307 144.148 10.8554C144.148 11.5801 144.652 12.0563 145.32 12.0563C145.691 12.0563 146.025 11.9028 146.248 11.5696L146.72 11.8658C146.449 12.3419 145.94 12.5959 145.33 12.5959C144.28 12.5959 143.527 11.8711 143.527 10.8554Z" fill="#D2AB49"/>
<path d="M150.49 9.69157H149.244V12.5535H148.623V9.69157H147.377V9.15198H150.49V9.69157Z" fill="#D2AB49"/>
<path d="M154.583 11.6172C154.583 12.2097 154.148 12.5535 153.236 12.5535H151.592V9.15198H153.177C153.983 9.15198 154.466 9.4641 154.466 10.0249C154.466 10.3899 154.259 10.6544 153.92 10.7866C154.37 10.903 154.583 11.1834 154.583 11.6172ZM152.202 10.6173H153.13C153.602 10.6173 153.851 10.4428 153.851 10.1148C153.851 9.78679 153.602 9.62809 153.13 9.62809H152.202V10.6173ZM153.967 11.5801C153.967 11.2257 153.745 11.0617 153.236 11.0617H152.207V12.0827H153.199C153.708 12.0827 153.973 11.9293 153.973 11.5801H153.967Z" fill="#D2AB49"/>
<path d="M155.713 10.8554C155.713 9.8397 156.466 9.12024 157.489 9.12024C158.513 9.12024 159.26 9.8397 159.26 10.8554C159.26 11.8711 158.513 12.5959 157.489 12.5959C156.466 12.5959 155.713 11.8711 155.713 10.8554ZM158.635 10.8554C158.635 10.1307 158.147 9.65983 157.489 9.65983C156.832 9.65983 156.339 10.1307 156.339 10.8554C156.339 11.5801 156.832 12.0563 157.489 12.0563C158.147 12.0563 158.635 11.5801 158.635 10.8554Z" fill="#D2AB49"/>
<path d="M36.3501 31.9207H30.3844C27.9716 31.9207 25.7391 30.6351 24.5301 28.5508L12.9434 8.52769L17.875 0L36.3501 31.9207Z" fill="#D2AB49"/>
<path d="M0.572707 31.9207L5.35057 29.1698L4.77786 28.1805L0 30.9314L5.52026 21.3933C5.92327 22.0863 6.57022 22.5571 7.29141 22.7476C8.01259 22.938 8.80802 22.8587 9.50269 22.4566L9.64056 22.3773L12.817 27.8684L12.6738 27.9478C11.2791 28.7519 10.8019 30.5294 11.6079 31.9207H0.572707Z" fill="#D2AB49"/>
<path d="M18.2363 28.1118H14.8956L10.3086 20.1977L11.979 17.3093L18.2363 28.1118Z" fill="#D2AB49"/>
</g>
<defs>
<clipPath id="clip0_801_4084">
<rect width="166.032" height="32" fill="white"/>
</clipPath>
</defs>
</svg>
