<svg width="41" height="40" viewBox="0 0 41 40" fill="none" xmlns="http://www.w3.org/2000/svg">
    <g clip-path="url(#clip0_1440_9286)">
        <path d="M40.7485 0H0.748535V40H40.7485V0Z" fill="#080B0B"/>
        <path d="M4.79785 14.9866H6.31385V8.57197H8.94452V14.9866H10.4605V7.21997H4.79785V14.9866Z" fill="white"/>
        <path d="M14.8979 7.21997H11.8872V14.9866H13.4032V12.064H14.8979C16.4045 12.064 17.4632 11.06 17.4632 9.6413C17.4632 8.22264 16.3925 7.21997 14.8979 7.21997ZM14.8219 10.6986H13.4032V8.57064H14.8219C15.4965 8.57064 15.9445 8.9973 15.9445 9.63997C15.9445 10.2826 15.4965 10.6986 14.8219 10.6986Z" fill="white"/>
        <path d="M19.9661 7.21997L17.1421 14.9866H18.7221L19.1914 13.6133H21.9528L22.4101 14.9866H23.9914L21.1541 7.21997H19.9648H19.9661ZM19.6168 12.3346L20.5981 9.5093L21.5474 12.3346H19.6168Z" fill="white"/>
        <path d="M29.3657 11.0054C30.011 10.6441 30.327 10.0988 30.327 9.35742C30.327 8.04808 29.3883 7.21875 27.9257 7.21875H24.8057V14.9854H28.0563C29.5177 14.9854 30.435 14.1241 30.435 12.7601C30.435 12.2134 30.2923 11.7788 29.9537 11.4188C29.7897 11.2548 29.671 11.1668 29.363 11.0041L29.3657 11.0054ZM26.3217 8.57208H27.8057C28.427 8.57208 28.8097 8.91075 28.8097 9.46675C28.8097 10.0228 28.427 10.3614 27.8057 10.3614H26.3217V8.57208ZM27.9057 13.6334H26.323V11.7241H27.9057C28.527 11.7241 28.9203 12.0828 28.9203 12.6734C28.9203 13.2641 28.527 13.6334 27.9057 13.6334Z" fill="white"/>
        <path d="M33.8283 7.15332C32.9897 7.15332 32.2683 7.44799 31.723 8.00399C31.123 8.61732 30.959 9.23732 30.959 10.7867V11.4293C30.959 12.2693 30.9683 13.4267 31.723 14.2013C32.2683 14.7573 32.9883 15.052 33.8283 15.052C34.6683 15.052 35.3777 14.768 35.923 14.2013C36.6883 13.4147 36.6976 12.4 36.6976 11.3867V10.5587C36.6976 9.30399 36.4683 8.56132 35.923 8.00399C35.3777 7.44799 34.6577 7.15332 33.8283 7.15332ZM34.799 13.284C34.5603 13.5573 34.2217 13.7 33.8283 13.7C33.435 13.7 33.1097 13.548 32.8483 13.284C32.4857 12.924 32.475 12.1933 32.475 11.3867V10.9947C32.475 10.0347 32.4977 9.30399 32.8483 8.91999C33.087 8.64799 33.4363 8.50665 33.8283 8.50665C34.2203 8.50665 34.5603 8.64932 34.799 8.91999C35.1043 9.25865 35.1817 9.68532 35.1817 10.9613C35.1817 12.5453 35.1163 12.9253 34.799 13.2853V13.284Z" fill="white"/>
        <path d="M12.947 24.6868C13.971 24.1401 14.7364 23.1801 14.7364 21.5001C14.7364 18.8828 12.7497 17.0481 10.0004 17.0481C7.25103 17.0481 5.30969 18.7081 5.24436 21.4774H8.08036C8.14703 20.2988 8.93103 19.6001 10.0004 19.6001C11.0697 19.6001 11.899 20.2774 11.899 21.5854C11.899 22.6761 11.3084 23.5281 9.93503 23.5281H9.52036V25.9934H9.93503C11.331 25.9934 12.1177 26.8441 12.1177 28.1321C12.1177 29.5281 11.243 30.2921 10.0217 30.2921C8.90836 30.2921 7.94836 29.6588 7.90436 28.2641H5.06836C5.11103 31.5148 7.48836 32.8454 10.0204 32.8454C12.683 32.8454 14.951 31.3188 14.951 28.2201C14.951 26.3441 14.0564 25.2748 12.9444 24.6868H12.947Z" fill="white"/>
        <path d="M20.8339 17.0493C18.3046 17.0493 16.1006 18.7093 16.1006 21.676V28.22C16.1006 31.188 18.3046 32.8453 20.8339 32.8453C23.3633 32.8453 25.5473 31.1866 25.5473 28.22V21.676C25.5473 18.708 23.3659 17.0493 20.8339 17.0493ZM22.7113 28.2C22.7113 29.508 21.9473 30.2933 20.8339 30.2933C19.7206 30.2933 18.9366 29.508 18.9366 28.2V21.7186C18.9366 20.4093 19.7206 19.6027 20.8339 19.6027C21.9473 19.6027 22.7113 20.4093 22.7113 21.7186V28.2Z" fill="white"/>
        <path d="M31.7566 17.0493C29.226 17.0493 27.022 18.7093 27.022 21.676V28.22C27.022 31.188 29.226 32.8453 31.7566 32.8453C34.2873 32.8453 36.4686 31.1866 36.4686 28.22V21.676C36.4686 18.708 34.286 17.0493 31.7566 17.0493ZM33.6326 28.2C33.6326 29.508 32.8686 30.2933 31.7566 30.2933C30.6446 30.2933 29.8566 29.508 29.8566 28.2V21.7186C29.8566 20.4093 30.6433 19.6027 31.7566 19.6027C32.87 19.6027 33.6326 20.4093 33.6326 21.7186V28.2Z" fill="white"/>
    </g>
    <defs>
        <clipPath id="clip0_1440_9286">
            <rect width="40" height="40" fill="white" transform="translate(0.748535)"/>
        </clipPath>
    </defs>
</svg>
