<svg width="77" height="76" viewBox="0 0 77 76" fill="none" xmlns="http://www.w3.org/2000/svg">
<path d="M19.8398 0C14.8007 0 9.96801 2.00178 6.40481 5.56497C2.84162 9.12816 0.839844 13.9609 0.839844 19L0.839844 57C0.839844 62.0391 2.84162 66.8718 6.40481 70.435C9.96801 73.9982 14.8007 76 19.8398 76H57.8398C62.879 76 67.7117 73.9982 71.2749 70.435C74.8381 66.8718 76.8398 62.0391 76.8398 57V0H19.8398Z" fill="#B1EC52"/>
<path d="M63.6418 28.4923H54.52L45.8303 38V19H38.7921V23.6304C38.5658 23.332 38.3188 23.0387 38.0513 22.7506C36.611 21.3358 34.8905 20.2382 33.0005 19.5284C31.1105 18.8186 29.0928 18.5125 27.0773 18.6296C25.1425 18.5405 23.2135 18.9027 21.4428 19.6876C19.6721 20.4725 18.1083 21.6585 16.875 23.1519C15.8769 24.3735 15.1536 25.7957 14.7541 27.3218C14.3546 28.8478 14.2883 30.442 14.5598 31.9959C16.1959 39.312 22.9871 40.485 27.9725 41.1332C31.9083 41.6426 35.6898 42.368 35.5817 45.8717C35.4737 49.3753 31.3681 50.3786 28.6207 50.3786C21.598 50.3786 21.3665 45.1925 21.3665 45.1925H13.8652C13.9949 48.0394 15.0827 50.7589 16.9522 52.9098C19.576 55.8578 23.5119 57.3396 28.6516 57.3396C32.3481 57.4232 35.9482 56.1555 38.7767 53.7742V56.8611H45.8149V47.9862L48.3153 45.2697L55.4306 56.9537H63.6264L53.3161 39.8367L63.6418 28.4923ZM21.6134 30.3444C20.996 27.628 23.6971 25.2202 27.2162 25.2202C30.3031 25.2202 33.5289 25.9301 34.7328 30.3444H38.7921V37.0431C33.745 32.9066 22.7864 35.4996 21.6134 30.3444Z" fill="#4D5759"/>
</svg>
