<svg width="165" height="48" viewBox="0 0 165 48" fill="none" xmlns="http://www.w3.org/2000/svg">
<g clip-path="url(#clip0_522_6262)">
<path d="M46.6156 1.56098V36C46.6156 41.7561 41.9148 46.439 36.1369 46.439H12.0456C6.26764 46.439 1.56691 41.7561 1.56691 36V12C1.56691 6.2439 6.26764 1.56098 12.0456 1.56098H46.6156ZM48.1825 0H12.0456C5.38625 0 0 5.36585 0 12V36C0 42.6341 5.38625 48 12.0456 48H36.1369C42.7962 48 48.1825 42.6341 48.1825 36V0Z" fill="white" fill-opacity="0.48"/>
<path d="M39.8585 18.0486H34.0806L28.5964 24.0974V11.9998H24.0915V14.9266C23.9936 14.7315 23.7977 14.5364 23.6019 14.3413C21.937 12.5852 19.6846 11.8047 16.6487 11.8047C13.2211 11.8047 11.2624 13.3657 10.1852 14.634C8.91209 16.1949 8.32449 18.4388 8.71622 20.1949C9.79347 24.7803 14.1025 25.5608 17.2363 25.951C19.7825 26.2437 22.1329 26.7315 22.035 28.9754C21.937 31.3169 19.3908 31.8047 17.628 31.8047C13.2211 31.8047 13.0252 28.4876 13.0252 28.4876H8.22656C8.32449 29.7559 8.71622 31.7071 10.1852 33.3657C11.85 35.2193 14.3963 36.1949 17.628 36.1949C20.1742 36.1949 22.4267 35.4144 24.0915 33.951V35.9022H28.5964V30.2437L30.1633 28.4876L34.6682 35.9022H39.8585L33.2971 25.1705L39.8585 18.0486ZM24.0915 23.4144C20.8598 20.7803 13.9066 22.4388 13.2211 19.1218C12.8294 17.3657 14.5921 15.9022 16.7466 15.9022C18.7053 15.9022 20.7618 16.3901 21.5453 19.1218H24.0915V23.4144Z" fill="white" fill-opacity="0.48"/>
<path d="M59.6408 32.9758C59.9346 33.0733 60.3263 33.1709 60.718 33.1709C61.2077 33.1709 61.5994 32.9758 61.8932 32.6831C62.187 32.3904 62.3829 32.0001 62.4808 31.5123L56.1152 18.1465H60.3263L64.4394 27.805L68.0629 18.1465H72.0781L66.3981 31.3172C65.6146 33.0733 64.8312 34.3416 64.0477 35.2197C63.1663 36.0977 62.2849 36.4879 61.2077 36.4879C60.816 36.4879 60.6201 36.4879 60.3263 36.3904C60.0325 36.3904 59.8366 36.2928 59.7387 36.2928L59.2491 36.0977C59.0532 36.0977 58.8573 36.0977 58.7594 36.0001V32.5855C58.9553 32.7806 59.2491 32.8782 59.6408 32.9758Z" fill="white" fill-opacity="0.48"/>
<path d="M78.9331 31.0246C78.6393 31.1222 78.4434 31.1222 78.1496 31.2197C77.8558 31.3173 77.562 31.3173 77.1703 31.3173C76.8765 31.4149 76.4848 31.4149 76.191 31.4149C75.4075 31.4149 74.722 31.3173 74.1344 31.2197C73.5468 31.0246 73.0571 30.8295 72.6654 30.5368C72.2737 30.2441 71.9799 29.8539 71.784 29.3661C71.5882 28.8783 71.4902 28.2929 71.4902 27.61V22.8295H74.9178V26.9271C74.9178 27.3173 75.0158 27.61 75.1137 27.8051C75.2116 28.0978 75.3096 28.2929 75.5054 28.3905C75.7013 28.5856 75.8972 28.6832 76.191 28.6832C76.4848 28.7807 76.8765 28.7807 77.2682 28.7807C77.8558 28.7807 78.3455 28.6832 78.6393 28.5856C79.031 28.488 79.2268 28.2929 79.4227 28.1953V22.7319H82.8503V36.0002H79.4227V30.7319C79.3248 30.8295 79.1289 30.9271 78.9331 31.0246Z" fill="white" fill-opacity="0.48"/>
<path d="M96.2674 34.4392C96.2674 34.7318 96.3654 34.927 96.4633 35.0245C96.5612 35.2197 96.6592 35.3172 96.7571 35.4148C96.855 35.5123 96.953 35.5123 97.0509 35.6099V36.1953H93.2316L93.0357 35.4148C92.9378 35.1221 92.9378 34.8294 92.9378 34.5367L92.0564 35.2197C91.7626 35.4148 91.4688 35.6099 91.175 35.805C90.8812 36.0001 90.4895 36.0977 90.0977 36.1953C89.706 36.2928 89.2164 36.3904 88.6288 36.3904C88.0412 36.3904 87.4536 36.2928 86.9639 36.0977C86.4743 35.9026 86.0825 35.6099 85.6908 35.3172C85.2991 34.927 85.0053 34.5367 84.8094 34.0489C84.6136 33.5611 84.5156 32.9757 84.5156 32.2928C84.5156 31.7075 84.6136 31.2197 84.8094 30.7318C85.0053 30.244 85.2011 29.8538 85.4949 29.4636C85.7887 29.0733 86.1805 28.7806 86.6701 28.5855C87.1598 28.2928 87.6494 28.1953 88.237 28.0977L91.5667 27.6099C91.6646 27.6099 91.8605 27.6099 91.9584 27.5123C92.1543 27.5123 92.2522 27.4148 92.3502 27.3172C92.4481 27.2197 92.546 27.1221 92.644 27.0245C92.7419 26.8294 92.7419 26.7318 92.7419 26.4392C92.7419 26.244 92.644 26.0489 92.644 25.8538C92.546 25.6587 92.4481 25.4636 92.2522 25.366C92.0564 25.1709 91.8605 25.0733 91.5667 25.0733C91.2729 24.9758 90.9791 24.9758 90.5874 24.9758C90.0977 24.9758 89.8039 25.0733 89.5101 25.0733C89.2164 25.1709 89.0205 25.366 88.8246 25.4636C88.6288 25.6587 88.5308 25.8538 88.4329 26.0489L88.237 26.7318H84.8094C84.8094 26.5367 84.8094 26.3416 84.9073 26.0489C85.0053 25.7562 85.1032 25.4636 85.2011 25.0733C85.2991 24.7806 85.5929 24.3904 85.7887 24.0977C86.0825 23.7075 86.3763 23.4148 86.7681 23.1221C87.1598 22.8294 87.6494 22.6343 88.335 22.4392C88.9226 22.244 89.6081 22.1465 90.4895 22.1465C91.6646 22.1465 92.644 22.244 93.4274 22.5367C94.1129 22.8294 94.7005 23.1221 95.1902 23.5123C95.5819 23.9026 95.8757 24.2928 95.9736 24.7806C96.0716 25.2684 96.1695 25.7562 96.1695 26.244V33.2684C96.2674 33.8538 96.2674 34.1465 96.2674 34.4392ZM92.1543 29.8538C91.9584 29.9514 91.6646 30.0489 91.2729 30.1465L90.3915 30.244C89.9998 30.3416 89.6081 30.4392 89.3143 30.5367C89.0205 30.6343 88.7267 30.7318 88.5308 30.927C88.335 31.1221 88.1391 31.3172 88.0412 31.5123C87.9432 31.7075 87.8453 32.0001 87.8453 32.3904C87.8453 32.6831 87.9432 32.8782 87.9432 33.0733C88.0412 33.2684 88.1391 33.4636 88.335 33.5611C88.5308 33.6587 88.6288 33.8538 88.8246 33.8538C89.0205 33.9514 89.3143 33.9514 89.5101 33.9514C89.6081 33.9514 89.8039 33.9514 89.9998 33.8538C90.1957 33.8538 90.3915 33.7562 90.6853 33.6587C90.8812 33.5611 91.175 33.4636 91.3709 33.2684C91.5667 33.1709 91.7626 32.9757 91.9584 32.6831C92.1543 32.4879 92.3502 32.1953 92.4481 31.805C92.546 31.5123 92.644 31.1221 92.644 30.6343V29.2684C92.546 29.6587 92.3502 29.7562 92.1543 29.8538Z" fill="white" fill-opacity="0.48"/>
<path d="M105.962 26.5369C105.864 26.2442 105.668 26.0491 105.57 25.854C105.374 25.6589 105.179 25.5613 104.885 25.4637C104.591 25.3662 104.297 25.3662 103.905 25.3662C103.318 25.3662 102.926 25.4637 102.534 25.7564C102.143 26.0491 101.947 26.3418 101.751 26.732C101.555 27.1223 101.457 27.6101 101.359 28.0979C101.261 28.5857 101.261 28.9759 101.261 29.4637C101.261 29.854 101.261 30.3418 101.359 30.8296C101.457 31.3174 101.555 31.7077 101.751 32.1955C101.947 32.5857 102.143 32.9759 102.534 33.1711C102.926 33.4637 103.318 33.5613 104.003 33.5613C104.395 33.5613 104.787 33.4637 105.081 33.2686C105.374 33.0735 105.57 32.8784 105.766 32.6833C105.962 32.3906 106.158 32.1955 106.256 31.9028C106.354 31.6101 106.354 31.415 106.354 31.2198H109.977C109.977 31.415 109.977 31.7077 109.879 32.0979C109.781 32.4881 109.683 32.7808 109.488 33.1711C109.292 33.5613 109.096 33.9516 108.802 34.3418C108.508 34.732 108.117 35.1223 107.725 35.415C107.235 35.7077 106.746 36.0003 106.158 36.1955C105.57 36.3906 104.885 36.4881 104.101 36.4881C103.122 36.4881 102.241 36.293 101.457 36.0003C100.674 35.7077 99.9882 35.2198 99.4985 34.6345C99.0089 34.0491 98.6172 33.2686 98.3234 32.3906C98.0296 31.5125 97.9316 30.5369 97.9316 29.3662C97.9316 28.1955 98.1275 27.2198 98.4213 26.3418C98.7151 25.4637 99.1068 24.7808 99.6944 24.1955C100.282 23.6101 100.87 23.1223 101.653 22.8296C102.437 22.5369 103.318 22.3418 104.199 22.3418C104.591 22.3418 104.983 22.4394 105.472 22.4394C105.864 22.5369 106.354 22.6345 106.746 22.732C107.137 22.9272 107.529 23.1223 108.019 23.3174C108.41 23.6101 108.704 23.9028 109.096 24.293C109.39 24.6833 109.683 25.0735 109.879 25.6589C110.075 26.1467 110.173 26.732 110.271 27.415H106.648C106.158 27.1223 106.06 26.8296 105.962 26.5369Z" fill="white" fill-opacity="0.48"/>
<path d="M121.827 22.8295V25.6588H117.812V36.0978H114.384V25.5612H110.369V22.7319H121.827V22.8295Z" fill="white" fill-opacity="0.48"/>
<path d="M131.424 27.6101V22.8296H134.852V36.0979H131.424V30.4393H126.332V36.0979H122.904V22.8296H126.332V27.6101H131.424Z" fill="white" fill-opacity="0.48"/>
<path d="M140.729 30.9271L145.625 22.7319H149.249V36.0002H145.821V28.0002H145.723L141.022 36.0002H137.203V22.8295H140.631L140.729 30.9271Z" fill="white" fill-opacity="0.48"/>
<path d="M160.022 22.8296H164.625L159.14 28.293L164.82 36.0003H160.316L156.398 30.4393L155.027 31.9028V36.0979H151.6V22.8296H155.027V27.9028L160.022 22.8296Z" fill="white" fill-opacity="0.48"/>
</g>
<defs>
<clipPath id="clip0_522_6262">
<rect width="164.819" height="48" fill="white"/>
</clipPath>
</defs>
</svg>
