<svg width="32" height="32" viewBox="0 0 32 32" fill="none" xmlns="http://www.w3.org/2000/svg">
<circle cx="16" cy="16" r="16" fill="url(#paint0_linear_522_6235)"/>
<path fill-rule="evenodd" clip-rule="evenodd" d="M7.88429 15.1366C12.3135 13.2069 15.2669 11.9347 16.7447 11.32C20.9641 9.56503 21.8408 9.26017 22.4123 9.25011C22.538 9.24789 22.819 9.27904 23.001 9.42675C23.1547 9.55148 23.197 9.71996 23.2173 9.83821C23.2375 9.95646 23.2627 10.2258 23.2427 10.4363C23.014 12.8388 22.0247 18.6689 21.5213 21.3597C21.3084 22.4982 20.889 22.88 20.483 22.9174C19.6007 22.9985 18.9307 22.3343 18.0762 21.7741C16.7389 20.8975 15.9835 20.3519 14.6855 19.4965C13.1854 18.508 14.1579 17.9646 15.0127 17.0767C15.2365 16.8444 19.1239 13.3084 19.1992 12.9876C19.2086 12.9475 19.2173 12.798 19.1285 12.719C19.0397 12.64 18.9085 12.667 18.8139 12.6885C18.6798 12.7189 16.5436 14.1309 12.4053 16.9244C11.7989 17.3408 11.2497 17.5437 10.7576 17.533C10.2151 17.5213 9.1716 17.2263 8.39586 16.9741C7.44437 16.6648 6.68815 16.5013 6.754 15.976C6.7883 15.7024 7.16506 15.4226 7.88429 15.1366Z" fill="white"/>
<defs>
<linearGradient id="paint0_linear_522_6235" x1="1600" y1="0" x2="1600" y2="3176.27" gradientUnits="userSpaceOnUse">
<stop stop-color="#2AABEE"/>
<stop offset="1" stop-color="#229ED9"/>
</linearGradient>
</defs>
</svg>
