<svg width="32" height="32" viewBox="0 0 32 32" fill="none" xmlns="http://www.w3.org/2000/svg">
<circle cx="16" cy="16" r="16" fill="#FF0302"/>
<g clip-path="url(#clip0_522_6230)">
<path fill-rule="evenodd" clip-rule="evenodd" d="M24.0596 10.6257C24.3389 10.9067 24.5395 11.2562 24.6412 11.6392C25.0176 13.0526 25.0176 16.0001 25.0176 16.0001C25.0176 16.0001 25.0176 18.9476 24.6412 20.361C24.5395 20.7439 24.3389 21.0934 24.0596 21.3745C23.7803 21.6556 23.4321 21.8584 23.0499 21.9626C21.6426 22.341 16.0176 22.341 16.0176 22.341C16.0176 22.341 10.3926 22.341 8.98531 21.9626C8.60303 21.8584 8.25482 21.6556 7.97554 21.3745C7.69627 21.0934 7.49571 20.7439 7.39394 20.361C7.01758 18.9476 7.01758 16.0001 7.01758 16.0001C7.01758 16.0001 7.01758 13.0526 7.39394 11.6392C7.49571 11.2562 7.69627 10.9067 7.97554 10.6257C8.25482 10.3446 8.60303 10.1418 8.98531 10.0376C10.3926 9.65918 16.0176 9.65918 16.0176 9.65918C16.0176 9.65918 21.6426 9.65918 23.0499 10.0376C23.4321 10.1418 23.7803 10.3446 24.0596 10.6257ZM18.8812 16.0001L14.1767 13.3236V18.6766L18.8812 16.0001Z" fill="white"/>
</g>
<defs>
<clipPath id="clip0_522_6230">
<rect width="18" height="18" fill="white" transform="translate(7 7)"/>
</clipPath>
</defs>
</svg>
