<svg width="32" height="32" viewBox="0 0 32 32" fill="none" xmlns="http://www.w3.org/2000/svg">
<circle cx="16" cy="16" r="16" fill="black"/>
<g clip-path="url(#clip0_522_6258)">
<path d="M24.999 16.0964C21.0136 16.2186 19.1944 16.3215 17.7352 17.7357C16.321 19.1949 16.2245 21.0141 16.0959 24.9995C20.99 24.9481 24.9476 20.9905 24.999 16.0964Z" fill="white"/>
<path d="M15.903 24.9995C15.7809 21.0141 15.678 19.1949 14.2638 17.7357C12.8046 16.3215 10.9854 16.225 7 16.0964C7.05138 20.9905 11.009 24.9481 15.903 24.9995Z" fill="white"/>
<path d="M24.999 15.9035C24.9476 11.0095 20.99 7.05187 16.0959 7.00049C16.2181 10.9859 16.321 12.805 17.7352 14.2643C19.1944 15.6785 21.0136 15.775 24.999 15.9035Z" fill="white"/>
<path d="M15.903 7.00049C11.009 7.05187 7.05138 11.0095 7 15.9035C10.9854 15.7814 12.8046 15.6785 14.2638 14.2643C15.678 12.805 15.7745 10.9859 15.903 7.00049Z" fill="white"/>
</g>
<defs>
<clipPath id="clip0_522_6258">
<rect width="18" height="18" fill="white" transform="translate(7 7)"/>
</clipPath>
</defs>
</svg>
