<svg width="24" height="24" viewBox="0 0 24 24" fill="none" xmlns="http://www.w3.org/2000/svg">
<g clip-path="url(#clip0_380_4804)">
<path d="M19.5596 7.1189C21.4796 10.0889 21.4786 13.9129 19.5606 16.8819" stroke="#D2AB49" stroke-width="1.5" stroke-linecap="round" stroke-linejoin="round"/>
<path d="M15.548 8.45236C17.5072 10.4116 17.5072 13.5882 15.548 15.5475C13.5887 17.5067 10.4121 17.5067 8.45284 15.5475C6.49358 13.5882 6.49358 10.4116 8.45284 8.45236C10.4121 6.4931 13.5887 6.4931 15.548 8.45236Z" stroke="#D2AB49" stroke-width="1.5" stroke-linecap="round" stroke-linejoin="round"/>
<path d="M14.3213 7.55094L16.9053 4.41194C17.2813 3.95494 17.9693 3.92194 18.3883 4.33994L19.6613 5.61294C20.0803 6.03194 20.0463 6.71994 19.5893 7.09594L16.4503 9.67994" stroke="#D2AB49" stroke-width="1.5" stroke-linecap="round" stroke-linejoin="round"/>
<path d="M9.67862 16.4491L7.09462 19.5881C6.71862 20.0451 6.03062 20.0781 5.61162 19.6601L4.33862 18.3871C3.91962 17.9681 3.95362 17.2801 4.41062 16.9041L7.54962 14.3201" stroke="#D2AB49" stroke-width="1.5" stroke-linecap="round" stroke-linejoin="round"/>
<path d="M7.5512 9.67911L4.4112 7.09511C3.9542 6.71911 3.9212 6.03111 4.3392 5.61211L5.6122 4.33911C6.0312 3.92011 6.7192 3.95411 7.0952 4.41111L9.6792 7.55011" stroke="#D2AB49" stroke-width="1.5" stroke-linecap="round" stroke-linejoin="round"/>
<path d="M16.4493 14.321L19.5883 16.905C20.0453 17.281 20.0783 17.969 19.6603 18.388L18.3873 19.661C17.9683 20.08 17.2803 20.046 16.9043 19.589L14.3203 16.45" stroke="#D2AB49" stroke-width="1.5" stroke-linecap="round" stroke-linejoin="round"/>
<path d="M16.8821 19.5611C13.9131 21.4791 10.0881 21.4801 7.11914 19.5601" stroke="#D2AB49" stroke-width="1.5" stroke-linecap="round" stroke-linejoin="round"/>
<path d="M4.43875 7.11792C2.52075 10.0869 2.51975 13.9109 4.43975 16.8809" stroke="#D2AB49" stroke-width="1.5" stroke-linecap="round" stroke-linejoin="round"/>
<path d="M16.8812 4.43999C13.9112 2.51999 10.0872 2.52099 7.11816 4.43899" stroke="#D2AB49" stroke-width="1.5" stroke-linecap="round" stroke-linejoin="round"/>
</g>
<defs>
<clipPath id="clip0_380_4804">
<rect width="24" height="24" fill="white"/>
</clipPath>
</defs>
</svg>
