<svg width="24" height="24" viewBox="0 0 24 24" fill="none" xmlns="http://www.w3.org/2000/svg">
<path d="M18.541 18.5403L20.0008 20.0001" stroke="#D2AB49" stroke-width="1.5" stroke-linecap="round" stroke-linejoin="round"/>
<path d="M16 19.5C17.933 19.5 19.5 17.933 19.5 16C19.5 14.067 17.933 12.5 16 12.5C14.067 12.5 12.5 14.067 12.5 16C12.5 17.933 14.067 19.5 16 19.5Z" stroke="#D2AB49" stroke-width="1.5" stroke-linecap="round" stroke-linejoin="round"/>
<path d="M12 21H6C5.46957 21 4.96086 20.7893 4.58579 20.4142C4.21071 20.0391 4 19.5304 4 19V9C4 8.46957 4.21071 7.96086 4.58579 7.58579C4.96086 7.21071 5.46957 7 6 7H18C18.5304 7 19.0391 7.21071 19.4142 7.58579C19.7893 7.96086 20 8.46957 20 9V11" stroke="#D2AB49" stroke-width="1.5" stroke-linecap="round" stroke-linejoin="round"/>
<path d="M8.5 7V6C8.5 5.07174 8.86875 4.1815 9.52513 3.52513C10.1815 2.86875 11.0717 2.5 12 2.5C12.9283 2.5 13.8185 2.86875 14.4749 3.52513C15.1313 4.1815 15.5 5.07174 15.5 6V7" stroke="#D2AB49" stroke-width="1.5" stroke-linecap="round" stroke-linejoin="round"/>
</svg>
