<svg width="440" height="440" viewBox="0 0 440 440" fill="none" xmlns="http://www.w3.org/2000/svg">
<g clip-path="url(#clip0_382_4076)">
<path d="M262.713 434.303C234.504 439.801 205.495 439.801 177.286 434.303C163.216 431.528 149.447 427.404 136.171 421.988C122.886 416.567 110.169 409.851 98.2047 401.938C92.2122 398 86.4216 393.771 80.8331 389.251C75.2445 384.731 69.8828 379.964 64.748 374.951C85.0003 395.538 109.16 411.891 135.817 423.054C162.473 434.217 191.091 439.966 220 439.966C248.908 439.966 277.526 434.217 304.182 423.054C330.839 411.891 354.999 395.538 375.251 374.951C354.173 395.509 329.934 411.325 303.828 421.988C290.552 427.404 276.783 431.528 262.713 434.303Z" fill="url(#paint0_linear_382_4076)"/>
<path d="M287.185 416.681C279.931 417.557 272.632 418.026 265.317 418.254C247.686 418.824 232.194 418.009 210.299 418.096C199.329 418.186 188.364 417.6 177.466 416.343C162.927 414.683 148.552 411.81 134.494 407.754C106.311 399.865 79.9282 385.841 57.3047 367.155C60.0229 369.464 61.4763 370.845 67.9446 375.876C68.4847 376.292 71.8133 378.764 72.3666 379.158C78.2376 383.317 75.3306 381.249 79.1642 383.86C80.6923 384.882 82.238 385.854 83.7925 386.854C85.347 387.853 86.9191 388.786 88.5087 389.711C90.0983 390.636 91.6835 391.574 93.3039 392.441C99.7585 395.979 106.4 399.166 113.201 401.986C131.947 409.713 153.731 415.572 177.224 418.403C186.374 419.496 195.574 420.11 204.788 420.244C244.656 420.406 250.619 420.875 265.387 420.327C272.742 420.047 280.102 419.512 287.418 418.574C302.19 416.751 316.738 413.289 329.885 406.711C333.201 405.076 336.375 403.205 339.502 401.246C355.363 391.442 370.548 377.865 382.672 367.141C371.378 376.568 360.154 386.052 348.074 394.251C330.693 406.093 316.435 413.214 287.185 416.681Z" fill="url(#paint1_linear_382_4076)"/>
<path d="M317.682 402.885C316.852 403.139 317.721 402.92 312.232 404.27C286.118 409.967 257.579 406.671 222.16 403.152C197.13 400.838 198.008 402.609 176.785 401.553C153.143 400.347 127.735 395.641 110.004 390.347C88.8249 384.027 71.2337 375.359 50.2832 359.008C75.9982 380.302 98.6481 390.263 131.631 397.398C167.12 405.05 191.052 403.972 199.418 404.011C223.697 404.147 258.827 410.865 290.022 409.042C335.396 406.443 352.175 386.486 389.742 359.008C365.401 375.753 347.147 392.582 323.052 401.185C322.223 401.513 321.823 401.618 317.682 402.885Z" fill="url(#paint2_linear_382_4076)"/>
<path d="M323.689 393.936C314.81 397.477 301.948 399.493 292.415 399.69C273.19 400.435 247.357 396.723 222.7 392.989C181.062 386.736 171.889 391.438 129.369 384.737C105.81 380.828 85.9529 376.963 62.9561 363.701C62.3238 363.355 58.5649 361.072 57.9545 360.673C53.012 357.536 48.2326 354.15 43.6348 350.528C60.3214 364.376 76.2044 372.738 94.7266 378.654C97.6643 379.531 99.2671 380.101 106.078 381.722C109.889 382.634 113.714 383.444 117.552 384.22C156.155 392.078 173.035 390.193 199.185 392.323C223.714 394.308 262.858 402.92 292.494 401.579C300.377 401.31 308.206 400.162 315.833 398.156C317.717 397.578 319.632 397.087 321.476 396.403C341.886 388.905 359.838 374.811 379.071 361.514C385.882 356.922 384.376 357.93 391.331 353.525C392.991 352.5 394.686 351.531 396.364 350.532C388.969 354.665 387.823 355.261 378.799 361.085C356.693 375.683 343.041 386.157 323.689 393.936Z" fill="url(#paint3_linear_382_4076)"/>
<path d="M300.931 393.401C262.205 397.56 215.487 380.596 175.088 377.708C157.641 376.586 148.837 378.207 102.861 370.354C75.565 365.713 61.7985 361.795 37.4316 341.745C61.6273 362.781 75.9558 366.826 102.628 371.717C148.525 380.144 158.124 378.584 174.956 379.776C213.721 382.695 256.334 398.034 295.047 395.772C301.489 395.391 304.822 394.817 307.215 394.348C331.714 389.185 358.447 367.812 381.391 353.455C389.454 348.49 394.446 345.654 402.588 341.745C398.899 343.393 395.232 345.106 391.662 347.004C362.048 362.395 330.361 390.776 300.931 393.401Z" fill="url(#paint4_linear_382_4076)"/>
<path d="M309.432 385.539C271.159 396.092 216.339 374.973 174.468 367.93C152.161 364.196 157.69 368.417 124.615 363.425C94.9522 358.775 103.098 360.051 87.5047 357.623C65.8955 354.178 55.5147 353.319 31.6484 332.665C40.7075 340.934 50.9171 349.094 62.8261 353.354C71.7534 356.549 79.987 357.61 99.6596 360.914C123.842 365.003 132.616 366.637 143.04 367.593C149.658 368.237 155.586 367.961 161.835 368.355C164.988 368.548 168.176 368.943 174.13 369.977C200.842 374.622 231.607 384.439 259.829 388.383C302.073 394.519 317.354 386.845 343.644 370.472C370.844 353.486 386.52 341.429 408.362 332.647C392.115 338.761 378.796 346.894 364.165 356.08C337.615 372.852 323.577 381.665 309.432 385.539Z" fill="url(#paint5_linear_382_4076)"/>
<path d="M311.776 377.887C306.85 379.846 301.704 381.203 296.451 381.928C289.044 382.783 281.567 382.843 274.148 382.108C243.164 379.25 206.857 366.414 174.072 358.355C134.358 348.665 144.726 355.787 103.87 348.713C92.2989 346.667 77.9264 345.365 65.508 343.586C61.4066 342.977 55.1975 342.24 47.1352 338.274C39.4549 334.475 32.6749 329.071 26.334 323.295C32.7144 329.43 39.0685 334.716 46.8761 338.791C51.6795 341.298 56.8365 343.062 62.1707 344.024C77.237 346.566 84.904 347.122 97.2653 349.094C106.873 350.646 119.336 353.608 135.667 354.266C139.933 354.335 144.192 354.647 148.423 355.199C181.704 359.582 234.574 380.784 273.95 384.167C285.271 385.105 294.659 384.387 299.92 383.291C328.142 377.826 363.259 347.184 392.987 332.218C403.807 326.731 408.111 325.342 413.666 323.295C408.77 324.96 406.416 325.591 398.599 329.018C367.172 343.112 338.365 367.751 311.776 377.887Z" fill="url(#paint6_linear_382_4076)"/>
<path d="M296.736 374.701C264.07 380.398 211.946 358.762 174.002 346.894C134.239 334.553 129.611 338.046 108.884 335.583C107.773 335.469 105.516 335.145 102.39 334.615L95.8687 333.453C72.2659 329.408 67.9713 330.933 56.2775 330.386C55.3685 330.337 53.6954 330.272 51.3681 329.947C45.9142 329.045 44.2719 328.374 40.3505 326.814C38.3441 325.917 36.3977 324.893 34.5234 323.746C29.7369 320.863 25.3325 317.172 21.4727 313.667C30.9884 322.716 39.885 329.163 52.9182 330.863C54.0204 331.021 55.1138 331.087 56.2291 331.17C67.9976 331.946 72.5557 330.548 95.6228 334.781C106.394 336.828 108.103 337.301 121.917 338.287C131.477 338.953 136.009 339.361 143.14 340.728C190.126 350.747 249.214 380.521 290.395 377.383C293.187 377.19 295.964 376.83 298.712 376.305C300.952 375.819 301.347 375.74 301.984 375.565C334.593 367.457 372.884 330.697 409.16 316.936C413.652 315.222 411.619 315.932 418.527 313.675L415.356 314.626C372.375 327.506 333.293 368.566 296.736 374.701Z" fill="url(#paint7_linear_382_4076)"/>
<path d="M406.794 309.175C406.03 309.477 401.318 311.559 400.576 311.914C393.426 315.332 386.467 319.136 379.731 323.308C360.69 335.22 346.186 345.808 328.037 355.611C302.726 369.341 289.052 370.043 263.412 364.784C222.964 356.387 188.058 336.399 148.564 324.141C122.181 316.042 114.374 318.229 94.9383 315.788C85.9978 314.521 76.8816 313.627 67.7918 314.131C49.0106 315.205 39.8329 322.326 17.0996 303.863C18.8166 305.331 20.5731 306.755 22.3691 308.114C28.3367 312.497 32.4689 314.368 37.4134 315.862C44.0573 317.493 47.4341 317.243 54.3591 316.506C63.1415 315.538 70.914 314.079 88.0309 316.226C90.2705 316.498 92.4792 316.848 94.7407 317.159C109.109 319.123 119.13 318.474 134.973 322.335C178.516 332.853 227.786 363.338 276.427 369.118C293.456 371.081 306.525 369.504 328.828 357.079C355.847 342.096 373.658 326.214 400.787 312.378C401.472 312.036 406.113 309.88 406.934 309.538C413.126 306.988 410.728 307.908 416.406 305.87C417.53 305.467 416.498 305.791 422.888 303.872C416.406 305.625 417.508 305.331 416.358 305.712C410.807 307.562 412.805 306.83 406.794 309.175Z" fill="url(#paint8_linear_382_4076)"/>
<path d="M290.352 358.074C289.724 358.101 289.359 358.074 286.935 358.026C264.72 356.479 244.578 348.564 224.391 339.567C201.522 329.43 173.506 315.065 148.357 305.458C122.291 295.379 110.198 296.869 100.678 296.312C95.9176 296.023 82.9942 294.419 72.8812 295.063C72.3016 295.063 71.7176 295.124 71.1248 295.177C68.2161 295.382 65.3237 295.772 62.4653 296.347C54.4733 297.885 46.8589 301.606 38.9723 302.342C29.4126 303.219 21.4293 298.889 13.209 293.854C19.1108 297.662 25.1355 301.304 32.0385 302.553C42.9419 304.529 51.0349 299.371 64.3535 297.048C69.4743 296.287 74.654 295.994 79.8281 296.172C88.5491 296.422 96.4533 297.487 100.568 297.78C108.599 298.337 112.459 297.846 121.207 299.476C135.232 302.106 148.318 306.865 173.12 318.154C216.531 337.74 248.113 356.317 283.313 359.814C300.469 361.409 315.18 355.901 330.154 347.683C366.43 327.888 395.421 301.098 426.761 293.867C395.047 300.401 364.897 327.322 329.359 346.206C316.914 352.85 304.377 357.846 290.352 358.074Z" fill="url(#paint9_linear_382_4076)"/>
<path d="M317.486 343.371C300.483 350.072 286.018 352.337 249.312 337.349C240.556 333.743 232.028 329.584 223.615 325.201C199.849 312.873 172.593 296.023 147.813 285.408C143.422 283.533 138.983 281.78 134.433 280.237C118.761 275.105 104.854 275.026 91.9615 274.338C87.1908 274.042 82.4074 274.007 77.6329 274.233C58.4916 275.368 48.3874 284.782 37.2601 287.972C26.8968 291.092 16.9858 286.657 9.82812 283.629C17.1351 286.907 24.7583 290.426 33.892 289.247C46.5782 287.494 56.9239 276.468 77.6988 275.465C82.4307 275.291 87.1686 275.376 91.8912 275.719C104.481 276.525 118.401 276.74 133.849 281.981C161.843 291.723 194.053 312.277 222.605 327.147C231.062 331.529 239.656 335.702 248.513 339.326C265.428 346.193 284.846 352.789 302.661 349.752C313.266 347.653 321.605 343.998 331.112 338.796C366.557 319.425 394.038 290.733 430.164 283.616C397.669 289.234 371.322 312.851 342.617 330.21C335.288 334.672 326.409 339.852 317.486 343.371Z" fill="url(#paint10_linear_382_4076)"/>
<path d="M261.11 330.206C247.651 324.557 234.697 317.383 222.331 309.74C213.988 304.634 205.811 299.292 197.587 293.963C189.362 288.634 181.084 283.392 172.662 278.366C157.293 269.198 136.549 258.049 118.957 254.402C113.837 253.32 109.666 253.114 104.194 253.088C101.735 253.088 99.2892 253.088 96.8565 253.053C90.6868 252.921 82.9407 252.772 74.7599 254.201C47.3192 259.022 43.1168 277.722 21.3319 276.113C16.4577 275.763 11.6713 274.509 6.97266 273.23C14.1743 275.359 21.2661 277.349 28.674 276.297C40.7104 274.663 47.7846 265.446 61.0593 259.473C73.605 253.802 87.3188 254.214 96.8214 254.49C110.623 254.885 118.593 253.114 145.924 266.073C154.706 270.28 163.23 275.066 171.591 280.097C179.951 285.128 188.216 290.378 196.419 295.712C204.621 301.045 212.824 306.405 221.181 311.541C229.537 316.677 238.074 321.555 246.869 325.955C257.632 331.214 271.407 337.231 283.106 339.611C284.73 339.935 287.027 340.369 288.612 340.54C301.738 342.293 310.805 339.006 314.38 337.889C314.85 337.735 317.239 336.872 317.866 336.604C322.441 334.755 326.892 332.612 331.189 330.189C370.71 308.162 399.482 278.694 433.026 273.216C399.122 277.989 369.678 307.347 330.381 328.734C305.698 342.192 290.18 342.512 261.11 330.206Z" fill="url(#paint11_linear_382_4076)"/>
<path d="M272.874 323.773C263.598 319.93 254.613 315.42 245.991 310.279C237.345 305.151 228.997 299.524 220.794 293.687C195.923 276.008 159.994 246.589 131.701 236.469C128.698 235.385 125.63 234.489 122.515 233.787C121.891 233.652 121.276 233.489 120.648 233.38C119.392 233.143 118.145 232.88 116.885 232.705C107.036 231.132 96.4219 231.175 86.489 232.017C81.404 232.434 76.3833 233.428 71.5237 234.979C45.7824 243.175 41.2858 263.575 19.6503 264.18C14.6179 264.333 9.59878 263.514 4.61914 262.76C15.7289 264.688 24.3796 266.2 34.2335 260.63C42.9413 255.73 48.6279 248.271 58.3106 242.395C66.7768 237.285 75.5768 234.23 86.6032 233.397C96.4615 232.657 106.943 232.722 116.608 234.366C117.847 234.554 119.067 234.826 120.293 235.067C122.176 235.413 125.922 236.483 126.642 236.684C156.472 246.242 189.437 273.988 219.521 295.449C227.763 301.295 236.172 306.944 244.898 312.102C245.978 312.764 247.093 313.377 248.191 314L251.502 315.867C252.613 316.476 253.742 317.054 254.861 317.646C255.981 318.238 257.097 318.847 258.238 319.399L261.663 321.06L263.376 321.893C298.945 338.261 314.073 335.04 356.47 305.761C387.072 284.602 409.406 266.134 435.358 262.769C409.011 265.604 385.68 284.348 355.688 304.626C317.485 330.438 301.738 335.496 272.874 323.773Z" fill="url(#paint12_linear_382_4076)"/>
<path d="M355.483 295.869C351.209 298.835 346.885 301.716 342.511 304.512C315.097 322.041 298.735 326.183 270.495 311.962C261.294 307.193 252.44 301.785 243.999 295.777C242.94 295.032 241.873 294.296 240.819 293.534L237.684 291.233L236.116 290.085L234.566 288.906L231.466 286.552C227.368 283.371 223.303 280.138 219.272 276.854C185.543 249.446 147.155 213.865 114.633 210.381C106.47 209.504 94.3855 210.126 87.1663 211.121C85.8489 211.27 84.5711 211.559 83.2757 211.787C72.9079 213.85 63.2267 218.483 55.1236 225.259C42.6789 235.128 36.9 250.007 18.3603 252.303C13.205 252.952 7.9707 252.601 2.78906 252.176C10.7503 252.996 18.5316 253.6 26.0625 250.94C39.9607 246.067 46.5475 231.679 60.4677 222.63C63.3132 220.798 62.312 221.407 65.421 219.61C74.243 214.899 82.0418 212.944 91.2062 212.112C98.399 211.538 107.287 211.235 114.445 212.059C145.798 215.565 184.177 251.094 217.888 278.532C221.931 281.828 226.017 285.067 230.144 288.248L233.262 290.61L234.821 291.794L236.402 292.946L239.563 295.256C240.622 296.018 241.702 296.759 242.765 297.513C257.695 307.947 269.459 314.1 276.722 317.081C278.514 317.856 282.33 319.272 284.148 319.78C286.672 320.573 289.244 321.203 291.85 321.665C294.459 322.138 297.102 322.402 299.754 322.453C302.413 322.505 305.071 322.325 307.698 321.914C308.211 321.849 311.105 321.292 311.601 321.156C312.884 320.832 314.175 320.53 315.426 320.109C319.967 318.768 325.794 316.165 329.917 313.899C368.652 292.368 401.775 256.44 435.267 252.4L437.208 252.167L435.263 252.36C409.319 254.941 383.354 276.56 355.483 295.869Z" fill="url(#paint13_linear_382_4076)"/>
<path d="M341.426 296.255C336.952 299.157 332.332 301.829 327.585 304.262C322.816 306.624 317.876 308.666 312.743 309.924C311.452 310.196 310.174 310.542 308.865 310.708C307.572 310.946 306.265 311.103 304.953 311.177C304.3 311.254 303.643 311.286 302.985 311.274C301.67 311.333 300.352 311.294 299.042 311.155C298.388 311.125 297.735 311.059 297.088 310.958C294.483 310.577 291.907 310.013 289.381 309.271C280.261 306.536 274.776 303.46 271.083 301.505C260.276 295.379 251.533 289.024 241.517 280.916C233.174 274.198 225.182 267.068 217.317 259.775C195.598 239.537 166.533 210.915 142.763 198.285C137.412 195.331 131.774 192.927 125.936 191.111C123.317 190.361 120.654 189.776 117.961 189.358C111.836 188.328 104.155 188.017 95.6496 188.893C94.8241 188.963 94.2971 189.042 91.6185 189.402C87.5988 190.012 83.6246 190.89 79.7227 192.031C74.3347 193.705 72.6089 194.582 68.5031 196.773C68.064 197.014 65.7279 198.451 65.056 198.964C62.5926 200.687 63.6377 199.942 61.7802 201.375C54.1658 207.322 47.7283 215.749 42.7618 222.244C30.4664 238.31 21.8069 242.316 1.48438 241.492C13.4373 242.219 22.8696 241.645 32.2229 234.414C43.5918 225.61 49.4145 211.187 65.7191 199.985C66.3646 199.516 68.6656 198.132 69.1047 197.895C73.1534 195.774 74.8133 194.967 80.0828 193.333C82.9749 192.522 85.9061 191.856 88.8652 191.339C101.767 189.31 112.784 189.375 125.405 192.855C155.862 202.908 182.121 230.224 215.824 261.384C223.728 268.676 231.769 275.846 240.151 282.595C244.327 286 248.64 289.239 253 292.412C257.361 295.585 261.866 298.547 266.543 301.299C271.212 304.061 276.079 306.477 281.104 308.526C286.161 310.589 291.446 312.047 296.846 312.869C297.527 312.971 298.213 313.035 298.902 313.062C300.272 313.196 301.65 313.228 303.025 313.158C303.712 313.167 304.398 313.13 305.08 313.049C306.449 312.965 307.812 312.795 309.159 312.54C310.521 312.361 311.838 311.993 313.173 311.699C326.443 308.311 340.952 298.937 355.553 288.349C387.077 265.477 410.544 243.591 438.547 241.487C410.329 243.026 386.023 265.012 354.762 287.227C350.367 290.339 345.945 293.363 341.426 296.255Z" fill="url(#paint14_linear_382_4076)"/>
<path d="M393.479 248.859C388.877 251.961 384.372 255.196 379.923 258.5C371.031 265.126 362.358 272.007 353.405 278.515C344.868 284.716 334.681 291.662 325.406 296.045C315.307 300.804 304.64 303.333 293.737 300.984C291.745 300.548 289.786 299.974 287.875 299.266C279.224 296.198 271.79 292.008 264.294 286.833C259.771 283.712 255.423 280.316 251.195 276.779C249.074 275.026 246.997 273.203 244.924 271.38L241.85 268.602C240.831 267.673 239.8 266.757 238.803 265.801C230.727 258.268 222.994 250.379 215.327 242.39C200.002 226.438 184.975 210.056 168.113 195.541C159.708 188.293 150.886 181.386 141.085 175.956C136.175 173.233 130.993 171.029 125.623 169.383C111.752 165.276 92.6674 165.925 76.1959 172.753C73.6132 173.844 71.11 175.113 68.7045 176.552C61.481 180.742 55.6978 187.342 50.9948 194.152C42.7349 206.042 39.8147 213.532 31.489 220.776C22.7592 228.327 12.3345 230.785 0.693359 230.724C12.4047 231.018 22.8558 228.774 31.871 221.218C40.0387 214.504 44.4211 205.17 51.8818 194.77C61.4546 181.101 69.4466 177.582 72.986 175.715C73.4251 175.483 76.2662 174.199 76.7361 174.032C92.9836 167.459 111.725 167.051 125.101 171.144C140.593 175.869 154.355 186.29 166.756 197.093C183.443 211.555 198.425 227.884 213.742 243.885C221.422 251.874 229.208 259.784 237.34 267.348C238.346 268.308 239.387 269.228 240.414 270.162L243.488 272.953C245.574 274.785 247.669 276.608 249.812 278.383C254.084 281.946 258.48 285.395 263.091 288.52C267.683 291.708 272.506 294.551 277.52 297.026C280.658 298.585 283.894 299.941 287.207 301.085C289.199 301.808 291.239 302.393 293.311 302.838C310.38 306.427 326.065 298.7 340.569 289.173C345.211 286.105 349.738 282.897 354.182 279.597C363.092 272.984 371.725 266.038 380.529 259.324C387.283 254.148 393.747 249.45 400.799 244.897C403.39 243.302 401.238 244.546 406.108 241.658C411.154 238.823 416.111 236.176 423.01 233.849C423.633 233.616 426.523 232.762 426.962 232.643C428.363 232.315 429.974 231.833 433.044 231.329C433.312 231.294 435.867 230.952 436.118 230.926L439.227 230.706C427.906 231.031 417.556 234.721 407.61 240.12C402.751 242.786 398.034 245.702 393.479 248.859Z" fill="url(#paint15_linear_382_4076)"/>
<path d="M66.1487 160.048C67.2509 159.171 68.4321 158.387 69.5914 157.58C72.2261 155.976 72.1734 155.884 77.0125 153.505C79.5902 152.344 82.2408 151.351 84.9475 150.533C87.6588 149.73 90.4174 149.095 93.2073 148.631C95.9985 148.178 98.8135 147.885 101.638 147.755C105.172 147.6 108.712 147.704 112.23 148.066C121.386 148.956 130.279 151.627 138.406 155.928C148.172 161.24 157.46 168.782 165.496 176.386C181.638 191.654 198.127 211.445 211.555 226.99C219.046 235.623 226.569 244.248 234.482 252.544C242.395 260.84 250.729 268.786 259.731 275.911C274.073 287.363 282.425 290.479 285.446 291.75C286.118 292.03 286.812 292.249 287.497 292.499C290.943 293.732 294.523 294.552 298.163 294.94C299.625 295.006 301.092 295.168 302.554 295.098C302.919 295.098 303.288 295.098 303.652 295.072C304.749 295.022 305.842 294.917 306.928 294.756C318.174 293.244 328.937 287.113 338.426 280.907C343.226 277.757 347.867 274.382 352.421 270.911C356.975 267.44 361.44 263.864 365.902 260.292C370.363 256.721 374.816 253.123 379.251 249.525C396.935 235.211 416.801 220.311 439.578 219.978C416.686 219.873 396.57 234.554 378.579 248.688L371.865 254.025L365.138 259.328C360.641 262.865 356.149 266.393 351.587 269.815C347.024 273.238 342.365 276.547 337.592 279.628C327.492 286.096 316.426 292.232 304.609 293.148C301.25 293.376 300.473 293.174 298.347 293.069C297.654 292.986 296.964 292.872 296.275 292.775C295.58 292.695 294.892 292.568 294.215 292.394C292.839 292.127 291.481 291.774 290.149 291.338C289.332 291.123 286.636 290.124 286.197 289.94C282.273 288.346 278.493 286.42 274.898 284.181C270.083 281.174 265.462 277.867 261.062 274.281C252.205 267.122 243.853 259.361 236.067 251.054C228.215 242.798 220.724 234.177 213.232 225.539C200.059 210.284 182.621 189.52 166.936 174.856C158.522 167.047 149.503 159.767 139.32 154.263C129.066 148.794 117.456 146.116 105.898 146.046C104.449 146.011 103.004 146.094 101.559 146.138C98.6715 146.295 95.7949 146.617 92.9439 147.102C90.0939 147.606 87.277 148.28 84.5083 149.122C79.2608 150.875 79.4013 150.941 76.4153 152.238C71.5542 154.675 71.5499 154.798 68.8493 156.48C64.4888 159.548 64.2912 159.868 62.0341 161.84C58.3279 165.469 56.9622 167.007 53.6908 171.758C47.2005 181.517 43.3011 192.421 37.0041 201.69C28.2217 214.469 15.8868 219.763 0.429688 220.017C45.7427 220.118 40.9826 178.463 66.1487 160.048Z" fill="url(#paint16_linear_382_4076)"/>
<path d="M14.1915 206.874C17.0941 205.884 16.5452 206.081 17.1819 205.814C20.8617 204.263 18.9647 205.06 21.033 204.061C22.3152 203.465 23.4965 202.68 24.7172 201.971C25.3057 201.58 25.8809 201.169 26.4737 200.77C27.0647 200.38 27.6322 199.955 28.1731 199.499C29.2995 198.644 30.3743 197.724 31.3919 196.742C31.9715 196.243 33.9871 194.161 34.3647 193.723C37.1885 190.556 39.6892 187.116 41.8298 183.455C47.4462 173.945 52.9528 163.124 59.9875 155.249C61.8222 153.162 63.8064 151.211 65.9244 149.412C67.5274 148.085 69.2078 146.854 70.9567 145.726C71.5408 145.358 72.1512 145.025 72.7484 144.67C91.7711 133.814 116.99 132.627 136.803 142.794C141.792 145.29 146.577 148.172 151.114 151.414C155.664 154.653 160.042 158.125 164.231 161.818C168.437 165.504 172.512 169.352 176.5 173.292C199.066 195.616 213.728 214.807 233.928 234.997C241.898 242.969 250.255 250.603 259.261 257.444C260.363 258.32 261.522 259.14 262.677 259.959L266.129 262.427C299.225 285.216 317.743 279.865 351.516 256.204C360.738 249.757 369.696 242.929 378.821 236.373C383.37 233.082 387.981 229.869 392.693 226.815C395.035 225.284 397.417 223.8 399.841 222.362C402.265 220.925 404.713 219.553 407.184 218.247C412.138 215.607 417.329 213.435 422.689 211.761C428.06 210.069 433.66 209.218 439.292 209.237C422.092 208.908 405.238 216.551 378.197 235.501C357.119 250.287 338.47 265.302 321.612 271.595C320.057 272.191 318.099 272.835 317.66 272.971C315.028 273.821 312.332 274.46 309.597 274.882C308.912 274.965 308.227 275.018 307.547 275.088C306.865 275.173 306.179 275.213 305.492 275.206C304.117 275.269 302.739 275.24 301.368 275.118C300.49 275.118 297.71 274.724 297.271 274.632C295.91 274.411 294.562 274.118 293.231 273.755C289.323 272.848 282.188 270.166 274.279 265.332C271.89 263.899 269.563 262.357 267.253 260.761L263.911 258.303C262.774 257.488 261.632 256.681 260.548 255.8C251.703 248.927 243.326 241.474 235.474 233.489C216.122 214.106 200.678 194.143 178.001 171.793C173.984 167.849 169.882 163.961 165.605 160.263C161.342 156.541 156.888 153.044 152.26 149.784C147.626 146.507 142.742 143.596 137.655 141.076C133.832 139.151 129.826 137.609 125.698 136.474C107.11 131.487 87.257 134.621 72.0414 143.486C70.0258 144.714 71.3037 143.828 67.5799 146.423C61.6605 151.151 57.748 155.039 51.5607 164.733C48.6011 169.312 44.2845 177.49 41.1096 183.051C38.0929 188.122 36.9731 189.568 33.8773 193.306C33.5084 193.745 31.5368 195.844 30.9835 196.335C29.7339 197.557 28.4143 198.705 27.0314 199.775C23.8258 202.212 20.3117 204.216 16.5803 205.735L13.6118 206.8C10.0989 207.817 10.7663 207.637 10.0637 207.79C6.98752 208.533 3.85441 209.016 0.697266 209.237C4.03985 209.065 7.36154 208.607 10.6258 207.869C14.0993 206.945 13.6909 207.045 14.1915 206.874Z" fill="url(#paint17_linear_382_4076)"/>
<path d="M103.759 124.826C122.022 123.007 135.376 127.894 150.21 137.391C152.505 138.889 154.763 140.448 156.985 142.067C159.181 143.701 161.376 145.371 163.506 147.111C167.779 150.573 171.924 154.202 175.986 157.931C178.015 159.794 180.017 161.691 182.02 163.58C204.784 185.795 216.271 199.455 234.205 216.893C242.103 224.687 250.406 232.062 259.081 238.985C267.934 245.909 277.327 252.106 287.764 256.011C288.41 256.283 289.082 256.471 289.749 256.703C292.02 257.435 290.513 257.014 293.785 257.908C294.459 258.111 295.143 258.276 295.836 258.404C297.206 258.743 298.599 258.987 300.003 259.136C302.137 259.377 300.104 259.276 304.236 259.451C304.943 259.478 305.651 259.468 306.357 259.42C307.064 259.385 307.771 259.39 308.473 259.32C310.58 259.139 312.672 258.827 314.74 258.386C320.176 257.071 325.687 255.551 336.134 250.016C349.593 242.846 365.994 231.294 378.166 223.283C382.773 220.215 387.423 217.248 392.166 214.421C406.468 205.871 421.969 198.092 438.524 198.513C419.47 197.636 400.759 207.51 377.582 222.389C357.822 235.098 337.53 249.726 320.312 255.134C318.995 255.507 317.704 255.945 316.36 256.226C314.712 256.645 313.042 256.976 311.358 257.216C311.121 257.251 308.561 257.514 308.324 257.54C307.648 257.602 306.972 257.589 306.295 257.619C305.62 257.654 304.942 257.654 304.267 257.619C302.918 257.589 301.572 257.479 300.236 257.291C298.04 256.957 299.832 257.343 295.243 256.353L292.292 255.533C291.853 255.402 288.915 254.42 288.423 254.218C278.209 250.34 268.996 244.183 260.359 237.359C251.767 230.455 243.537 223.113 235.702 215.363C218.339 198.416 206.413 184.34 183.491 162.042C181.471 160.144 179.455 158.242 177.413 156.371C173.321 152.633 169.144 148.969 164.806 145.494C162.645 143.741 160.415 142.071 158.184 140.423C140.72 127.78 124.811 120.847 103.584 123.147C52.281 129.038 51.069 166.258 31.2075 185.352C23.1892 193.127 12.558 197.036 1.47461 198.5C12.6766 197.238 23.3385 193.547 31.6072 185.764C52.1581 166.604 53.2646 130.159 103.759 124.826Z" fill="url(#paint18_linear_382_4076)"/>
<path d="M67.703 130.558C68.7261 129.682 69.7185 128.805 70.7768 127.977C71.3082 127.565 71.8219 127.135 72.3664 126.741C75.1812 124.721 74.281 125.356 75.6687 124.449C79.0283 122.242 82.6071 120.387 86.3481 118.914C94.4875 115.716 103.084 113.83 111.817 113.326C113.135 113.282 114.491 113.212 115.831 113.247C119.844 113.267 123.847 113.669 127.784 114.448C129.101 114.702 128.42 114.549 131.674 115.364C149.494 120.842 162.632 131.115 176.14 142.386C177.18 143.263 178.186 144.139 179.214 145.016C180.241 145.892 181.251 146.769 182.257 147.689C184.255 149.508 186.288 151.292 188.251 153.15C210.65 173.984 235.522 201.756 259.217 220.109C267.811 226.784 277.028 232.819 287.137 237.113C299.52 242.333 308.473 242.754 319.456 240.054C337.253 235.593 358.191 221.648 377.271 210.209C395.802 199.095 416.331 186.676 437.211 187.824C420.884 186.597 405.26 193.574 390.918 201.317C356.254 220.162 327.448 242.618 303.226 239.673C288.366 237.968 272.255 227.695 260.495 218.479C235.676 198.925 213.742 173.839 189.7 151.59C187.724 149.727 185.677 147.939 183.671 146.111C182.656 145.204 181.62 144.323 180.597 143.429C179.574 142.535 178.559 141.633 177.523 140.774C175.433 139.021 173.36 137.268 171.23 135.58C169.101 133.893 166.944 132.223 164.753 130.602C160.366 127.35 155.793 124.356 151.057 121.635C146.299 118.903 141.301 116.607 136.127 114.777C119.923 109.036 101.643 111.223 85.8124 117.507C82.6347 118.803 79.5695 120.358 76.6479 122.157C76.0595 122.512 75.5018 122.906 74.9265 123.279C72.0769 125.175 69.3745 127.283 66.8423 129.585C49.5058 145.603 45.3561 161.849 31.8004 174.243C23.6898 181.693 13.5373 185.738 2.81836 187.828C42.897 180.864 42.616 153.307 67.703 130.558Z" fill="url(#paint19_linear_382_4076)"/>
<path d="M66.7017 124.743C68.5722 122.905 70.544 121.173 72.6079 119.554C73.6574 118.765 74.6849 117.954 75.7739 117.222C84.4381 111.257 94.2511 107.156 104.589 105.179C122.523 101.673 137.826 103.212 154.003 111.937C159.58 114.961 158.237 114.203 160.876 115.802C169.759 121.193 177.874 126.785 189.515 136.781C197.516 143.657 205.166 150.945 212.745 158.321C238.653 183.468 262.805 208.531 290.364 219.777C291.6 220.308 292.862 220.778 294.145 221.183C294.777 221.418 295.422 221.617 296.077 221.779C297.374 222.176 298.694 222.496 300.029 222.739C323.838 227.656 347.524 212.703 376.067 197.032C398.691 184.537 416.972 175.851 435.401 177.227C430.111 176.752 424.779 177.019 419.562 178.02C381.952 185.291 338.676 225.404 306.177 221.766C300.468 221.201 296.077 220.368 287.497 216.459C262.77 205.157 239.944 181.754 214.291 156.757C206.694 149.377 198.992 142.071 190.925 135.164C182.858 128.257 174.423 121.719 165.368 116.096C158.781 112.152 160.889 113.318 153.187 109.216C149.589 107.409 145.854 105.891 142.015 104.675C129.47 100.635 117.144 100.88 104.251 103.531C93.7911 105.701 83.6869 109.877 74.9791 116.092C73.8769 116.85 72.8318 117.687 71.7736 118.498C66.3328 123.038 62.2007 126.824 53.1284 139.196C50.0107 143.473 46.9807 147.794 43.6873 151.905C41.8562 154.254 39.5332 156.923 38.554 157.914C36.7528 159.834 34.833 161.64 32.8059 163.322C24.7216 170.11 14.8985 174.69 4.62305 177.21C41.2107 168.633 46.041 145.691 66.7017 124.743Z" fill="url(#paint20_linear_382_4076)"/>
<path d="M121.123 94.3064C126.081 93.7279 131.39 93.5088 136.348 94.1267C163.033 97.3522 193.908 123.428 213.949 141.593C238.632 163.944 261.537 187.057 286.589 199.354C290.1 201.078 293.712 202.59 297.404 203.881C300.05 204.786 302.77 205.457 305.533 205.888C308.422 206.235 308.492 206.252 308.962 206.274C311.58 206.477 314.209 206.477 316.827 206.274C317.415 206.252 320.248 205.937 320.731 205.836C324.601 205.265 328.419 204.386 332.148 203.206C357.823 195.156 391.196 172.113 417.618 167.349C422.694 166.411 427.876 166.187 433.014 166.683C427.874 166.078 422.674 166.193 417.566 167.025C395.693 170.583 369.605 186.163 346.103 196.322C334.168 201.524 327.581 203.114 320.498 204.21C320.028 204.284 317.262 204.565 316.699 204.578C313.217 204.809 309.721 204.662 306.27 204.14C304.706 203.9 303.155 203.578 301.624 203.176C299.394 202.562 301.299 203.176 297.093 201.782C295.846 201.296 291.573 199.687 287.432 197.592C269.797 188.828 252.851 174.12 238.206 160.863C230.579 153.939 223.07 146.87 215.42 139.928C207.771 132.986 199.95 126.211 191.76 119.869C180.343 111.034 165.273 100.972 151.8 95.9586C138.1 90.8486 127.583 90.967 113.21 93.6578C110.668 94.1442 108.117 94.6614 105.592 95.3188C95.4502 97.8531 85.8944 102.317 77.4483 108.466C73.2837 111.578 69.4002 115.047 65.8423 118.835C51.2327 134.117 43.2188 149.951 21.3373 160.994C16.7302 163.312 11.9264 165.219 6.98242 166.692C62.5138 151.375 53.4898 102.112 121.123 94.3064Z" fill="url(#paint21_linear_382_4076)"/>
<path d="M48.5923 133.854C65.3492 118.401 76.5161 99.2323 107.667 89.6347C127.011 83.8367 147.816 83.863 165.829 92.0056C178.651 97.843 188.316 104.579 193.235 107.94C196.748 110.359 202.75 114.992 203.747 115.754C205.701 117.306 207.66 118.857 209.601 120.43C211.542 122.004 213.469 123.594 215.375 125.216C223.038 131.641 230.547 138.271 238.144 144.819L243.852 149.705L249.635 154.526C253.513 157.708 257.421 160.867 261.426 163.909C275.623 174.716 297.601 189.165 315.539 189.476C344.802 189.98 383.8 161.143 415.176 156.542C420.134 155.799 425.171 155.738 430.145 156.362C425.171 155.627 420.119 155.577 415.132 156.213C383.431 160.293 344.13 188.582 315.578 187.798C293.328 187.193 265.365 164.741 250.984 152.896L245.231 148.075L239.522 143.188C231.952 136.641 224.447 129.993 216.763 123.529C201.543 110.741 185.023 98.3602 166.659 90.1036C148.115 81.8339 126.642 81.904 107.145 88.0263C69.5692 100.03 61.16 125.238 36.5033 142.807C28.3276 148.608 19.3364 153.168 9.82227 156.34C19.4456 153.392 28.5625 148.997 36.859 143.307C40.9908 140.439 44.9119 137.28 48.5923 133.854Z" fill="url(#paint22_linear_382_4076)"/>
<path d="M39.3855 133.416C65.7592 116.521 75.9161 94.7446 109.838 83.2976C116.689 81.0127 123.749 79.4097 130.916 78.5119C158.664 75.2776 173.691 83.2669 180.041 86.1024C186.706 89.4243 197.395 94.5474 216.799 109.154C232.27 120.794 246.897 133.6 262.499 145.244C270.298 151.055 278.338 156.612 286.875 161.376C317.108 178.235 328.31 174.615 370.602 158.308C375.125 156.555 379.657 154.802 384.215 153.198C392.843 150.174 398.855 148.163 407.782 146.475C413.978 145.515 416.328 145.415 421.351 145.551C423.169 145.658 424.979 145.863 426.774 146.164L424.978 145.866C409.512 143.289 390.727 149.71 370.211 157.309C348.255 165.482 330.049 172.761 314.443 170.333C297.936 167.8 277.117 153.68 263.755 143.6C236.323 122.976 214.573 101.279 184.239 85.835C175.122 81.3123 171.065 79.9976 167.223 78.8976C149.482 73.8796 128.58 75.0761 109.307 81.7155C74.9544 93.6884 64.8853 115.767 39.0825 132.929C35.0418 135.607 30.8484 138.047 26.5237 140.239C22.2051 142.452 17.7643 144.418 13.2227 146.129C17.8071 144.517 22.2976 142.65 26.673 140.537C31.0444 138.409 35.289 136.032 39.3855 133.416Z" fill="url(#paint23_linear_382_4076)"/>
<path d="M112.274 77.4514C114.469 76.7151 116.665 75.9131 118.931 75.3083C120.051 74.9928 121.162 74.6378 122.295 74.3573C127.841 73.0075 126.313 73.3581 129.105 72.7928C130.247 72.5737 131.384 72.3151 132.535 72.1266C139.464 71.1011 143.267 70.4306 153.384 70.3737C155.707 70.4569 158.039 70.4482 160.353 70.6804C163.098 70.8952 163.309 70.9039 163.827 70.9784C170.611 71.8549 167.283 71.4167 170.708 72.0171C173.119 72.4553 173.483 72.5255 174.111 72.7051C176.355 73.2968 178.616 73.8095 180.808 74.5765C201.828 80.9792 224.118 98.0402 240.717 110.232C248.301 115.763 255.827 121.368 263.503 126.794C267.341 129.505 271.223 132.162 275.148 134.765C279.079 137.364 283.053 139.853 287.075 142.308C299.911 150.012 306.396 152.357 312.856 154.035C334.575 159.215 354.52 149.39 381.477 140.923C394.699 136.803 409.195 133.188 422.9 136.102C409.182 132.833 394.721 136.176 381.24 140.121C362.209 145.735 353.229 149.635 340.841 152.208C331.18 154.21 325.533 153.93 322.675 153.838C322.209 153.838 322.271 153.838 320.084 153.614C317.212 153.318 314.373 152.757 311.604 151.94C303.279 149.574 294.786 144.766 288.063 140.677C284.111 138.214 280.124 135.708 276.238 133.109C272.351 130.51 268.505 127.85 264.693 125.115C257.074 119.663 249.539 114.067 241.973 108.514C223.802 95.1171 212.648 86.602 194.666 77.7669C190.376 75.7459 185.958 74.0082 181.44 72.5649C179.196 71.7848 176.873 71.2502 174.572 70.6629C173.993 70.5094 173.407 70.385 172.816 70.2904C168.925 69.5629 168.424 69.4621 167.546 69.3745C162.404 68.7434 163.792 68.9012 162.246 68.7828C156.098 68.3446 158.873 68.5462 153.371 68.3796C148.633 68.3865 143.899 68.6792 139.196 69.2561C124.705 70.9083 109.586 75.8298 98.7006 81.5884C96.5709 82.6139 94.5509 83.8498 92.4914 85.0023C91.4771 85.6071 90.4934 86.2645 89.4922 86.8912C68.7305 100.104 58.6307 115.583 29.8551 130.256C25.6834 132.394 21.4225 134.355 17.0723 136.137C21.4635 134.457 25.7742 132.596 30.0044 130.554C68.2914 111.919 73.899 91.6418 112.274 77.4514Z" fill="url(#paint24_linear_382_4076)"/>
<path d="M90.6865 83.5824C102.052 76.2196 114.6 70.8608 127.784 67.7398C143.772 64.0015 164.968 61.9724 181.334 65.2242C183.53 65.7063 185.726 66.0744 187.882 66.7318C216.161 74.5063 239.391 93.3816 263.995 109.956C275.983 118.064 295.041 130.852 311.442 136.689C315.758 138.223 320.281 139.362 324.914 139.599C343.625 140.585 365.072 131.378 391.612 126.452C400.715 124.835 409.581 124.033 418.548 126.25C409.507 123.778 400.733 124.414 391.516 125.882C363.956 130.47 343.318 139.227 325.002 138.052C316.219 137.513 307.569 133.538 299.726 129.55C295.708 127.512 291.765 125.312 287.87 123.003C280.115 118.388 272.615 113.326 265.145 108.212C240.515 91.4577 218.897 73.9936 191.728 65.5442C183.701 63.3529 187.399 64.3477 181.708 63.1119C165.065 59.8557 143.504 61.9987 127.331 65.9211C114.014 69.2325 101.365 74.8017 89.9357 82.386C70.0215 95.3975 61.2522 106.253 33.7281 120.369C29.6998 122.443 25.616 124.404 21.4766 126.25C25.657 124.497 29.7906 122.635 33.8774 120.662C61.5245 107.191 71.879 95.5685 90.6865 83.5824Z" fill="url(#paint25_linear_382_4076)"/>
<path d="M155.647 57.6514C183.878 55.4295 194.922 58.208 210.032 63.616C228.862 70.4483 250.432 84.6869 264.308 93.4168C287.463 107.918 303.829 119.506 322.711 122.95C350.209 128.157 386.581 108.707 413.679 116.701C386.774 108.024 349.647 126.807 322.996 121.447C304.861 117.919 288.745 106.477 265.423 91.6726C241.495 76.4347 216.211 59.7068 188.427 55.7363C181.862 54.9299 175.242 54.6515 168.632 54.9036C136.444 55.8809 115.683 62.3144 93.4235 75.9088C75.4898 86.865 64.7444 96.673 38.0195 110.789C34.164 112.834 30.2675 114.809 26.3301 116.714C59.7824 101.669 75.7005 88.0483 94.1437 77.0965C112.815 65.9475 130.977 59.549 155.647 57.6514Z" fill="url(#paint26_linear_382_4076)"/>
<path d="M54.0788 95.7351C89.955 76.2287 107.494 59.492 144.573 53.2251L147.673 52.7211C165.453 50.0259 191.967 50.0916 197.812 50.6526C199.875 50.81 201.927 51.0807 203.96 51.4633C205.936 51.7833 204.667 51.5247 210.068 52.708C230.65 58.2869 244.719 66.6136 264.216 77.3769C285.79 89.4068 306.587 101.967 320.498 106.086C340.149 111.714 359.106 105.622 383.468 104.548C395.887 103.974 402.965 105.425 408.353 107.327C394.376 101.967 375.858 104.097 358.245 105.889C328.662 109.001 321.311 106.643 298.182 94.1705C270.465 79.2701 243.942 61.6745 219.781 53.304C212.483 50.9813 211.543 50.8147 205.923 49.6008C202.775 49.0233 199.598 48.6152 196.407 48.3781C183.839 47.9618 163.034 48.4833 150.519 50.3765C146.949 50.8849 149.258 50.5036 144.248 51.3494C107.801 57.5199 87.4476 76.0709 53.7889 95.2311C50.1384 97.3142 46.4644 99.3594 42.767 101.367C39.0696 103.374 35.3634 105.36 31.6484 107.327C35.4337 105.469 39.1925 103.584 42.9251 101.673C46.6576 99.7626 50.3755 97.7831 54.0788 95.7351Z" fill="url(#paint27_linear_382_4076)"/>
<path d="M58.7056 86.4706C95.9783 65.461 108.682 57.6778 129.066 51.0865C142.955 46.6252 152.932 44.7889 164.481 43.5268C174.526 42.5056 184.623 42.0783 194.719 42.2471C214.87 42.7817 231.28 46.0511 263.819 61.9682C278.346 69.0766 292.433 77.1797 307.257 83.8805C313.181 86.5363 319.263 89.1395 324.304 90.6602C349.211 98.1849 377.719 87.3558 402.577 98.2375C380.051 87.6407 354.177 95.4327 330.561 90.7435C302.84 84.8447 259.916 51.6037 219.121 42.7467C203.809 39.4248 186.038 39.6395 170.344 40.9236C154.048 42.1196 138.014 45.6729 122.743 51.4722C104.51 58.4403 91.912 66.1754 58.4026 85.9666L47.9208 92.1327C44.4283 94.1779 40.9241 96.2157 37.4082 98.2463C40.9739 96.3238 44.5322 94.3824 48.0833 92.422L58.7056 86.4706Z" fill="url(#paint28_linear_382_4076)"/>
<path d="M218.449 35.1035C235.448 36.7951 247.352 40.4633 263.354 46.9362C293.521 59.2071 306.638 68.9581 327.711 75.4222C349.558 82.0792 375.031 78.2665 396.364 89.4856C385.921 83.6131 374.632 81.5358 362.652 79.9537C340.437 77.0087 332.041 77.6836 306.559 65.1936C299.533 61.7708 292.652 58.0896 285.591 54.6756C243.997 34.5469 224.83 31.0848 186.283 32.141C185.616 32.141 185.66 32.141 180.395 32.4565C129.04 35.9099 91.9865 58.4621 43.6348 89.4593C88.3374 62.5509 123.555 40.6955 171.823 35.3533C187.588 33.6222 205.697 33.8414 218.449 35.1035Z" fill="url(#paint29_linear_382_4076)"/>
<path d="M108.824 46.4804C113.215 44.39 115.916 43.2111 119.13 41.7868C119.71 41.5458 125.923 38.8812 129.616 37.5621C146.452 31.3127 162.322 27.8637 178.991 25.9529C187.335 24.9099 198.787 24.5506 207.209 24.498C218.539 24.6338 228.147 24.9055 240.934 27.1274C248.333 28.4392 255.61 30.3594 262.692 32.8685C319.374 52.927 311.602 56.2358 347.346 65.496C354.684 67.3673 362.048 69.1115 369.219 71.4912C376.39 73.8709 383.367 76.8729 389.73 80.9836C385.83 78.2878 381.681 75.9706 377.338 74.0637C376.46 73.6868 375.612 73.2792 374.73 72.933C372.973 72.245 371.217 71.5306 369.408 70.9259C362.254 68.384 354.917 66.4733 347.623 64.4442C327.665 58.931 324.788 57.0948 305.537 47.9749C291.841 41.4274 277.627 36.0502 263.382 30.8832C260.444 29.8051 255.28 28.1705 252.465 27.4737C234.571 22.5609 214.327 21.7764 195.818 22.5653C188.216 22.8317 180.634 23.5002 173.103 24.5681C156.121 26.9158 139.522 31.4744 123.728 38.1274C119.912 39.7271 115.67 41.6992 113.338 42.7729C89.5817 54.2637 72.6579 64.8605 50.2715 80.9836C61.592 73.3143 73.6547 65.3382 88.7298 56.9458C95.321 53.247 102.009 49.7366 108.824 46.4804Z" fill="url(#paint30_linear_382_4076)"/>
<path d="M219.016 13.8004C242.132 14.2957 263.051 18.3933 283.567 25.4447C290.488 27.8331 297.285 30.5897 304.021 33.4953C310.757 36.4008 317.437 39.4949 324.138 42.5275C327.489 44.0439 330.856 45.5398 334.237 47.0152L344.372 51.3714C351.122 54.2769 357.801 57.3315 364.26 60.82C367.498 62.5554 370.657 64.4224 373.736 66.4208C376.827 68.4089 379.816 70.5517 382.69 72.8411C377.053 68.1025 370.977 63.9087 364.546 60.316C358.139 56.6741 351.504 53.453 344.785 50.3941C341.443 48.8646 338.062 47.3965 334.716 45.8933C331.37 44.3901 328.033 42.8255 324.708 41.2785C318.051 38.1538 311.416 34.9809 304.693 31.9614C297.97 28.9419 291.164 26.0801 284.191 23.6347C263.552 16.3729 242.733 12.1702 219.047 11.6092C171.881 10.702 131.899 22.6837 92.8696 46.7566C80.3698 54.5402 68.4794 63.2585 57.3008 72.8367C106.575 33.8985 156.964 12.4594 219.016 13.8004Z" fill="url(#paint31_linear_382_4076)"/>
<path d="M262.704 5.69729C276.774 8.47545 290.543 12.6009 303.819 18.0164C317.108 23.4328 329.828 30.1458 341.794 38.0574C347.784 41.9929 353.575 46.2191 359.166 50.7359C364.758 55.2528 370.119 60.0195 375.251 65.0359C355.044 44.442 330.9 28.107 304.249 16.9997C250.615 -5.44294 189.309 -5.44733 135.736 16.9778C109.093 28.1092 84.9551 44.4562 64.748 65.0535C86.0147 44.32 110.267 28.5694 136.167 18.0164C176.232 1.65377 220.225 -2.62917 262.704 5.69729Z" fill="url(#paint32_linear_382_4076)"/>
</g>
<defs>
<linearGradient id="paint0_linear_382_4076" x1="220" y1="374.951" x2="220" y2="439.966" gradientUnits="userSpaceOnUse">
<stop stop-color="white" stop-opacity="0.4"/>
<stop offset="1" stop-color="white" stop-opacity="0"/>
</linearGradient>
<linearGradient id="paint1_linear_382_4076" x1="219.988" y1="367.141" x2="219.988" y2="420.585" gradientUnits="userSpaceOnUse">
<stop stop-color="white" stop-opacity="0.4"/>
<stop offset="1" stop-color="white" stop-opacity="0"/>
</linearGradient>
<linearGradient id="paint2_linear_382_4076" x1="220.013" y1="359.008" x2="220.013" y2="409.356" gradientUnits="userSpaceOnUse">
<stop stop-color="white" stop-opacity="0.4"/>
<stop offset="1" stop-color="white" stop-opacity="0"/>
</linearGradient>
<linearGradient id="paint3_linear_382_4076" x1="219.999" y1="350.528" x2="219.999" y2="401.72" gradientUnits="userSpaceOnUse">
<stop stop-color="white" stop-opacity="0.4"/>
<stop offset="1" stop-color="white" stop-opacity="0"/>
</linearGradient>
<linearGradient id="paint4_linear_382_4076" x1="220.01" y1="341.745" x2="220.01" y2="395.999" gradientUnits="userSpaceOnUse">
<stop stop-color="white" stop-opacity="0.4"/>
<stop offset="1" stop-color="white" stop-opacity="0"/>
</linearGradient>
<linearGradient id="paint5_linear_382_4076" x1="220.005" y1="332.647" x2="220.005" y2="390.488" gradientUnits="userSpaceOnUse">
<stop stop-color="white" stop-opacity="0.4"/>
<stop offset="1" stop-color="white" stop-opacity="0"/>
</linearGradient>
<linearGradient id="paint6_linear_382_4076" x1="220" y1="323.295" x2="220" y2="384.601" gradientUnits="userSpaceOnUse">
<stop stop-color="white" stop-opacity="0.4"/>
<stop offset="1" stop-color="white" stop-opacity="0"/>
</linearGradient>
<linearGradient id="paint7_linear_382_4076" x1="220" y1="313.667" x2="220" y2="377.614" gradientUnits="userSpaceOnUse">
<stop stop-color="white" stop-opacity="0.4"/>
<stop offset="1" stop-color="white" stop-opacity="0"/>
</linearGradient>
<linearGradient id="paint8_linear_382_4076" x1="219.994" y1="303.863" x2="219.994" y2="369.822" gradientUnits="userSpaceOnUse">
<stop stop-color="white" stop-opacity="0.4"/>
<stop offset="1" stop-color="white" stop-opacity="0"/>
</linearGradient>
<linearGradient id="paint9_linear_382_4076" x1="219.985" y1="293.854" x2="219.985" y2="360.089" gradientUnits="userSpaceOnUse">
<stop stop-color="white" stop-opacity="0.4"/>
<stop offset="1" stop-color="white" stop-opacity="0"/>
</linearGradient>
<linearGradient id="paint10_linear_382_4076" x1="219.996" y1="274.086" x2="219.996" y2="350.512" gradientUnits="userSpaceOnUse">
<stop stop-color="white" stop-opacity="0.4"/>
<stop offset="1" stop-color="white" stop-opacity="0"/>
</linearGradient>
<linearGradient id="paint11_linear_382_4076" x1="219.999" y1="252.973" x2="219.999" y2="341.045" gradientUnits="userSpaceOnUse">
<stop stop-color="white" stop-opacity="0.4"/>
<stop offset="1" stop-color="white" stop-opacity="0"/>
</linearGradient>
<linearGradient id="paint12_linear_382_4076" x1="219.989" y1="231.439" x2="219.989" y2="331.722" gradientUnits="userSpaceOnUse">
<stop stop-color="white" stop-opacity="0.4"/>
<stop offset="1" stop-color="white" stop-opacity="0"/>
</linearGradient>
<linearGradient id="paint13_linear_382_4076" x1="219.998" y1="209.962" x2="219.998" y2="322.462" gradientUnits="userSpaceOnUse">
<stop stop-color="white" stop-opacity="0.4"/>
<stop offset="1" stop-color="white" stop-opacity="0"/>
</linearGradient>
<linearGradient id="paint14_linear_382_4076" x1="220.016" y1="188.382" x2="220.016" y2="313.194" gradientUnits="userSpaceOnUse">
<stop stop-color="white" stop-opacity="0.4"/>
<stop offset="1" stop-color="white" stop-opacity="0"/>
</linearGradient>
<linearGradient id="paint15_linear_382_4076" x1="219.96" y1="166.828" x2="219.96" y2="303.734" gradientUnits="userSpaceOnUse">
<stop stop-color="white" stop-opacity="0.4"/>
<stop offset="1" stop-color="white" stop-opacity="0"/>
</linearGradient>
<linearGradient id="paint16_linear_382_4076" x1="220.004" y1="146.037" x2="220.004" y2="295.115" gradientUnits="userSpaceOnUse">
<stop stop-color="white" stop-opacity="0.4"/>
<stop offset="1" stop-color="white" stop-opacity="0"/>
</linearGradient>
<linearGradient id="paint17_linear_382_4076" x1="219.995" y1="134.103" x2="219.995" y2="277.002" gradientUnits="userSpaceOnUse">
<stop stop-color="white" stop-opacity="0.4"/>
<stop offset="1" stop-color="white" stop-opacity="0"/>
</linearGradient>
<linearGradient id="paint18_linear_382_4076" x1="219.999" y1="122.71" x2="219.999" y2="259.466" gradientUnits="userSpaceOnUse">
<stop stop-color="white" stop-opacity="0.4"/>
<stop offset="1" stop-color="white" stop-opacity="0"/>
</linearGradient>
<linearGradient id="paint19_linear_382_4076" x1="220.015" y1="111.448" x2="220.015" y2="241.689" gradientUnits="userSpaceOnUse">
<stop stop-color="white" stop-opacity="0.4"/>
<stop offset="1" stop-color="white" stop-opacity="0"/>
</linearGradient>
<linearGradient id="paint20_linear_382_4076" x1="220.012" y1="101.583" x2="220.012" y2="223.692" gradientUnits="userSpaceOnUse">
<stop stop-color="white" stop-opacity="0.4"/>
<stop offset="1" stop-color="white" stop-opacity="0"/>
</linearGradient>
<linearGradient id="paint21_linear_382_4076" x1="219.998" y1="91.8247" x2="219.998" y2="206.426" gradientUnits="userSpaceOnUse">
<stop stop-color="white" stop-opacity="0.4"/>
<stop offset="1" stop-color="white" stop-opacity="0"/>
</linearGradient>
<linearGradient id="paint22_linear_382_4076" x1="219.984" y1="83.6416" x2="219.984" y2="189.483" gradientUnits="userSpaceOnUse">
<stop stop-color="white" stop-opacity="0.4"/>
<stop offset="1" stop-color="white" stop-opacity="0"/>
</linearGradient>
<linearGradient id="paint23_linear_382_4076" x1="219.998" y1="75.8059" x2="219.998" y2="172.405" gradientUnits="userSpaceOnUse">
<stop stop-color="white" stop-opacity="0.4"/>
<stop offset="1" stop-color="white" stop-opacity="0"/>
</linearGradient>
<linearGradient id="paint24_linear_382_4076" x1="219.986" y1="68.3796" x2="219.986" y2="155.475" gradientUnits="userSpaceOnUse">
<stop stop-color="white" stop-opacity="0.4"/>
<stop offset="1" stop-color="white" stop-opacity="0"/>
</linearGradient>
<linearGradient id="paint25_linear_382_4076" x1="220.012" y1="61.5208" x2="220.012" y2="139.672" gradientUnits="userSpaceOnUse">
<stop stop-color="white" stop-opacity="0.4"/>
<stop offset="1" stop-color="white" stop-opacity="0"/>
</linearGradient>
<linearGradient id="paint26_linear_382_4076" x1="220.005" y1="54.8137" x2="220.005" y2="123.849" gradientUnits="userSpaceOnUse">
<stop stop-color="white" stop-opacity="0.4"/>
<stop offset="1" stop-color="white" stop-opacity="0"/>
</linearGradient>
<linearGradient id="paint27_linear_382_4076" x1="220.001" y1="48.2439" x2="220.001" y2="108.44" gradientUnits="userSpaceOnUse">
<stop stop-color="white" stop-opacity="0.4"/>
<stop offset="1" stop-color="white" stop-opacity="0"/>
</linearGradient>
<linearGradient id="paint28_linear_382_4076" x1="219.993" y1="40.0535" x2="219.993" y2="98.2463" gradientUnits="userSpaceOnUse">
<stop stop-color="white" stop-opacity="0.4"/>
<stop offset="1" stop-color="white" stop-opacity="0"/>
</linearGradient>
<linearGradient id="paint29_linear_382_4076" x1="219.999" y1="31.9717" x2="219.999" y2="89.4856" gradientUnits="userSpaceOnUse">
<stop stop-color="white" stop-opacity="0.4"/>
<stop offset="1" stop-color="white" stop-opacity="0"/>
</linearGradient>
<linearGradient id="paint30_linear_382_4076" x1="220.001" y1="22.3" x2="220.001" y2="80.9836" gradientUnits="userSpaceOnUse">
<stop stop-color="white" stop-opacity="0.4"/>
<stop offset="1" stop-color="white" stop-opacity="0"/>
</linearGradient>
<linearGradient id="paint31_linear_382_4076" x1="219.995" y1="11.5613" x2="219.995" y2="72.8411" gradientUnits="userSpaceOnUse">
<stop stop-color="white" stop-opacity="0.4"/>
<stop offset="1" stop-color="white" stop-opacity="0"/>
</linearGradient>
<linearGradient id="paint32_linear_382_4076" x1="220" y1="0.16333" x2="220" y2="65.0535" gradientUnits="userSpaceOnUse">
<stop stop-color="white" stop-opacity="0.4"/>
<stop offset="1" stop-color="white" stop-opacity="0"/>
</linearGradient>
<clipPath id="clip0_382_4076">
<rect width="440" height="440" fill="white"/>
</clipPath>
</defs>
</svg>
