<svg width="440" height="440" viewBox="0 0 440 440" fill="none" xmlns="http://www.w3.org/2000/svg">
<g clip-path="url(#clip0_382_4114)">
<path d="M388.286 283.984L226.573 330.096C226.421 330.14 226.291 330.238 226.205 330.37C226.119 330.503 226.084 330.662 226.106 330.818C226.128 330.975 226.205 331.118 226.324 331.222C226.443 331.326 226.595 331.384 226.753 331.385C226.814 331.385 226.874 331.376 226.932 331.358L388.645 285.233C388.788 285.167 388.903 285.052 388.968 284.91C389.034 284.767 389.046 284.605 389.002 284.454C388.959 284.303 388.863 284.173 388.731 284.086C388.6 284 388.442 283.964 388.286 283.984Z" fill="url(#paint0_linear_382_4114)"/>
<path d="M400.826 264.78L246.151 315.31C246.066 315.334 245.987 315.375 245.918 315.431C245.849 315.486 245.792 315.555 245.751 315.633C245.709 315.711 245.684 315.797 245.676 315.885C245.669 315.973 245.679 316.062 245.706 316.146C245.734 316.23 245.778 316.308 245.836 316.374C245.894 316.441 245.965 316.495 246.045 316.534C246.124 316.572 246.211 316.594 246.299 316.599C246.387 316.603 246.475 316.589 246.558 316.559L401.233 266.016C401.318 265.992 401.398 265.95 401.466 265.895C401.535 265.839 401.592 265.77 401.633 265.692C401.675 265.614 401.7 265.529 401.708 265.441C401.715 265.353 401.705 265.264 401.678 265.18C401.65 265.096 401.606 265.018 401.548 264.951C401.49 264.885 401.419 264.831 401.34 264.792C401.26 264.754 401.173 264.731 401.085 264.727C400.997 264.723 400.909 264.736 400.826 264.767V264.78Z" fill="url(#paint1_linear_382_4114)"/>
<path d="M411.747 245.48L265.14 299.183C264.998 299.237 264.878 299.34 264.803 299.473C264.728 299.607 264.702 299.762 264.729 299.912C264.756 300.063 264.835 300.199 264.951 300.298C265.068 300.397 265.215 300.452 265.368 300.454C265.445 300.455 265.521 300.442 265.592 300.414L412.198 246.733C412.286 246.709 412.367 246.668 412.437 246.611C412.507 246.554 412.565 246.484 412.607 246.403C412.649 246.323 412.674 246.235 412.68 246.145C412.686 246.055 412.674 245.965 412.644 245.88C412.614 245.794 412.566 245.716 412.505 245.65C412.443 245.584 412.368 245.532 412.285 245.496C412.202 245.46 412.113 245.442 412.023 245.442C411.932 245.442 411.843 245.461 411.76 245.497L411.747 245.48Z" fill="url(#paint2_linear_382_4114)"/>
<path d="M420.944 226.271L283.357 281.88C283.217 281.94 283.102 282.045 283.031 282.179C282.96 282.312 282.936 282.466 282.965 282.615C282.994 282.764 283.073 282.898 283.189 282.996C283.305 283.094 283.451 283.148 283.602 283.151C283.686 283.151 283.769 283.134 283.847 283.103L421.457 227.49C421.537 227.457 421.61 227.409 421.671 227.349C421.733 227.288 421.782 227.216 421.815 227.136C421.849 227.057 421.866 226.971 421.867 226.885C421.868 226.798 421.851 226.713 421.819 226.633C421.786 226.553 421.738 226.48 421.677 226.419C421.617 226.357 421.545 226.308 421.465 226.275C421.386 226.241 421.3 226.223 421.214 226.223C421.127 226.222 421.042 226.239 420.962 226.271H420.944Z" fill="url(#paint3_linear_382_4114)"/>
<path d="M428.32 207.37L300.575 263.606C300.438 263.667 300.326 263.773 300.258 263.907C300.189 264.04 300.169 264.194 300.199 264.341C300.23 264.488 300.31 264.62 300.427 264.715C300.543 264.81 300.688 264.862 300.838 264.863C300.929 264.864 301.019 264.844 301.101 264.806L428.85 208.575C429.01 208.505 429.135 208.374 429.199 208.211C429.262 208.048 429.258 207.867 429.188 207.707C429.117 207.547 428.986 207.422 428.824 207.359C428.661 207.295 428.48 207.299 428.32 207.37Z" fill="url(#paint4_linear_382_4114)"/>
<path d="M433.794 188.981L316.611 244.542C316.533 244.579 316.463 244.631 316.406 244.695C316.348 244.759 316.303 244.834 316.274 244.916C316.245 244.997 316.233 245.083 316.237 245.169C316.242 245.256 316.263 245.34 316.3 245.418C316.337 245.496 316.389 245.566 316.454 245.624C316.518 245.682 316.593 245.726 316.674 245.755C316.755 245.784 316.842 245.797 316.928 245.792C317.014 245.788 317.099 245.767 317.177 245.729L434.36 190.164C434.438 190.127 434.508 190.076 434.566 190.012C434.625 189.947 434.67 189.872 434.698 189.791C434.727 189.709 434.74 189.623 434.735 189.536C434.73 189.45 434.708 189.365 434.671 189.288C434.594 189.132 434.459 189.012 434.295 188.955C434.131 188.897 433.951 188.907 433.794 188.981Z" fill="url(#paint5_linear_382_4114)"/>
<path d="M437.304 171.306L331.314 224.922C331.16 225 331.042 225.135 330.987 225.299C330.932 225.464 330.944 225.643 331.02 225.798C331.059 225.875 331.112 225.943 331.176 226C331.241 226.056 331.317 226.099 331.398 226.126C331.48 226.153 331.566 226.163 331.651 226.157C331.737 226.15 331.82 226.126 331.897 226.087L437.909 172.476C437.986 172.437 438.055 172.383 438.111 172.318C438.167 172.252 438.21 172.176 438.237 172.094C438.264 172.012 438.274 171.925 438.267 171.839C438.261 171.752 438.237 171.668 438.198 171.591C438.159 171.514 438.105 171.445 438.039 171.389C437.974 171.333 437.898 171.29 437.815 171.263C437.733 171.236 437.647 171.226 437.56 171.233C437.474 171.239 437.39 171.263 437.313 171.302L437.304 171.306Z" fill="url(#paint6_linear_382_4114)"/>
<path d="M439.702 154.811C439.621 154.659 439.484 154.546 439.32 154.495C439.156 154.444 438.978 154.46 438.826 154.539L344.462 204.938C344.334 205.007 344.232 205.117 344.173 205.251C344.114 205.385 344.101 205.535 344.137 205.677C344.173 205.818 344.255 205.944 344.37 206.034C344.485 206.124 344.627 206.173 344.773 206.173C344.882 206.175 344.99 206.148 345.085 206.095L439.435 155.696C439.511 155.656 439.578 155.601 439.632 155.534C439.687 155.468 439.727 155.391 439.752 155.309C439.777 155.227 439.785 155.14 439.777 155.055C439.768 154.969 439.743 154.887 439.702 154.811Z" fill="url(#paint7_linear_382_4114)"/>
<path d="M355.716 185.712C355.774 185.813 355.857 185.898 355.958 185.957C356.059 186.016 356.173 186.048 356.29 186.049C356.402 186.05 356.513 186.021 356.61 185.966L438.944 140.011C439.091 139.926 439.199 139.787 439.246 139.624C439.293 139.461 439.276 139.285 439.198 139.135C439.114 138.986 438.975 138.877 438.811 138.829C438.648 138.782 438.472 138.8 438.321 138.881L355.97 184.818C355.819 184.903 355.708 185.045 355.66 185.212C355.612 185.38 355.633 185.559 355.716 185.712Z" fill="url(#paint8_linear_382_4114)"/>
<path d="M365.45 165.679C365.537 165.825 365.677 165.931 365.84 165.976C366.003 166.021 366.178 166.001 366.327 165.92L436.415 125.602C436.558 125.511 436.66 125.369 436.7 125.204C436.741 125.04 436.716 124.867 436.632 124.72C436.548 124.574 436.411 124.465 436.249 124.417C436.087 124.369 435.913 124.385 435.762 124.462L365.674 164.781C365.525 164.871 365.419 165.016 365.377 165.184C365.335 165.352 365.361 165.53 365.45 165.679Z" fill="url(#paint9_linear_382_4114)"/>
<path d="M373.291 145.936C373.377 146.082 373.517 146.188 373.68 146.233C373.844 146.278 374.018 146.258 374.167 146.177L431.919 112.581C432.063 112.493 432.168 112.353 432.212 112.19C432.255 112.027 432.236 111.853 432.156 111.705C432.113 111.63 432.055 111.564 431.987 111.512C431.918 111.459 431.84 111.421 431.756 111.399C431.672 111.377 431.585 111.372 431.5 111.383C431.414 111.395 431.332 111.424 431.257 111.468L373.527 145.06C373.382 145.147 373.276 145.287 373.232 145.45C373.187 145.614 373.209 145.788 373.291 145.936Z" fill="url(#paint10_linear_382_4114)"/>
<path d="M379.71 127.052C379.824 127.053 379.936 127.024 380.035 126.969L425.494 101.156C425.646 101.07 425.757 100.927 425.803 100.759C425.85 100.591 425.828 100.412 425.742 100.26C425.656 100.108 425.513 99.9969 425.345 99.9505C425.177 99.9041 424.997 99.9263 424.845 100.012L379.386 125.825C379.261 125.897 379.163 126.008 379.107 126.142C379.052 126.275 379.042 126.423 379.078 126.563C379.115 126.702 379.197 126.826 379.311 126.915C379.426 127.003 379.566 127.051 379.71 127.052Z" fill="url(#paint11_linear_382_4114)"/>
<path d="M382.936 108.208C382.99 108.316 383.074 108.406 383.176 108.47C383.279 108.533 383.398 108.567 383.519 108.567C383.624 108.568 383.728 108.542 383.821 108.493L417.159 91.4228C417.24 91.3863 417.313 91.3337 417.373 91.2682C417.433 91.2026 417.48 91.1256 417.509 91.0416C417.539 90.9576 417.551 90.8685 417.545 90.7797C417.539 90.6908 417.515 90.6041 417.475 90.5248C417.435 90.4454 417.378 90.3751 417.31 90.3181C417.242 90.2611 417.162 90.2186 417.077 90.1932C416.992 90.1677 416.902 90.1599 416.814 90.1701C416.725 90.1803 416.64 90.2084 416.563 90.2527L383.221 107.322C383.144 107.362 383.076 107.416 383.02 107.482C382.964 107.548 382.921 107.624 382.895 107.706C382.868 107.788 382.858 107.875 382.865 107.961C382.872 108.047 382.896 108.131 382.936 108.208Z" fill="url(#paint12_linear_382_4114)"/>
<path d="M384.622 90.5726C384.667 90.7008 384.751 90.8119 384.861 90.8905C384.972 90.969 385.105 91.0111 385.24 91.0108C385.313 91.0102 385.386 90.9984 385.455 90.9758L406.991 83.5036C407.072 83.4749 407.147 83.4303 407.211 83.3726C407.275 83.3148 407.328 83.245 407.365 83.1671C407.402 83.0891 407.424 83.0046 407.428 82.9184C407.433 82.8321 407.42 82.7458 407.392 82.6644C407.363 82.583 407.318 82.508 407.26 82.4438C407.203 82.3795 407.133 82.3273 407.055 82.2901C406.977 82.2529 406.893 82.2313 406.806 82.2268C406.72 82.2222 406.634 82.2346 406.552 82.2634L385.017 89.7136C384.933 89.7423 384.856 89.7877 384.791 89.847C384.725 89.9063 384.673 89.9783 384.636 90.0586C384.599 90.1389 384.579 90.2259 384.576 90.3142C384.574 90.4026 384.59 90.4905 384.622 90.5726Z" fill="url(#paint13_linear_382_4114)"/>
<path d="M384.68 74.5633L394.847 77.4557C394.906 77.4718 394.966 77.4792 395.027 77.4776C395.185 77.4766 395.337 77.4187 395.456 77.3147C395.574 77.2107 395.652 77.0674 395.674 76.911C395.695 76.7547 395.66 76.5957 395.574 76.4632C395.489 76.3306 395.358 76.2334 395.206 76.1892L385.039 73.2967C384.871 73.2491 384.691 73.2701 384.539 73.3552C384.386 73.4402 384.274 73.5824 384.226 73.7503C384.179 73.9183 384.2 74.0983 384.285 74.2507C384.37 74.4032 384.512 74.5156 384.68 74.5633Z" fill="url(#paint14_linear_382_4114)"/>
<path d="M381.713 73.3625H381.744C381.913 73.3626 382.076 73.2976 382.198 73.1809C382.321 73.0642 382.394 72.9047 382.401 72.7358L383.037 58.839C383.044 58.6649 382.982 58.495 382.865 58.3661C382.748 58.2373 382.584 58.16 382.41 58.1509C382.237 58.146 382.068 58.2086 381.94 58.3254C381.811 58.4423 381.733 58.6044 381.722 58.7776L381.087 72.6744C381.083 72.7608 381.096 72.8471 381.125 72.9284C381.154 73.0097 381.199 73.0845 381.257 73.1484C381.316 73.2123 381.386 73.2641 381.464 73.3009C381.542 73.3376 381.627 73.3585 381.713 73.3625Z" fill="url(#paint15_linear_382_4114)"/>
<path d="M366.812 71.1888C366.893 71.2248 366.98 71.2442 367.068 71.246C367.156 71.2477 367.243 71.2318 367.325 71.1991C367.407 71.1664 367.481 71.1176 367.544 71.0556C367.606 70.9936 367.656 70.9197 367.689 70.8382L378.444 45.4199C378.512 45.2589 378.513 45.0775 378.447 44.9156C378.381 44.7537 378.254 44.6246 378.093 44.5566C377.932 44.4886 377.751 44.4873 377.589 44.5531C377.427 44.6188 377.298 44.7462 377.23 44.9072L366.475 70.3255C366.407 70.4849 366.404 70.6647 366.467 70.8261C366.53 70.9876 366.654 71.1178 366.812 71.1888Z" fill="url(#paint16_linear_382_4114)"/>
<path d="M350.838 71.0574C350.99 71.1356 351.167 71.1515 351.33 71.1016C351.494 71.0516 351.632 70.9399 351.714 70.79L371.799 33.4426C371.882 33.2886 371.9 33.1081 371.849 32.9409C371.799 32.7736 371.684 32.6333 371.53 32.5508C371.376 32.4682 371.195 32.4503 371.028 32.5008C370.861 32.5514 370.72 32.6663 370.638 32.8203L350.557 70.1677C350.516 70.2443 350.491 70.3284 350.483 70.4149C350.475 70.5014 350.485 70.5886 350.511 70.6714C350.537 70.7543 350.579 70.8311 350.635 70.8974C350.692 70.9636 350.76 71.018 350.838 71.0574Z" fill="url(#paint17_linear_382_4114)"/>
<path d="M333.856 72.9637C333.955 73.0202 334.067 73.0504 334.181 73.0514C334.296 73.0519 334.41 73.0218 334.51 72.964C334.61 72.9063 334.693 72.823 334.75 72.7227L363.267 23.2008C363.354 23.0497 363.378 22.8701 363.333 22.7017C363.287 22.5332 363.177 22.3896 363.026 22.3024C362.875 22.2152 362.695 22.1916 362.527 22.2368C362.358 22.282 362.215 22.3923 362.128 22.5434L333.611 72.0653C333.525 72.2172 333.503 72.3968 333.549 72.565C333.595 72.7332 333.705 72.8765 333.856 72.9637Z" fill="url(#paint18_linear_382_4114)"/>
<path d="M316.015 76.873C316.114 76.9313 316.228 76.9616 316.343 76.9606C316.459 76.9616 316.572 76.9321 316.672 76.8751C316.772 76.8182 316.855 76.7358 316.913 76.6363L352.871 14.7733C352.952 14.6233 352.971 14.4479 352.924 14.2841C352.878 14.1203 352.77 13.9809 352.623 13.8951C352.476 13.8094 352.301 13.784 352.136 13.8244C351.97 13.8648 351.827 13.9677 351.736 14.1116L315.774 75.9745C315.73 76.0494 315.702 76.132 315.691 76.2176C315.68 76.3032 315.686 76.3903 315.708 76.4737C315.73 76.5572 315.769 76.6354 315.822 76.7039C315.874 76.7724 315.94 76.8298 316.015 76.873Z" fill="url(#paint19_linear_382_4114)"/>
<path d="M297.505 82.7455C297.605 82.8006 297.718 82.8292 297.833 82.8287C297.949 82.8288 298.062 82.7985 298.162 82.7408C298.262 82.6831 298.345 82.6 298.403 82.5L340.738 8.32674C340.824 8.17506 340.846 7.99542 340.799 7.82734C340.753 7.65927 340.642 7.51653 340.49 7.43052C340.338 7.34451 340.159 7.32228 339.991 7.36872C339.823 7.41515 339.68 7.52645 339.594 7.67813L297.259 81.8602C297.176 82.0106 297.156 82.1874 297.202 82.3528C297.247 82.5182 297.356 82.6592 297.505 82.7455Z" fill="url(#paint20_linear_382_4114)"/>
<path d="M278.529 90.5067C278.626 90.5618 278.737 90.5905 278.849 90.59C278.966 90.59 279.082 90.5582 279.183 90.498C279.284 90.4379 279.367 90.3515 279.423 90.2481L326.99 3.88278C327.038 3.80709 327.07 3.72235 327.085 3.63379C327.099 3.54523 327.095 3.45471 327.072 3.3678C327.05 3.2809 327.011 3.19945 326.956 3.12846C326.901 3.05747 326.832 2.99844 326.754 2.95501C326.675 2.91159 326.589 2.88467 326.499 2.87593C326.41 2.86719 326.32 2.87681 326.235 2.90419C326.149 2.93157 326.07 2.97614 326.003 3.03515C325.935 3.09416 325.881 3.16637 325.842 3.24733L278.288 89.6127C278.203 89.7636 278.181 89.9417 278.226 90.1088C278.271 90.276 278.38 90.4188 278.529 90.5067Z" fill="url(#paint21_linear_382_4114)"/>
<path d="M259.293 100.078C259.386 100.128 259.49 100.154 259.595 100.153C259.715 100.153 259.833 100.12 259.936 100.059C260.038 99.9969 260.122 99.9081 260.178 99.8021L311.786 1.52083C311.867 1.36624 311.883 1.1859 311.831 1.01947C311.779 0.853038 311.662 0.71416 311.508 0.63338C311.353 0.5526 311.173 0.536534 311.006 0.588723C310.84 0.640912 310.701 0.757078 310.62 0.911664L259.004 99.1886C258.924 99.3449 258.91 99.5264 258.964 99.6932C259.018 99.8601 259.137 99.9985 259.293 100.078Z" fill="url(#paint22_linear_382_4114)"/>
<path d="M240.001 111.35C240.091 111.397 240.192 111.421 240.294 111.42C240.417 111.419 240.537 111.385 240.64 111.32C240.744 111.254 240.828 111.162 240.882 111.052L295.286 1.26214C295.332 1.18434 295.361 1.09788 295.372 1.00816C295.383 0.918445 295.376 0.827404 295.35 0.740724C295.324 0.654043 295.281 0.573587 295.223 0.504387C295.165 0.435188 295.093 0.378734 295.012 0.338547C294.931 0.29836 294.843 0.275304 294.752 0.270826C294.662 0.266349 294.572 0.280543 294.487 0.312521C294.403 0.344498 294.326 0.393571 294.261 0.456675C294.196 0.519779 294.145 0.595561 294.111 0.679276L239.72 110.469C239.642 110.623 239.627 110.802 239.679 110.967C239.732 111.132 239.847 111.269 240.001 111.35Z" fill="url(#paint23_linear_382_4114)"/>
<path d="M220.876 124.199C220.962 124.241 221.057 124.262 221.152 124.26C221.278 124.261 221.401 124.225 221.507 124.158C221.612 124.09 221.696 123.993 221.749 123.879L277.678 3.10267C277.714 3.02411 277.734 2.93918 277.738 2.85272C277.741 2.76627 277.728 2.67999 277.698 2.59881C277.668 2.51762 277.622 2.44312 277.563 2.37956C277.505 2.316 277.434 2.26463 277.355 2.22837C277.277 2.19211 277.192 2.17168 277.106 2.16824C277.019 2.16481 276.933 2.17844 276.852 2.20835C276.77 2.23826 276.696 2.28387 276.632 2.34257C276.569 2.40127 276.517 2.47192 276.481 2.55048L220.552 123.327C220.516 123.406 220.496 123.49 220.493 123.577C220.489 123.663 220.503 123.749 220.533 123.83C220.564 123.911 220.609 123.986 220.668 124.049C220.727 124.112 220.798 124.163 220.876 124.199Z" fill="url(#paint24_linear_382_4114)"/>
<path d="M202.111 138.486C202.192 138.524 202.28 138.544 202.37 138.543C202.499 138.543 202.625 138.505 202.732 138.435C202.84 138.364 202.924 138.263 202.975 138.144L259.145 7.01201C259.213 6.85161 259.215 6.67053 259.15 6.50863C259.085 6.34672 258.959 6.21723 258.798 6.14866C258.638 6.08008 258.457 6.07803 258.295 6.14296C258.133 6.20789 258.004 6.33448 257.935 6.49488L201.765 137.61C201.729 137.69 201.709 137.776 201.707 137.864C201.705 137.952 201.721 138.039 201.753 138.121C201.785 138.203 201.834 138.277 201.895 138.34C201.957 138.403 202.03 138.452 202.111 138.486Z" fill="url(#paint25_linear_382_4114)"/>
<path d="M183.927 154.057C184.002 154.086 184.083 154.101 184.164 154.101C184.299 154.099 184.43 154.057 184.54 153.978C184.649 153.9 184.732 153.79 184.777 153.662L239.896 12.9852C239.959 12.8225 239.956 12.641 239.886 12.4808C239.816 12.3205 239.686 12.1945 239.523 12.1306C239.36 12.0667 239.179 12.07 239.019 12.1399C238.858 12.2097 238.732 12.3404 238.668 12.5031L183.555 153.18C183.52 153.262 183.502 153.35 183.502 153.439C183.502 153.528 183.52 153.616 183.555 153.698C183.589 153.78 183.64 153.854 183.704 153.915C183.768 153.977 183.844 154.025 183.927 154.057Z" fill="url(#paint26_linear_382_4114)"/>
<path d="M166.534 170.732C166.604 170.759 166.678 170.772 166.753 170.772C166.889 170.773 167.022 170.731 167.133 170.652C167.244 170.574 167.327 170.462 167.371 170.334L220.158 20.9352C220.187 20.8537 220.199 20.7674 220.195 20.6812C220.19 20.5949 220.168 20.5104 220.131 20.4325C220.094 20.3546 220.042 20.2847 219.978 20.227C219.913 20.1692 219.838 20.1247 219.757 20.0959C219.676 20.0672 219.589 20.0547 219.503 20.0593C219.417 20.0639 219.332 20.0854 219.254 20.1226C219.176 20.1599 219.106 20.2121 219.049 20.2763C218.991 20.3405 218.946 20.4155 218.918 20.4969L166.096 169.895C166.068 169.979 166.058 170.067 166.065 170.155C166.072 170.243 166.097 170.329 166.138 170.407C166.178 170.485 166.235 170.554 166.303 170.61C166.371 170.666 166.449 170.707 166.534 170.732Z" fill="url(#paint27_linear_382_4114)"/>
<path d="M150.069 188.341C150.133 188.358 150.2 188.367 150.266 188.367C150.406 188.367 150.542 188.323 150.655 188.24C150.768 188.157 150.851 188.041 150.893 187.907L200.095 30.765C200.147 30.5982 200.131 30.4175 200.05 30.2625C199.969 30.1076 199.83 29.9912 199.663 29.9389C199.496 29.8866 199.316 29.9027 199.161 29.9836C199.006 30.0646 198.889 30.2038 198.837 30.3706L149.64 187.517C149.587 187.683 149.603 187.864 149.684 188.018C149.764 188.173 149.903 188.289 150.069 188.341Z" fill="url(#paint28_linear_382_4114)"/>
<path d="M134.774 206.677C134.83 206.695 134.887 206.704 134.945 206.704C135.09 206.703 135.23 206.655 135.345 206.567C135.46 206.48 135.542 206.357 135.581 206.217L179.975 42.3698C180.004 42.2847 180.016 42.1945 180.009 42.1048C180.001 42.0151 179.976 41.9278 179.934 41.8483C179.891 41.7688 179.833 41.6989 179.763 41.6428C179.693 41.5867 179.611 41.5457 179.525 41.5222C179.438 41.4988 179.347 41.4934 179.258 41.5065C179.169 41.5195 179.083 41.5507 179.007 41.5982C178.93 41.6456 178.864 41.7082 178.813 41.7821C178.762 41.8561 178.726 41.9398 178.709 42.028L134.31 205.871C134.287 205.954 134.281 206.042 134.293 206.127C134.304 206.213 134.332 206.296 134.375 206.371C134.418 206.445 134.476 206.511 134.544 206.564C134.613 206.616 134.691 206.655 134.774 206.677Z" fill="url(#paint29_linear_382_4114)"/>
<path d="M120.79 225.552C120.838 225.557 120.886 225.557 120.934 225.552C121.083 225.552 121.227 225.502 121.343 225.41C121.459 225.318 121.541 225.189 121.574 225.044L160.008 55.6134C160.034 55.5272 160.041 55.4366 160.031 55.3474C160.02 55.2581 159.991 55.172 159.945 55.0945C159.9 55.0169 159.839 54.9495 159.766 54.8965C159.693 54.8434 159.611 54.8058 159.523 54.786C159.435 54.7661 159.344 54.7645 159.256 54.7812C159.168 54.7979 159.084 54.8325 159.009 54.883C158.935 54.9334 158.871 54.9986 158.823 55.0745C158.775 55.1504 158.743 55.2354 158.729 55.3242L120.29 224.751C120.269 224.836 120.266 224.925 120.28 225.012C120.294 225.099 120.325 225.182 120.372 225.256C120.418 225.331 120.479 225.396 120.551 225.447C120.623 225.497 120.704 225.533 120.79 225.552Z" fill="url(#paint30_linear_382_4114)"/>
<path d="M108.269 244.748H108.388C108.543 244.748 108.693 244.694 108.811 244.594C108.93 244.495 109.01 244.357 109.036 244.204L140.411 70.378C140.433 70.2101 140.39 70.0399 140.291 69.9029C140.191 69.7659 140.042 69.6727 139.875 69.6427C139.709 69.6127 139.537 69.6483 139.395 69.7421C139.254 69.8358 139.155 69.9804 139.118 70.1458L107.739 243.972C107.722 244.058 107.722 244.146 107.74 244.232C107.757 244.318 107.792 244.399 107.841 244.471C107.891 244.544 107.954 244.605 108.027 244.653C108.101 244.7 108.183 244.733 108.269 244.748Z" fill="url(#paint31_linear_382_4114)"/>
<path d="M97.3604 264.066H97.4437C97.6038 264.066 97.7584 264.008 97.8787 263.902C97.9989 263.796 98.0764 263.651 98.0967 263.492L121.394 86.4969C121.405 86.4106 121.399 86.3229 121.377 86.2388C121.354 86.1548 121.315 86.076 121.262 86.007C121.209 85.9381 121.143 85.8802 121.067 85.8368C120.992 85.7934 120.908 85.7653 120.822 85.7541C120.736 85.7428 120.648 85.7487 120.564 85.7714C120.48 85.7941 120.401 85.8331 120.332 85.8862C120.263 85.9393 120.205 86.0055 120.162 86.0809C120.118 86.1564 120.09 86.2397 120.079 86.326L96.7951 263.325C96.7834 263.411 96.7887 263.498 96.8108 263.582C96.8329 263.666 96.8714 263.744 96.9239 263.813C96.9764 263.882 97.042 263.94 97.117 263.983C97.1919 264.026 97.2746 264.055 97.3604 264.066Z" fill="url(#paint32_linear_382_4114)"/>
<path d="M88.1754 283.283H88.228C88.3931 283.283 88.5523 283.221 88.6735 283.109C88.7946 282.997 88.8688 282.843 88.881 282.678L103.172 103.768C103.179 103.682 103.169 103.595 103.142 103.513C103.116 103.43 103.073 103.354 103.017 103.288C102.903 103.155 102.742 103.072 102.567 103.058C102.393 103.044 102.22 103.1 102.087 103.214C101.954 103.327 101.871 103.489 101.857 103.663L87.5706 282.573C87.5634 282.659 87.5734 282.746 87.5999 282.829C87.6265 282.911 87.6691 282.988 87.7253 283.054C87.7815 283.12 87.8502 283.174 87.9275 283.213C88.0047 283.253 88.089 283.276 88.1754 283.283Z" fill="url(#paint33_linear_382_4114)"/>
<path d="M80.812 302.193C80.9833 302.193 81.1479 302.126 81.2707 302.007C81.3935 301.887 81.4648 301.725 81.4693 301.553L85.9175 122.021C85.9198 121.935 85.9051 121.849 85.8742 121.768C85.8433 121.688 85.7968 121.614 85.7374 121.551C85.678 121.488 85.6068 121.438 85.5279 121.403C85.449 121.368 85.364 121.348 85.2777 121.346C85.1914 121.344 85.1054 121.359 85.0248 121.39C84.9442 121.42 84.8704 121.467 84.8077 121.526C84.7451 121.586 84.6947 121.657 84.6595 121.736C84.6244 121.815 84.6051 121.9 84.6028 121.986L80.1721 301.514C80.1674 301.689 80.232 301.858 80.3519 301.986C80.4718 302.113 80.6372 302.187 80.812 302.193Z" fill="url(#paint34_linear_382_4114)"/>
<path d="M75.3386 320.591C75.4249 320.588 75.5098 320.568 75.5885 320.533C75.6672 320.497 75.7381 320.446 75.7971 320.383C75.8561 320.32 75.9021 320.246 75.9325 320.165C75.9628 320.084 75.9769 319.998 75.974 319.912L69.8386 141.046C69.8306 140.872 69.7551 140.708 69.6282 140.59C69.5013 140.471 69.333 140.406 69.1593 140.41C69.0729 140.413 68.988 140.433 68.9093 140.468C68.8306 140.504 68.7598 140.555 68.7008 140.618C68.6417 140.681 68.5957 140.755 68.5654 140.836C68.535 140.917 68.5209 141.003 68.5238 141.089L74.6593 319.955C74.6615 320.042 74.681 320.127 74.7164 320.206C74.7519 320.285 74.8028 320.356 74.866 320.415C74.9292 320.474 75.0035 320.52 75.0846 320.551C75.1658 320.581 75.2521 320.594 75.3386 320.591Z" fill="url(#paint35_linear_382_4114)"/>
<path d="M71.815 338.274H71.872C72.045 338.256 72.204 338.171 72.3141 338.036C72.4242 337.901 72.4764 337.728 72.4592 337.555L55.1791 160.639C55.1708 160.553 55.1455 160.469 55.1048 160.393C55.064 160.316 55.0086 160.248 54.9417 160.193C54.8747 160.138 54.7976 160.097 54.7146 160.071C54.6317 160.046 54.5445 160.037 54.4582 160.046C54.3719 160.054 54.2881 160.079 54.2115 160.12C54.1349 160.161 54.0671 160.216 54.012 160.283C53.9568 160.35 53.9154 160.427 53.8901 160.51C53.8648 160.593 53.856 160.68 53.8644 160.766L71.1532 337.678C71.1686 337.842 71.2452 337.995 71.3678 338.105C71.4904 338.216 71.65 338.276 71.815 338.274Z" fill="url(#paint36_linear_382_4114)"/>
<path d="M69.6468 354.498C69.6727 354.651 69.752 354.79 69.8708 354.891C69.9895 354.991 70.1399 355.046 70.2954 355.046C70.3318 355.05 70.3685 355.05 70.4049 355.046C70.4899 355.032 70.5714 355.002 70.6446 354.956C70.7178 354.911 70.7812 354.851 70.8313 354.781C70.8814 354.711 70.9172 354.632 70.9365 354.548C70.9559 354.464 70.9584 354.377 70.944 354.292L41.9934 180.584C41.9793 180.498 41.9483 180.415 41.9022 180.341C41.8562 180.266 41.7959 180.202 41.7249 180.151C41.6539 180.1 41.5735 180.063 41.4884 180.043C41.4032 180.023 41.315 180.02 41.2286 180.034C41.1423 180.048 41.0596 180.079 40.9852 180.125C40.9109 180.171 40.8463 180.232 40.7952 180.303C40.7442 180.374 40.7076 180.454 40.6876 180.539C40.6676 180.624 40.6645 180.713 40.6786 180.799L69.6468 354.498Z" fill="url(#paint37_linear_382_4114)"/>
<path d="M70.1554 370.227C70.1899 370.37 70.2718 370.498 70.3878 370.59C70.5039 370.681 70.6474 370.731 70.7952 370.731C70.8462 370.737 70.8977 370.737 70.9486 370.731C71.1178 370.689 71.2637 370.582 71.3548 370.434C71.4459 370.285 71.4747 370.107 71.4351 369.937L30.4677 200.664C30.427 200.495 30.3206 200.348 30.1719 200.257C30.0231 200.166 29.8442 200.137 29.6745 200.178C29.5048 200.219 29.3582 200.325 29.267 200.474C29.1758 200.623 29.1474 200.802 29.1881 200.971L70.1554 370.227Z" fill="url(#paint38_linear_382_4114)"/>
<path d="M249.915 409.362L75.0064 384.343C74.9212 384.33 74.8344 384.335 74.7509 384.356C74.6675 384.377 74.5891 384.415 74.5203 384.467C74.4514 384.519 74.3935 384.583 74.3498 384.658C74.3061 384.732 74.2776 384.814 74.2657 384.899C74.2504 384.973 74.2504 385.049 74.2657 385.123L73.7136 385C73.8169 384.917 73.8924 384.805 73.93 384.678C73.9676 384.551 73.9655 384.416 73.9239 384.29L20.7251 220.657C20.6711 220.491 20.5532 220.353 20.3975 220.274C20.2417 220.195 20.0608 220.18 19.8946 220.234C19.7284 220.288 19.5905 220.406 19.5112 220.562C19.4319 220.718 19.4177 220.899 19.4717 221.065L70.9482 379.36L12.8673 240.343C12.8379 240.259 12.7913 240.181 12.7306 240.114C12.6698 240.048 12.5961 239.995 12.514 239.958C12.432 239.922 12.3433 239.902 12.2534 239.902C12.1635 239.901 12.0744 239.918 11.9916 239.953C11.9087 239.988 11.8339 240.039 11.7717 240.104C11.7095 240.169 11.6613 240.246 11.63 240.33C11.5987 240.414 11.585 240.504 11.5898 240.594C11.5946 240.684 11.6177 240.771 11.6578 240.852L69.3837 379.027L7.01236 259.508C6.93158 259.353 6.7927 259.237 6.62627 259.185C6.45984 259.133 6.2795 259.149 6.12491 259.23C5.97032 259.31 5.85415 259.449 5.80196 259.616C5.74977 259.782 5.76584 259.963 5.84662 260.117L67.7841 378.759L3.17332 277.963C3.07493 277.826 2.9279 277.732 2.76253 277.701C2.59716 277.67 2.42605 277.703 2.28446 277.794C2.14287 277.885 2.04158 278.027 2.00149 278.19C1.96139 278.354 1.98553 278.526 2.06893 278.673L66.0837 378.558L1.39403 295.449C1.28277 295.325 1.12878 295.248 0.96311 295.234C0.797434 295.219 0.632386 295.268 0.501224 295.37C0.370061 295.472 0.282537 295.62 0.256288 295.785C0.230039 295.949 0.267017 296.117 0.359771 296.255L64.265 378.374L1.75339 311.83C1.63365 311.706 1.46957 311.633 1.29671 311.628C1.12385 311.624 0.956121 311.687 0.829875 311.806C0.70363 311.924 0.629038 312.087 0.622254 312.26C0.615469 312.432 0.67704 312.601 0.793631 312.729L62.3586 378.255L4.18129 326.906C4.05053 326.79 3.87894 326.73 3.70429 326.74C3.52965 326.751 3.36623 326.83 3.25 326.961C3.13377 327.092 3.07425 327.263 3.08452 327.438C3.0948 327.612 3.17403 327.776 3.30479 327.892L60.2769 378.19L8.67769 340.5C8.53647 340.398 8.36017 340.355 8.18758 340.382C8.01499 340.409 7.86025 340.504 7.75738 340.645C7.65452 340.786 7.61197 340.963 7.63909 341.135C7.66621 341.308 7.76078 341.462 7.902 341.565L58.0681 378.207L15.2251 352.526C15.1511 352.476 15.0677 352.442 14.9801 352.426C14.8924 352.409 14.8024 352.411 14.7154 352.43C14.6284 352.45 14.5462 352.487 14.474 352.539C14.4017 352.591 14.3408 352.657 14.295 352.734C14.2491 352.81 14.2193 352.895 14.2074 352.984C14.1955 353.072 14.2016 353.162 14.2255 353.248C14.2494 353.334 14.2905 353.414 14.3463 353.483C14.4021 353.553 14.4715 353.61 14.5502 353.652L55.6578 378.29L23.7008 362.763C23.6231 362.726 23.5388 362.704 23.4525 362.699C23.3663 362.693 23.28 362.705 23.1984 362.734C23.1168 362.762 23.0416 362.806 22.977 362.863C22.9124 362.921 22.8598 362.99 22.8221 363.068C22.7844 363.146 22.7624 363.23 22.7573 363.316C22.7522 363.402 22.7642 363.489 22.7924 363.57C22.8207 363.652 22.8648 363.727 22.9221 363.792C22.9795 363.856 23.049 363.909 23.1267 363.947L53.0458 378.483L34.0522 371.151C33.9716 371.12 33.8857 371.105 33.7994 371.108C33.7131 371.11 33.628 371.129 33.549 371.164C33.4701 371.199 33.3988 371.249 33.3393 371.312C33.2797 371.374 33.2331 371.448 33.202 371.528C33.1709 371.609 33.156 371.695 33.1581 371.781C33.1603 371.867 33.1794 371.952 33.2144 372.031C33.2494 372.11 33.2996 372.182 33.3621 372.241C33.4247 372.301 33.4983 372.347 33.5789 372.378L50.2323 378.799L46.1566 377.589C46.0737 377.565 45.9868 377.557 45.9009 377.566C45.815 377.575 45.7317 377.601 45.6558 377.642C45.5799 377.684 45.5129 377.74 45.4586 377.807C45.4043 377.874 45.3637 377.951 45.3392 378.034C45.3148 378.117 45.3069 378.204 45.316 378.29C45.3251 378.376 45.3511 378.459 45.3924 378.535C45.4337 378.611 45.4895 378.678 45.5568 378.732C45.624 378.786 45.7012 378.827 45.7841 378.851L59.0805 382.796C59.1088 382.917 59.1707 383.028 59.259 383.115C59.3474 383.203 59.4587 383.264 59.5801 383.291L63.8881 384.224L65.6016 384.733L67.1486 385.329L68.551 386.008L69.8175 386.771L70.9745 387.612L72.0263 388.541L72.9817 389.558L73.8582 390.675L74.647 391.902L75.357 393.261L77.2283 397.749C77.2786 397.869 77.3633 397.971 77.4717 398.043C77.5802 398.114 77.7074 398.152 77.8375 398.152H77.9076L83.6924 409.239C83.7484 409.346 83.8323 409.434 83.935 409.496C84.0378 409.558 84.1554 409.59 84.2753 409.59C84.3822 409.591 84.4877 409.566 84.5821 409.516C84.7343 409.435 84.8487 409.298 84.9004 409.134C84.9521 408.97 84.9369 408.792 84.8582 408.639L82.6669 404.401L92.0498 419.043C92.1086 419.136 92.1901 419.213 92.2868 419.266C92.3834 419.319 92.4919 419.346 92.602 419.345C92.7199 419.345 92.8356 419.313 92.9369 419.253C93.0383 419.193 93.1216 419.106 93.178 419.003C93.2345 418.899 93.2621 418.783 93.2579 418.665C93.2537 418.547 93.2179 418.432 93.1542 418.333L82.7239 402.057L102.169 427.037C102.23 427.116 102.308 427.18 102.398 427.224C102.487 427.268 102.586 427.291 102.686 427.291C102.833 427.292 102.975 427.242 103.089 427.151C103.157 427.098 103.215 427.032 103.257 426.957C103.3 426.882 103.327 426.8 103.338 426.714C103.349 426.629 103.342 426.542 103.319 426.459C103.296 426.376 103.256 426.298 103.203 426.23L82.7064 399.892L113.958 433.15C114.019 433.215 114.093 433.267 114.175 433.303C114.257 433.338 114.346 433.356 114.435 433.356C114.599 433.354 114.756 433.29 114.874 433.177C115 433.057 115.074 432.892 115.079 432.717C115.084 432.543 115.02 432.374 114.9 432.247L82.61 397.884L127.276 437.327C127.397 437.434 127.553 437.493 127.714 437.493C127.808 437.493 127.9 437.472 127.986 437.434C128.071 437.395 128.147 437.339 128.21 437.27C128.324 437.138 128.381 436.967 128.37 436.793C128.358 436.619 128.279 436.456 128.148 436.341L82.4785 396.022L141.992 439.457C142.062 439.511 142.141 439.551 142.227 439.574C142.312 439.597 142.401 439.603 142.488 439.591C142.576 439.579 142.66 439.549 142.735 439.504C142.811 439.459 142.877 439.399 142.929 439.328C142.981 439.257 143.019 439.176 143.039 439.09C143.059 439.004 143.061 438.915 143.046 438.828C143.031 438.741 142.999 438.658 142.951 438.584C142.903 438.509 142.841 438.446 142.768 438.396L82.29 394.234L157.958 439.592C158.059 439.655 158.176 439.689 158.295 439.689C158.439 439.689 158.58 439.642 158.695 439.555C158.81 439.468 158.893 439.345 158.931 439.206C158.969 439.067 158.961 438.92 158.907 438.786C158.853 438.652 158.757 438.54 158.633 438.466L82.0271 392.56L174.935 437.699C175.026 437.742 175.125 437.765 175.225 437.765C175.373 437.765 175.518 437.714 175.634 437.621C175.75 437.528 175.831 437.399 175.864 437.254C175.897 437.109 175.88 436.957 175.816 436.823C175.751 436.689 175.643 436.581 175.51 436.516L81.7247 390.938L192.829 433.816C192.905 433.846 192.985 433.861 193.066 433.86C193.201 433.859 193.332 433.816 193.442 433.738C193.551 433.659 193.634 433.549 193.679 433.422C193.741 433.259 193.736 433.079 193.665 432.919C193.595 432.76 193.464 432.635 193.302 432.572L81.3653 389.391L211.393 427.957C211.453 427.974 211.515 427.983 211.577 427.983C211.736 427.984 211.89 427.928 212.01 427.825C212.13 427.721 212.209 427.578 212.232 427.421C212.255 427.264 212.221 427.104 212.135 426.971C212.049 426.837 211.918 426.739 211.766 426.695L80.9183 387.897L230.426 420.213C230.471 420.217 230.517 420.217 230.562 420.213C230.737 420.232 230.911 420.18 231.048 420.07C231.184 419.96 231.271 419.8 231.29 419.626C231.308 419.452 231.257 419.277 231.147 419.141C231.037 419.004 230.877 418.917 230.702 418.898L80.3442 386.398L249.718 410.629H249.814C249.989 410.641 250.161 410.583 250.293 410.469C250.425 410.354 250.506 410.192 250.518 410.017C250.53 409.843 250.472 409.671 250.358 409.539C250.243 409.407 250.081 409.326 249.906 409.314L249.915 409.362Z" fill="url(#paint39_linear_382_4114)"/>
<path d="M269.176 398.09L91.4714 384.584C91.2971 384.57 91.1246 384.627 90.9918 384.741C90.8591 384.854 90.777 385.016 90.7636 385.191C90.7503 385.365 90.8067 385.538 90.9205 385.67C91.0344 385.803 91.1963 385.885 91.3706 385.898L269.084 399.405H269.132C269.307 399.412 269.477 399.35 269.605 399.231C269.733 399.113 269.809 398.949 269.816 398.774C269.823 398.6 269.76 398.43 269.642 398.302C269.524 398.173 269.359 398.097 269.185 398.09H269.176Z" fill="url(#paint40_linear_382_4114)"/>
<path d="M288.279 385.246L109.036 382.726C108.864 382.724 108.698 382.792 108.575 382.912C108.452 383.033 108.381 383.197 108.379 383.37C108.377 383.545 108.444 383.713 108.565 383.839C108.687 383.964 108.853 384.037 109.028 384.04L288.271 386.56C288.443 386.561 288.609 386.494 288.732 386.374C288.855 386.253 288.926 386.088 288.928 385.916C288.93 385.741 288.863 385.573 288.742 385.447C288.62 385.321 288.454 385.249 288.279 385.246Z" fill="url(#paint41_linear_382_4114)"/>
<path d="M307.019 370.967L127.553 378.781C127.378 378.785 127.212 378.857 127.092 378.983C126.971 379.109 126.905 379.277 126.908 379.452C126.912 379.626 126.984 379.792 127.11 379.913C127.236 380.034 127.404 380.099 127.579 380.096H127.61L307.076 372.282C307.25 372.274 307.414 372.198 307.532 372.07C307.65 371.942 307.713 371.772 307.707 371.598C307.704 371.511 307.684 371.426 307.648 371.347C307.612 371.268 307.56 371.197 307.496 371.138C307.432 371.079 307.357 371.034 307.275 371.005C307.193 370.975 307.106 370.963 307.019 370.967Z" fill="url(#paint42_linear_382_4114)"/>
<path d="M325.179 355.418L146.764 372.808C146.59 372.816 146.426 372.893 146.308 373.022C146.191 373.151 146.129 373.322 146.137 373.496C146.146 373.67 146.223 373.834 146.352 373.952C146.481 374.069 146.651 374.131 146.825 374.123H146.891L325.315 356.733C325.401 356.725 325.485 356.699 325.561 356.659C325.638 356.618 325.706 356.563 325.761 356.496C325.816 356.429 325.858 356.352 325.883 356.269C325.908 356.186 325.917 356.098 325.909 356.012C325.9 355.926 325.875 355.842 325.834 355.765C325.793 355.689 325.738 355.621 325.671 355.566C325.604 355.511 325.527 355.469 325.444 355.444C325.361 355.419 325.274 355.41 325.188 355.418H325.179Z" fill="url(#paint43_linear_382_4114)"/>
<path d="M342.587 338.765L166.504 364.841C166.329 364.853 166.167 364.935 166.053 365.067C165.939 365.2 165.882 365.372 165.894 365.546C165.907 365.721 165.989 365.883 166.121 365.997C166.253 366.111 166.426 366.168 166.6 366.155H166.696L342.78 340.058C342.865 340.045 342.947 340.016 343.021 339.972C343.095 339.928 343.16 339.87 343.211 339.8C343.262 339.731 343.299 339.652 343.32 339.569C343.341 339.485 343.345 339.398 343.332 339.313C343.304 339.142 343.21 338.99 343.071 338.887C342.932 338.785 342.758 338.741 342.587 338.765Z" fill="url(#paint44_linear_382_4114)"/>
<path d="M359.025 321.152L186.527 354.98C186.352 354.997 186.192 355.082 186.08 355.218C185.969 355.353 185.916 355.527 185.933 355.701C185.95 355.875 186.035 356.036 186.17 356.147C186.305 356.259 186.479 356.312 186.654 356.295H186.781L359.279 322.449C359.443 322.409 359.585 322.306 359.676 322.164C359.767 322.021 359.799 321.849 359.767 321.684C359.734 321.518 359.639 321.371 359.5 321.274C359.362 321.176 359.192 321.136 359.025 321.161V321.152Z" fill="url(#paint45_linear_382_4114)"/>
<path d="M374.319 302.829L206.624 343.375C206.45 343.396 206.291 343.484 206.182 343.622C206.073 343.76 206.023 343.935 206.044 344.109C206.064 344.284 206.153 344.443 206.29 344.552C206.428 344.661 206.603 344.71 206.778 344.69C206.829 344.696 206.88 344.696 206.931 344.69L374.626 304.143C374.796 304.103 374.942 303.996 375.034 303.847C375.125 303.699 375.153 303.52 375.113 303.35C375.072 303.18 374.966 303.034 374.817 302.943C374.668 302.851 374.489 302.823 374.319 302.864V302.829Z" fill="url(#paint46_linear_382_4114)"/>
</g>
<defs>
<linearGradient id="paint0_linear_382_4114" x1="307.564" y1="283.979" x2="307.564" y2="331.385" gradientUnits="userSpaceOnUse">
<stop stop-color="white" stop-opacity="0.4"/>
<stop offset="1" stop-color="white" stop-opacity="0"/>
</linearGradient>
<linearGradient id="paint1_linear_382_4114" x1="323.692" y1="264.726" x2="323.692" y2="316.599" gradientUnits="userSpaceOnUse">
<stop stop-color="white" stop-opacity="0.4"/>
<stop offset="1" stop-color="white" stop-opacity="0"/>
</linearGradient>
<linearGradient id="paint2_linear_382_4114" x1="338.7" y1="245.442" x2="338.7" y2="300.454" gradientUnits="userSpaceOnUse">
<stop stop-color="white" stop-opacity="0.4"/>
<stop offset="1" stop-color="white" stop-opacity="0"/>
</linearGradient>
<linearGradient id="paint3_linear_382_4114" x1="352.41" y1="226.223" x2="352.41" y2="283.151" gradientUnits="userSpaceOnUse">
<stop stop-color="white" stop-opacity="0.4"/>
<stop offset="1" stop-color="white" stop-opacity="0"/>
</linearGradient>
<linearGradient id="paint4_linear_382_4114" x1="364.714" y1="207.314" x2="364.714" y2="264.863" gradientUnits="userSpaceOnUse">
<stop stop-color="white" stop-opacity="0.4"/>
<stop offset="1" stop-color="white" stop-opacity="0"/>
</linearGradient>
<linearGradient id="paint5_linear_382_4114" x1="375.486" y1="188.917" x2="375.486" y2="245.793" gradientUnits="userSpaceOnUse">
<stop stop-color="white" stop-opacity="0.4"/>
<stop offset="1" stop-color="white" stop-opacity="0"/>
</linearGradient>
<linearGradient id="paint6_linear_382_4114" x1="384.611" y1="171.231" x2="384.611" y2="226.158" gradientUnits="userSpaceOnUse">
<stop stop-color="white" stop-opacity="0.4"/>
<stop offset="1" stop-color="white" stop-opacity="0"/>
</linearGradient>
<linearGradient id="paint7_linear_382_4114" x1="391.949" y1="154.466" x2="391.949" y2="206.173" gradientUnits="userSpaceOnUse">
<stop stop-color="white" stop-opacity="0.4"/>
<stop offset="1" stop-color="white" stop-opacity="0"/>
</linearGradient>
<linearGradient id="paint8_linear_382_4114" x1="397.454" y1="138.803" x2="397.454" y2="186.049" gradientUnits="userSpaceOnUse">
<stop stop-color="white" stop-opacity="0.4"/>
<stop offset="1" stop-color="white" stop-opacity="0"/>
</linearGradient>
<linearGradient id="paint9_linear_382_4114" x1="401.038" y1="124.39" x2="401.038" y2="165.999" gradientUnits="userSpaceOnUse">
<stop stop-color="white" stop-opacity="0.4"/>
<stop offset="1" stop-color="white" stop-opacity="0"/>
</linearGradient>
<linearGradient id="paint10_linear_382_4114" x1="402.722" y1="111.377" x2="402.722" y2="146.256" gradientUnits="userSpaceOnUse">
<stop stop-color="white" stop-opacity="0.4"/>
<stop offset="1" stop-color="white" stop-opacity="0"/>
</linearGradient>
<linearGradient id="paint11_linear_382_4114" x1="402.442" y1="99.9268" x2="402.442" y2="127.052" gradientUnits="userSpaceOnUse">
<stop stop-color="white" stop-opacity="0.4"/>
<stop offset="1" stop-color="white" stop-opacity="0"/>
</linearGradient>
<linearGradient id="paint12_linear_382_4114" x1="400.205" y1="90.1658" x2="400.205" y2="108.567" gradientUnits="userSpaceOnUse">
<stop stop-color="white" stop-opacity="0.4"/>
<stop offset="1" stop-color="white" stop-opacity="0"/>
</linearGradient>
<linearGradient id="paint13_linear_382_4114" x1="396.003" y1="82.2258" x2="396.003" y2="91.0108" gradientUnits="userSpaceOnUse">
<stop stop-color="white" stop-opacity="0.4"/>
<stop offset="1" stop-color="white" stop-opacity="0"/>
</linearGradient>
<linearGradient id="paint14_linear_382_4114" x1="389.94" y1="73.2717" x2="389.94" y2="77.4778" gradientUnits="userSpaceOnUse">
<stop stop-color="white" stop-opacity="0.4"/>
<stop offset="1" stop-color="white" stop-opacity="0"/>
</linearGradient>
<linearGradient id="paint15_linear_382_4114" x1="382.062" y1="58.1506" x2="382.062" y2="73.3625" gradientUnits="userSpaceOnUse">
<stop stop-color="white" stop-opacity="0.4"/>
<stop offset="1" stop-color="white" stop-opacity="0"/>
</linearGradient>
<linearGradient id="paint16_linear_382_4114" x1="372.459" y1="44.5046" x2="372.459" y2="71.2461" gradientUnits="userSpaceOnUse">
<stop stop-color="white" stop-opacity="0.4"/>
<stop offset="1" stop-color="white" stop-opacity="0"/>
</linearGradient>
<linearGradient id="paint17_linear_382_4114" x1="361.179" y1="32.4727" x2="361.179" y2="71.1302" gradientUnits="userSpaceOnUse">
<stop stop-color="white" stop-opacity="0.4"/>
<stop offset="1" stop-color="white" stop-opacity="0"/>
</linearGradient>
<linearGradient id="paint18_linear_382_4114" x1="348.44" y1="22.2144" x2="348.44" y2="73.0514" gradientUnits="userSpaceOnUse">
<stop stop-color="white" stop-opacity="0.4"/>
<stop offset="1" stop-color="white" stop-opacity="0"/>
</linearGradient>
<linearGradient id="paint19_linear_382_4114" x1="334.317" y1="13.8057" x2="334.317" y2="76.9606" gradientUnits="userSpaceOnUse">
<stop stop-color="white" stop-opacity="0.4"/>
<stop offset="1" stop-color="white" stop-opacity="0"/>
</linearGradient>
<linearGradient id="paint20_linear_382_4114" x1="319" y1="7.34497" x2="319" y2="82.8287" gradientUnits="userSpaceOnUse">
<stop stop-color="white" stop-opacity="0.4"/>
<stop offset="1" stop-color="white" stop-opacity="0"/>
</linearGradient>
<linearGradient id="paint21_linear_382_4114" x1="302.648" y1="2.8728" x2="302.648" y2="90.59" gradientUnits="userSpaceOnUse">
<stop stop-color="white" stop-opacity="0.4"/>
<stop offset="1" stop-color="white" stop-opacity="0"/>
</linearGradient>
<linearGradient id="paint22_linear_382_4114" x1="285.396" y1="0.558594" x2="285.396" y2="100.153" gradientUnits="userSpaceOnUse">
<stop stop-color="white" stop-opacity="0.4"/>
<stop offset="1" stop-color="white" stop-opacity="0"/>
</linearGradient>
<linearGradient id="paint23_linear_382_4114" x1="267.513" y1="0.27002" x2="267.513" y2="111.42" gradientUnits="userSpaceOnUse">
<stop stop-color="white" stop-opacity="0.4"/>
<stop offset="1" stop-color="white" stop-opacity="0"/>
</linearGradient>
<linearGradient id="paint24_linear_382_4114" x1="249.115" y1="2.16772" x2="249.115" y2="124.26" gradientUnits="userSpaceOnUse">
<stop stop-color="white" stop-opacity="0.4"/>
<stop offset="1" stop-color="white" stop-opacity="0"/>
</linearGradient>
<linearGradient id="paint25_linear_382_4114" x1="230.452" y1="6.0957" x2="230.452" y2="138.543" gradientUnits="userSpaceOnUse">
<stop stop-color="white" stop-opacity="0.4"/>
<stop offset="1" stop-color="white" stop-opacity="0"/>
</linearGradient>
<linearGradient id="paint26_linear_382_4114" x1="211.722" y1="12.085" x2="211.722" y2="154.101" gradientUnits="userSpaceOnUse">
<stop stop-color="white" stop-opacity="0.4"/>
<stop offset="1" stop-color="white" stop-opacity="0"/>
</linearGradient>
<linearGradient id="paint27_linear_382_4114" x1="193.129" y1="20.0583" x2="193.129" y2="170.772" gradientUnits="userSpaceOnUse">
<stop stop-color="white" stop-opacity="0.4"/>
<stop offset="1" stop-color="white" stop-opacity="0"/>
</linearGradient>
<linearGradient id="paint28_linear_382_4114" x1="174.867" y1="29.9087" x2="174.867" y2="188.367" gradientUnits="userSpaceOnUse">
<stop stop-color="white" stop-opacity="0.4"/>
<stop offset="1" stop-color="white" stop-opacity="0"/>
</linearGradient>
<linearGradient id="paint29_linear_382_4114" x1="157.149" y1="41.4995" x2="157.149" y2="206.704" gradientUnits="userSpaceOnUse">
<stop stop-color="white" stop-opacity="0.4"/>
<stop offset="1" stop-color="white" stop-opacity="0"/>
</linearGradient>
<linearGradient id="paint30_linear_382_4114" x1="140.153" y1="54.7698" x2="140.153" y2="225.556" gradientUnits="userSpaceOnUse">
<stop stop-color="white" stop-opacity="0.4"/>
<stop offset="1" stop-color="white" stop-opacity="0"/>
</linearGradient>
<linearGradient id="paint31_linear_382_4114" x1="124.072" y1="69.6323" x2="124.072" y2="244.748" gradientUnits="userSpaceOnUse">
<stop stop-color="white" stop-opacity="0.4"/>
<stop offset="1" stop-color="white" stop-opacity="0"/>
</linearGradient>
<linearGradient id="paint32_linear_382_4114" x1="109.094" y1="85.7485" x2="109.094" y2="264.066" gradientUnits="userSpaceOnUse">
<stop stop-color="white" stop-opacity="0.4"/>
<stop offset="1" stop-color="white" stop-opacity="0"/>
</linearGradient>
<linearGradient id="paint33_linear_382_4114" x1="95.3713" y1="103.056" x2="95.3713" y2="283.283" gradientUnits="userSpaceOnUse">
<stop stop-color="white" stop-opacity="0.4"/>
<stop offset="1" stop-color="white" stop-opacity="0"/>
</linearGradient>
<linearGradient id="paint34_linear_382_4114" x1="83.0448" y1="121.346" x2="83.0448" y2="302.193" gradientUnits="userSpaceOnUse">
<stop stop-color="white" stop-opacity="0.4"/>
<stop offset="1" stop-color="white" stop-opacity="0"/>
</linearGradient>
<linearGradient id="paint35_linear_382_4114" x1="72.2489" y1="140.41" x2="72.2489" y2="320.591" gradientUnits="userSpaceOnUse">
<stop stop-color="white" stop-opacity="0.4"/>
<stop offset="1" stop-color="white" stop-opacity="0"/>
</linearGradient>
<linearGradient id="paint36_linear_382_4114" x1="63.1619" y1="160.042" x2="63.1619" y2="338.274" gradientUnits="userSpaceOnUse">
<stop stop-color="white" stop-opacity="0.4"/>
<stop offset="1" stop-color="white" stop-opacity="0"/>
</linearGradient>
<linearGradient id="paint37_linear_382_4114" x1="55.8116" y1="180.025" x2="55.8116" y2="355.049" gradientUnits="userSpaceOnUse">
<stop stop-color="white" stop-opacity="0.4"/>
<stop offset="1" stop-color="white" stop-opacity="0"/>
</linearGradient>
<linearGradient id="paint38_linear_382_4114" x1="50.3112" y1="200.16" x2="50.3112" y2="370.735" gradientUnits="userSpaceOnUse">
<stop stop-color="white" stop-opacity="0.4"/>
<stop offset="1" stop-color="white" stop-opacity="0"/>
</linearGradient>
<linearGradient id="paint39_linear_382_4114" x1="125.384" y1="220.202" x2="125.384" y2="439.689" gradientUnits="userSpaceOnUse">
<stop stop-color="white" stop-opacity="0.4"/>
<stop offset="1" stop-color="white" stop-opacity="0"/>
</linearGradient>
<linearGradient id="paint40_linear_382_4114" x1="180.289" y1="384.582" x2="180.289" y2="399.406" gradientUnits="userSpaceOnUse">
<stop stop-color="white" stop-opacity="0.4"/>
<stop offset="1" stop-color="white" stop-opacity="0"/>
</linearGradient>
<linearGradient id="paint41_linear_382_4114" x1="198.653" y1="382.726" x2="198.653" y2="386.56" gradientUnits="userSpaceOnUse">
<stop stop-color="white" stop-opacity="0.4"/>
<stop offset="1" stop-color="white" stop-opacity="0"/>
</linearGradient>
<linearGradient id="paint42_linear_382_4114" x1="217.308" y1="370.966" x2="217.308" y2="380.096" gradientUnits="userSpaceOnUse">
<stop stop-color="white" stop-opacity="0.4"/>
<stop offset="1" stop-color="white" stop-opacity="0"/>
</linearGradient>
<linearGradient id="paint43_linear_382_4114" x1="236.024" y1="355.415" x2="236.024" y2="374.123" gradientUnits="userSpaceOnUse">
<stop stop-color="white" stop-opacity="0.4"/>
<stop offset="1" stop-color="white" stop-opacity="0"/>
</linearGradient>
<linearGradient id="paint44_linear_382_4114" x1="254.616" y1="338.759" x2="254.616" y2="366.157" gradientUnits="userSpaceOnUse">
<stop stop-color="white" stop-opacity="0.4"/>
<stop offset="1" stop-color="white" stop-opacity="0"/>
</linearGradient>
<linearGradient id="paint45_linear_382_4114" x1="272.854" y1="321.152" x2="272.854" y2="356.298" gradientUnits="userSpaceOnUse">
<stop stop-color="white" stop-opacity="0.4"/>
<stop offset="1" stop-color="white" stop-opacity="0"/>
</linearGradient>
<linearGradient id="paint46_linear_382_4114" x1="290.585" y1="302.829" x2="290.585" y2="344.695" gradientUnits="userSpaceOnUse">
<stop stop-color="white" stop-opacity="0.4"/>
<stop offset="1" stop-color="white" stop-opacity="0"/>
</linearGradient>
<clipPath id="clip0_382_4114">
<rect width="440" height="440" fill="white"/>
</clipPath>
</defs>
</svg>
