<svg width="440" height="440" viewBox="0 0 440 440" fill="none" xmlns="http://www.w3.org/2000/svg">
<g clip-path="url(#clip0_382_4166)">
<path d="M422.561 134.789C401.407 84.5852 362.335 44.0247 312.93 20.9823C263.524 -2.06018 207.311 -5.94046 155.202 10.0948C103.094 26.13 58.8094 60.9366 30.9455 107.757C3.08161 154.578 -6.37312 210.071 4.41685 263.464C15.2068 316.857 45.4716 364.34 89.3355 396.694C133.199 429.048 187.533 443.965 241.787 438.549C296.041 433.132 346.345 407.769 382.932 367.383C419.52 326.997 439.78 274.47 439.781 220C439.822 190.73 433.966 161.751 422.561 134.789ZM431.024 252.537C430.874 258.538 430.393 264.526 429.582 270.473C424.942 279.129 418.148 287.432 409.369 295.21C410.637 283.866 410.866 272.43 410.055 261.045C409.837 257.844 409.546 254.643 409.182 251.442C410.772 250.059 412.306 248.66 413.783 247.242C420.476 240.791 425.82 234.051 429.788 227.124C430.825 235.553 431.238 244.047 431.024 252.537ZM11.3595 229.071C11.4294 228.451 11.508 227.831 11.5823 227.211C15.5454 234.112 20.8761 240.83 27.5438 247.255C29.0207 248.678 30.5587 250.081 32.1579 251.463C30.4247 266.004 30.3719 280.696 32.0006 295.25C23.2618 287.519 16.4892 279.269 11.8445 270.67C9.96078 256.877 9.79787 242.904 11.3595 229.071ZM28.7978 116.984C33.1996 108.789 38.3311 101.007 44.1301 93.7313C41.5924 99.5954 40.2553 105.908 40.1976 112.296C36.9118 116.425 33.8139 120.67 30.9039 125.029C25.6624 132.885 21.0486 141.142 17.1053 149.722C17.5707 143.241 19.1987 136.897 21.9116 130.992H21.8679C24.0031 126.225 26.3043 121.553 28.7716 116.975L28.7978 116.984ZM358.689 57.7106C354.054 54.7395 349.261 51.9807 344.309 49.4344C336.227 45.3055 327.851 41.7762 319.25 38.8753C317.083 35.0024 314.318 31.495 311.058 28.4821C323.275 31.5951 334.981 36.4463 345.816 42.8868C351.226 47.5793 355.547 52.5511 358.697 57.7019L358.689 57.7106ZM412.511 116.984L412.555 116.962C415.019 121.537 417.32 126.209 419.458 130.978H419.415C422.128 136.884 423.756 143.228 424.221 149.709C420.276 141.13 415.661 132.875 410.418 125.02C407.505 120.655 404.407 116.411 401.124 112.287C401.064 105.96 399.748 99.7083 397.253 93.8928C403.027 101.113 408.134 108.842 412.511 116.984ZM418.047 177.694C411.975 162.873 404.29 148.765 395.13 135.623C397.141 131.839 398.687 127.826 399.735 123.671C400.495 120.628 400.943 117.516 401.072 114.382C403.967 118.084 406.713 121.879 409.308 125.767C415.1 134.439 420.118 143.603 424.304 153.153C424.226 160.429 422.651 167.612 419.677 174.254C419.17 175.4 418.627 176.544 418.047 177.685V177.694ZM408.749 261.145C409.585 272.932 409.292 284.771 407.875 296.502C398.791 304.294 387.697 311.544 374.759 318.07C374.825 317.372 374.904 316.678 374.965 315.975C376.142 301.981 376.068 287.911 374.742 273.93C387.527 267.523 398.695 260.329 407.949 252.494C408.284 255.377 408.551 258.258 408.749 261.136V261.145ZM376.009 371.708C368.738 378.003 360.021 383.76 350.133 388.898C352.907 385.124 355.432 381.174 357.692 377.073C360.794 371.421 363.461 365.542 365.671 359.486C376.354 354.152 385.814 348.25 393.919 341.842C394.601 341.307 395.271 340.766 395.929 340.219C390.856 351.624 384.145 362.229 376.009 371.7V371.708ZM322.75 412.063C314.338 416.195 305.604 419.638 296.634 422.356C301.991 418.119 306.797 412.52 311.053 405.559C322.896 402.197 334.441 397.865 345.572 392.608C339.164 400.379 331.439 406.964 322.75 412.063ZM221.31 433.116C221.31 429.624 221.31 424.438 221.31 417.677C236.339 417.662 251.352 416.689 266.258 414.765C266.048 415.381 265.821 415.988 265.611 416.581C263.313 422.777 260.738 427.481 257.886 430.694C245.759 432.288 233.541 433.097 221.31 433.116ZM183.445 430.698C180.285 427.14 177.471 421.771 175.046 414.765C189.952 416.689 204.965 417.661 219.995 417.677V433.116C207.772 433.096 195.563 432.288 183.445 430.698ZM118.707 412.155C110.037 407.045 102.326 400.463 95.9208 392.704C107.024 397.935 118.538 402.248 130.347 405.599C134.59 412.522 139.445 418.161 144.828 422.422C135.857 419.71 127.122 416.277 118.707 412.155ZM45.5108 340.315C46.1313 340.825 46.7517 341.332 47.3897 341.834C55.508 348.25 64.9853 354.161 75.686 359.499V359.543C79.7714 370.613 85.0234 380.469 91.311 388.968C81.4449 383.852 72.741 378.121 65.4703 371.857C57.333 362.357 50.6106 351.733 45.5108 340.315ZM33.3507 252.498C42.6226 260.355 53.7996 267.544 66.602 273.952C65.1822 288.622 65.1603 303.392 66.5364 318.066C53.6205 311.549 42.5396 304.316 33.4643 296.542C31.7056 281.915 31.6675 267.133 33.3507 252.498ZM40.2369 114.365C40.3663 117.499 40.8143 120.611 41.574 123.654C42.6269 127.826 44.1821 131.855 46.2056 135.654C37.0422 148.784 29.351 162.88 23.2705 177.689C22.6879 176.546 22.1417 175.395 21.632 174.236C18.6576 167.594 17.0826 160.412 17.0048 153.136C21.1908 143.586 26.2087 134.422 32.0006 125.749C34.5873 121.87 37.3327 118.075 40.2369 114.365ZM75.1529 79.7019C75.1529 79.7892 75.1529 79.8765 75.1529 79.9594C75.4519 85.9003 77.0619 91.7017 79.8675 96.9483C68.4405 107.567 58.0647 119.261 48.884 131.869C48.2636 132.725 47.6504 133.583 47.0445 134.444C45.2193 130.92 43.8074 127.196 42.8367 123.348C41.9716 119.881 41.5257 116.323 41.5084 112.75C51.3847 100.452 62.6774 89.3592 75.1529 79.7019ZM118.493 53.4721C118.677 57.6098 119.767 61.6568 121.687 65.3277C107.106 74.1803 93.4398 84.4566 80.89 96.0055C78.2617 91.0226 76.7512 85.5277 76.4638 79.9027C76.4638 79.5055 76.4638 79.1039 76.4419 78.7067C87.4782 70.2905 99.2876 62.9374 111.712 56.746C113.953 55.6023 116.225 54.5241 118.493 53.4721ZM329.597 56.746C342.014 62.9386 353.816 70.2917 364.845 78.7067C364.845 79.1039 364.845 79.5055 364.845 79.9027C364.568 85.5028 363.077 90.9761 360.476 95.9444C347.923 84.4031 334.246 74.1464 319.648 65.3277C321.568 61.6568 322.658 57.6098 322.842 53.4721C325.083 54.5241 327.356 55.6023 329.597 56.746ZM399.8 112.75C399.789 116.322 399.349 119.881 398.49 123.348C397.521 127.18 396.117 130.888 394.304 134.401C388.642 126.378 382.49 118.713 375.882 111.449C371.277 106.409 366.471 101.561 361.463 96.9047C364.252 91.6719 365.851 85.8891 366.147 79.9682C366.147 79.8852 366.147 79.7979 366.147 79.7106C378.625 89.3647 389.921 100.454 399.8 112.75ZM376.586 156.244C368.007 141.502 358.134 127.552 347.083 114.557C353.008 109.38 357.622 103.858 360.83 98.092C365.712 102.652 370.397 107.398 374.886 112.331C381.61 119.719 387.86 127.524 393.596 135.702C389.764 142.734 384.202 149.5 376.953 155.925C376.83 156.03 376.699 156.134 376.581 156.244H376.586ZM373.68 315.853C373.593 316.83 373.492 317.795 373.392 318.76C371.723 319.589 370.021 320.405 368.288 321.209C355.848 326.921 342.995 331.688 329.837 335.469C330.839 320.729 330.839 305.939 329.837 291.199C331.109 290.832 332.372 290.461 333.63 290.077C347.319 285.997 360.652 280.809 373.497 274.563C374.771 288.294 374.831 302.111 373.676 315.853H373.68ZM76.7478 358.565C72.5051 346.91 69.6081 334.055 68.092 320.301C69.5339 321.008 70.9903 321.706 72.4614 322.396C85.1164 328.206 98.1971 333.042 111.589 336.862C112.629 350.472 114.648 363.022 117.576 374.231C109.064 371.756 100.898 368.967 93.1593 365.881C87.4091 363.582 81.9372 361.143 76.7434 358.565H76.7478ZM67.8604 274.563C80.6899 280.802 94.0068 285.986 107.679 290.064C108.955 290.452 110.235 290.828 111.524 291.203C111.282 294.887 111.097 298.544 110.969 302.173C110.558 313.269 110.733 324.379 111.493 335.456C98.3354 331.676 85.4819 326.909 73.0425 321.196C71.2947 320.392 69.5921 319.575 67.9347 318.742C66.4946 304.052 66.4697 289.258 67.8604 274.563ZM64.3648 155.912C57.1291 149.5 51.5756 142.747 47.7611 135.732C48.4864 134.693 49.2234 133.657 49.972 132.624C59.0337 120.182 69.267 108.634 80.5317 98.14C83.7388 103.889 88.3398 109.393 94.2516 114.553C83.2071 127.558 73.3415 141.519 64.7712 156.27L64.3648 155.912ZM175.606 23.9075C186.286 24.3995 196.904 25.8029 207.345 28.1023C208.708 28.3991 210.067 28.7134 211.431 29.0364C198.101 27.7683 184.686 27.6792 171.341 28.7702C172.52 26.9519 173.957 25.314 175.606 23.9075ZM206.921 11.8162C208.893 13.9264 210.72 16.1679 212.387 18.5253C214.546 21.5735 216.545 24.7307 218.378 27.9844C212.893 23.4205 206.977 19.4003 200.712 15.9805C199.297 15.2209 197.89 14.5153 196.492 13.8634C199.924 12.972 203.407 12.2884 206.921 11.8162ZM244.905 13.8852C238.596 16.8688 232.622 20.5122 227.082 24.7543C225.684 25.8106 224.281 26.9368 222.878 28.0674C226.754 21.236 230.612 15.7797 234.387 11.8162C237.932 12.2935 241.444 12.9844 244.905 13.8852ZM269.989 28.8094C260.623 28.0441 251.218 27.8634 241.829 28.2682C237.751 28.4428 233.681 28.7265 229.62 29.1194C241.468 26.2331 253.569 24.5022 265.751 23.9511C267.39 25.3588 268.818 26.995 269.989 28.8094ZM311.036 194.019C315.576 209.781 319.242 225.36 322.064 240.546C306.346 244.991 290.329 248.303 274.136 250.455C272.983 238.311 271.571 225.936 269.898 213.435C269.277 208.779 268.626 204.163 267.945 199.589C282.193 197.686 296.286 194.769 310.118 190.859C310.43 191.915 310.736 192.967 311.036 194.015V194.019ZM328.465 335.884C311.747 340.617 294.709 344.138 277.483 346.421C278.012 332.571 278.012 317.712 277.483 302.111C294.721 299.821 311.773 296.304 328.509 291.587C329.497 306.33 329.482 321.122 328.465 335.862V335.884ZM112.293 302.234C112.415 298.712 112.593 295.162 112.826 291.583C129.563 296.295 146.615 299.808 163.852 302.094C163.62 309.034 163.489 315.866 163.463 322.549C163.428 330.842 163.559 338.8 163.843 346.399C146.611 344.119 129.567 340.596 112.843 335.858C112.058 324.668 111.875 313.443 112.293 302.234ZM194.875 102.055C203.214 103.125 211.613 103.671 220.021 103.688V149.888C207.96 149.869 195.913 149.085 183.951 147.54C186.914 133.305 190.165 119.498 193.678 106.39C194.062 104.929 194.451 103.484 194.844 102.055H194.875ZM183.772 55.4757C186.871 56.9771 190.085 58.2267 193.385 59.2122C185.378 69.7049 178.057 80.703 171.468 92.138C170.824 93.2496 170.185 94.3671 169.55 95.4904C162.796 93.5561 156.219 91.0547 149.887 88.013C155.119 82.0911 160.502 76.4572 166.037 71.1114C171.845 65.5067 177.757 60.2948 183.772 55.4757ZM219.995 33.3928V61.6785C215.988 61.6592 211.986 61.4041 208.009 60.9146C211.465 51.5155 215.467 42.3259 219.995 33.3928ZM206.672 60.74C202.943 60.2298 199.25 59.4789 195.618 58.492C202.497 49.5789 210.124 41.2682 218.417 33.6503C213.996 42.4528 210.075 51.4971 206.672 60.74ZM221.292 33.384C225.822 42.3198 229.826 51.5123 233.282 60.9146C229.304 61.4041 225.3 61.6592 221.292 61.6785V33.384ZM222.9 33.6547C230.582 40.6388 238.215 48.9325 245.674 58.492C242.047 59.4781 238.36 60.229 234.637 60.74C231.24 51.4993 227.326 42.4566 222.913 33.6547H222.9ZM242.777 52.7737C237.273 46.0461 231.326 39.6925 224.976 33.7551C228.687 35.7455 232.405 37.9034 236.131 40.2285C243.165 44.6282 249.949 49.4138 256.453 54.5634C253.416 55.9824 250.274 57.1645 247.054 58.0991C245.639 56.3094 244.219 54.5067 242.79 52.7737H242.777ZM194.259 58.1079C191.048 57.1768 187.915 55.9991 184.886 54.5852C194.731 46.7238 205.26 39.7571 216.346 33.7682C208.336 41.2701 200.949 49.4102 194.259 58.1079ZM172.617 92.7971C179.261 81.266 186.657 70.1839 194.757 59.6225C198.526 60.665 202.361 61.454 206.235 61.984C201.966 73.5122 197.829 86.4678 193.905 100.584C186.117 99.5494 178.411 97.9712 170.843 95.8614C171.426 94.8371 172.017 93.8157 172.617 92.7971ZM207.546 62.1761C211.677 62.6953 215.836 62.9664 219.999 62.988V102.378C211.71 102.359 203.429 101.823 195.207 100.772C199.161 86.5201 203.303 73.5952 207.546 62.1761ZM219.995 151.18V201.418C204.909 201.4 189.84 200.414 174.88 198.467C177.402 181.618 180.351 164.943 183.68 148.81C195.721 150.37 207.849 151.162 219.99 151.18H219.995ZM219.995 202.723V253.986C202.777 253.973 185.578 252.85 168.505 250.625C170.1 233.759 172.176 216.678 174.688 199.755C189.71 201.712 204.842 202.704 219.99 202.723H219.995ZM219.995 255.296V304.547C201.671 304.533 183.367 303.333 165.198 300.955C165.753 285.079 166.832 268.618 168.383 251.93C185.495 254.157 202.733 255.281 219.99 255.296H219.995ZM221.305 255.296C238.578 255.282 255.833 254.156 272.961 251.926C274.538 268.823 275.582 285.253 276.15 300.95C257.966 303.33 239.646 304.531 221.305 304.547V255.296ZM221.305 253.986V202.723C236.469 202.706 251.615 201.714 266.651 199.755C267.327 204.341 267.978 208.956 268.604 213.601C270.278 226.107 271.689 238.482 272.838 250.621C255.75 252.85 238.535 253.974 221.301 253.986H221.305ZM221.305 201.418V151.18C233.464 151.163 245.61 150.37 257.668 148.805C260.954 164.729 263.903 181.369 266.459 198.463C251.485 200.414 236.402 201.401 221.301 201.418H221.305ZM221.305 149.91V103.688C229.725 103.669 238.135 103.123 246.486 102.051C250.419 116.294 254.08 131.546 257.41 147.535C245.436 149.084 233.375 149.87 221.301 149.888L221.305 149.91ZM221.305 102.4C221.305 87.917 221.305 74.7257 221.305 63.0098C225.471 62.9809 229.631 62.7024 233.763 62.1761C233.824 62.342 233.889 62.5035 233.951 62.6694C238.228 74.2499 242.305 87.0396 246.128 100.768C237.894 101.822 229.602 102.36 221.301 102.378L221.305 102.4ZM235.183 62.2416C235.157 62.163 235.126 62.0888 235.1 62.0146C238.966 61.4752 242.792 60.6775 246.552 59.6269C255.363 71.1307 263.354 83.2387 270.466 95.8614C262.912 97.9711 255.221 99.5522 247.448 100.593C243.589 86.7602 239.487 73.8789 235.178 62.2198L235.183 62.2416ZM247.92 59.2341C251.233 58.2436 254.463 56.9897 257.576 55.4844C269.795 65.324 281.136 76.2032 291.474 87.9999C285.132 91.0449 278.542 93.5463 271.777 95.4773C264.681 82.8469 256.707 70.7288 247.915 59.2122L247.92 59.2341ZM258.865 54.8384C261.438 53.5131 263.863 51.9165 266.096 50.0761C270.466 52.4274 274.819 54.9301 279.157 57.5841C289.066 63.6833 298.569 70.4182 307.606 77.7463C303.015 81.5133 298.009 84.7441 292.684 87.3757C282.365 75.5743 271.048 64.6812 258.861 54.8166L258.865 54.8384ZM257.759 53.9654C251.068 48.6241 244.077 43.6676 236.821 39.1198C233.591 37.1031 230.365 35.2116 227.143 33.4452C240.145 37.6568 252.751 43.0013 264.816 49.417C262.628 51.1661 260.262 52.6791 257.755 53.9305L257.759 53.9654ZM183.593 53.9654C181.084 52.7123 178.714 51.1979 176.523 49.4475C179.27 47.9925 182.038 46.5928 184.825 45.2483C194.312 40.6566 204.102 36.7188 214.127 33.4626C203.378 39.4042 193.162 46.2579 183.589 53.9479L183.593 53.9654ZM182.488 54.8384C176.612 59.5731 170.827 64.686 165.132 70.1773C159.504 75.6104 154.028 81.3577 148.703 87.4194C143.365 84.7904 138.347 81.558 133.747 77.7856C146.691 67.2912 160.588 58.0276 175.256 50.1154C177.489 51.9408 179.912 53.5213 182.483 54.8297L182.488 54.8384ZM147.816 88.4495C136.873 101.045 126.897 114.447 117.973 128.543C109.457 124.261 102.138 119.529 96.0955 114.4L96.9956 113.339C107.868 100.757 119.812 89.1398 132.694 78.6194C137.342 82.455 142.414 85.7459 147.812 88.4277L147.816 88.4495ZM149.027 89.0519C155.423 92.1592 162.073 94.7177 168.903 96.6995C161.058 110.754 154.029 125.248 147.851 140.11C138.73 137.498 129.83 134.17 121.233 130.158C120.534 129.826 119.842 129.491 119.157 129.154C128.083 115.05 138.066 101.643 149.022 89.0475L149.027 89.0519ZM170.192 97.0749C177.85 99.2313 185.652 100.845 193.538 101.903C193.159 103.282 192.78 104.672 192.402 106.071C188.876 119.228 185.612 133.087 182.641 147.378C171.316 145.874 160.112 143.569 149.114 140.481C155.295 125.612 162.332 111.112 170.188 97.0531L170.192 97.0749ZM182.378 148.657C179.053 164.808 176.104 181.469 173.583 198.319C159.402 196.432 145.374 193.537 131.606 189.654C136.442 173.384 142.118 157.374 148.612 141.69C159.687 144.802 170.969 147.123 182.374 148.635L182.378 148.657ZM173.382 199.584C170.874 216.503 168.798 233.584 167.203 250.451C151.013 248.305 134.999 244.998 119.284 240.555C122.411 223.805 126.398 207.226 131.23 190.885C145.055 194.786 159.141 197.693 173.382 199.584ZM167.081 251.756C165.526 268.439 164.459 284.9 163.887 300.776C146.661 298.489 129.622 294.971 112.9 290.247C114.035 274.011 116.088 257.852 119.048 241.847C134.801 246.294 150.853 249.605 167.081 251.756ZM164.765 322.553C164.791 315.927 164.923 309.152 165.15 302.269C183.334 304.643 201.652 305.842 219.99 305.857V350.158C201.657 350.148 183.343 348.955 165.163 346.587C164.872 338.969 164.739 330.957 164.765 322.553ZM219.995 351.467V388.169C202.723 388.148 185.471 387.006 168.348 384.751C166.819 373.93 165.757 361.586 165.202 347.91C183.371 350.269 201.673 351.458 219.995 351.467ZM221.305 351.467C239.633 351.455 257.941 350.263 276.115 347.897C275.824 354.991 275.387 361.8 274.805 368.321C274.289 374.141 273.67 379.615 272.948 384.742C255.821 386.997 238.567 388.139 221.292 388.16C221.305 377.418 221.305 365.126 221.301 351.467H221.305ZM221.305 350.158V305.857C239.66 305.842 257.994 304.642 276.194 302.264C276.71 317.874 276.705 332.732 276.168 346.583C257.975 348.953 239.648 350.147 221.301 350.158H221.305ZM277.457 300.754C276.906 285.04 275.84 268.627 274.263 251.734C290.502 249.586 306.565 246.272 322.326 241.817C325.282 257.824 327.325 273.986 328.444 290.225C311.722 294.95 294.683 298.468 277.457 300.754ZM267.757 198.275C265.222 181.199 262.251 164.563 258.965 148.631C270.375 147.106 281.662 144.772 292.741 141.647C299.239 157.333 304.915 173.347 309.747 189.623C295.973 193.508 281.939 196.405 267.752 198.292L267.757 198.275ZM258.703 147.356C255.383 131.376 251.712 116.128 247.78 101.881C255.662 100.821 263.459 99.2066 271.112 97.0487C278.982 111.094 286.029 125.585 292.217 140.446C281.224 143.541 270.024 145.85 258.703 147.356ZM272.458 96.6646C279.299 94.6782 285.957 92.1124 292.361 88.9952C303.318 101.585 313.289 114.997 322.187 129.115C321.492 129.455 320.793 129.796 320.08 130.136C311.501 134.14 302.62 137.464 293.519 140.075C287.345 125.21 280.313 110.716 272.458 96.6646ZM293.571 88.371C298.956 85.6906 304.015 82.4026 308.65 78.5714C321.519 89.1102 333.45 100.743 344.309 113.339L345.213 114.396C339.175 119.52 331.869 124.248 323.366 128.525C314.473 114.407 304.513 100.989 293.571 88.3884V88.371ZM345.305 112.466C334.446 99.8762 322.52 88.2453 309.659 77.7027C313.38 74.5053 316.538 70.7075 319.001 66.467C333.604 75.2908 347.28 85.5629 359.82 97.1273C357.912 100.552 355.641 103.763 353.048 106.704C350.923 109.126 348.638 111.404 346.21 113.523L345.305 112.466ZM308.602 76.8602C299.457 69.4399 289.839 62.6218 279.808 56.4491C275.619 53.8825 271.391 51.4511 267.123 49.1551C268.845 47.6035 270.319 45.7972 271.493 43.7991C283.689 48.1783 295.543 53.4586 306.955 59.5963C310.657 61.5839 314.298 63.6515 317.878 65.7991C315.68 69.7059 312.552 73.4162 308.615 76.8777L308.602 76.8602ZM265.895 48.4872C254.065 42.1669 241.716 36.8688 228.983 32.6507C243.014 35.0244 256.816 38.5995 270.234 43.3364C269.069 45.2724 267.609 47.016 265.908 48.5047L265.895 48.4872ZM230.831 31.638C244.76 32.2017 258.618 33.9319 272.257 36.8106C272.165 38.674 271.691 40.4986 270.863 42.1709C257.838 37.5641 244.452 34.0469 230.844 31.6555L230.831 31.638ZM230.604 30.3285C234.361 29.988 238.118 29.7348 241.872 29.569C251.503 29.152 261.15 29.3562 270.754 30.1801C271.605 31.8285 272.111 33.6332 272.24 35.4837C258.534 32.6086 244.611 30.8856 230.617 30.3328L230.604 30.3285ZM227.545 28.2638C233.321 25.6763 239.255 23.4558 245.311 21.6158C249.436 20.3732 253.514 19.3547 257.545 18.5602C259.905 19.7217 262.146 21.1075 264.239 22.6983C251.859 23.3625 239.573 25.2279 227.554 28.2682L227.545 28.2638ZM244.935 20.363C238.169 22.4252 231.556 24.9558 225.142 27.9364C226.051 27.2118 226.964 26.5003 227.873 25.8106C233.747 21.3049 240.125 17.4963 246.88 14.4614C249.864 15.3214 252.784 16.3906 255.618 17.661C252.088 18.4002 248.53 19.3023 244.944 20.3674L244.935 20.363ZM221.297 28.2202V10.9126C225.158 10.934 229.015 11.1731 232.849 11.6285C229.066 15.7448 225.194 21.3059 221.305 28.2463L221.297 28.2202ZM219.986 28.1678C216.115 21.2535 212.265 15.7098 208.486 11.5805C212.308 11.1431 216.152 10.9201 219.999 10.9126L219.986 28.1678ZM216.145 27.8622C206.43 23.3136 196.237 19.8614 185.756 17.5694C188.589 16.2998 191.509 15.2349 194.495 14.3829C201.656 17.5519 208.909 22.0916 216.158 27.8884L216.145 27.8622ZM213.864 28.2638C211.785 27.7444 209.7 27.2511 207.612 26.7971C197.569 24.5888 187.364 23.199 177.096 22.6416C179.192 21.0529 181.435 19.6673 183.794 18.5035C194.159 20.6225 204.251 23.9055 213.877 28.29L213.864 28.2638ZM211.068 30.2936C196.939 30.8295 182.88 32.5585 169.043 35.4618C169.174 33.5984 169.685 31.7816 170.546 30.1233C184.036 28.9752 197.603 29.0409 211.081 30.3198L211.068 30.2936ZM210.867 31.6031C197.124 34.0168 183.604 37.5617 170.445 42.2015C169.6 40.5171 169.117 38.6751 169.025 36.7932C182.807 33.9001 196.808 32.1756 210.88 31.638L210.867 31.6031ZM212.077 32.7293C202.562 35.9127 193.262 39.7066 184.235 44.0872C181.287 45.5102 178.354 46.9987 175.435 48.5527C173.724 47.0757 172.25 45.3443 171.066 43.4194C184.417 38.7218 198.14 35.1575 212.09 32.7642L212.077 32.7293ZM174.208 49.1507C159.543 57.0895 145.647 66.3701 132.698 76.8733C128.766 73.4075 125.607 69.6841 123.413 65.7686C126.993 63.618 130.634 61.549 134.337 59.5614C145.755 53.4308 157.618 48.1648 169.825 43.8078C171.006 45.8145 172.489 47.6282 174.221 49.1856L174.208 49.1507ZM131.671 77.7202C118.799 88.2486 106.861 99.8679 95.9907 112.449C95.6892 112.798 95.3921 113.156 95.0906 113.505C92.6653 111.399 90.3838 109.132 88.2612 106.722C85.6839 103.797 83.4253 100.608 81.5235 97.2059C94.0611 85.6352 107.724 75.3437 122.308 66.4844C124.779 70.7395 127.949 74.5494 131.684 77.7551L131.671 77.7202ZM95.2522 115.408C101.321 120.546 108.701 125.326 117.296 129.656C111.179 139.412 105.446 149.565 100.229 160.019C97.7647 164.952 95.4256 169.928 93.2117 174.948C82.5809 169.627 73.4052 163.69 65.7849 157.143C74.3443 142.383 84.2059 128.416 95.2522 115.408ZM101.369 160.6C106.586 150.15 112.293 139.997 118.441 130.245C119.175 130.603 119.909 130.965 120.66 131.319C129.269 135.339 138.181 138.677 147.314 141.302C140.828 156.989 135.155 173 130.317 189.27C123.557 187.31 116.994 185.11 110.676 182.67C104.909 180.444 99.4629 178.065 94.339 175.533C96.5733 170.519 98.9167 165.541 101.369 160.6ZM110.222 183.892C116.571 186.345 123.168 188.554 129.963 190.527C125.133 206.866 121.145 223.441 118.017 240.188C113.939 239.004 109.947 237.751 106.04 236.43C96.0987 233.102 86.3877 229.123 76.9706 224.518C81.3987 208.195 87.0317 192.224 93.8234 176.733C98.9764 179.265 104.445 181.651 110.231 183.892H110.222ZM105.63 237.674C109.606 239.019 113.656 240.287 117.781 241.48C114.82 257.484 112.76 273.642 111.611 289.876C110.423 289.53 109.239 289.179 108.059 288.824C94.2944 284.721 80.893 279.489 67.9915 273.18C68.2187 270.817 68.4779 268.441 68.7692 266.051C70.4674 252.472 73.0952 239.026 76.6342 225.805C86.0308 230.387 95.7165 234.352 105.63 237.674ZM112.944 337.255C129.653 341.958 146.677 345.459 163.887 347.731C164.433 361.284 165.482 373.651 167.011 384.572C150.809 382.408 134.783 379.094 119.052 374.655C116.064 363.463 114.014 350.9 112.944 337.255ZM167.203 385.917C168.178 392.617 169.336 398.754 170.673 404.25C171.45 407.451 172.285 410.428 173.176 413.181C159.005 411.283 144.987 408.375 131.23 404.481C128.159 399.341 125.556 393.936 123.452 388.33C121.996 384.48 120.669 380.414 119.472 376.13C135.133 380.508 151.083 383.778 167.203 385.917ZM168.54 386.1C185.601 388.328 202.788 389.457 219.995 389.478V416.367C204.807 416.35 189.637 415.349 174.579 413.373C172.154 405.952 170.109 396.786 168.54 386.1ZM221.305 389.478C238.515 389.457 255.704 388.328 272.768 386.1C271.204 396.786 269.186 405.913 266.721 413.386C251.663 415.358 236.493 416.354 221.305 416.367V389.478ZM274.114 385.917C290.241 383.776 306.196 380.504 321.863 376.126C318.857 386.995 314.951 396.537 310.175 404.473C296.396 408.38 282.355 411.298 268.159 413.203C270.566 405.734 272.567 396.607 274.114 385.917ZM274.306 384.568C275.008 379.525 275.613 374.15 276.12 368.443C276.705 361.843 277.142 354.911 277.431 347.727C294.635 345.457 311.654 341.956 328.356 337.25C327.286 350.896 325.241 363.441 322.239 374.646C306.517 379.084 290.499 382.398 274.306 384.563V384.568ZM328.382 349.892C328.933 345.64 329.38 341.295 329.724 336.857C343.11 333.038 356.185 328.203 368.834 322.396C370.323 321.706 371.79 321.005 373.234 320.292C371.709 334.182 368.817 346.967 364.614 358.539C359.405 361.123 353.913 363.57 348.136 365.881C340.407 368.963 332.249 371.748 323.751 374.223C325.804 366.217 327.351 358.091 328.382 349.892ZM333.25 288.824C332.085 289.179 330.92 289.525 329.754 289.863C328.619 273.627 326.561 257.469 323.589 241.467C327.696 240.277 331.729 239.013 335.688 237.674C345.626 234.344 355.335 230.367 364.753 225.771C368.928 241.302 371.813 257.152 373.379 273.158C360.457 279.475 347.035 284.715 333.25 288.824ZM335.26 236.443C331.362 237.764 327.391 239.011 323.344 240.184C320.487 224.871 316.79 209.292 312.294 193.665C311.993 192.618 311.682 191.575 311.372 190.527C318.154 188.558 324.738 186.354 331.078 183.905C336.863 181.67 342.331 179.282 347.481 176.742C354.302 192.214 359.96 208.172 364.408 224.483C354.967 229.104 345.229 233.095 335.26 236.43V236.443ZM330.606 182.683C324.301 185.119 317.747 187.314 311.005 189.274C306.173 173.003 300.505 156.991 294.026 141.302C303.144 138.678 312.042 135.344 320.64 131.332C321.4 130.97 322.147 130.607 322.89 130.241C328.975 139.94 334.655 150.064 339.931 160.613C342.401 165.56 344.743 170.536 346.957 175.542C341.827 178.062 336.377 180.438 330.606 182.67V182.683ZM341.093 160.032C335.85 149.504 330.169 139.377 324.052 129.652C332.634 125.326 340.001 120.55 346.065 115.421C357.119 128.417 366.988 142.374 375.555 157.125C367.917 163.673 358.737 169.627 348.115 174.957C345.912 169.951 343.575 164.972 341.102 160.019L341.093 160.032ZM318.486 64.6424C314.911 62.5006 311.278 60.433 307.584 58.4396C296.168 52.3012 284.311 47.0166 272.113 42.6293C272.954 40.8995 273.448 39.0222 273.568 37.1031C290.063 40.6644 306.136 45.9566 321.518 52.8916C321.421 56.9888 320.383 61.009 318.486 64.6424ZM273.581 35.7674C273.5 33.8826 273.055 32.0314 272.27 30.3154C287.937 31.7429 303.387 34.9741 318.311 39.9448C320.219 43.4919 321.308 47.4202 321.501 51.4424C306.12 44.5565 290.059 39.3027 273.581 35.7674ZM271.589 28.9404C270.511 27.0637 269.163 25.356 267.586 23.8725C272.503 23.7154 277.371 23.7721 282.189 24.0428C290.999 24.5288 299.748 25.7908 308.335 27.8142C311.867 30.7972 314.907 34.3162 317.345 38.2424C302.495 33.4212 287.144 30.3006 271.589 28.9404ZM282.263 22.7376C276.967 22.4466 271.611 22.4059 266.192 22.6154C264.157 20.9183 261.953 19.4323 259.616 18.1805C270.977 16.142 281.944 15.8801 292.304 17.3729C297.177 19.7639 301.796 22.6406 306.09 25.959C298.245 24.2604 290.278 23.1833 282.263 22.7376ZM257.725 17.1983C254.826 15.7895 251.826 14.6003 248.75 13.6408C256.615 10.4586 264.204 9.01381 271.401 9.34556C277.263 11.0192 282.998 13.1066 288.564 15.592C278.261 14.6212 267.871 15.1624 257.725 17.1983ZM246.775 13.0471C243.086 12.003 239.332 11.2053 235.537 10.6594C239.469 6.82254 243.319 4.64873 246.98 4.28206C253.621 5.15883 260.206 6.4225 266.699 8.06659C260.289 8.42889 253.617 10.1007 246.775 13.0471ZM243.375 3.83246C240.317 4.97611 237.184 7.18921 233.977 10.4412C229.774 9.90442 225.542 9.62453 221.305 9.60309C221.305 6.08484 221.305 3.71024 221.305 2.55786C228.68 2.57693 236.048 3.00244 243.375 3.83246ZM219.999 9.60309C215.78 9.62304 211.565 9.90148 207.38 10.4368C204.176 7.18339 201.046 4.97902 197.99 3.82373C205.298 2.99898 212.645 2.57639 219.999 2.55786V9.60309ZM194.346 4.28206C197.982 4.64 201.8 6.77452 205.777 10.6551C202.009 11.2007 198.281 11.9924 194.617 13.0253C187.783 10.0571 181.151 8.38524 174.767 8.02294C181.216 6.40104 187.753 5.15201 194.346 4.28206ZM192.646 13.6146C189.565 14.5694 186.561 15.7557 183.659 17.1634C181.62 16.7706 179.598 16.4286 177.594 16.1376C169.428 14.9352 161.146 14.7227 152.928 15.5047C158.468 13.0443 164.174 10.9759 170.004 9.315C177.319 8.97015 184.913 10.4761 192.646 13.6146ZM177.397 17.434C178.843 17.6392 180.299 17.8706 181.767 18.1412C179.422 19.3931 177.21 20.879 175.164 22.5761C162.473 22.018 149.76 22.9853 137.299 25.4571L135.342 25.8674C139.657 22.5449 144.298 19.6667 149.193 17.2769C158.554 15.9901 168.051 16.043 177.397 17.434ZM137.544 26.7404C149.458 24.3717 161.608 23.3961 173.749 23.8333C172.165 25.3185 170.809 27.0291 169.725 28.9098C161.653 29.6372 153.63 30.822 145.693 32.4586C138.353 33.9692 131.103 35.887 123.977 38.2031C126.438 34.2553 129.506 30.7198 133.07 27.7269C134.558 27.3748 136.054 27.046 137.557 26.7404H137.544ZM145.951 33.7245C153.573 32.153 161.276 31.0003 169.025 30.2717C168.237 31.9956 167.792 33.8562 167.715 35.7499C151.24 39.2918 135.183 44.5514 119.808 51.4424C120.002 47.4039 121.1 43.4603 123.02 39.9011C130.538 37.3937 138.2 35.337 145.964 33.742L145.951 33.7245ZM167.741 37.1031C167.862 39.0395 168.362 40.9332 169.213 42.6773C157.008 47.0433 145.145 52.3135 133.725 58.444C130.037 60.4257 126.403 62.4948 122.823 64.6511C120.925 61.0146 119.888 56.9916 119.791 52.8916C135.173 45.9566 151.246 40.6644 167.741 37.1031ZM46.909 136.95C50.7978 143.89 56.3382 150.565 63.491 156.903C63.692 157.082 63.9061 157.261 64.1114 157.44C55.8188 171.843 48.8937 186.991 43.4266 202.684C35.0767 195.355 28.5706 187.48 24.0657 179.208C30.0888 164.32 37.7503 150.147 46.909 136.95ZM65.1033 158.308C72.7891 164.856 82.0042 170.814 92.6306 176.148C85.8457 191.639 80.2143 207.609 75.7821 223.928C63.6177 217.817 53.118 211.004 44.4884 203.613C49.9244 187.9 56.8264 172.732 65.1033 158.308ZM75.4151 225.212C71.8307 238.573 69.1693 252.164 67.4497 265.89C67.1729 268.122 66.9282 270.342 66.7156 272.551C53.8914 266.091 42.7231 258.836 33.508 250.931C35.1963 237.06 38.1671 223.375 42.3823 210.052C42.9154 208.344 43.4718 206.64 44.0514 204.94C52.7335 212.317 63.2638 219.127 75.4326 225.212H75.4151ZM66.6763 319.611C68.1269 333.274 70.919 346.072 75.0262 357.714C64.911 352.576 55.9231 346.923 48.1849 340.808C46.8479 339.751 45.5633 338.682 44.3092 337.608C40.4653 328.515 37.5379 319.061 35.5704 309.388C34.8276 305.794 34.2071 302.157 33.709 298.475C42.8193 306.105 53.8826 313.212 66.6937 319.611H66.6763ZM77.3901 360.35C82.243 362.716 87.3407 364.964 92.683 367.094C100.688 370.29 109.151 373.166 117.978 375.711C119.227 380.307 120.639 384.677 122.203 388.806C124.172 394.049 126.567 399.122 129.364 403.975C117.203 400.468 105.371 395.908 94.0026 390.347C87.313 381.778 81.7333 371.726 77.4075 360.35H77.3901ZM132.209 406.131C145.799 409.903 159.635 412.724 173.618 414.573C175.938 421.378 178.612 426.695 181.588 430.449C170.428 428.921 159.39 426.61 148.555 423.535C142.442 419.419 136.976 413.578 132.226 406.131H132.209ZM267.687 414.569C281.688 412.717 295.542 409.89 309.148 406.109C304.486 413.456 299.042 419.327 292.842 423.5C281.985 426.584 270.925 428.904 259.743 430.44C262.741 426.682 265.402 421.365 267.704 414.569H267.687ZM311.993 403.94L312.307 403.394C316.79 395.537 320.478 386.261 323.34 375.702C332.153 373.162 340.608 370.285 348.604 367.094C353.958 364.958 359.069 362.702 363.936 360.324C361.845 365.862 359.363 371.245 356.508 376.431C353.85 381.268 350.814 385.887 347.429 390.247C336.044 395.833 324.193 400.415 312.01 403.94H311.993ZM393.089 340.808C385.364 346.919 376.389 352.559 366.291 357.688C370.364 346.129 373.147 333.4 374.593 319.607C387.422 313.199 398.481 306.075 407.613 298.423C406.172 309.295 403.583 319.983 399.888 330.31C399.014 332.754 398.074 335.154 397.07 337.508C395.811 338.617 394.483 339.721 393.107 340.808H393.089ZM374.602 272.529C373.013 256.534 370.11 240.697 365.924 225.177C378.084 219.092 388.606 212.282 397.288 204.905C402.37 219.84 405.885 235.262 407.775 250.922C398.59 258.819 387.431 266.073 374.619 272.529H374.602ZM365.579 223.889C361.133 207.581 355.484 191.623 348.678 176.148C359.335 170.801 368.563 164.821 376.258 158.251C381.378 167.186 385.981 176.407 390.044 185.869C392.569 191.753 394.846 197.651 396.873 203.561C388.235 210.969 377.748 217.787 365.597 223.889H365.579ZM391.21 185.372C387.093 175.785 382.424 166.444 377.228 157.396L377.8 156.903C384.971 150.552 390.52 143.86 394.404 136.902C403.558 150.112 411.212 164.298 417.226 179.2C412.743 187.463 406.232 195.35 397.895 202.653C395.912 196.882 393.689 191.122 391.228 185.372H391.21ZM424.855 144.113C429.134 155.576 432.428 167.383 434.699 179.405C432.404 170.331 429.369 161.461 425.624 152.882C425.619 149.943 425.362 147.009 424.855 144.113ZM399.752 110.62C389.856 98.5101 378.589 87.5858 366.178 78.065C366.1 72.3825 364.785 66.785 362.324 61.661C373.994 69.609 384.571 79.0511 393.784 89.746C397.445 96.5642 399.447 103.575 399.752 110.62ZM364.845 77.0392C353.979 68.8263 342.377 61.6327 330.187 55.5499C327.763 54.3364 325.312 53.1724 322.833 52.0579C322.749 48.0728 321.81 44.1522 320.08 40.5602C328.18 43.3504 336.073 46.7052 343.702 50.5999C349.342 53.4889 354.82 56.6861 360.109 60.1769C362.955 65.3631 364.575 71.1311 364.845 77.0392ZM339.293 37.7753C329.669 32.8588 319.488 29.1158 308.969 26.6269C305.093 23.3609 300.896 20.4958 296.442 18.0757C303.865 19.49 311.061 21.9087 317.83 25.265L317.852 25.217C322.169 27.3675 326.403 29.6563 330.554 32.0833V32.1182C333.665 33.9369 336.576 35.8227 339.288 37.7753H339.293ZM292.689 16.1027C288.313 13.9339 283.807 12.0387 279.196 10.4281C279.768 10.5634 280.332 10.7075 280.896 10.8646V10.8035C287.77 12.7765 294.55 15.0958 301.235 17.7614C298.442 17.0805 295.593 16.5276 292.689 16.1027ZM160.413 10.9126C160.977 10.7467 161.545 10.6027 162.113 10.4761C157.572 12.0611 153.132 13.9197 148.817 16.0416C145.953 16.4577 143.14 17.0092 140.375 17.696C146.956 15.0769 153.629 12.7998 160.396 10.8646L160.413 10.9126ZM123.479 25.2563C130.296 21.8644 137.545 19.4163 145.024 17.9797C140.556 20.397 136.344 23.2605 132.453 26.5265C122.004 28.9733 111.889 32.6711 102.326 37.5396C104.948 35.6713 107.765 33.8569 110.777 32.0963V32.0614C114.928 29.6344 119.162 27.3457 123.479 25.1952V25.2563ZM95.6892 42.7471C106.489 36.3009 118.17 31.4588 130.365 28.3729C127.072 31.4063 124.282 34.9423 122.098 38.8491C108.246 43.4888 95.0085 49.7916 82.6771 57.619C85.8536 52.4289 90.2056 47.4483 95.6892 42.7471ZM121.272 40.5035C119.531 44.106 118.586 48.0407 118.502 52.0404C116.029 53.1695 113.578 54.3335 111.148 55.5325C98.9476 61.6176 87.3367 68.8172 76.4638 77.0392C76.7413 71.0886 78.3859 65.2816 81.2701 60.0678C93.725 51.901 107.157 45.3282 121.25 40.5035H121.272ZM75.1529 78.065C62.7413 87.5858 51.4748 98.5101 41.5784 110.62C41.8886 103.492 43.9378 96.3983 47.6737 89.5015C56.4302 79.3376 66.4367 70.3193 77.4556 62.6606L79.0592 61.5563C76.5676 66.7087 75.2343 72.3434 75.1529 78.065ZM15.7289 152.882C11.9688 161.459 8.91889 170.33 6.60993 179.405C8.88121 167.383 12.1746 155.576 16.4542 144.113C15.9467 147.009 15.6894 149.943 15.6852 152.882H15.7289ZM15.825 156.003C16.2573 162.485 17.8311 168.839 20.4741 174.773C21.1382 176.292 21.8665 177.8 22.6588 179.296C17.0002 193.352 13.0199 208.025 10.8002 223.012C6.60119 214.618 4.45144 205.988 4.43396 197.297C6.44059 183.106 10.2539 169.229 15.7813 156.003H15.825ZM23.4846 180.793C28.1031 188.977 34.6747 196.765 43.0115 204.019C42.3736 205.896 41.759 207.778 41.1676 209.663C37.0142 222.781 34.0572 236.247 32.3327 249.896C30.9898 248.712 29.6906 247.517 28.4351 246.313C21.3611 239.494 15.8163 232.344 11.8314 225.02C13.9152 209.866 17.813 195.018 23.4409 180.793H23.4846ZM32.2671 297.192C32.806 301.409 33.4949 305.563 34.3339 309.654C36.1472 318.533 38.7591 327.23 42.1376 335.64C34.3295 328.573 28.2647 321.082 24.0439 313.264C18.4721 300.823 14.5601 287.704 12.4081 274.245C17.1926 282.268 23.8604 289.963 32.2234 297.192H32.2671ZM14.4705 290.208C11.5424 281.645 9.15926 272.907 7.33526 264.044C8.29216 266.446 9.38481 268.793 10.6079 271.071C11.4862 277.523 12.7586 283.915 14.4181 290.212L14.4705 290.208ZM43.3086 338.398C47.349 347.915 52.4809 356.931 58.6016 365.265C57.767 364.392 56.9499 363.489 56.1678 362.59C45.6241 350.485 36.4618 337.246 28.8502 323.116C33.0872 328.715 37.9172 333.84 43.2562 338.403L43.3086 338.398ZM71.3821 378.16C78.2624 383.17 85.5615 387.579 93.1986 391.338C97.4013 396.735 102.194 401.647 107.487 405.983C97.1784 399.717 87.4123 392.602 78.2902 384.712C75.8812 382.619 73.5566 380.437 71.3166 378.164L71.3821 378.16ZM148 424.722C148.539 425.08 149.081 425.426 149.625 425.761C146.68 424.742 143.753 423.663 140.843 422.522C143.191 423.296 145.576 424.03 148 424.722ZM152.806 426.032C162.697 428.61 172.738 430.573 182.872 431.911C183.898 433.039 185.056 434.04 186.32 434.893C177.564 433.511 168.901 431.589 160.383 429.14V429.078C157.767 428.329 155.233 427.319 152.819 426.062L152.806 426.032ZM184.917 432.178C196.55 433.637 208.262 434.378 219.986 434.395V437.564C210.559 437.542 201.144 436.914 191.799 435.683V435.652C189.383 435.36 187.084 434.181 184.93 432.208L184.917 432.178ZM221.297 434.395C233.028 434.376 244.747 433.635 256.388 432.178C254.203 434.164 251.918 435.329 249.479 435.67V435.7C240.134 436.931 230.719 437.56 221.292 437.582L221.297 434.395ZM258.472 431.903C268.621 430.573 278.677 428.612 288.581 426.032C286.129 427.306 283.554 428.33 280.896 429.087V429.148C272.395 431.593 263.752 433.512 255.016 434.893C256.287 434.05 257.452 433.056 258.485 431.933L258.472 431.903ZM293.427 424.652C295.798 423.971 298.129 423.254 300.418 422.5C297.566 423.624 294.693 424.684 291.797 425.682C292.387 425.381 292.925 425.041 293.462 424.683L293.427 424.652ZM348.298 391.233C355.907 387.478 363.18 383.078 370.036 378.081C367.767 380.36 365.41 382.557 362.966 384.673C353.936 392.481 344.276 399.531 334.084 405.752C339.362 401.471 344.142 396.611 348.333 391.264L348.298 391.233ZM385.154 362.563C384.477 363.34 383.773 364.109 383.057 364.873C389.103 356.619 394.169 347.693 398.153 338.272C403.457 333.738 408.258 328.65 412.476 323.094C404.865 337.224 395.702 350.463 385.159 362.568L385.154 362.563ZM417.4 312.994C413.197 320.851 407.128 328.398 399.294 335.509C399.926 333.934 400.533 332.334 401.116 330.707C405.005 319.831 407.682 308.559 409.099 297.096C417.505 289.824 424.19 282.08 429.019 274.005C426.898 287.465 423.003 300.585 417.435 313.024L417.4 312.994ZM430.819 270.844C431.998 268.628 433.054 266.349 433.982 264.017C432.22 272.588 429.937 281.042 427.144 289.335C428.747 283.261 429.986 277.096 430.854 270.875L430.819 270.844ZM412.834 246.282C411.585 247.487 410.29 248.677 408.95 249.853C407.001 234.23 403.446 218.849 398.341 203.954C406.643 196.708 413.232 188.925 417.842 180.745C423.487 194.958 427.406 209.796 429.512 224.941C425.528 232.305 419.97 239.473 412.869 246.313L412.834 246.282ZM418.659 179.248C419.448 177.755 420.176 176.252 420.844 174.738C423.486 168.804 425.06 162.45 425.493 155.969C431.025 169.194 434.842 183.07 436.853 197.262C436.853 205.923 434.699 214.53 430.522 222.903C428.3 207.949 424.331 193.307 418.694 179.278L418.659 179.248ZM385.159 77.371C386.87 79.3362 388.475 81.3922 389.965 83.5301C381.306 74.3474 371.615 66.1947 361.083 59.2341C358.528 54.6054 355.353 50.3466 351.645 46.5753C355.588 49.2435 359.372 52.1381 362.979 55.2444C366.982 58.7044 370.869 62.3202 374.641 66.0916C378.306 69.7553 381.823 73.5253 385.193 77.4015L385.159 77.371ZM66.6369 66.1352C70.4063 62.3522 74.2936 58.7364 78.2989 55.288C81.9358 52.1494 85.7508 49.2229 89.7249 46.5229C86.0104 50.2841 82.8251 54.5325 80.2564 59.1511C79.0504 59.9456 77.8576 60.7546 76.6778 61.5781C67.6046 67.8907 59.2021 75.1147 51.6018 83.1372C52.968 81.2049 54.471 79.2916 56.111 77.3971C59.4842 73.5239 62.9929 69.7699 66.6369 66.1352ZM3.59503 204.364C4.61039 211.691 6.94488 218.773 10.4856 225.269C10.3239 226.486 10.1754 227.709 10.0487 228.926C8.62033 241.634 8.62765 254.463 10.0705 267.169C7.53267 261.817 5.80958 256.115 4.9583 250.254H4.92333C3.53214 240.229 2.83575 230.121 2.83913 220C2.83913 214.762 3.0911 209.55 3.59503 204.364ZM436.39 250.263H436.355C435.519 256.044 433.83 261.669 431.343 266.955C431.882 262.22 432.213 257.428 432.335 252.576C432.563 243.427 432.07 234.275 430.858 225.203C434.379 218.728 436.702 211.672 437.714 204.373C438.218 209.553 438.47 214.762 438.47 220C438.475 230.123 437.78 240.235 436.39 250.263Z" fill="url(#paint0_linear_382_4166)"/>
</g>
<defs>
<linearGradient id="paint0_linear_382_4166" x1="219.925" y1="0.361816" x2="219.925" y2="439.638" gradientUnits="userSpaceOnUse">
<stop stop-color="white" stop-opacity="0.4"/>
<stop offset="1" stop-color="white" stop-opacity="0"/>
</linearGradient>
<clipPath id="clip0_382_4166">
<rect width="440" height="440" fill="white"/>
</clipPath>
</defs>
</svg>
