<svg width="440" height="440" viewBox="0 0 440 440" fill="none" xmlns="http://www.w3.org/2000/svg">
<g clip-path="url(#clip0_382_4172)">
<path d="M440 219.34H225.016L432.674 163.698L432.331 162.422L224.673 218.064L410.854 110.572L410.194 109.428L224.013 216.92L376.028 64.9044L375.096 63.9716L223.08 215.987L330.572 29.8056L329.428 29.1456L221.936 215.327L277.578 7.6692L276.302 7.326L220.66 214.984V0H219.34V214.984L163.698 7.326L162.422 7.6692L218.064 215.327L110.572 29.1456L109.428 29.8056L216.92 215.987L64.9044 63.9716L63.9716 64.9044L215.987 216.92L29.8056 109.428L29.1456 110.572L215.327 218.064L7.6692 162.422L7.326 163.698L214.984 219.34H0V220.66H214.984L7.326 276.302L7.6692 277.578L215.327 221.936L29.1456 329.428L29.8056 330.572L215.987 223.08L63.9716 375.096L64.9044 376.028L216.92 224.013L109.428 410.194L110.572 410.854L218.064 224.673L162.422 432.331L163.698 432.674L219.34 225.016V440H220.66V225.016L276.302 432.674L277.578 432.331L221.936 224.673L329.428 410.854L330.572 410.194L223.08 224.013L375.096 376.028L376.028 375.096L224.013 223.08L410.194 330.572L410.854 329.428L224.673 221.936L432.331 277.578L432.674 276.302L225.016 220.66H440V219.34Z" fill="url(#paint0_linear_382_4172)"/>
</g>
<defs>
<linearGradient id="paint0_linear_382_4172" x1="220" y1="0" x2="220" y2="440" gradientUnits="userSpaceOnUse">
<stop stop-color="white" stop-opacity="0.4"/>
<stop offset="1" stop-color="white" stop-opacity="0"/>
</linearGradient>
<clipPath id="clip0_382_4172">
<rect width="440" height="440" fill="white"/>
</clipPath>
</defs>
</svg>
