<svg width="142" height="140" viewBox="0 0 142 140" fill="none" xmlns="http://www.w3.org/2000/svg">
    <path d="M133.125 99.8216C133.447 98.3877 133.585 96.9185 133.535 95.4496C133.484 93.9535 133.227 92.4716 132.772 91.0455C132.29 89.547 131.597 88.125 130.713 86.8228C129.736 85.3936 128.566 84.1065 127.236 82.998C126.76 82.5976 126.306 82.1712 125.877 81.7207C125.647 81.3327 125.432 80.9334 125.238 80.5258C125.128 80.2466 125.011 79.9675 124.886 79.6883C124.867 79.5222 124.851 79.3547 124.839 79.1871C125.083 78.1653 125.406 77.1393 125.739 76.077C125.845 75.7364 125.954 75.393 126.06 75.0454C126.164 74.7816 126.32 74.3922 126.503 73.8547C127.386 71.942 128.042 69.932 128.457 67.8662C130.005 65.214 130.738 62.4975 130.691 59.5675C131.9 57.4895 132.599 55.1545 132.731 52.754C133.188 50.7098 133.396 48.618 133.351 46.524C134.267 40.7016 132.005 34.6741 127.636 30.658C125.45 28.6313 122.765 27.2213 119.855 26.5721C116.696 25.8867 113.419 26.145 110.113 27.3441C107.785 28.1911 105.3 28.518 102.832 28.3019C100.364 28.0858 97.9729 27.3319 95.8274 26.0932C93.6819 24.8545 91.8336 23.1609 90.4125 21.1316C88.9913 19.1023 88.0318 16.7864 87.6013 14.3467C87.5133 13.8455 87.4044 13.3458 87.2816 12.8642C86.3449 9.20969 84.3878 6.0926 81.6211 3.84517H81.6142C79.309 1.99752 76.5702 0.76894 73.6574 0.275806C70.7632 -0.229763 67.7901 -0.0383539 64.9846 0.834174C62.1357 1.71236 59.572 3.33316 57.5569 5.53005C55.3876 7.91986 53.9749 10.8848 53.3621 14.3425C53.2261 15.1046 53.0396 15.8568 52.8038 16.5941C52.3691 17.4357 52.0018 18.3104 51.7052 19.2101C50.8046 20.1226 50.0108 21.1346 49.3391 22.2266C48.2079 22.8981 47.163 23.7054 46.2276 24.6304C44.9834 24.9953 43.7884 25.511 42.6694 26.1659L42.5675 26.1883C41.3567 26.1151 40.1418 26.2238 38.9632 26.5107H38.8027C38.7851 26.5051 38.7667 26.5023 38.7483 26.5023C38.5682 26.5023 38.4188 26.4926 38.2443 26.4926C38.0405 26.4926 37.8605 26.4856 37.6622 26.4842H37.3677C35.5907 25.9621 32.9971 25.5908 30.2485 26.5037C28.3877 25.8881 26.1166 25.5643 23.7561 26.2246C22.0443 26.308 20.3564 26.6608 18.7545 27.2701C18.7438 27.2731 18.7335 27.2773 18.7238 27.2827C15.9837 28.3486 13.5614 30.0972 11.687 32.3624C11.6748 32.3737 11.664 32.3863 11.6549 32.4001C10.7237 33.5203 9.92721 34.7459 9.2818 36.0518C8.63154 37.364 8.14086 38.7493 7.82027 40.1782C7.49784 41.6121 7.35993 43.0813 7.40987 44.5502C7.46131 46.0472 7.71823 47.5301 8.17344 48.9571C8.65529 50.4573 9.3496 51.8807 10.2352 53.1839C11.2123 54.6132 12.3825 55.9003 13.7124 57.0088C14.185 57.4075 14.6361 57.8311 15.0637 58.2777C15.3038 58.6825 15.5234 59.0943 15.7226 59.5131C15.8328 59.7922 15.9501 60.0714 16.0715 60.3394C16.0897 60.5028 16.1051 60.6661 16.1162 60.828C15.8747 61.84 15.5495 62.8744 15.2061 63.9674C15.1028 64.2969 14.9981 64.6291 14.8976 64.9557L14.8417 65.1093C14.7021 65.4499 14.5793 65.7905 14.4551 66.1465C13.5724 68.0509 12.9165 70.0524 12.5008 72.1098C10.9499 74.7621 10.2171 77.4785 10.2673 80.4114C9.0538 82.488 8.35365 84.8244 8.22508 87.2262C7.77055 89.2684 7.56154 91.3575 7.6025 93.4492C7.1596 96.3631 7.46659 99.3417 8.4945 102.104C8.49619 102.111 8.49852 102.118 8.50147 102.125C9.51265 104.878 11.1638 107.352 13.3188 109.342C15.505 111.368 18.1901 112.778 21.0996 113.428C24.2586 114.113 27.5362 113.855 30.8418 112.656C34.0722 111.475 37.5866 111.31 40.9133 112.184C44.1201 113.022 47.0125 114.779 49.2358 117.237C51.3678 119.598 52.7911 122.512 53.3426 125.645C53.4138 126.052 53.5017 126.456 53.5981 126.852C53.5892 126.959 53.6146 127.065 53.6706 127.157C54.6115 130.803 56.5686 133.914 59.3325 136.156C61.6377 138.004 64.3764 139.232 67.2892 139.725C70.1836 140.229 73.1562 140.038 75.9621 139.167C78.8108 138.288 81.3743 136.667 83.3898 134.47C85.5646 132.079 86.9787 129.109 87.5929 125.648C87.7282 124.884 87.9148 124.131 88.1513 123.393C88.5858 122.551 88.9536 121.676 89.2512 120.776C90.1548 119.86 90.9509 118.844 91.6243 117.748C92.7513 117.076 93.7923 116.27 94.7246 115.347C95.9715 114.983 97.169 114.468 98.2898 113.812L98.3805 113.792C98.6346 113.809 98.8901 113.819 99.1483 113.819C100.108 113.815 101.064 113.699 101.997 113.472H102.182H102.226C102.406 113.472 102.556 113.482 102.73 113.482C103.009 113.49 103.254 113.49 103.568 113.482C104.756 113.844 105.991 114.032 107.233 114.04C108.414 114.043 109.587 113.854 110.707 113.482C111.929 113.9 113.21 114.119 114.502 114.13C115.398 114.132 116.29 114.012 117.154 113.775C118.875 113.692 120.571 113.336 122.18 112.721C123.56 112.19 124.864 111.479 126.057 110.607C127.241 109.742 128.314 108.736 129.251 107.609C130.188 106.488 130.988 105.26 131.636 103.951C132.286 102.639 132.776 101.253 133.097 99.8244L133.125 99.8216ZM131.354 103.626C128.003 103.138 125.506 101.238 123.955 99.6723C124.667 98.3663 125.268 97.0028 125.752 95.5962C127.136 97.2085 129.398 99.1502 132.663 99.9319C132.363 101.207 131.924 102.446 131.354 103.626ZM129.022 107.262C126.288 107.057 123.51 105.798 121.166 103.701C121.725 103.048 122.227 102.331 122.716 101.634L122.826 101.477C123.141 101.036 123.45 100.556 123.744 100.051C125.322 101.624 127.826 103.494 131.155 104.019C130.563 105.176 129.848 106.265 129.022 107.269V107.262ZM117.124 113.363C115.281 113.441 113.439 113.223 111.666 112.719C111.194 112.587 110.718 112.439 110.247 112.263C110.131 112.222 110.014 112.183 109.897 112.142C111.08 111.604 112.221 110.977 113.309 110.264C115.609 111.892 118.116 112.777 120.527 112.829C119.415 113.129 118.274 113.309 117.124 113.363ZM103.642 113.072L103.502 113.028C104.436 112.689 105.334 112.256 106.181 111.737C106.6 111.785 107.019 111.849 107.437 111.927C107.675 112.078 107.916 112.223 108.16 112.358C106.7 112.828 105.176 113.068 103.642 113.072ZM67.1482 139.276C64.4252 138.78 61.8654 137.624 59.6926 135.909C60.0775 133.182 60.6844 130.492 61.5073 127.864C63.5829 129.672 66.0502 130.971 68.7145 131.661C67.9402 134.141 67.4155 136.692 67.1482 139.276ZM55.7017 117.285C54.9598 114.267 53.3979 111.513 51.1887 109.328C51.9222 107.026 52.8419 104.788 53.9387 102.636C56.0928 104.552 57.6937 107.01 58.5745 109.755C58.7001 110.16 58.83 110.553 58.9682 110.942C57.7701 113.214 56.7395 115.571 55.8846 117.994C55.8166 117.759 55.7538 117.523 55.6961 117.285H55.7017ZM42.7322 104.573C43.4646 102.362 44.386 100.219 45.4864 98.1661C48.5189 98.8063 51.3247 100.247 53.612 102.338C52.5157 104.478 51.5928 106.703 50.8523 108.99C48.7068 106.885 45.9051 105.365 42.7266 104.573H42.7322ZM20.967 112.966C18.2499 112.318 15.7429 110.988 13.6831 109.102C13.8578 106.976 14.2953 104.879 14.9855 102.861C17.0794 104.579 19.6702 105.792 22.5109 106.364C21.7467 108.499 21.2269 110.714 20.9615 112.966H20.967ZM8.72482 90.7356C9.28749 89.1594 10.0878 87.6784 11.0979 86.344C11.3917 87.3573 11.7781 88.3414 12.2523 89.2838C11.2836 91.1392 10.4644 93.0689 9.80247 95.0546C9.2581 93.6675 8.89587 92.2158 8.72482 90.7356ZM8.64246 87.2821C9.05153 85.4467 9.61948 83.6503 10.3399 81.9134C10.402 82.7824 10.512 83.6473 10.6693 84.5042C10.7456 84.9555 10.8387 85.4004 10.9485 85.8387C10.0022 87.0439 9.22361 88.3719 8.63409 89.7864C8.58526 88.9522 8.58806 88.1159 8.64246 87.2821ZM8.29767 90.6797C8.21298 90.9282 8.13342 91.1776 8.05897 91.428C8.09247 90.864 8.14505 90.3005 8.21671 89.7375C8.23486 90.0544 8.26277 90.3685 8.29767 90.6797ZM10.5632 52.9145C9.81134 51.8004 9.20171 50.5966 8.74855 49.3312C11.2268 50.7278 13.2447 52.816 14.5556 55.3406C14.6609 56.0288 14.8082 56.7099 14.9967 57.3801C13.8223 55.6183 12.3166 54.1016 10.5632 52.9145ZM8.19019 40.4741C11.4706 41.26 13.7097 43.2576 15.0302 44.8475C14.576 46.3075 14.3096 47.8193 14.2373 49.3466C12.6378 47.0981 10.4069 45.3749 7.82725 44.3952C7.79392 43.0786 7.91479 41.7626 8.18739 40.4741H8.19019ZM9.59588 36.3701C12.9349 36.8531 15.4378 38.7432 16.9859 40.3024C16.2741 41.6109 15.6731 42.9767 15.1893 44.3855C13.2909 42.1813 10.9136 40.6947 8.28092 40.0651C8.58157 38.7891 9.0216 37.55 9.59308 36.3701H9.59588ZM11.9271 32.7337C14.6589 32.9347 17.4354 34.1855 19.7791 36.2682C19.2319 36.9145 18.7336 37.6194 18.2506 38.3076L18.1263 38.4919C17.8095 38.9344 17.4996 39.4174 17.2036 39.9269C15.019 37.7576 12.4701 36.398 9.79689 35.9778C10.3883 34.8237 11.1015 33.7362 11.9243 32.7337H11.9271ZM29.2811 27.2827C29.753 27.4139 30.2304 27.5618 30.6994 27.7377L31.0051 27.8438C29.8361 28.3769 28.7087 28.9971 27.6326 29.699C25.3391 28.0937 22.8432 27.2212 20.4436 27.1682C23.1852 26.4284 26.1878 26.4116 29.2811 27.2827ZM37.33 26.9086L37.4822 26.956C36.5344 27.2965 35.6242 27.7333 34.7657 28.2598C34.379 28.2165 33.991 28.1593 33.6043 28.0881C33.3363 27.9164 33.0627 27.7545 32.7877 27.6023C34.2573 27.139 35.7891 26.9032 37.33 26.903V26.9086ZM73.7984 0.71971C76.5214 1.21591 79.0813 2.37195 81.254 4.08666C80.8728 6.80644 80.2696 9.49044 79.4505 12.1118C77.3792 10.2973 74.9082 8.99816 72.2392 8.32049C73.0112 5.84527 73.5336 3.29898 73.7984 0.71971ZM85.1514 22.6594C85.8678 25.6751 87.3889 28.44 89.5528 30.6594C88.8196 32.9366 87.9076 35.1524 86.8251 37.2858C84.6517 35.1822 83.1315 32.7728 82.3093 30.1234C82.1879 29.7269 82.0623 29.3416 81.931 28.962C83.1119 26.7017 84.1307 24.3605 84.9797 21.9558C85.0677 22.2909 85.1389 22.5882 85.1514 22.6594ZM98.0679 35.439C97.3352 37.6437 96.4132 39.7809 95.3123 41.8267C92.2637 41.1565 89.4458 39.6936 87.1434 37.5859C88.2271 35.4625 89.1433 33.2577 89.8836 30.9916C92.0431 33.1023 94.8614 34.6336 98.0679 35.439ZM119.984 27.03C122.701 27.6771 125.208 29.0071 127.268 30.8939C127.098 33.0161 126.665 35.1089 125.978 37.1239C123.79 35.3628 121.207 34.1607 118.451 33.6215C119.213 31.4902 119.727 29.2786 119.985 27.03H119.984ZM132.313 52.6884C131.906 54.5209 131.341 56.3145 130.624 58.0487C130.566 57.2118 130.462 56.3786 130.314 55.5528C130.235 55.0782 130.135 54.6078 130.016 54.1402C130.96 52.9344 131.735 51.6053 132.32 50.1897C132.369 51.0219 132.367 51.8565 132.313 52.6884ZM128.063 67.7155C127.864 68.0533 127.686 68.3269 127.561 68.5181C127.607 67.358 127.539 66.196 127.357 65.0493C127.822 64.3513 128.261 63.6454 128.673 62.9317C128.569 64.5366 128.364 66.1334 128.059 67.7127L128.063 67.7155ZM126.109 73.6956C125.768 74.4494 125.385 75.2171 124.962 75.9989C125.26 74.0641 126.06 72.181 126.934 70.4794C126.751 71.5712 126.475 72.6454 126.109 73.69V73.6956ZM130.381 87.0825C131.132 88.1974 131.742 89.4016 132.195 90.6672C129.711 89.2709 127.689 87.1773 126.381 84.6452C126.277 83.9608 126.13 83.2834 125.943 82.6169C127.119 84.379 128.627 85.8948 130.383 87.0797L130.381 87.0825ZM125.594 94.7391C124.035 92.7234 122.995 90.2889 122.717 87.9926C123.271 86.6502 123.726 85.2686 124.077 83.8593C124.334 86.0706 125.098 88.1926 126.31 90.06C126.274 91.6429 126.034 93.2146 125.597 94.7363L125.594 94.7391ZM123.658 99.354C121.852 97.4192 120.577 95.0155 120.14 92.7038C121.001 91.43 121.757 90.0888 122.402 88.6934C122.805 90.9533 123.89 93.2887 125.44 95.2193C124.965 96.6457 124.369 98.0289 123.658 99.354ZM116.688 96.4002C116.659 96.2774 116.631 96.1573 116.608 96.0303C116.338 94.6079 116.004 92.9593 115.649 91.2256C115.37 89.845 115.275 89.3271 115.027 88.3472C115.926 87.5696 116.89 86.7642 117.727 85.9643C118.204 85.5223 118.678 85.0654 119.148 84.5935C119.148 84.7066 119.162 84.8211 119.167 84.9341C119.194 85.4925 119.188 85.1896 119.215 85.7535C119.215 85.8401 119.224 85.9252 119.229 86.0146C119.392 88.1085 119.368 90.0293 119.572 91.7644C119.593 91.9542 119.607 92.1008 119.696 92.6159C118.766 93.9344 117.761 95.198 116.685 96.4002H116.688ZM113.338 109.768C111.076 108.109 109.256 105.849 108.53 103.806C109.947 102.945 111.299 101.985 112.578 100.931C113.37 103.357 115.153 105.626 117.069 107.235C115.926 108.224 114.67 109.074 113.328 109.768H113.338ZM107.592 111.529C105.903 110.442 104.414 108.987 103.544 107.54L103.533 107.524C103.508 107.491 103.484 107.455 103.46 107.418C105.133 106.449 106.712 105.328 108.177 104.068C108.942 106.112 110.732 108.337 112.946 109.996C111.786 110.755 110.562 111.409 109.287 111.951C108.722 111.779 108.163 111.641 107.588 111.529H107.592ZM88.9134 120.518L88.9023 120.543C88.3483 121.097 87.7544 121.611 87.1252 122.078C87.8936 120.905 88.7415 119.785 89.663 118.728C89.8222 118.662 89.9813 118.588 90.139 118.521C89.6855 119.158 89.276 119.825 88.9134 120.518ZM61.6413 127.426C62.4679 124.862 63.4846 122.364 64.6831 119.952C66.6519 121.896 69.029 123.376 71.6417 124.287C70.5271 126.537 69.589 128.87 68.8359 131.266C66.1621 130.588 63.6931 129.27 61.6413 127.426ZM58.9682 109.631C58.055 106.776 56.3831 104.222 54.1313 102.244C55.2418 100.125 56.5179 98.0982 57.9477 96.1811C60.2496 98.1354 61.9163 100.387 62.9005 102.893C63.0401 103.27 63.1796 103.626 63.3318 103.981C61.814 106.035 60.4431 108.193 59.2292 110.439C59.138 110.172 59.051 109.902 58.9682 109.631ZM45.6944 97.7766C46.8158 95.7278 48.1 93.7723 49.5345 91.9291C52.5194 92.5709 55.3001 93.9382 57.6309 95.9103C56.2027 97.8222 54.9266 99.8431 53.8144 101.955C51.5172 99.8794 48.7183 98.4394 45.6944 97.7766ZM35.9369 98.2163C37.1077 96.1902 38.4287 94.2547 39.8887 92.426C42.8509 91.4416 46.0168 91.2372 49.0809 91.8328C47.654 93.6785 46.379 95.6369 45.2686 97.6887C42.1627 97.0781 38.953 97.2615 35.9369 98.2219V98.2163ZM15.9864 64.0023C15.9571 64.195 15.9222 64.3918 15.8803 64.5984C15.5188 66.321 14.8124 67.957 14.0195 69.4939C14.1976 68.4064 14.4742 67.3374 14.8459 66.3C15.1949 65.5462 15.5676 64.7826 15.9864 64.0023ZM15.3471 45.2426C16.8323 47.1592 17.9407 49.5825 18.2394 51.9807C17.6733 53.3206 17.2154 54.7037 16.87 56.1168C16.6112 53.9081 15.8469 51.7887 14.6365 49.9231C14.6711 48.3388 14.91 46.7657 15.3471 45.2426ZM17.2888 40.6193C19.0965 42.5387 20.378 44.9369 20.8274 47.2513C19.9589 48.5258 19.1983 49.8705 18.5535 51.2715C18.1347 49.0143 17.0529 46.6832 15.5006 44.7596C15.9795 43.3318 16.5777 41.9468 17.2888 40.6193ZM24.3145 43.5144C25.0794 46.9093 25.3432 48.9404 25.9993 51.5298C24.6243 52.7205 23.2075 53.9615 21.8562 55.3155C21.8227 54.7809 21.7809 53.9894 21.7739 53.8889C21.5868 51.4963 21.6538 49.341 21.2979 47.3281V47.3029C21.6701 46.7567 22.067 46.2225 22.4886 45.7004C23.0623 44.9592 23.6751 44.2277 24.3131 43.5144H24.3145ZM28.2049 39.7133C28.2049 39.7315 28.2147 39.7482 28.2202 39.7664C28.2509 39.8655 28.2831 39.966 28.3124 40.0693C28.7493 41.5392 29.4193 43.3972 30.1271 45.3347C30.3374 45.8931 30.5631 46.4654 30.8041 47.0517C29.2387 48.346 27.7474 49.7273 26.3371 51.1892C25.8528 49.1497 24.8435 43.9164 24.7151 43.3888C24.6886 43.2771 24.6732 43.1961 24.6551 43.1319C25.7659 41.9199 26.951 40.7782 28.2035 39.7133H28.2049ZM33.448 28.4845C35.1133 29.5608 36.5832 30.9902 37.4528 32.4183L37.5198 32.5118C35.8484 33.4768 34.2703 34.5951 32.8058 35.8522C32.0143 33.8128 30.2108 31.6002 27.9997 29.9572C29.1472 29.214 30.3563 28.5705 31.6137 28.0337C32.216 28.217 32.8279 28.3675 33.4466 28.4845H33.448ZM34.7755 28.68H34.809C36.6238 28.8753 38.4582 28.7806 40.2433 28.3994C40.2595 28.3983 40.2755 28.395 40.2908 28.3896L40.5406 28.3338C41.3918 28.8498 42.1721 29.4743 42.862 30.1918C41.1306 30.7135 39.4613 31.4232 37.8842 32.308C37.8591 32.2717 37.8339 32.2354 37.8046 32.1963C37.0341 30.94 35.814 29.6725 34.4056 28.6395C34.5284 28.6521 34.6512 28.666 34.7741 28.6786L34.7755 28.68ZM52.0332 19.4767L52.05 19.4432C52.6004 18.8884 53.191 18.3752 53.8172 17.9077C53.0474 19.0752 52.1995 20.1894 51.2794 21.2425C51.1273 21.3053 50.9765 21.3695 50.8258 21.4379C51.272 20.8122 51.6755 20.1569 52.0332 19.4767ZM79.3123 12.5501C78.4878 15.1072 77.4729 17.5989 76.2762 20.0043C74.3086 18.0599 71.9303 16.5812 69.3161 15.677C70.4148 13.428 71.3479 11.1018 72.1079 8.71693C74.7847 9.39154 77.2572 10.7071 79.3123 12.5501ZM95.1057 42.2078C93.9934 44.2433 92.7214 46.1874 91.3018 48.0218C88.3101 47.3576 85.5257 45.9732 83.1901 43.989C84.5894 42.079 85.8446 40.0676 86.9452 37.9712C89.2566 40.0606 92.0669 41.5196 95.1057 42.2078ZM125.834 37.5483C125.064 39.7193 124.099 41.8162 122.95 43.8131C120.716 42.0975 118.102 40.9451 115.328 40.4532C116.5 38.3956 117.498 36.2435 118.31 34.0194C121.162 34.5903 123.757 35.8061 125.834 37.5483ZM124.417 82.2903C124.501 81.8436 124.574 81.3955 124.638 80.9446L124.663 80.9767C124.928 82.2963 125.373 83.5734 125.985 84.7722C126.209 86.2648 126.323 87.7718 126.327 89.281C125.054 87.1006 124.377 84.6452 124.417 82.2903ZM122.649 87.028C122.649 87.028 122.649 87.0196 122.649 87.0155C122.619 85.8233 122.788 84.5698 122.959 83.2465C123.074 82.3656 123.194 81.4555 123.261 80.5216C123.317 80.142 123.365 79.7888 123.401 79.4426C123.425 79.4077 123.447 79.3714 123.469 79.3365C123.688 79.6799 123.921 80.0173 124.167 80.3485C124.114 80.6612 124.071 80.9739 124.039 81.2894V81.3047C124.011 81.5993 123.998 81.8994 123.996 82.247C123.684 83.8761 123.233 85.4756 122.649 87.028ZM119.47 83.6541C119.229 81.281 118.818 78.4822 117.773 75.4642C118.878 74.5848 119.942 73.6542 120.965 72.6724C121.068 73.3261 121.208 73.9734 121.384 74.6113C121.772 76.0268 122.339 77.3871 123.07 78.6595C123.049 78.8689 123.026 79.0783 123 79.2876C121.96 80.8485 120.779 82.3102 119.47 83.6541ZM114.9 87.8963C114.279 85.5679 113.304 82.7719 112.005 79.5836C113.146 78.8093 114.276 78.0253 115.397 77.2315C116.085 76.7554 116.761 76.2543 117.424 75.7378C118.471 78.8088 118.856 81.6509 119.089 84.0463C117.869 85.2887 116.576 86.4585 115.284 87.5654L114.9 87.8963ZM108.37 103.406C107.728 101.889 106.488 99.6374 104.939 96.8623C106.717 95.6059 108.37 94.3412 109.861 93.1142C110.078 93.6489 110.279 94.1779 110.48 94.7028C112.033 98.9924 112.128 99.4922 112.382 100.317C112.422 100.446 112.432 100.479 112.437 100.499C111.156 101.566 109.799 102.538 108.375 103.406H108.37ZM103.224 107.069C102.217 105.657 100.756 103.697 99.1036 101.346C101.045 100.085 102.885 98.6764 104.609 97.1317C106.163 99.9138 107.401 102.167 108.018 103.652C106.534 104.941 104.931 106.085 103.23 107.069H103.224ZM82.6513 119.242C80.4347 119.054 78.2658 118.492 76.2371 117.579C77.5864 115.765 79.0687 114.053 80.6719 112.459C82.4733 113.57 84.4099 114.445 86.4343 115.062C85.0478 116.335 83.7831 117.734 82.6569 119.242H82.6513ZM68.6 111.825C67.902 111.031 67.1664 110.209 66.5857 109.275C65.0209 106.791 64.2517 105.128 63.8036 104.044C65.3426 101.981 67.0217 100.027 68.8289 98.194C69.5269 99.682 70.3826 101.294 71.4337 103.116C71.9921 104.093 72.6803 104.966 73.3461 105.813L73.6784 106.232C71.9461 108.086 70.3404 110.054 68.8722 112.124L68.6 111.825ZM63.4058 103.043C62.3965 100.405 60.7745 98.0181 58.1948 95.846C59.6722 93.9088 61.2883 92.0814 63.0303 90.3782C65.4964 92.3353 67.4277 94.8841 68.6447 97.7878C66.8446 99.6052 65.1702 101.543 63.6333 103.588C63.544 103.378 63.4742 103.198 63.4114 103.043H63.4058ZM49.8277 91.5648C51.2969 89.728 52.8931 87.9965 54.6045 86.3831C57.5486 87.0074 60.3153 88.2838 62.7008 90.1186C60.9664 91.8201 59.356 93.6436 57.8821 95.5752C55.557 93.6129 52.7948 92.2376 49.8277 91.5648ZM16.6187 83.1502C18.0262 81.3045 19.5499 79.5505 21.1806 77.8987C22.6925 80.281 24.6614 82.34 26.9737 83.957C25.2711 85.6182 23.6756 87.3857 22.1968 89.2489C19.7735 87.4384 17.8988 85.3878 16.6187 83.1502ZM15.7938 81.549C17.3938 79.7541 18.6019 77.645 19.3408 75.3567C19.4115 75.1343 19.4781 74.911 19.5404 74.6867C19.9341 75.673 20.407 76.6258 20.9545 77.5358C19.3278 79.1788 17.806 80.9225 16.3982 82.7565C16.1776 82.347 15.9762 81.9445 15.7938 81.549ZM13.8758 70.6609C14.7817 69.0025 15.6444 67.2269 16.1358 65.3354C16.2547 66.7499 16.4819 68.1532 16.8156 69.533C16.7332 69.9266 16.6313 70.277 16.5364 70.5687C16.4666 70.7907 16.3968 71.0126 16.3089 71.2332C15.4713 72.2569 14.6859 73.3066 13.9525 74.3824C13.7896 73.1471 13.7639 71.8976 13.8758 70.6567V70.6609ZM18.3148 52.9592C18.3141 52.9718 18.3141 52.9843 18.3148 52.9969C18.3623 54.9707 17.8695 57.1218 17.7034 59.4279C17.6503 59.789 17.6038 60.1473 17.5638 60.5028L17.4689 60.6563C17.2539 60.3194 17.0264 59.99 16.7863 59.668C16.8393 59.3567 16.8826 59.044 16.9133 58.7299C16.9449 58.3819 16.9621 58.032 16.9649 57.6802C17.274 56.0683 17.7257 54.487 18.3148 52.955V52.9592ZM37.7865 32.8384C38.959 34.4591 40.3717 36.3366 41.9044 38.5045C39.9518 39.7727 38.1033 41.1945 36.3766 42.7564C34.8411 40.033 33.5848 37.7674 32.9594 36.2696C34.4544 34.9733 36.0709 33.8243 37.7865 32.8384ZM43.1663 29.907C42.5473 29.257 41.8522 28.6838 41.0962 28.1998C42.2982 27.8778 43.4625 27.4286 44.5692 26.8597C46.1383 27.1528 47.4532 27.6568 48.4331 28.3505C47.2463 28.8929 46.0176 29.3387 44.7591 29.6836C44.3557 29.7869 43.8783 29.9042 43.3325 30.0564C43.2794 30.0019 43.232 29.9559 43.1663 29.9014V29.907ZM58.3023 20.7218C60.5216 20.8998 62.6937 21.4584 64.7235 22.3732C63.372 24.1839 61.8878 25.8916 60.2831 27.4823C58.4778 26.3867 56.5443 25.5179 54.5263 24.8956C55.9127 23.6254 57.1768 22.2281 58.3023 20.7218ZM76.0793 20.4008C74.8948 22.7367 73.5481 24.9868 72.0493 27.1347C70.2625 25.1316 68.0137 23.476 65.3601 22.2085C66.7854 20.2698 68.0462 18.2153 69.1291 16.0664C71.7467 16.9602 74.1245 18.4425 76.0793 20.3994V20.4008ZM72.3103 28.0546C73.0516 28.8922 73.8166 29.7548 74.4252 30.7431C75.4654 32.3773 76.3662 34.0962 77.1179 35.8815C75.5982 37.944 73.9338 39.8957 72.1373 41.7221C71.3681 40.0846 70.4929 38.4556 69.6009 36.8992C69.0188 35.8815 68.3013 34.9686 67.6075 34.085L67.292 33.683C69.024 31.8361 70.6283 29.8735 72.094 27.8089L72.3103 28.0546ZM91.0157 48.3876C89.5802 50.2225 88.0111 51.9488 86.3212 53.5525C83.3813 52.9228 80.6206 51.6405 78.243 49.8002C79.9307 48.0861 81.5001 46.2593 82.9403 44.3324C85.2729 46.3043 88.0407 47.6938 91.0157 48.3862V48.3876ZM126.916 64.9488C126.416 65.6933 125.89 66.4289 125.339 67.1557C125.784 66.2693 126.297 65.4189 126.874 64.6123C126.885 64.7226 126.901 64.8329 126.916 64.9474V64.9488ZM124.31 68.4553C124.131 68.6717 123.951 68.888 123.768 69.1016C123.316 67.5843 122.735 66.1086 122.032 64.6905C122.738 62.5318 123.874 60.5385 125.371 58.8304C125.767 59.7395 126.077 60.6841 126.295 61.6516C126.494 62.4892 126.649 63.243 126.778 64.0247C125.759 65.3827 124.928 66.8727 124.31 68.4539V68.4553ZM117.646 75.0371C117.33 73.9845 117.026 72.9781 116.657 71.9102L116.578 71.6771L116.564 71.6366C116.033 70.092 115.318 68.6171 114.434 67.2437C116.303 65.8607 118.066 64.3401 119.709 62.6944C120.321 63.7201 120.835 64.8011 121.244 65.9231C120.756 67.9641 120.639 70.0762 120.898 72.1587C119.858 73.1707 118.772 74.1339 117.646 75.0357V75.0371ZM111.861 79.1871C111.522 78.2337 111.135 77.2035 110.69 76.0268C110.079 74.3866 109.278 72.8237 108.303 71.37C109.339 70.6981 110.363 70.0271 111.374 69.3571C111.544 69.244 111.706 69.1421 111.879 69.0262C112.615 68.5446 113.353 68.0337 114.086 67.4977C114.995 68.921 115.726 70.4502 116.264 72.0512C116.682 73.2671 117.022 74.4173 117.292 75.3163C116.455 75.9695 114.467 77.4241 111.861 79.1857V79.1871ZM104.742 96.4966L104.51 96.0778C102.983 93.3487 101.256 90.261 99.6145 87.0434C101.657 85.9992 103.663 84.8685 105.645 83.6764C107.141 86.9987 108.557 89.9399 109.703 92.708C108.068 94.0579 106.381 95.3296 104.739 96.4951L104.742 96.4966ZM89.5974 105.733C88.5226 106.26 87.4748 106.84 86.458 107.471C84.6182 105.856 82.2898 103.663 80.2503 100.842C82.6904 98.9771 84.4744 97.9637 86.4231 96.8302C88.224 99.5177 90.1968 102.086 92.3292 104.519C91.2725 104.974 90.3805 105.336 89.5974 105.733ZM92.6154 104.843C94.0724 106.505 95.6284 108.079 97.275 109.554C96.8269 109.675 96.4374 109.772 96.1024 109.857C94.7213 110.237 93.3757 110.737 92.0808 111.349C90.2017 110.328 88.4282 109.124 86.786 107.755C89.1689 106.292 90.8203 105.62 92.6098 104.84L92.6154 104.843ZM74.2423 106.264C76.0051 104.402 77.9052 102.676 79.9265 101.099C81.5011 103.232 83.0785 105.054 86.0895 107.707C84.1404 108.942 82.3121 110.359 80.6286 111.937C78.1925 110.423 76.0327 108.504 74.2423 106.264ZM73.6839 105.555C73.0279 104.717 72.3494 103.854 71.805 102.902C70.8698 101.28 69.9526 99.5857 69.1528 97.8687C70.9448 96.0328 72.8852 94.3478 74.9542 92.8309C75.7192 94.2617 76.6977 96.001 77.492 97.4472C78.0825 98.5095 78.4831 99.0874 79.3528 100.299L79.6766 100.749C77.6516 102.33 75.7474 104.061 73.9799 105.926L73.6839 105.555ZM68.7033 96.8888C67.4578 94.2401 65.6216 91.9121 63.336 90.0837C65.0671 88.3943 66.9414 86.8582 68.9378 85.4925C71.2732 87.2385 73.1894 89.4837 74.5466 92.0645C74.6122 92.1915 74.6862 92.3255 74.7532 92.4595C72.6855 93.962 70.749 95.637 68.9643 97.4667C68.8722 97.2755 68.7843 97.0786 68.6991 96.8888H68.7033ZM54.9786 86.0355C56.6939 84.4337 58.5433 82.9817 60.5065 81.6956C63.419 82.2847 66.1719 83.4898 68.5805 85.2301C66.5927 86.5975 64.726 88.1331 63.001 89.8199C60.6339 87.9899 57.8962 86.6984 54.9786 86.0355ZM19.7205 73.9818C20.1959 71.951 20.3047 69.8515 20.0415 67.7825C21.0927 66.7551 22.1927 65.7793 23.3289 64.865C23.6458 65.9315 23.9669 66.9854 24.3493 68.0756C24.8952 69.6827 25.6319 71.2185 26.5437 72.65C24.6713 74.0395 22.9048 75.5661 21.2588 77.2175C20.6453 76.1898 20.1302 75.1064 19.7205 73.9818ZM19.1035 74.716C18.4557 73.3496 17.9215 71.9321 17.5066 70.478C17.715 70.2379 17.9258 70.0006 18.1389 69.7661C18.3832 70.8298 18.6149 71.8348 18.9416 72.9097C19.0467 73.2754 19.1635 73.6388 19.2919 73.9999C19.2296 74.2419 19.1668 74.4806 19.1035 74.716ZM18.3623 68.9076C17.921 67.1338 17.7191 65.309 17.762 63.4817C18.2087 64.1978 18.6833 64.8776 19.1747 65.5309C19.3624 66.2223 19.506 66.9249 19.6046 67.6345C19.1775 68.0505 18.761 68.4749 18.3553 68.9076H18.3623ZM17.7885 62.7167C17.7997 62.5073 17.8123 62.2979 17.8276 62.1011C18.1936 62.8025 18.5099 63.5288 18.774 64.2745C18.4251 63.7655 18.0942 63.2462 17.7815 62.7167H17.7885ZM17.413 62.0606C17.3628 61.9699 17.3111 61.8777 17.2623 61.7814C17.3293 61.6698 17.3949 61.5595 17.4647 61.4478C17.4382 61.6558 17.4284 61.8596 17.406 62.0606H17.413ZM17.0347 61.3529C16.8951 61.0737 16.7555 60.7945 16.6257 60.5153C16.6453 60.4204 16.6662 60.3255 16.6844 60.2361C16.8728 60.5028 17.0529 60.775 17.2246 61.05C17.1492 61.1491 17.0906 61.251 17.0278 61.3529H17.0347ZM17.367 62.8298C17.367 62.9289 17.3572 63.0294 17.353 63.1285C17.3209 62.961 17.2874 62.7949 17.2497 62.6287L17.367 62.8298ZM17.2525 69.5302C17.4228 68.7836 17.5372 68.0254 17.5945 67.2618C17.7033 67.94 17.8464 68.6123 18.023 69.2761C17.8043 69.5153 17.588 69.7558 17.3739 69.9978C17.3251 69.8373 17.2888 69.6809 17.2455 69.5246L17.2525 69.5302ZM19.3464 72.8036C19.0225 71.7385 18.788 70.7418 18.5507 69.6851L18.4837 69.3962C18.8718 68.9774 19.2673 68.5661 19.6702 68.1622C19.8522 69.8427 19.7835 71.541 19.4664 73.2014C19.4176 73.0688 19.3827 72.9292 19.338 72.798L19.3464 72.8036ZM29.129 60.7038C29.4835 61.6949 29.8786 62.7362 30.3434 63.9521C30.9437 65.5587 31.7278 67.0904 32.6802 68.5167C31.5635 69.2426 30.3769 70.0229 29.1094 70.8689C28.3649 71.3574 27.6242 71.8721 26.8871 72.4127C25.3935 70.0802 24.7388 68.1203 23.6891 64.5956C25.1394 63.437 27.7833 61.6097 29.1206 60.6982L29.129 60.7038ZM48.9636 28.5655V28.5781C50.8366 29.5737 52.5999 30.763 54.2248 32.1265C51.8587 33.5699 50.2185 34.2274 48.4471 34.9951C47.0009 33.3521 45.4525 31.8019 43.8113 30.3537C44.459 30.1862 45.2812 29.9866 46.0699 29.7199C47.0605 29.4041 48.0276 29.0183 48.9636 28.5655ZM54.5473 32.4127C56.3927 34.0222 58.7225 36.2152 60.7256 39.06C59.2455 40.1872 57.6993 41.2248 56.0954 42.1674C55.6975 42.4047 55.181 42.6964 54.5598 43.0552C52.8161 40.3312 50.8669 37.7445 48.7291 35.3176C50.7497 34.5122 52.7 33.5406 54.5598 32.4127H54.5473ZM60.3348 28.0085C62.7776 29.5057 64.9411 31.4169 66.7281 33.6564C64.9686 35.5111 63.0728 37.2315 61.0564 38.8032C59.0645 35.9779 56.7626 33.796 54.9144 32.1823C56.8539 30.97 58.6711 29.5722 60.3403 28.0085H60.3348ZM67.2669 34.3418C67.9509 35.2143 68.6628 36.1146 69.2212 37.1057C70.1327 38.6957 71.0247 40.3568 71.8078 42.0375C69.9911 43.855 68.0396 45.5325 65.9701 47.0559C65.6644 46.4752 65.0544 45.3514 63.4002 42.3572C62.9245 41.527 62.405 40.7228 61.8438 39.9478C61.6609 39.6854 61.4752 39.416 61.2854 39.1466C63.3152 37.5709 65.2237 35.8449 66.9947 33.9831L67.2669 34.3418ZM72.2615 43.0314C73.5017 45.6745 75.3294 47.9992 77.6051 49.8282C75.8611 51.5011 73.9829 53.0283 71.9893 54.3942C69.7276 52.7008 67.8531 50.5445 66.4908 48.0693C66.3386 47.7762 66.266 47.6254 66.1613 47.4174C68.2235 45.8992 70.1722 44.2327 71.9921 42.4312C72.0884 42.6378 72.1791 42.8304 72.2671 43.0314H72.2615ZM85.9415 53.8945C84.2211 55.4802 82.3737 56.9223 80.4179 58.2065C77.5066 57.6048 74.7553 56.3952 72.3439 54.6566C74.325 53.2875 76.1923 51.7605 77.9275 50.0906C80.2915 51.9296 83.0299 53.228 85.9499 53.8945H85.9415ZM96.1317 53.4548C98.9853 52.5768 101.999 52.3484 104.953 52.7861C103.213 54.3978 101.356 55.8787 99.3982 57.2168C96.6764 56.7376 93.8864 56.8064 91.1916 57.4192C92.9098 56.2179 94.547 54.9048 96.0926 53.4883L96.1317 53.4548ZM99.4093 86.6776C98.8203 85.5135 98.2717 84.3897 97.7803 83.3358C97.1004 81.8585 96.2641 80.4583 95.2858 79.1592C97.3699 78.0425 99.4736 76.8378 101.567 75.5843C102.581 76.9923 103.422 78.5168 104.072 80.1252C104.537 81.2196 104.998 82.2744 105.454 83.2897C103.497 84.4707 101.443 85.6321 99.4219 86.6721L99.4093 86.6776ZM93.0649 91.9542C92.4228 90.8375 91.8225 89.771 91.2502 88.6208C90.4904 87.0926 89.633 85.615 88.6831 84.1971C90.7519 82.7453 92.836 81.1438 94.9354 79.3923C95.9075 80.6703 96.7387 82.0496 97.4146 83.5061C97.9478 84.6466 98.5048 85.7843 99.0743 86.908C97.1672 88.6945 95.1653 90.3772 93.0775 91.9486L93.0649 91.9542ZM86.5501 96.2662C84.2134 92.6606 85.1263 93.6991 82.0092 88.4239C84.1031 87.2374 86.2151 85.9113 88.3439 84.4358C89.3281 85.9008 90.2132 87.4299 90.9933 89.013C91.5378 90.1018 92.1492 91.1851 92.7368 92.2027C90.7611 93.6766 88.6994 95.0317 86.5627 96.2606L86.5501 96.2662ZM79.9893 100.504C79.0931 99.2479 78.5766 98.5821 77.8424 97.2559C76.9155 95.5683 76.1114 94.1528 75.2809 92.5936C77.5143 90.9924 79.6194 89.7808 81.6463 88.6319C82.5229 90.113 83.4079 91.6513 84.198 93.1561C84.7368 94.1821 85.4097 95.3086 86.1774 96.484C84.2385 97.6105 82.4545 98.6239 80.0005 100.499L79.9893 100.504ZM74.7923 91.6346C73.4275 89.1439 71.5558 86.9669 69.298 85.244C71.269 83.9263 73.2345 82.8417 75.4093 81.6146C77.698 83.2499 79.6388 85.324 81.1186 87.7162C81.2275 87.8977 81.3364 88.0819 81.4453 88.2662C79.2299 89.5602 77.1919 90.7286 75.0938 92.2139C74.9933 92.0254 74.8942 91.8342 74.7923 91.6346ZM52.3696 81.3717C52.942 81.0242 53.5185 80.6905 54.0978 80.3765C55.1685 79.7637 56.3103 79.095 57.4927 78.3859L57.6043 78.3189C60.4212 77.5044 63.3849 77.3322 66.2772 77.815C63.8748 79.1843 62.1788 80.0987 60.4143 81.2489C57.7532 80.7328 55.0138 80.7747 52.3696 81.3717ZM54.4119 43.6219C55.04 44.6856 55.7185 45.7549 56.3047 46.8604C57.1297 48.4392 57.9603 49.8938 58.8998 51.4935C57.1144 52.5181 55.1489 53.6795 52.6 55.4425C51.6871 54.072 50.8614 52.6453 50.1278 51.171C49.649 50.1939 49.1507 49.3089 48.5923 48.2843C48.4764 48.0749 48.3606 47.8655 48.2447 47.6617C50.2179 46.1932 52.2773 44.8442 54.4119 43.6219ZM60.9727 39.4034C61.1514 39.6659 61.3342 39.9297 61.5129 40.1865C62.8069 42.0431 62.7692 42.0724 63.9683 44.2347C65.0223 46.1471 65.4215 46.887 65.6434 47.3057C63.2704 49.0199 61.3761 50.0808 59.2697 51.2855C58.421 49.8435 57.5569 48.3387 56.7794 46.8549C56.1219 45.5985 55.4644 44.5725 54.779 43.4125C56.7277 42.2818 58.5089 41.2782 60.9699 39.4034H60.9727ZM66.1292 48.2647C67.4965 50.7522 69.3707 52.925 71.6305 54.6427C69.7237 55.9172 67.7457 57.0018 65.515 58.2581C63.2212 56.6391 61.2751 54.5767 59.7917 52.1929L59.4707 51.647C60.4925 51.0677 61.4445 50.5303 62.4566 49.9021C63.6096 49.1986 64.7296 48.4541 65.8165 47.6687C65.9045 47.8278 65.9813 47.9841 66.1264 48.2647H66.1292ZM79.9307 58.5289C78.3728 59.5158 76.3864 60.6228 74.0245 61.9685C71.1126 61.3767 68.3493 60.2056 65.8989 58.5247C68.1128 57.2782 70.0867 56.1922 71.9879 54.9079C74.3597 56.6442 77.0618 57.8765 79.9279 58.5289H79.9307ZM88.725 58.5289C88.108 58.9077 87.4826 59.2697 86.8489 59.615C85.76 60.2375 84.6573 60.8866 83.5419 61.5525C83.5182 61.5651 83.4959 61.579 83.4735 61.593C80.61 62.4213 77.5958 62.5883 74.6583 62.0815C77.0062 60.7442 78.9675 59.6512 80.5114 58.6462C83.2267 59.1866 86.0255 59.1481 88.725 58.5331V58.5289ZM90.1739 58.1102C93.0036 57.2949 95.9767 57.1044 98.8873 57.5518C98.2144 58.0003 97.5342 58.4289 96.8464 58.8374C95.5901 59.5814 94.3087 60.3646 92.9979 61.1714C90.3404 60.6591 87.6088 60.6676 84.9546 61.1965C85.6591 60.7805 86.357 60.3739 87.0485 59.9765C88.0815 59.4181 89.0995 58.8077 90.1027 58.1451L90.1739 58.1102ZM95.0415 78.8158C93.2445 76.5134 91.074 74.5288 88.6203 72.9446C90.7142 71.7608 92.8332 70.5031 94.941 69.2189C97.4074 70.8349 99.5701 72.8723 101.33 75.2381C99.1329 76.5586 97.0195 77.7591 95.0415 78.8158ZM88.4653 83.8411C86.7866 81.3614 84.6669 79.211 82.2116 77.4967C84.2622 76.1426 86.2347 74.7286 88.228 73.1847C90.7026 74.7555 92.89 76.7385 94.6953 79.0476C92.3893 80.9893 90.3345 82.5429 88.4667 83.8467L88.4653 83.8411ZM81.4746 87.4943C79.9992 85.1096 78.0744 83.0345 75.8071 81.3843C77.6218 80.3555 79.5915 79.2123 81.8361 77.7452C84.1336 79.3274 86.1398 81.2954 87.766 83.562C87.8888 83.7369 88.0079 83.9091 88.1233 84.0784C85.7754 85.6991 83.7206 86.9303 81.8054 88.0512L81.4746 87.4943ZM46.0182 71.1397C48.5951 72.7994 51.2487 73.9315 53.9177 74.5276L52.7493 75.2548C51.0463 76.3157 49.4368 77.3166 47.8497 78.2952C44.9978 77.7032 42.2823 76.5815 39.8441 74.9882C42.3902 73.3927 44.9099 71.8279 46.0224 71.1452L46.0182 71.1397ZM52.4827 56.0247C52.5986 56.1964 52.7158 56.3694 52.8345 56.5383C54.448 58.8011 56.4427 60.766 58.7295 62.3454C56.9148 63.5417 54.9312 64.9446 52.727 66.649C50.2632 65.0739 48.0856 63.0908 46.2876 60.7847C46.9758 60.2026 49.4927 58.1325 52.4869 56.0302L52.4827 56.0247ZM59.4456 52.4092C60.9212 54.7856 62.848 56.8499 65.1172 58.4857C63.3164 59.5061 61.3482 60.6507 59.1147 62.1039C56.8113 60.5351 54.8034 58.5716 53.1835 56.3038C53.0676 56.1363 52.9503 55.9646 52.8345 55.7915C55.5258 53.928 57.441 52.8112 59.1161 51.855L59.4456 52.4092ZM81.8403 77.2482C79.2509 75.5466 76.4939 74.3503 73.8235 73.7668C75.9328 72.4351 77.8857 71.1327 79.7729 69.7996C82.6329 70.353 85.3685 71.4209 87.8469 72.9516C87.0918 73.5462 84.7257 75.347 81.8403 77.2482ZM63.7827 74.0139C61.0523 74.7481 58.1166 74.8514 55.0484 74.3252C57.0502 73.0814 59.165 71.7734 61.2435 70.5129C63.9191 71.0259 66.6688 71.014 69.3398 70.478C67.5014 71.6562 65.6644 72.8301 63.8427 73.9804L63.7827 74.0139ZM70.3882 69.8038C67.5628 70.5433 64.6119 70.6699 61.7335 70.1751C63.8469 68.6912 65.8291 67.3832 67.6745 66.2316C70.5878 66.79 73.3475 66.8039 75.8979 66.286C74.0692 67.4447 72.228 68.6242 70.3882 69.8038ZM61.1556 70.0704C58.3045 69.5054 55.5794 68.4285 53.1123 66.8919C55.3122 65.1944 57.3 63.7971 59.1147 62.6078C61.7432 64.3695 64.5476 65.5392 67.0938 66.1102C65.2344 67.2786 63.2536 68.5879 61.1556 70.0704ZM70.5864 70.1751L70.7134 70.0941C73.4833 69.3699 76.3745 69.2367 79.1992 69.7033C78.3128 70.3258 76.1073 71.8488 73.2331 73.6537C70.3812 73.1247 67.6787 73.1177 65.18 73.6272C66.9752 72.4881 68.7801 71.3309 70.5864 70.1751ZM71.7659 69.4185C73.6141 68.2348 75.4596 67.0552 77.2896 65.9022C80.1006 65.164 83.0394 65.0525 85.8982 65.5755C83.8393 66.85 81.7593 68.1259 79.6906 69.3613C77.0693 68.8779 74.38 68.8973 71.7659 69.4185ZM78.377 65.2182C80.1917 64.0819 81.9855 62.9763 83.7513 61.9196C86.59 61.149 89.5624 61.0061 92.4619 61.5008C90.495 62.7195 88.4807 63.98 86.4273 65.2517C83.7722 64.7108 81.0365 64.6994 78.377 65.2182ZM77.0635 65.549L76.9923 65.5937C74.3037 66.3419 71.35 66.4438 68.198 65.9008C70.3603 64.5579 72.3257 63.4146 74.0874 62.411C76.7795 62.9392 79.5508 62.9164 82.2339 62.344C80.5351 63.3756 78.8056 64.4518 77.0635 65.549ZM67.5977 65.7891C65.0195 65.2768 62.162 64.1224 59.4902 62.3579C61.7153 60.9132 63.678 59.7741 65.4927 58.7551C67.9016 60.4367 70.6144 61.6343 73.4801 62.2812C71.7087 63.2974 69.7419 64.4476 67.5977 65.7891ZM52.7451 67.1543C55.1684 68.6861 57.8409 69.7821 60.6419 70.3929C58.548 71.6617 56.4346 72.9739 54.4426 74.2121C51.7764 73.683 49.0139 72.537 46.4258 70.9024C48.7375 69.4855 50.8104 68.2571 52.7451 67.1543ZM52.9797 75.6164L54.5235 74.6546C57.3754 75.199 60.1212 75.213 62.7036 74.6965C60.9238 75.8132 59.1608 76.9006 57.4271 77.9406C57.4146 77.9453 57.4025 77.9509 57.3908 77.9573L57.3042 78.0132C54.4258 78.799 51.4088 78.9363 48.4708 78.4152C49.9268 77.5134 51.4106 76.5893 52.9741 75.6164H52.9797ZM63.9851 74.3852L64.0102 74.3684L64.0912 74.3168C66.7281 73.5811 69.6232 73.4708 72.7068 73.9832C70.3226 75.4698 68.4353 76.5824 66.8523 77.4911C64.2031 76.9837 61.4791 77.0121 58.8411 77.5749C60.5302 76.5461 62.2486 75.4768 63.9795 74.3852H63.9851ZM73.3224 74.0934C76.0165 74.6141 78.8237 75.7895 81.462 77.4981C79.2285 78.9568 77.2547 80.0945 75.4386 81.1275C73.0403 79.445 70.3328 78.2538 67.4721 77.6223C69.0579 76.6982 70.9493 75.5815 73.3168 74.0934H73.3224ZM88.228 72.6905C85.7957 71.1678 83.1163 70.0813 80.3104 69.4799C82.368 68.2473 84.4437 66.9673 86.5124 65.69C89.3695 66.2886 92.0948 67.3985 94.5571 68.9662C92.4381 70.2519 90.3177 71.5082 88.2225 72.6905H88.228ZM87.0261 65.3731C89.0628 64.1168 91.0911 62.8479 93.083 61.6209C95.9431 62.1966 98.6687 63.3072 101.117 64.8943C99.0925 66.1702 97.0293 67.46 94.955 68.7247C92.5248 67.1554 89.8399 66.0212 87.0206 65.3731H87.0261ZM93.6023 61.3026C94.5906 60.6949 95.5678 60.0993 96.5338 59.5158C97.55 58.9268 98.5346 58.3079 99.4875 57.6593C102.323 58.1836 105.026 59.2618 107.444 60.8322C106.03 61.8177 104.918 62.4919 104.373 62.8325L101.503 64.6472C99.0943 63.0584 96.4145 61.9248 93.5967 61.3026H93.6023ZM48.2349 48.4867C48.7137 49.3549 49.2121 50.2511 49.6546 51.1389C50.4252 52.7093 51.2977 54.2275 52.2663 55.684C50.1725 57.1442 48.0884 58.7453 46.0489 60.4497C45.1092 59.1965 44.3044 57.8475 43.6479 56.4253C43.0993 55.2555 42.5228 54.0871 41.9337 52.9355C43.8363 51.1577 45.833 49.4834 47.9153 47.9199C48.0116 48.1042 48.1177 48.2954 48.2238 48.4867H48.2349ZM52.3403 66.9003C50.414 68.0044 48.3438 69.2342 46.0294 70.6511C43.5629 69.0315 41.4026 66.9879 39.6486 64.6151C42.2115 63.0685 44.2259 61.9406 45.9442 61.0192C47.7332 63.3228 49.8951 65.3106 52.3403 66.9003ZM45.6399 70.8926C43.5572 72.1699 41.515 73.4513 39.4741 74.7425C37.0423 73.1061 34.9335 71.0348 33.2539 68.6326C35.5628 67.1348 37.552 65.8882 39.2913 64.8329C41.0391 67.2051 43.1858 69.2555 45.6357 70.8926H45.6399ZM39.0875 74.9882L36.223 76.8029L35.5083 77.2496C34.7108 77.7475 33.924 78.2714 33.1478 78.8214C30.7641 77.207 28.715 75.147 27.1133 72.7547C27.8405 72.2201 28.5874 71.7008 29.337 71.2095C30.6073 70.3607 31.7938 69.579 32.9091 68.8545C34.5779 71.2568 36.6701 73.3353 39.0833 74.9882H39.0875ZM39.463 75.2395C41.8641 76.8321 44.5338 77.9767 47.3429 78.6176C46.2039 79.3156 45.2602 79.8935 44.4115 80.4086C44.2398 80.5077 44.0583 80.6138 43.8894 80.7143C43.0519 81.2103 42.2343 81.7314 41.4368 82.2777C38.6173 81.7314 35.9313 80.6409 33.5289 79.0671C34.654 78.291 37.0341 76.768 39.4588 75.2395H39.463ZM44.0904 81.0758C44.2552 80.9767 44.4324 80.8748 44.6041 80.7743H44.6139C45.5631 80.202 46.6199 79.5571 47.932 78.7488C50.6272 79.2846 53.402 79.2798 56.0954 78.7349C55.3346 79.183 54.5961 79.6129 53.8926 80.0163C52.9071 80.5524 51.9188 81.1428 50.9612 81.771H50.9486L50.8634 81.8282C47.9948 82.6662 44.9758 82.8569 42.0245 82.3866C42.7001 81.9315 43.3888 81.4946 44.0904 81.0758ZM66.9165 77.9322C69.8257 78.5058 72.5867 79.6687 75.0296 81.3494C72.8687 82.5695 70.9116 83.6555 68.9406 84.9788C66.5717 83.2385 63.8669 82.0097 60.9978 81.3704C62.7371 80.2634 64.4709 79.3365 66.9179 77.9322H66.9165ZM95.3374 68.9788C97.4202 67.7071 99.4861 66.4145 101.495 65.147C103.929 66.7781 106.041 68.8442 107.726 71.2416C105.525 72.65 103.277 74.0697 101.701 75.0231C99.9454 72.6557 97.7922 70.6106 95.3374 68.9788ZM101.882 64.9041C104.329 63.3588 103.906 63.6157 105.461 62.6455C106.251 62.1513 107.034 61.6283 107.81 61.0765C110.201 62.6876 112.255 64.7498 113.857 67.1473C112.638 68.0323 110.408 69.512 108.067 71.021C106.393 68.6241 104.297 66.5514 101.882 64.9041ZM108.163 60.8196C110.089 59.4207 111.92 57.8959 113.644 56.255C115.978 57.8634 117.962 59.9293 119.474 62.3272C117.833 63.9798 116.069 65.5052 114.196 66.8905C112.591 64.5031 110.546 62.4428 108.17 60.8196H108.163ZM107.799 60.5753C105.418 59.0037 102.759 57.9008 99.9649 57.3256C101.906 55.9795 103.745 54.4906 105.465 52.8713C108.265 53.371 110.932 54.4426 113.299 56.0191C111.587 57.6757 109.75 59.1989 107.806 60.5753H107.799ZM105.845 52.5167C107.593 50.8632 109.226 49.0908 110.73 47.2122C113.507 47.6935 116.137 48.8026 118.42 50.4549C116.933 52.3131 115.328 54.0737 113.614 55.7259C111.267 54.1481 108.627 53.0569 105.85 52.5167H105.845ZM89.9073 57.7849C87.0261 58.6599 83.9789 58.8421 81.0139 58.3167C82.9385 57.0265 84.7563 55.5835 86.4496 54.002C89.3311 54.5902 92.309 54.51 95.1546 53.7674C93.5017 55.2277 91.7483 56.5702 89.9073 57.7849ZM54.1927 43.2673C52.0668 44.4952 50.0107 45.8401 48.0339 47.296C46.1634 44.0086 44.2496 41.1148 42.4977 38.6203C44.356 37.4311 46.3024 36.3858 48.3201 35.4935C50.4749 37.9292 52.4383 40.5277 54.1927 43.2659V43.2673ZM47.6961 47.5472C45.617 49.1052 43.6239 50.7748 41.7258 52.5488C39.9892 49.1693 38.1564 45.9266 36.5874 43.1375C38.318 41.5577 40.1767 40.1243 42.1445 38.852C43.9034 41.3493 45.8116 44.2319 47.6961 47.5458V47.5472ZM41.5778 53.1686C42.1836 54.3635 42.7504 55.5207 43.2529 56.597C43.9176 58.0388 44.7327 59.4065 45.6846 60.6772C43.916 61.6265 41.8975 62.7627 39.4029 64.2717C37.7181 61.8987 37.2867 60.546 35.5209 56.5607C37.5017 55.3644 39.5216 54.2239 41.5778 53.1686ZM36.565 59.9891L36.6921 60.2808C37.318 61.7675 38.1063 63.1803 39.0428 64.4937C37.2909 65.5574 35.3059 66.8039 33.0138 68.2892C32.1069 66.942 31.3615 65.4928 30.7929 63.9716C30.7399 63.832 29.9875 61.8777 29.478 60.4553C31.3317 59.199 33.2288 57.965 35.1635 56.7826C35.6242 57.81 36.0914 58.8788 36.565 59.9891ZM26.781 73.006C28.3729 75.3974 30.4069 77.4627 32.7737 79.0908C30.841 80.4858 29.0079 82.0138 27.2878 83.6639C24.96 82.0536 22.983 79.9879 21.4765 77.5916C23.1265 75.9315 24.8997 74.3985 26.781 73.006ZM33.145 79.3421C35.5195 80.9166 38.1727 82.0233 40.9622 82.603C39.0266 83.9608 37.1892 85.4534 35.4637 87.0699C32.6688 86.5651 30.0079 85.4903 27.6465 83.9123C29.3608 82.2544 31.1964 80.7268 33.1381 79.3421H33.145ZM41.5387 82.7132C44.2908 83.2054 47.1136 83.1409 49.8402 82.5234C48.0974 83.7358 46.4372 85.063 44.8708 86.4962C41.9944 87.3738 38.9581 87.597 35.9843 87.1495C37.7251 85.5401 39.579 84.0576 41.5317 82.7132H41.5387ZM51.0686 82.1954L51.1789 82.1256C54.0082 81.2659 56.9994 81.0804 59.9132 81.5839C57.9796 82.8753 56.1584 84.3276 54.4691 85.9252C51.6093 85.357 48.6576 85.4477 45.8381 86.1905C47.4838 84.7383 49.2292 83.4033 51.0617 82.1954H51.0686ZM86.7902 96.611C88.9218 95.3845 90.9788 94.0328 92.9504 92.5629C94.8028 95.7651 96.7571 98.7049 98.516 101.225C96.6697 102.412 94.7332 103.453 92.7243 104.337C90.5713 101.901 88.5885 99.3196 86.7902 96.611ZM93.2882 92.3144C95.3698 90.7466 97.3665 89.0691 99.2697 87.2891C100.909 90.4997 102.633 93.5791 104.142 96.2774L104.405 96.7492C102.674 98.3077 100.822 99.7271 98.8677 100.994C97.1033 98.4746 95.1392 95.5194 93.2882 92.3144ZM105.814 83.072C105.423 82.1632 105.306 81.912 104.347 79.6715C103.712 78.1472 102.907 76.6997 101.947 75.3567C103.978 74.1311 105.995 72.8636 107.966 71.5878C108.934 73.0209 109.721 74.5681 110.309 76.1943C110.727 77.2957 111.118 78.3398 111.502 79.4203C109.802 80.5705 107.86 81.8282 105.814 83.072ZM121.507 66.6964C121.561 66.8681 121.614 67.0385 121.663 67.2115C121.994 68.3129 122.221 69.3347 122.501 70.5296C122.104 70.9554 121.699 71.3756 121.286 71.786C121.105 70.088 121.179 68.3724 121.507 66.6964ZM121.852 65.2754C122.496 66.629 123.029 68.0334 123.443 69.4743C123.244 69.7033 123.042 69.9299 122.837 70.1541C122.834 70.1377 122.83 70.1214 122.826 70.1053C122.594 69.0863 122.375 68.1259 122.065 67.0957C121.952 66.6923 121.824 66.2958 121.683 65.9022C121.734 65.6928 121.792 65.4834 121.852 65.2754ZM122.614 71.014C123.063 72.8195 123.263 74.678 123.207 76.5377C122.762 75.8244 122.284 75.1278 121.779 74.4647C121.587 73.757 121.441 73.0375 121.342 72.3108C121.773 71.8865 122.199 71.4551 122.614 71.014ZM123.615 76.9216C123.644 77.0723 123.675 77.2245 123.71 77.3752C123.675 77.3138 123.638 77.2538 123.602 77.1924C123.606 77.1002 123.61 77.0109 123.615 76.9216ZM123.691 78.2002C123.63 78.3007 123.57 78.3998 123.507 78.499C123.525 78.3133 123.541 78.1318 123.553 77.9531C123.599 78.0355 123.647 78.1179 123.691 78.2002ZM123.178 77.2957C123.167 77.5023 123.153 77.7144 123.137 77.9155C122.763 77.207 122.44 76.4727 122.17 75.7183C122.52 76.225 122.857 76.7527 123.178 77.2957ZM123.916 78.633C124.056 78.9121 124.202 79.1997 124.335 79.4873C124.314 79.5836 124.294 79.6785 124.275 79.7664C124.082 79.4928 123.896 79.2137 123.716 78.9289C123.789 78.8382 123.853 78.7363 123.916 78.633ZM124.303 78.002L124.381 77.8708C124.381 78.0104 124.381 78.1402 124.381 78.2742C124.356 78.1835 124.329 78.0941 124.303 78.002ZM124.163 77.4297C123.695 75.4809 123.62 73.4584 123.943 71.4803C124.275 73.0888 124.462 74.7239 124.501 76.366C124.476 76.5628 124.456 76.7596 124.44 76.9565C124.343 77.1156 124.248 77.2733 124.156 77.4297H124.163ZM123.377 72.6263C123.25 71.8655 123.098 71.2206 122.959 70.6455C123.169 70.418 123.377 70.189 123.581 69.9573C123.626 70.1258 123.669 70.2947 123.711 70.464C123.546 71.1757 123.432 71.8983 123.37 72.6263H123.377ZM123.913 69.5776C123.927 69.5637 123.94 69.5483 123.954 69.533C123.944 69.5637 123.936 69.5944 123.927 69.6265C123.916 69.6097 123.912 69.5944 123.906 69.579L123.913 69.5776ZM121.616 64.6319V64.6431C121.554 64.8371 121.496 65.0325 121.44 65.228C121.046 64.2433 120.572 63.2928 120.023 62.3858C121.639 60.7378 123.151 58.9909 124.55 57.1553C124.78 57.5778 124.99 57.9966 125.181 58.4117C123.567 60.2113 122.349 62.3307 121.609 64.6319H121.616ZM119.793 62.0187C118.271 59.6325 116.29 57.5726 113.965 55.959C115.676 54.3095 117.28 52.5532 118.769 50.7006C121.188 52.5041 123.059 54.5394 124.333 56.7575C122.93 58.6052 121.411 60.3624 119.786 62.0187H119.793ZM118.688 50.1213C116.411 48.4767 113.798 47.3573 111.036 46.8437C112.536 44.9422 113.899 42.9363 115.115 40.8412C117.89 41.3131 120.508 42.4571 122.739 44.1733C121.528 46.2487 120.172 48.2363 118.681 50.1213H118.688ZM105.338 52.4232C102.49 51.9542 99.5748 52.0969 96.7864 52.8419C98.4012 51.3078 99.9108 49.6667 101.305 47.9297C104.188 46.986 107.25 46.718 110.253 47.1466C108.739 49.0175 107.097 50.7806 105.338 52.4232ZM95.8623 53.1211C92.9377 54.0307 89.8345 54.2085 86.8251 53.639C88.4968 52.0322 90.0494 50.3061 91.4707 48.4741C94.4817 49.104 97.6002 48.9972 100.561 48.1628C99.1117 49.9248 97.5417 51.5839 95.8623 53.1281V53.1211ZM77.9122 49.5322C75.6695 47.7407 73.8685 45.4578 72.6482 42.8597C72.5402 42.6113 72.429 42.3628 72.3145 42.1143C74.1097 40.3076 75.7749 38.3765 77.298 36.3352C77.4208 36.6451 77.5241 36.9173 77.6148 37.1518C78.599 39.6742 80.2852 41.9943 82.6234 44.0518C81.1799 45.984 79.6059 47.8151 77.9122 49.5322ZM71.8036 27.4851C70.3442 29.5451 68.7469 31.5039 67.0226 33.3479C65.2352 31.1165 63.0796 29.2068 60.6488 27.7014C62.2602 26.095 63.7505 24.3714 65.1074 22.5449C67.7736 23.8138 70.0252 25.468 71.8036 27.4851ZM59.9676 27.781C58.3118 29.3192 56.5121 30.6949 54.5933 31.8892C52.9922 30.53 51.2543 29.3408 49.4075 28.3408C51.0963 27.472 52.6874 26.4252 54.1536 25.2181C56.1921 25.8234 58.1456 26.6846 59.9676 27.781ZM48.9092 28.1202L48.6816 28.0002L48.6649 27.9918C47.745 27.3427 46.5515 26.8541 45.1472 26.5414C46.1052 26.0032 47.0105 25.376 47.8511 24.6681C51.4162 24.0204 53.4794 25.0296 53.6553 25.0869C52.1923 26.2732 50.6002 27.2908 48.9092 28.1202ZM43.3255 30.4849C44.9986 31.9405 46.5739 33.505 48.0409 35.1682C46.0309 36.0401 44.0973 37.0786 42.2604 38.2727C40.7053 36.07 39.2885 34.1883 38.1592 32.629C39.7934 31.7248 41.5246 31.0084 43.3199 30.4933L43.3255 30.4849ZM41.3893 52.7917C39.3443 53.8456 37.3272 54.9819 35.3492 56.1782C35.0826 55.5793 34.7908 54.9219 34.453 54.2016C33.0822 51.2241 32.1302 49.1637 31.3052 47.1745C32.9273 45.8316 34.6108 44.5614 36.2565 43.3902C37.8995 46.323 39.8078 49.7263 41.3838 52.7959L41.3893 52.7917ZM34.996 56.3946C33.0766 57.5657 31.188 58.7914 29.3314 60.0491C27.9955 56.6724 27.056 53.9252 26.4642 51.6652C27.8825 50.1762 29.3866 48.7714 30.9688 47.4579C32.0855 50.1297 33.4815 53.0527 34.9904 56.3988L34.996 56.3946ZM28.9768 60.2906C27.8331 61.0695 26.7019 61.8568 25.5833 62.6525C24.8938 63.1317 24.2163 63.6319 23.5509 64.1531C22.5137 61.0639 22.1284 58.24 21.8953 55.8613C23.6123 54.108 25.2218 52.7498 25.7187 52.3227L26.1152 51.9821C26.661 54.048 27.479 56.5188 28.9712 60.2948L28.9768 60.2906ZM23.2019 64.4323C22.0852 65.3229 21.0089 66.2679 19.9731 67.2674C19.6458 65.1833 18.9404 63.1765 17.8918 61.3459C17.9156 61.1058 17.9421 60.8713 17.9686 60.6479C19.0203 59.0788 20.2107 57.6072 21.5254 56.2508C21.7557 58.776 22.2178 61.5539 23.1963 64.4365L23.2019 64.4323ZM16.6467 61.9824L16.5727 62.1109C16.5727 61.981 16.5727 61.8526 16.5727 61.7228C16.5992 61.8093 16.6229 61.9015 16.6467 61.9824ZM16.796 62.559C17.2602 64.5073 17.3352 66.5282 17.0166 68.5056C16.6846 66.8942 16.4977 65.2562 16.4582 63.6115C16.4833 63.417 16.5043 63.2229 16.521 63.0294C16.6132 62.8786 16.7039 62.7153 16.796 62.559ZM14.0475 74.991C14.5667 74.214 15.1139 73.449 15.6891 72.6961C15.2333 73.6272 14.702 74.5194 14.1005 75.3637C14.0782 75.2409 14.0642 75.1166 14.0475 74.991ZM16.683 71.4412C16.8449 71.2439 17.0082 71.0485 17.1729 70.8549C17.6269 72.3839 18.2097 73.8717 18.915 75.3023C18.2127 77.4447 17.0872 79.4241 15.6053 81.1233C15.2154 80.233 14.9098 79.3081 14.6924 78.3608C14.4858 77.5148 14.3253 76.7387 14.1926 75.9458C15.2275 74.567 16.0657 73.0509 16.683 71.4412ZM27.331 84.2055C29.6741 85.7826 32.3093 86.8743 35.0812 87.4161C33.3386 89.0765 31.7113 90.8539 30.2108 92.7359C27.4391 92.2505 24.8138 91.1417 22.5333 89.4932C24.0195 87.6313 25.622 85.8652 27.331 84.2055ZM35.5879 87.5124C38.453 87.9923 41.3874 87.8577 44.1965 87.1174C42.5763 88.6553 41.062 90.3012 39.664 92.0436C36.7704 92.9813 33.7009 93.2458 30.6896 92.8169C32.1982 90.938 33.8349 89.1656 35.5879 87.5124ZM45.0997 86.848L45.1402 86.8214C48.0393 85.9164 51.1154 85.7319 54.102 86.284C52.4061 87.8996 50.8249 89.6315 49.3698 91.467C46.383 90.8533 43.2912 90.9827 40.3661 91.8439C41.8256 90.0703 43.4073 88.4009 45.0997 86.848ZM73.945 106.571C75.7388 108.797 77.8905 110.71 80.3118 112.23C78.6955 113.837 77.2023 115.564 75.8448 117.395C73.3046 116.215 71.03 114.533 69.1584 112.449C70.6195 110.384 72.2187 108.42 73.945 106.571ZM80.993 112.155C82.6639 110.595 84.4793 109.199 86.4147 107.984C88.0317 109.34 89.7721 110.543 91.6131 111.575C89.9007 112.446 88.2902 113.504 86.8112 114.73C84.7681 114.128 82.8122 113.262 80.993 112.155ZM92.0584 111.821C92.1422 111.867 92.2273 111.916 92.3111 111.961C92.5442 112.088 93.5507 112.911 95.8358 113.426C94.876 113.962 93.9688 114.588 93.1263 115.294C90.978 115.682 88.9385 115.54 87.3709 114.884L87.3067 114.867C88.7733 113.68 90.367 112.66 92.0584 111.825V111.821ZM92.5638 111.623L92.5289 111.596C94.8265 110.534 96.637 110.158 97.6421 109.882C97.7035 109.938 97.7677 109.999 97.8334 110.054C98.4518 110.713 99.1495 111.293 99.9105 111.78C98.703 112.1 97.5331 112.548 96.4207 113.116C94.8475 112.826 93.5353 112.321 92.5638 111.627V111.623ZM97.7552 109.414C96.0765 107.929 94.4914 106.341 93.0091 104.66C95.0052 103.787 96.9268 102.753 98.7547 101.568C100.389 103.896 101.84 105.842 102.86 107.272C101.245 108.178 99.5324 108.898 97.7552 109.419V109.414ZM110.039 92.4233C109.062 90.1046 107.857 87.4915 106.577 84.729C106.382 84.3102 106.185 83.883 105.991 83.4614C107.909 82.2973 109.798 81.0758 111.659 79.8195C112.692 82.3587 113.825 85.4032 114.559 88.209C113.135 89.7018 111.625 91.1103 110.036 92.4274L110.039 92.4233ZM124.138 70.4626C124.215 70.1374 124.297 69.8108 124.396 69.4855C124.481 69.2063 124.576 68.9271 124.675 68.6591C125.499 67.655 126.274 66.6206 127.001 65.556C127.168 66.7965 127.196 68.0517 127.085 69.2984C126.176 70.961 125.311 72.7436 124.815 74.6504C124.697 73.2406 124.47 71.842 124.138 70.4668V70.4626ZM127.264 64.4141C127.248 64.3192 127.234 64.2243 127.219 64.1349C127.498 63.7627 127.794 63.3904 128.107 63.0182L128.16 62.9554L128.176 62.9358C127.885 63.437 127.579 63.9269 127.264 64.4141ZM128.714 61.6865C128.478 61.9755 128.216 62.2756 127.888 62.6287L127.843 62.6804L127.786 62.7474C127.561 63.014 127.339 63.2862 127.124 63.564C127.008 62.9121 126.871 62.2616 126.705 61.5609C126.466 60.5057 126.123 59.4769 125.681 58.4898C126.167 57.9624 126.686 57.4659 127.234 57.0032C127.532 56.7533 127.822 56.4937 128.101 56.2298C128.55 58.0138 128.756 59.8502 128.714 61.6893V61.6865ZM128.066 55.684C127.717 56.026 127.346 56.3625 126.963 56.6835C126.446 57.121 125.953 57.587 125.488 58.0794C125.289 57.6551 125.068 57.2261 124.826 56.7924C126.177 54.9955 127.395 53.1028 128.471 51.1292C128.922 52.0635 129.284 53.0379 129.554 54.0396C129.092 54.6182 128.595 55.1678 128.066 55.6854V55.684ZM124.599 56.3918C123.301 54.1876 121.427 52.1649 119.025 50.3712C120.513 48.4938 121.866 46.5131 123.073 44.4441C125.205 46.1394 126.964 48.2577 128.238 50.6657C127.169 52.6625 125.952 54.5769 124.599 56.3932V56.3918ZM110.56 46.7599C107.618 46.304 104.612 46.5056 101.757 47.3504C103.163 45.5446 104.435 43.6387 105.564 41.6481C108.635 40.6277 111.698 40.3331 114.665 40.7672C113.442 42.8612 112.07 44.8644 110.56 46.7613V46.7599ZM101.044 47.5905C98.0451 48.5491 94.8517 48.7297 91.7639 48.1154C93.1707 46.2797 94.4309 44.3361 95.5329 42.3028C98.6633 42.9522 101.907 42.7985 104.962 41.8561C103.799 43.8616 102.49 45.7783 101.044 47.5905ZM82.8719 43.714C80.5993 41.7067 78.9633 39.4495 78.0057 37.0011C77.8661 36.6381 77.7265 36.2891 77.5869 35.9388C79.0949 33.8791 80.4564 31.7161 81.6616 29.4659C82.2521 31.2806 83.1441 34.3516 86.6227 37.6767C85.5265 39.7808 84.2726 41.7991 82.8719 43.714ZM77.4013 35.4781C76.868 34.212 76.1868 32.8342 74.8453 30.6287C74.1767 29.5566 73.6407 28.9257 72.6119 27.7712L72.3327 27.4516C73.8365 25.3005 75.1891 23.0477 76.3809 20.7093C77.2701 21.6194 78.1188 22.5393 78.8195 23.6254C79.9093 25.277 80.7996 27.052 81.4718 28.9131C80.2721 31.1964 78.9119 33.3917 77.4013 35.4823V35.4781ZM64.9776 22.0228C62.9609 21.1037 60.8047 20.5281 58.5982 20.3198C59.8009 18.664 60.8543 16.9048 61.746 15.0628C64.106 14.8997 66.4753 15.1906 68.7256 15.9199C67.6489 18.0575 66.3937 20.1005 64.9734 22.027L64.9776 22.0228ZM58.1111 20.2779L57.9449 20.2612L57.8361 20.2528C56.1107 19.9862 54.1048 20.2249 52.1128 20.9229C53.0625 19.7503 53.9479 18.5271 54.765 17.2586C56.8003 15.9659 59.0924 15.1982 61.2114 15.0977H61.2658C60.3696 16.9166 59.3124 18.6517 58.1069 20.2821L58.1111 20.2779ZM50.4991 22.0619C50.3204 22.235 50.1418 22.4025 49.9603 22.5631C50.0678 22.436 50.1725 22.309 50.2758 22.1792C50.3456 22.1443 50.4195 22.1038 50.4949 22.0661L50.4991 22.0619ZM51.5349 21.5887C53.7404 20.6786 55.9544 20.3854 57.7858 20.6688H57.8137C56.6925 22.146 55.4344 23.514 54.0559 24.7547L53.7767 24.6807C52.3655 24.1014 50.5466 23.8948 48.5811 24.1321C49.6721 23.4197 50.664 22.5658 51.5307 21.5929L51.5349 21.5887ZM45.8437 25.6369L45.9666 25.4973L46.2108 25.3884C46.0852 25.4791 45.9624 25.5601 45.8395 25.6397L45.8437 25.6369ZM44.7577 26.2818L44.5106 26.4144C44.2775 26.3725 44.0388 26.3362 43.7973 26.3041C44.2161 26.1785 44.653 26.0319 45.0955 25.8616C44.9769 26.0026 44.8638 26.1422 44.7535 26.2846L44.7577 26.2818ZM43.8657 26.7355C42.9598 27.1624 42.0181 27.509 41.0515 27.7712C41.5851 27.3508 42.1446 26.9643 42.7266 26.614C43.1156 26.6447 43.4939 26.6861 43.8615 26.7383L43.8657 26.7355ZM35.4902 28.3198C36.3328 27.8467 37.2215 27.4609 38.1424 27.1682C38.7876 27.4035 39.4139 27.6877 40.0158 28.0183C38.5256 28.3244 37.0009 28.4268 35.4832 28.3226L35.4902 28.3198ZM32.6062 36.5167C32.9706 37.4938 34.3525 39.9786 36.0583 43.0217C34.4293 44.1789 32.7598 45.4366 31.1461 46.7683C30.2946 44.6982 29.5729 42.6378 28.6181 39.6407C28.5943 39.5654 28.572 39.4914 28.5511 39.4202C29.8289 38.3572 31.1818 37.3877 32.5992 36.5195L32.6062 36.5167ZM21.4765 55.7022C20.2408 56.949 19.1087 58.2945 18.0914 59.7252C18.1026 59.6429 18.1152 59.5605 18.1263 59.4768C18.1263 59.4768 18.1557 58.843 18.4279 56.7826C18.668 54.9791 18.8466 53.5874 18.6777 52.0742C19.3096 50.5899 20.0719 49.1647 20.9559 47.8152C21.2392 49.8128 21.1974 52.5488 21.4765 55.7022ZM16.542 57.6816C16.4554 58.1367 16.3814 58.5945 16.3172 59.0524C16.3172 59.0454 16.3047 59.0384 16.2991 59.0301C16.0308 57.704 15.5823 56.4208 14.966 55.2164C14.7412 53.722 14.6264 52.2132 14.6226 50.702C15.8929 52.8755 16.5685 55.3267 16.5364 57.6816H16.542ZM13.6999 75.5201L13.7501 75.8439C13.4709 76.2264 13.1625 76.6061 12.8414 76.9844L12.7828 77.0472L12.7199 77.1156C13.0373 76.574 13.3639 76.0421 13.6999 75.5201ZM12.223 78.3245C12.4505 78.0453 12.7088 77.7452 13.0145 77.4143L13.0899 77.332L13.1569 77.2594C13.397 76.9802 13.6259 76.6926 13.8548 76.4079C13.9749 77.0765 14.1159 77.7438 14.2917 78.4613C14.5292 79.4953 14.8682 80.5034 15.3038 81.4709C14.8095 82.0107 14.2807 82.5181 13.7208 82.9896C13.4123 83.2479 13.1178 83.5131 12.833 83.7839C12.3849 81.9998 12.1797 80.1634 12.223 78.3245ZM12.8805 84.3102C13.2295 83.9682 13.6008 83.6318 13.9833 83.3107C14.5118 82.8644 15.0138 82.3876 15.4867 81.8827C15.6784 82.2884 15.8891 82.6997 16.119 83.1167C14.7661 84.9244 13.5528 86.8326 12.4896 88.8246C12.0423 87.8958 11.682 86.9275 11.4134 85.9322C11.8693 85.3625 12.3593 84.8209 12.8805 84.3102ZM16.3465 83.5145C17.6503 85.7382 19.5278 87.7762 21.9372 89.5784C20.4522 91.4653 19.0996 93.4527 17.889 95.5264C15.6974 93.7494 13.9135 91.5983 12.7172 89.2852C13.7652 87.2646 14.9792 85.3344 16.3465 83.5145ZM18.0119 96.1573C20.2446 97.873 22.8573 99.0264 25.6294 99.5201C24.4593 101.583 23.462 103.739 22.6477 105.966C19.7959 105.394 17.2036 104.177 15.1251 102.438C15.8993 100.263 16.8653 98.161 18.0119 96.1573ZM18.2213 95.7902C19.429 93.7098 20.7817 91.7171 22.2694 89.8268C24.5433 91.4717 27.1526 92.5938 29.9107 93.1128C28.4134 95.0213 27.0536 97.0337 25.8416 99.1348C23.0652 98.6633 20.4478 97.5146 18.2213 95.7902ZM30.3825 93.1952C33.3325 93.6559 36.348 93.4566 39.2117 92.6117C37.8004 94.4238 36.5235 96.3367 35.3911 98.335C32.2307 99.3777 29.1443 99.6262 26.2925 99.2088C27.5105 97.1092 28.8774 95.0995 30.3825 93.1952ZM63.5203 104.434C64.0577 105.701 64.7389 107.064 66.1725 109.393C66.8202 110.422 67.3423 111.031 68.2929 112.103L68.6293 112.483C67.1226 114.64 65.7672 116.899 64.5728 119.243C63.6626 118.309 62.8516 117.428 62.1732 116.394C61.0378 114.708 60.1129 112.89 59.419 110.979C60.6277 108.702 61.9983 106.515 63.5203 104.434ZM64.8813 119.553C66.0663 117.211 67.4139 114.955 68.9141 112.801C70.6981 114.804 72.9441 116.462 75.5977 117.737C74.1815 119.69 72.9213 121.752 71.8288 123.903C69.2117 123.001 66.8354 121.513 64.8813 119.553ZM75.9872 117.92C78.0023 118.841 80.1568 119.421 82.3624 119.634C81.1589 121.293 80.1059 123.057 79.216 124.904C76.8554 125.075 74.4841 124.782 72.2364 124.041C73.3216 121.905 74.5759 119.86 75.9872 117.924V117.92ZM82.8509 119.676L83.0603 119.697C83.5712 119.771 84.0866 119.809 84.6028 119.813C86.047 119.795 87.4782 119.537 88.838 119.05C87.8867 120.223 87.0012 121.448 86.1858 122.719C84.2403 123.982 82.0037 124.725 79.6892 124.878C80.5857 123.055 81.6438 121.315 82.8509 119.68V119.676ZM90.435 117.928C90.636 117.732 90.8389 117.546 91.0436 117.37C90.9221 117.509 90.8021 117.659 90.6848 117.807L90.435 117.928ZM89.4104 118.392C87.2704 119.26 85.083 119.582 83.2181 119.295H83.1455C84.2699 117.815 85.5318 116.445 86.9145 115.203L87.2244 115.287C88.3711 115.736 89.5945 115.957 90.8258 115.938C91.3433 115.937 91.8603 115.905 92.3739 115.841C91.2779 116.556 90.2817 117.414 89.4118 118.392H89.4104ZM95.0987 114.362L94.9982 114.473L94.7972 114.56C94.9019 114.493 94.9996 114.427 95.1001 114.362H95.0987ZM96.1889 113.714L96.4765 113.56C96.6999 113.601 96.933 113.637 97.1745 113.671C96.7334 113.8 96.2978 113.95 95.8637 114.116C95.9754 113.985 96.0843 113.851 96.1904 113.714H96.1889ZM99.8951 112.223C99.3688 112.637 98.8167 113.018 98.2424 113.362C97.8589 113.331 97.4867 113.291 97.1256 113.241C98.018 112.822 98.9452 112.481 99.8965 112.223H99.8951ZM106.157 111.313C104.334 111.115 102.491 111.209 100.698 111.592C100.684 111.593 100.67 111.596 100.657 111.6L100.47 111.644C99.606 111.127 98.8176 110.493 98.1279 109.759L98.1097 109.744C99.8416 109.215 101.512 108.503 103.093 107.621C103.125 107.667 103.156 107.713 103.188 107.76C103.956 109.039 105.188 110.322 106.616 111.367C106.464 111.349 106.312 111.33 106.159 111.317L106.157 111.313ZM105.459 111.673C104.631 112.137 103.758 112.517 102.853 112.806C102.219 112.57 101.602 112.288 101.009 111.962C102.473 111.668 103.971 111.571 105.461 111.673H105.459ZM112.791 100.206C112.759 100.104 112.726 99.9989 112.696 99.8914C112.277 98.4425 111.16 95.2123 110.204 92.8337C111.769 91.5376 113.26 90.1553 114.671 88.6934C114.795 89.1973 114.907 89.6942 115 90.1758C115.502 92.6382 115.883 94.5032 116.188 96.1071C116.23 96.3416 116.289 96.5608 116.338 96.7785C115.228 97.9937 114.044 99.1383 112.792 100.206H112.791ZM119.984 91.7155C119.868 90.7384 119.826 89.7068 119.781 88.6096C119.748 87.772 119.713 86.894 119.642 85.9853C119.626 85.7438 119.619 85.4813 119.596 85.2301C119.575 84.8811 119.566 84.5321 119.527 84.1999C120.746 82.9609 121.866 81.6289 122.878 80.2159C122.866 80.2983 122.855 80.3807 122.843 80.4644C122.843 80.4644 122.815 81.1009 122.541 83.1878C122.364 84.5321 122.198 85.801 122.227 87.0266C122.227 87.3198 122.256 87.6241 122.29 87.9284C121.656 89.3826 120.899 90.7803 120.028 92.1064C120.009 91.9333 119.998 91.8356 119.985 91.7155H119.984ZM126.533 85.7563C127.954 88.0841 129.981 89.9822 132.396 91.2479C132.791 92.5124 133.025 93.8212 133.094 95.1439C130.486 94.1095 128.263 92.2919 126.73 89.9413C126.766 88.5434 126.7 87.1448 126.535 85.7563H126.533ZM129.131 61.156C129.134 59.3813 128.903 57.6138 128.446 55.899C128.889 55.4607 129.301 55.0107 129.683 54.5492C129.765 54.9023 129.838 55.2597 129.896 55.6212C130.091 56.7119 130.208 57.8152 130.247 58.9226C129.939 59.6168 129.608 60.3078 129.251 60.9955L129.131 61.156ZM129.872 53.6265C129.578 52.6091 129.189 51.6213 128.712 50.6755C129.689 48.8347 130.508 46.9145 131.161 44.9355C131.7 46.3177 132.058 47.7638 132.226 49.2377C131.672 50.8126 130.878 52.2929 129.874 53.6265H129.872ZM128.477 50.219C127.178 47.8435 125.413 45.7545 123.288 44.077C124.431 42.0859 125.397 39.9979 126.173 37.8372C128.213 39.6241 129.834 41.839 130.919 44.3241C130.282 46.3578 129.465 48.3306 128.477 50.219ZM114.889 40.3792C112.047 39.9381 108.983 40.1475 105.858 41.1176C106.965 39.1046 107.903 37.0035 108.663 34.836C111.82 33.7486 115.005 33.4401 117.893 33.9426C117.074 36.1689 116.069 38.322 114.889 40.3792ZM105.271 41.3172C102.201 42.3467 98.9143 42.5532 95.7395 41.9161C96.8332 39.8719 97.7495 37.7376 98.4783 35.5367C101.607 36.2473 104.939 36.0658 108.156 35.0119C107.372 37.1904 106.407 39.2996 105.271 41.3172ZM81.7356 28.4203C81.0767 26.6558 80.2187 24.9721 79.1783 23.402C78.4301 22.242 77.5283 21.2802 76.5874 20.3184C77.7946 17.9123 78.8211 15.4198 79.6585 12.8614C80.5807 13.7084 81.4078 14.6534 82.1251 15.6798C83.2958 17.3878 84.1943 19.2672 84.7885 21.2509C83.9467 23.7118 82.9264 26.108 81.7356 28.4203ZM68.9155 15.5458C66.6696 14.811 64.3065 14.501 61.947 14.6314C62.8724 12.6543 63.6131 10.5959 64.1596 8.48242C66.6564 7.98192 69.2321 8.02955 71.7087 8.62201C70.948 10.995 70.0144 13.3092 68.9155 15.5458ZM61.4696 14.6649L61.3217 14.6733L61.1821 14.6831C59.2278 14.7766 57.1479 15.4118 55.2383 16.488C56.0425 15.0541 56.6353 13.5115 56.9985 11.908C58.8899 10.2743 61.158 9.13693 63.5984 8.59828L63.7017 8.57594C63.1469 10.67 62.3997 12.7084 61.4696 14.6649ZM54.4579 16.9529C53.7875 17.3857 53.1497 17.8672 52.5497 18.3934C52.7852 17.8573 52.993 17.3093 53.1723 16.7518C54.0085 15.1292 55.1128 13.6596 56.4388 12.405C56.0259 14.0171 55.3572 15.5526 54.4579 16.9529ZM39.8273 26.9058C40.4598 26.8986 41.0912 26.8501 41.7174 26.7606C41.2665 27.0677 40.8226 27.4041 40.3899 27.767C39.8714 27.4723 39.3353 27.2098 38.7846 26.9811L38.9995 26.9281C39.2927 26.9309 39.5467 26.9253 39.8273 26.9113V26.9058ZM31.5914 27.5856C31.342 27.5074 31.0921 27.4232 30.8418 27.3329C30.5514 27.2268 30.2569 27.1291 29.9637 27.037L30.2527 26.9323C30.7558 27.1049 31.2493 27.3043 31.731 27.5297L31.5914 27.5856ZM18.8787 27.6637C21.5896 27.2882 24.5378 28.0825 27.2222 29.9154C25.9056 30.622 24.6719 31.4731 23.5439 32.4532C21.0689 30.4989 18.2994 29.4086 15.6556 29.3375C16.6641 28.6625 17.7453 28.1029 18.8787 27.6693V27.6637ZM27.6102 30.1848C29.6022 31.631 31.6123 33.8323 32.4582 36.1091C31.0392 36.9731 29.6835 37.9374 28.4017 38.9944C27.7037 36.8503 26.0007 34.4926 23.8747 32.7226C25.017 31.7359 26.2707 30.8861 27.6102 30.1904V30.1848ZM28.0555 39.2876C26.8032 40.3447 25.6168 41.4775 24.5029 42.6797C23.8915 40.4811 22.3713 38.1108 20.3598 36.2319C21.3558 35.0903 22.423 34.0128 23.5551 33.0059C25.7425 34.8067 27.398 37.1183 28.0555 39.2876ZM24.1665 43.0468C23.0868 44.2271 22.0808 45.4728 21.1541 46.7767C20.6181 44.472 19.3073 42.1199 17.501 40.2354C17.8081 39.7008 18.1305 39.1954 18.46 38.7334L18.5912 38.5477C19.0644 37.8721 19.553 37.1769 20.0848 36.5488C22.1145 38.45 23.6277 40.8538 24.1665 43.0468ZM14.2066 50.0362C14.1753 51.4351 14.2434 52.8346 14.4104 54.2239C12.9872 51.8992 10.9613 50.003 8.54754 48.7366C8.15323 47.4721 7.91876 46.1632 7.84958 44.8405C10.4545 45.874 12.6753 47.689 14.2066 50.0362ZM16.0325 63.0405C15.9557 63.1801 15.8775 63.3197 15.8021 63.4593C15.8822 63.2053 15.9594 62.9535 16.0339 62.7041C16.0325 62.8116 16.0325 62.9261 16.0325 63.0405ZM13.4598 70.5366L13.2532 70.9121L13.1987 70.9917L13.1569 71.0545C13.2797 70.5613 13.4216 70.0611 13.5826 69.5539C13.5366 69.8819 13.4947 70.2086 13.464 70.5366H13.4598ZM12.8916 72.2578C13.0508 71.9884 13.2225 71.7176 13.4012 71.4482C13.356 72.6005 13.4248 73.7545 13.6064 74.8933C13.1355 75.6034 12.6892 76.3232 12.2677 77.0528C12.3765 75.4429 12.5863 73.8414 12.8958 72.2578H12.8916ZM11.7986 78.8577C11.7935 80.6335 12.0211 82.4023 12.4757 84.1189C12.0499 84.5377 11.6535 84.9788 11.2821 85.4269C11.204 85.0961 11.1342 84.7652 11.0783 84.4316C10.8722 83.3119 10.7481 82.1787 10.707 81.0409C11.0039 80.3662 11.3208 79.7022 11.6576 79.049C11.7051 78.9847 11.754 78.9205 11.8028 78.8577H11.7986ZM12.4798 89.7459C13.784 92.1229 15.55 94.2154 17.6741 95.9005C16.529 97.8952 15.5607 99.9864 14.7803 102.15C12.7405 100.363 11.12 98.1472 10.0342 95.6618C10.6849 93.6233 11.5044 91.6426 12.484 89.7403L12.4798 89.7459ZM26.0691 99.5913C28.9014 100.032 31.9613 99.8286 35.0965 98.8598C33.9864 100.875 33.0455 102.979 32.2838 105.15C29.1262 106.234 25.9477 106.546 23.0707 106.04C23.8903 103.812 24.8933 101.655 26.0691 99.5913ZM35.6298 98.7537C38.6634 97.7113 41.9166 97.4789 45.0676 98.0795C43.9675 100.129 43.0469 102.269 42.3162 104.477C39.2452 103.779 35.9592 103.969 32.7751 105.023C33.551 102.86 34.5059 100.766 35.6298 98.7621V98.7537ZM59.1566 111.468C59.8437 113.282 60.7369 115.011 61.8186 116.622C62.5417 117.727 63.403 118.647 64.369 119.634C63.1619 122.048 62.1354 124.548 61.2979 127.113C60.3917 126.289 59.5752 125.371 58.8621 124.374C57.6353 122.641 56.6929 120.723 56.0702 118.693C56.9178 116.214 57.9495 113.802 59.1566 111.476V111.468ZM72.0465 124.416C74.2876 125.162 76.6502 125.474 79.008 125.335C78.0839 127.317 77.3433 129.379 76.7954 131.496C74.2973 131.998 71.72 131.951 69.2421 131.357C69.994 128.976 70.9317 126.658 72.0465 124.425V124.416ZM79.4854 125.303C81.6757 125.2 83.8102 124.578 85.7126 123.488C84.907 124.924 84.3127 126.469 83.9481 128.075C82.0308 129.731 79.7259 130.876 77.2477 131.403C77.8056 129.308 78.5547 127.269 79.4854 125.311V125.303ZM86.4929 123.018C87.1628 122.586 87.8001 122.106 88.3997 121.581C88.1635 122.119 87.9553 122.668 87.7757 123.227C86.9399 124.85 85.835 126.319 84.5079 127.573C84.9232 125.961 85.5933 124.426 86.4929 123.026V123.018ZM101.163 113.058C100.52 113.067 99.8791 113.118 99.2432 113.21C99.707 112.894 100.154 112.554 100.583 112.192C101.105 112.492 101.646 112.758 102.201 112.989L101.962 113.048C101.682 113.052 101.436 113.055 101.163 113.066V113.058ZM109.306 112.384C109.574 112.465 109.841 112.554 110.105 112.649C110.395 112.755 110.688 112.853 110.982 112.943C110.895 112.977 110.808 113.007 110.722 113.038C110.207 112.86 109.703 112.654 109.211 112.42L109.306 112.384ZM122.076 112.317C119.358 112.691 116.405 111.878 113.719 110.03C115.036 109.327 116.27 108.477 117.397 107.496C119.871 109.467 122.643 110.567 125.291 110.643C124.285 111.321 123.207 111.886 122.076 112.325V112.317ZM117.39 106.951C115.239 105.161 113.546 102.763 112.923 100.635C114.174 99.5809 115.359 98.4499 116.47 97.2489C117.168 99.7379 118.743 101.995 120.585 103.727C119.591 104.872 118.524 105.951 117.39 106.959V106.951ZM116.803 96.8874C117.506 96.1094 118.177 95.3105 118.814 94.4906C119.159 94.0621 119.49 93.6196 119.811 93.1687C120.38 95.6353 121.737 97.9357 123.44 99.7295C123.146 100.244 122.827 100.743 122.482 101.226L122.372 101.385C121.892 102.069 121.395 102.781 120.858 103.412C118.828 101.507 117.325 99.0902 116.803 96.8958V96.8874ZM125.912 95.1244C126.366 93.6657 126.633 92.1553 126.707 90.6295C128.305 92.8829 130.537 94.6103 133.119 95.592C133.153 96.9091 133.032 98.2255 132.759 99.5145C129.475 98.7342 127.237 96.7283 125.912 95.1327V95.1244ZM129.525 85.9113C128.57 85.1416 127.708 84.2638 126.955 83.2953L126.963 83.3037C127.898 84.0908 128.755 84.9664 129.521 85.9183L129.525 85.9113ZM124.918 77.3013V76.9453C124.999 76.8057 125.08 76.6577 125.16 76.5126C125.076 76.7824 124.994 77.0477 124.914 77.3082L124.918 77.3013ZM127.499 69.4171L127.703 69.0486L127.798 68.909C127.676 69.4031 127.537 69.9034 127.379 70.4096C127.427 70.083 127.466 69.7535 127.497 69.4241L127.499 69.4171ZM128.685 66.5541C128.927 65.0873 129.074 63.6064 129.126 62.1206C129.293 61.8177 129.454 61.512 129.613 61.2063C129.843 60.8936 130.062 60.5781 130.266 60.2571C130.208 62.4492 129.668 64.6016 128.683 66.5611L128.685 66.5541ZM132.733 50.1967C132.715 49.8896 132.689 49.5862 132.653 49.2865C132.737 49.0437 132.814 48.798 132.885 48.5523C132.855 49.1051 132.804 49.6555 132.731 50.2037L132.733 50.1967ZM132.519 48.3066C132.291 46.9296 131.9 45.5843 131.356 44.2989C131.887 42.5859 132.236 40.8221 132.399 39.0363C133.323 42.054 133.365 45.2725 132.522 48.3136L132.519 48.3066ZM132.042 37.9642C131.963 39.9093 131.644 41.8372 131.093 43.7043C129.963 41.2912 128.336 39.1443 126.318 37.4045C127.008 35.414 127.457 33.3483 127.657 31.2513C129.605 33.1343 131.104 35.4308 132.045 37.9712L132.042 37.9642ZM119.569 26.9365C119.316 29.1896 118.801 31.4055 118.034 33.5392C115.15 33.0255 111.98 33.3005 108.829 34.3376C109.554 32.176 110.068 29.9494 110.365 27.6889C113.491 26.5847 116.586 26.3279 119.572 26.9393L119.569 26.9365ZM109.922 27.841C109.61 30.1107 109.078 32.3445 108.332 34.5107C105.148 35.6107 101.708 35.8299 98.6067 35.1361C99.3172 32.8951 99.8347 30.5974 100.153 28.2682C103.383 29.0705 106.775 28.9222 109.922 27.841ZM99.7458 28.1621C99.4292 30.4946 98.9112 32.7953 98.1977 35.0384C94.9773 34.2357 92.1589 32.6849 90.0288 30.5449C90.7658 28.1932 91.3216 25.7884 91.6913 23.3518C93.8865 25.6609 96.672 27.325 99.7458 28.1635V28.1621ZM91.3312 22.9553C90.9741 25.4079 90.4276 27.8292 89.6965 30.1973C87.6697 28.0634 86.2428 25.4316 85.5604 22.5686C85.5367 22.4374 85.3678 21.752 85.2212 21.2537C86.0232 18.8784 86.6526 16.4483 87.1043 13.9823C87.1336 14.1219 87.1643 14.2699 87.1895 14.4151C87.749 17.5916 89.1833 20.5491 91.3312 22.9553ZM86.8642 12.9187C86.442 15.5171 85.8204 18.0792 85.0048 20.5822C84.4045 18.7584 83.5487 17.0289 82.4629 15.4453C81.69 14.3409 80.7941 13.328 79.7925 12.4259C80.6212 9.80636 81.236 7.1239 81.6309 4.40493C84.1701 6.56163 85.9764 9.49865 86.8642 12.9228V12.9187ZM73.3838 0.642934C73.1229 3.2125 72.6033 5.74918 71.8329 8.2144C69.3539 7.61773 66.7764 7.55492 64.2713 8.03014C64.8208 5.78513 65.1458 3.49106 65.2414 1.18176C67.8794 0.385929 70.6644 0.203069 73.3838 0.647121V0.642934ZM64.8143 1.31856C64.7102 3.61351 64.3768 5.8923 63.819 8.12088L63.6445 8.15577L63.5049 8.18369C61.1756 8.6947 58.9973 9.74086 57.1423 11.2394C57.4941 9.57961 57.7007 7.82215 57.8975 5.752C59.789 3.71058 62.1695 2.18477 64.8143 1.31856ZM53.7572 14.4151C54.3156 11.2645 55.5523 8.53546 57.4326 6.29082C57.233 8.31211 57.0069 10.0347 56.623 11.6749C55.4541 12.6927 54.4368 13.8726 53.6022 15.1786C53.659 14.9292 53.7107 14.6761 53.7572 14.4193V14.4151ZM48.8617 23.0153C48.8059 23.1172 48.75 23.2191 48.6956 23.3224C48.4485 23.5709 48.1945 23.8124 47.9334 24.0441C47.7757 24.139 47.6137 24.2298 47.4504 24.3233C47.3276 24.3484 47.2033 24.3764 47.0805 24.4043C47.6406 23.901 48.2359 23.4383 48.8617 23.0195V23.0153ZM35.8545 26.5512C34.6331 26.6653 33.4302 26.9283 32.2726 27.3343C31.8538 27.1277 31.4029 26.9225 30.9102 26.7327C32.5242 26.305 34.2134 26.243 35.8545 26.5512ZM29.6008 26.7355C29.5059 26.7731 29.4124 26.8136 29.3216 26.8541C28.2998 26.572 27.2555 26.3786 26.2003 26.2762C27.352 26.2551 28.5001 26.41 29.605 26.7355H29.6008ZM15.0553 29.7618C17.977 29.6627 20.8777 30.9037 23.2228 32.7379C22.0991 33.7411 21.0389 34.8134 20.0485 35.9485C17.7229 33.884 14.9785 32.6137 12.2565 32.3401C13.0922 31.3808 14.0308 30.5162 15.0553 29.7618ZM11.4259 54.0745C12.3805 54.8441 13.2425 55.722 13.9944 56.6905C13.0552 55.9041 12.195 55.028 11.4259 54.0745ZM12.2635 73.415C12.0162 74.8861 11.8647 76.3717 11.8098 77.8624C11.6325 78.1835 11.4636 78.5073 11.2975 78.8298C11.0839 79.1215 10.8787 79.4147 10.6861 79.712C10.7417 77.5225 11.2804 75.3722 12.2635 73.415ZM8.01849 93.4995C8.12061 92.8746 8.26046 92.2565 8.43726 91.6485C8.65695 93.0358 9.04655 94.3907 9.59727 95.6827C9.0622 97.3953 8.71078 99.1599 8.54894 100.947C7.81411 98.5359 7.63279 95.9902 8.01849 93.4995ZM8.9035 102.008C8.98281 100.062 9.30402 98.1348 9.8597 96.269C10.9907 98.6822 12.6185 100.829 14.6365 102.57C13.944 104.565 13.4918 106.635 13.2895 108.737C11.3423 106.851 9.84347 104.551 8.9035 102.008ZM21.3733 113.056C21.6344 110.8 22.1548 108.581 22.9241 106.444C25.8011 106.958 28.9657 106.683 32.1176 105.65C31.3917 107.813 30.8775 110.041 30.5821 112.304C27.4553 113.411 24.3591 113.668 21.3733 113.056ZM31.0232 112.153C31.3331 109.897 31.8618 107.675 32.602 105.521C35.7959 104.404 39.1028 104.184 42.1878 104.876C41.4872 107.102 40.9763 109.382 40.6607 111.694C37.4698 110.928 34.1265 111.088 31.0232 112.155V112.153ZM41.0739 111.794C41.3872 109.482 41.8986 107.2 42.6024 104.975C45.7991 105.764 48.5951 107.302 50.7127 109.442C49.9976 111.743 49.4559 114.094 49.092 116.475C46.8901 114.218 44.1177 112.601 41.0697 111.794H41.0739ZM49.5527 116.959L49.4564 116.855C49.8068 114.458 50.3388 112.091 51.0477 109.775C53.1222 111.883 54.5897 114.512 55.2955 117.385C55.3988 117.822 55.5156 118.256 55.6459 118.687C54.8662 121 54.2491 123.365 53.7991 125.763C53.7879 125.701 53.7739 125.639 53.7628 125.578C53.1963 122.366 51.7357 119.379 49.5485 116.959H49.5527ZM54.0755 127.031C54.0601 126.969 54.0461 126.905 54.0308 126.842C54.4556 124.309 55.0677 121.81 55.8622 119.367C56.4918 121.238 57.3899 123.007 58.5284 124.619C59.2969 125.69 60.1812 126.673 61.1653 127.55C60.3348 130.176 59.7177 132.865 59.3199 135.591C56.7654 133.426 54.9549 130.473 54.0713 127.031H54.0755ZM67.5656 139.348C67.8329 136.775 68.3542 134.234 69.1221 131.763C71.6012 132.361 74.1792 132.426 76.6852 131.953C76.132 134.2 75.8046 136.497 75.708 138.81C73.069 139.607 70.2826 139.792 67.5614 139.348H67.5656ZM76.1366 138.673C76.241 136.375 76.5763 134.094 77.1374 131.864C79.5785 131.381 81.8656 130.312 83.8016 128.749C83.4484 130.41 83.2432 132.169 83.0464 134.239C81.1565 136.282 78.7769 137.81 76.1324 138.677L76.1366 138.673ZM87.1937 125.576C86.6353 128.727 85.3985 131.456 83.5182 133.701C83.7164 131.679 83.937 129.955 84.3278 128.312C85.4975 127.296 86.5149 126.116 87.3486 124.81C87.2886 125.064 87.2355 125.319 87.1895 125.576H87.1937ZM92.0919 116.972C92.1464 116.873 92.2008 116.772 92.2539 116.67C92.5219 116.401 92.7983 116.143 93.0816 115.893C93.2212 115.812 93.3608 115.731 93.5004 115.654C93.6316 115.628 93.7615 115.6 93.8927 115.569C93.3258 116.08 92.7226 116.549 92.0877 116.972H92.0919ZM105.066 113.419C106.296 113.305 107.507 113.04 108.673 112.629C109.091 112.843 109.563 113.048 110.069 113.25C108.434 113.684 106.722 113.742 105.061 113.419H105.066ZM111.371 113.25C111.458 113.215 111.543 113.178 111.629 113.141C112.64 113.42 113.673 113.612 114.717 113.715C113.586 113.728 112.459 113.572 111.374 113.25H111.371ZM125.889 110.234C123.18 110.319 120.292 109.257 117.721 107.226C118.845 106.223 119.905 105.151 120.894 104.015C123.22 106.092 125.965 107.365 128.692 107.644C127.855 108.607 126.916 109.475 125.891 110.234H125.889Z" fill="url(#paint0_linear_1440_9303)"/>
    <defs>
        <linearGradient id="paint0_linear_1440_9303" x1="70.4762" y1="0" x2="70.4762" y2="140" gradientUnits="userSpaceOnUse">
            <stop stop-color="white" stop-opacity="0.4"/>
            <stop offset="1" stop-color="white" stop-opacity="0"/>
        </linearGradient>
    </defs>
</svg>
