<svg width="312" height="312" viewBox="0 0 312 312" fill="none" xmlns="http://www.w3.org/2000/svg">
<g clip-path="url(#clip0_407_3414)">
<path d="M186.288 307.96C166.285 311.859 145.715 311.859 125.712 307.96C115.735 305.992 105.972 303.068 96.5581 299.228C87.1377 295.383 78.1202 290.621 69.6364 285.01C65.3872 282.218 61.2811 279.219 57.3183 276.014C53.3555 272.809 49.5536 269.429 45.9126 265.874C60.2733 280.472 77.405 292.068 96.3068 299.983C115.209 307.899 135.502 311.976 156 311.976C176.498 311.976 196.791 307.899 215.693 299.983C234.595 292.068 251.727 280.472 266.087 265.874C251.141 280.452 233.953 291.667 215.442 299.228C206.028 303.068 196.265 305.992 186.288 307.96Z" fill="#0F1014" fill-opacity="0.12"/>
<path d="M203.641 295.465C198.497 296.086 193.322 296.419 188.134 296.58C175.632 296.984 164.647 296.406 149.122 296.469C141.343 296.532 133.568 296.117 125.84 295.226C115.53 294.048 105.337 292.011 95.3686 289.135C75.3844 283.541 56.6769 273.597 40.6347 260.346C42.5621 261.984 43.5928 262.963 48.1794 266.53C48.5624 266.826 50.9226 268.578 51.3149 268.858C55.4781 271.807 53.4167 270.34 56.1351 272.192C57.2187 272.916 58.3147 273.606 59.417 274.315C60.5193 275.023 61.634 275.685 62.7612 276.341C63.8884 276.997 65.0124 277.662 66.1614 278.277C70.7383 280.786 75.4481 283.045 80.2699 285.045C93.5626 290.524 109.01 294.679 125.669 296.686C132.157 297.461 138.68 297.896 145.214 297.991C173.484 298.106 177.712 298.439 188.184 298.05C193.399 297.851 198.618 297.472 203.806 296.807C214.28 295.515 224.596 293.06 233.919 288.395C236.27 287.236 238.521 285.909 240.738 284.52C251.985 277.568 262.753 267.941 271.35 260.337C263.341 267.021 255.382 273.746 246.816 279.56C234.492 287.957 224.382 293.007 203.641 295.465Z" fill="#0F1014" fill-opacity="0.12"/>
<path d="M225.266 285.682C224.677 285.863 225.294 285.707 221.402 286.664C202.884 290.704 182.648 288.367 157.532 285.872C139.783 284.231 140.406 285.487 125.357 284.738C108.593 283.883 90.5765 280.546 78.0031 276.792C62.9854 272.31 50.5116 266.164 35.6558 254.569C53.8901 269.669 69.9509 276.733 93.3385 281.792C118.504 287.217 135.474 286.453 141.406 286.481C158.622 286.577 183.532 291.341 205.652 290.048C237.827 288.206 249.725 274.054 276.363 254.569C259.103 266.443 246.159 278.376 229.074 284.477C228.486 284.71 228.202 284.784 225.266 285.682Z" fill="#0F1014" fill-opacity="0.12"/>
<path d="M229.526 279.336C223.229 281.847 214.109 283.277 207.349 283.416C193.717 283.945 175.399 281.313 157.915 278.665C128.39 274.23 121.885 277.565 91.7348 272.813C75.0294 270.041 60.949 267.301 44.6421 257.897C44.1937 257.652 41.5284 256.032 41.0955 255.75C37.5908 253.525 34.2018 251.124 30.9415 248.556C42.7739 258.376 54.0364 264.305 67.1703 268.5C69.2534 269.122 70.3899 269.526 75.2194 270.675C77.9221 271.322 80.6342 271.897 83.3557 272.447C110.729 278.019 122.698 276.682 141.241 278.193C158.634 279.6 186.39 285.707 207.405 284.756C212.995 284.565 218.546 283.751 223.955 282.329C225.291 281.919 226.648 281.571 227.956 281.086C242.429 275.769 255.158 265.775 268.796 256.346C273.626 253.09 272.558 253.804 277.49 250.681C278.667 249.954 279.869 249.267 281.058 248.559C275.815 251.489 275.002 251.912 268.603 256.042C252.929 266.393 243.248 273.82 229.526 279.336Z" fill="#0F1014" fill-opacity="0.12"/>
<path d="M213.387 278.957C185.926 281.906 152.799 269.877 124.152 267.829C111.781 267.033 105.538 268.183 72.937 262.614C53.5818 259.323 43.8201 256.545 26.5418 242.328C43.6987 257.244 53.8589 260.113 72.772 263.581C105.317 269.557 112.124 268.45 124.059 269.296C151.547 271.365 181.763 282.242 209.214 280.638C213.782 280.368 216.146 279.961 217.843 279.628C235.214 275.968 254.171 260.812 270.441 250.632C276.157 247.111 279.698 245.1 285.471 242.328C282.855 243.497 280.255 244.712 277.724 246.057C256.724 256.971 234.255 277.096 213.387 278.957Z" fill="#0F1014" fill-opacity="0.12"/>
<path d="M219.415 273.382C192.275 280.865 153.403 265.89 123.713 260.896C107.895 258.248 111.816 261.241 88.3627 257.701C67.3291 254.404 73.1052 255.309 62.0482 253.587C46.7253 251.144 39.3643 250.535 22.441 235.889C28.8647 241.753 36.1042 247.54 44.5488 250.56C50.8791 252.826 56.7174 253.578 70.6671 255.921C87.8146 258.82 94.0359 259.979 101.428 260.657C106.12 261.114 110.324 260.918 114.755 261.197C116.991 261.334 119.251 261.614 123.474 262.347C142.415 265.641 164.23 272.602 184.242 275.399C214.196 279.75 225.032 274.308 243.674 262.698C262.961 250.653 274.077 242.105 289.565 235.877C278.044 240.212 268.6 245.98 258.225 252.493C239.399 264.386 229.445 270.635 219.415 273.382Z" fill="#0F1014" fill-opacity="0.12"/>
<path d="M221.078 267.956C217.585 269.345 213.936 270.307 210.211 270.821C204.959 271.428 199.657 271.47 194.396 270.949C172.425 268.923 146.68 259.82 123.433 254.106C95.2721 247.235 102.624 252.285 73.6532 247.269C65.4484 245.818 55.257 244.895 46.4512 243.633C43.543 243.201 39.1401 242.679 33.4232 239.867C27.9772 237.173 23.1696 233.341 18.6733 229.245C23.1976 233.596 27.7032 237.343 33.2395 240.233C36.6456 242.011 40.3023 243.262 44.0848 243.944C54.7681 245.746 60.2048 246.141 68.97 247.539C75.783 248.639 84.6199 250.74 96.2 251.206C99.2253 251.256 102.245 251.477 105.245 251.868C128.845 254.976 166.335 270.01 194.256 272.409C202.283 273.074 208.94 272.565 212.671 271.788C232.683 267.913 257.584 246.184 278.664 235.572C286.336 231.681 289.388 230.696 293.327 229.245C289.855 230.426 288.186 230.873 282.643 233.304C260.358 243.298 239.932 260.768 221.078 267.956Z" fill="#0F1014" fill-opacity="0.12"/>
<path d="M210.413 265.697C187.25 269.737 150.289 254.395 123.383 245.98C95.188 237.229 91.9061 239.705 77.2091 237.959C76.4213 237.878 74.8208 237.648 72.6038 237.272L67.9799 236.449C51.2433 233.58 48.1981 234.662 39.9061 234.273C39.2615 234.239 38.0752 234.193 36.4249 233.963C32.5576 233.322 31.393 232.847 28.6124 231.741C27.1897 231.105 25.8095 230.378 24.4805 229.565C21.0864 227.521 17.9633 224.904 15.2263 222.418C21.9739 228.835 28.2824 233.406 37.524 234.612C38.3056 234.724 39.0809 234.771 39.8718 234.83C48.2167 235.38 51.4488 234.388 67.8055 237.39C75.4436 238.841 76.6548 239.177 86.4508 239.876C93.2294 240.349 96.4428 240.638 101.5 241.607C134.817 248.711 176.716 269.824 205.917 267.599C207.896 267.462 209.866 267.207 211.814 266.834C213.402 266.49 213.683 266.434 214.134 266.309C237.257 260.56 264.409 234.494 290.132 224.736C293.317 223.521 291.876 224.025 296.774 222.424L294.525 223.099C264.048 232.232 236.335 261.347 210.413 265.697Z" fill="#0F1014" fill-opacity="0.12"/>
<path d="M288.454 219.233C287.912 219.448 284.571 220.924 284.044 221.175C278.974 223.599 274.04 226.297 269.263 229.255C255.762 237.701 245.477 245.209 232.608 252.161C214.66 261.897 204.964 262.394 186.783 258.665C158.102 252.711 133.35 238.537 105.345 229.846C86.6376 224.103 81.1013 225.653 67.3197 223.923C60.9801 223.024 54.5159 222.39 48.0704 222.748C34.7528 223.509 28.245 228.559 12.125 215.467C13.3425 216.508 14.588 217.518 15.8615 218.481C20.0931 221.589 23.0232 222.916 26.5293 223.975C31.2405 225.131 33.6349 224.954 38.5454 224.432C44.7729 223.745 50.2843 222.711 62.4218 224.233C64.0098 224.426 65.576 224.675 67.1796 224.895C77.3679 226.287 84.4735 225.827 95.708 228.565C126.584 236.023 161.521 257.64 196.012 261.739C208.087 263.131 217.354 262.012 233.169 253.202C252.328 242.577 264.957 231.315 284.194 221.505C284.68 221.262 287.971 219.733 288.553 219.491C292.944 217.682 291.244 218.335 295.27 216.89C296.067 216.604 295.335 216.834 299.866 215.473C295.27 216.716 296.051 216.508 295.235 216.778C291.3 218.09 292.716 217.571 288.454 219.233Z" fill="#0F1014" fill-opacity="0.12"/>
<path d="M205.886 253.907C205.44 253.926 205.182 253.907 203.463 253.873C187.711 252.776 173.428 247.164 159.114 240.784C142.897 233.596 123.031 223.41 105.199 216.598C86.7154 209.451 78.1401 210.507 71.3894 210.112C68.0141 209.907 58.8503 208.77 51.6793 209.227C51.2682 209.227 50.8541 209.27 50.4338 209.308C48.3713 209.453 46.3203 209.73 44.2934 210.137C38.6263 211.228 33.2271 213.866 27.6347 214.389C20.856 215.01 15.1952 211.94 9.36621 208.369C13.5511 211.07 17.8232 213.652 22.7181 214.538C30.4496 215.939 36.1882 212.282 45.6323 210.635C49.2634 210.095 52.9363 209.887 56.6053 210.013C62.7892 210.19 68.394 210.945 71.3116 211.154C77.0067 211.548 79.7437 211.2 85.9463 212.356C95.8917 214.221 105.171 217.595 122.757 225.601C153.54 239.488 175.934 252.661 200.894 255.141C213.06 256.272 223.491 252.366 234.109 246.539C259.832 232.503 280.389 213.506 302.612 208.378C280.124 213.012 258.745 232.102 233.545 245.492C224.721 250.203 215.831 253.746 205.886 253.907Z" fill="#0F1014" fill-opacity="0.12"/>
<path d="M225.126 243.482C213.069 248.233 202.812 249.84 176.784 239.212C170.576 236.654 164.529 233.705 158.563 230.598C141.711 221.856 122.384 209.907 104.813 202.381C101.699 201.051 98.5509 199.808 95.325 198.714C84.212 195.075 74.3507 195.019 65.2086 194.531C61.8258 194.321 58.434 194.296 55.0484 194.456C41.4755 195.261 34.3107 201.936 26.4204 204.199C19.0719 206.411 12.0441 203.266 6.96863 201.119C12.1499 203.444 17.5555 205.939 24.0321 205.103C33.0278 203.86 40.3638 196.041 55.0951 195.33C58.4505 195.207 61.81 195.267 65.1588 195.51C74.086 196.082 83.9566 196.234 94.9109 199.951C114.761 206.859 137.601 221.433 157.846 231.977C163.844 235.085 169.937 238.043 176.218 240.613C188.212 245.483 201.981 250.16 214.614 248.006C222.133 246.518 228.046 243.926 234.788 240.237C259.922 226.502 279.408 206.156 305.025 201.11C281.983 205.094 263.301 221.84 242.946 234.149C237.749 237.313 231.453 240.986 225.126 243.482Z" fill="#0F1014" fill-opacity="0.12"/>
<path d="M185.151 234.146C175.607 230.141 166.422 225.054 157.653 219.634C151.737 216.014 145.939 212.226 140.107 208.447C134.275 204.668 128.406 200.951 122.434 197.387C111.535 190.886 96.8259 182.98 84.3521 180.395C80.7215 179.627 77.7634 179.481 73.8836 179.462C72.1399 179.462 70.4055 179.462 68.6805 179.438C64.3057 179.344 58.813 179.239 53.012 180.252C33.554 183.67 30.5742 196.93 15.1267 195.79C11.6704 195.541 8.27644 194.652 4.9447 193.745C10.0513 195.255 15.08 196.666 20.333 195.92C28.8678 194.761 33.8841 188.226 43.297 183.99C52.1931 179.969 61.9174 180.261 68.6556 180.457C78.4422 180.737 84.0937 179.481 103.474 188.67C109.701 191.653 115.745 195.047 121.674 198.614C127.602 202.182 133.463 205.905 139.279 209.687C145.096 213.469 150.912 217.269 156.838 220.911C162.763 224.553 168.816 228.012 175.053 231.132C182.685 234.861 192.453 239.128 200.748 240.815C201.9 241.045 203.529 241.353 204.653 241.474C213.96 242.717 220.39 240.386 222.924 239.594C223.258 239.485 224.951 238.873 225.397 238.683C228.641 237.372 231.796 235.852 234.844 234.134C262.868 218.515 283.269 197.62 307.055 193.736C283.014 197.12 262.136 217.937 234.271 233.102C216.768 242.646 205.764 242.872 185.151 234.146Z" fill="#0F1014" fill-opacity="0.12"/>
<path d="M193.493 229.584C186.915 226.859 180.544 223.662 174.43 220.016C168.299 216.38 162.38 212.39 156.564 208.251C138.927 195.715 113.45 174.854 93.3883 167.678C91.2588 166.909 89.0832 166.274 86.8743 165.777C86.4321 165.68 85.9962 165.565 85.5509 165.488C84.6604 165.32 83.7761 165.133 82.8824 165.009C75.8982 163.893 68.3722 163.924 61.3289 164.521C57.7232 164.817 54.163 165.522 50.7171 166.622C32.4642 172.433 29.2757 186.899 13.9341 187.328C10.3658 187.436 6.80671 186.855 3.2757 186.321C11.1535 187.688 17.2877 188.76 24.275 184.81C30.4496 181.336 34.4819 176.047 41.3478 171.88C47.3512 168.256 53.5912 166.09 61.4098 165.5C68.4003 164.975 75.8328 165.021 82.6862 166.187C83.5643 166.32 84.43 166.513 85.2987 166.684C86.6345 166.929 89.2906 167.688 89.8012 167.831C110.953 174.608 134.328 194.282 155.661 209.5C161.505 213.646 167.468 217.651 173.655 221.309C174.421 221.778 175.212 222.213 175.99 222.654L178.338 223.978C179.126 224.41 179.926 224.82 180.72 225.24C181.514 225.659 182.305 226.091 183.115 226.483L185.543 227.661L186.758 228.251C211.979 239.858 222.706 237.574 252.77 216.812C274.47 201.809 290.306 188.714 308.709 186.327C290.026 188.338 273.483 201.629 252.216 216.007C225.126 234.311 213.96 237.897 193.493 229.584Z" fill="#0F1014" fill-opacity="0.12"/>
<path d="M252.069 209.798C249.038 211.901 245.972 213.944 242.871 215.926C223.432 228.356 211.83 231.293 191.805 221.209C185.281 217.828 179.003 213.993 173.017 209.733C172.266 209.204 171.51 208.682 170.762 208.142L168.539 206.51L167.428 205.696L166.328 204.86L164.13 203.191C161.224 200.935 158.342 198.643 155.483 196.314C131.566 176.88 104.346 151.649 81.285 149.179C75.4965 148.557 66.9274 148.998 61.8084 149.704C60.8742 149.81 59.9681 150.015 59.0496 150.176C51.6979 151.639 44.833 154.924 39.0872 159.729C30.2627 166.727 26.165 177.277 13.0187 178.906C9.3631 179.366 5.65149 179.117 1.97723 178.816C7.6225 179.397 13.1401 179.826 18.4802 177.939C28.3353 174.484 33.006 164.281 42.8766 157.864C44.8944 156.565 44.1844 156.997 46.389 155.723C52.6445 152.383 58.1746 150.997 64.673 150.406C69.7734 149.999 76.0757 149.785 81.1511 150.369C103.383 152.855 130.598 178.048 154.502 197.504C157.369 199.841 160.266 202.138 163.193 204.394L165.404 206.069L166.509 206.908L167.63 207.725L169.872 209.363C170.622 209.904 171.388 210.429 172.142 210.963C182.729 218.362 191.07 222.726 196.221 224.839C197.491 225.389 200.197 226.392 201.486 226.753C203.276 227.315 205.1 227.762 206.948 228.089C208.798 228.425 210.672 228.612 212.552 228.649C214.438 228.685 216.322 228.557 218.185 228.266C218.549 228.22 220.601 227.825 220.953 227.729C221.863 227.499 222.778 227.284 223.665 226.986C226.885 226.035 231.017 224.189 233.941 222.583C261.407 207.315 284.895 181.839 308.643 178.974L310.02 178.809L308.64 178.946C290.244 180.776 271.832 196.106 252.069 209.798Z" fill="#0F1014" fill-opacity="0.12"/>
<path d="M242.102 210.072C238.929 212.13 235.653 214.025 232.287 215.75C228.906 217.425 225.403 218.873 221.763 219.765C220.847 219.957 219.941 220.203 219.013 220.321C218.097 220.49 217.17 220.601 216.239 220.653C215.776 220.708 215.31 220.731 214.844 220.722C213.911 220.764 212.977 220.736 212.048 220.638C211.584 220.616 211.121 220.57 210.662 220.498C208.815 220.228 206.989 219.828 205.198 219.302C198.73 217.363 194.841 215.181 192.223 213.795C184.56 209.451 178.36 204.945 171.257 199.196C165.341 194.432 159.674 189.376 154.097 184.205C138.697 169.854 118.087 149.558 101.232 140.602C97.4375 138.508 93.4396 136.803 89.2999 135.515C87.4428 134.984 85.5542 134.569 83.6453 134.272C79.3015 133.542 73.8556 133.321 67.8242 133.943C67.2388 133.993 66.8651 134.049 64.9657 134.303C62.1154 134.736 59.2973 135.359 56.5305 136.168C52.7099 137.355 51.4862 137.977 48.5748 139.53C48.2635 139.701 46.6069 140.721 46.1305 141.084C44.3837 142.305 45.1248 141.777 43.8076 142.793C38.4084 147.01 33.8436 152.986 30.3219 157.592C21.6033 168.984 15.463 171.824 1.05243 171.24C9.52812 171.756 16.2165 171.349 22.8488 166.221C30.9104 159.978 35.0393 149.751 46.6007 141.808C47.0584 141.476 48.69 140.494 49.0014 140.326C51.8723 138.822 53.0493 138.25 56.7858 137.091C58.8367 136.516 60.9151 136.044 63.0134 135.677C72.1617 134.238 79.9741 134.285 88.9231 136.752C110.52 143.881 129.141 163.25 153.039 185.345C158.644 190.516 164.345 195.6 170.289 200.386C173.25 202.8 176.308 205.097 179.4 207.347C182.492 209.597 185.687 211.697 189.003 213.649C192.314 215.607 195.765 217.32 199.328 218.773C202.914 220.236 206.661 221.27 210.491 221.853C210.974 221.925 211.46 221.971 211.948 221.99C212.92 222.085 213.897 222.108 214.872 222.058C215.359 222.064 215.846 222.038 216.329 221.98C217.3 221.921 218.266 221.801 219.222 221.62C220.187 221.492 221.121 221.231 222.068 221.023C231.478 218.621 241.766 211.974 252.119 204.466C274.473 188.248 291.113 172.729 310.969 171.237C290.96 172.328 273.726 187.918 251.559 203.671C248.442 205.877 245.306 208.021 242.102 210.072Z" fill="#0F1014" fill-opacity="0.12"/>
<path d="M279.013 176.463C275.749 178.663 272.555 180.957 269.4 183.3C263.095 187.999 256.945 192.878 250.596 197.492C244.543 201.889 237.319 206.815 230.743 209.923C223.581 213.297 216.018 215.09 208.286 213.425C206.874 213.116 205.485 212.709 204.13 212.207C197.995 210.031 192.724 207.06 187.409 203.39C184.201 201.178 181.119 198.769 178.12 196.262C176.616 195.019 175.143 193.726 173.674 192.433L171.494 190.463C170.772 189.804 170.04 189.155 169.333 188.477C163.607 183.135 158.124 177.542 152.687 171.877C141.82 160.565 131.165 148.949 119.208 138.657C113.248 133.517 106.992 128.619 100.042 124.769C96.5608 122.838 92.8863 121.275 89.0788 120.108C79.2424 117.196 65.71 117.656 54.0302 122.497C52.1988 123.271 50.4238 124.171 48.7181 125.192C43.596 128.162 39.4951 132.842 36.1603 137.672C30.3033 146.102 28.2326 151.413 22.3289 156.55C16.1387 161.904 8.74661 163.648 0.492004 163.604C8.79644 163.812 16.2072 162.221 22.5998 156.864C28.3914 152.103 31.4989 145.484 36.7892 138.11C43.5773 128.417 49.2443 125.922 51.754 124.598C52.0654 124.433 54.08 123.523 54.4132 123.405C65.9342 118.743 79.2237 118.454 88.7083 121.357C99.6937 124.707 109.452 132.097 118.246 139.757C130.078 150.012 140.702 161.59 151.563 172.936C157.009 178.601 162.53 184.21 168.296 189.574C169.009 190.255 169.747 190.907 170.476 191.569L172.656 193.549C174.135 194.848 175.62 196.14 177.139 197.399C180.169 199.925 183.286 202.371 186.555 204.587C189.812 206.847 193.232 208.864 196.787 210.619C199.013 211.724 201.307 212.685 203.656 213.496C205.069 214.009 206.515 214.424 207.984 214.739C220.088 217.284 231.21 211.806 241.495 205.05C244.786 202.875 247.996 200.6 251.148 198.26C257.465 193.57 263.587 188.645 269.83 183.884C274.619 180.214 279.203 176.883 284.203 173.654C286.04 172.523 284.515 173.405 287.968 171.358C291.546 169.347 295.061 167.47 299.953 165.82C300.395 165.655 302.444 165.049 302.755 164.965C303.749 164.732 304.891 164.39 307.068 164.033C307.258 164.008 309.07 163.766 309.247 163.747L311.452 163.592C303.425 163.822 296.086 166.438 289.033 170.267C285.587 172.157 282.242 174.225 279.013 176.463Z" fill="#0F1014" fill-opacity="0.12"/>
<path d="M46.9059 113.488C47.6875 112.867 48.5251 112.311 49.3471 111.739C51.2154 110.601 51.178 110.536 54.6094 108.849C56.4372 108.026 58.3167 107.322 60.236 106.742C62.1586 106.172 64.1146 105.722 66.093 105.393C68.0721 105.071 70.0683 104.864 72.0714 104.772C74.5769 104.662 77.0871 104.736 79.5818 104.992C86.0742 105.623 92.38 107.517 98.143 110.567C105.068 114.334 111.654 119.682 117.352 125.073C128.798 135.9 140.49 149.934 150.012 160.956C155.324 167.078 160.658 173.194 166.269 179.077C171.88 184.959 177.79 190.593 184.173 195.646C194.343 203.766 200.265 205.976 202.408 206.877C202.884 207.076 203.376 207.231 203.862 207.408C206.305 208.283 208.844 208.864 211.425 209.139C212.462 209.186 213.502 209.301 214.539 209.251C214.797 209.251 215.059 209.251 215.317 209.233C216.095 209.198 216.87 209.123 217.64 209.009C225.615 207.937 233.246 203.589 239.975 199.189C243.379 196.955 246.67 194.562 249.899 192.101C253.128 189.639 256.295 187.104 259.458 184.571C262.622 182.038 265.779 179.487 268.924 176.936C281.463 166.786 295.55 156.221 311.701 155.984C295.469 155.91 281.205 166.32 268.448 176.342L263.687 180.127L258.916 183.887C255.728 186.395 252.543 188.897 249.307 191.324C246.072 193.751 242.768 196.097 239.384 198.281C232.222 202.868 224.375 207.219 215.996 207.868C213.614 208.03 213.063 207.887 211.556 207.812C211.064 207.753 210.575 207.673 210.086 207.604C209.594 207.548 209.106 207.457 208.626 207.334C207.65 207.144 206.687 206.894 205.743 206.585C205.163 206.433 203.252 205.724 202.94 205.594C200.157 204.464 197.477 203.098 194.928 201.51C191.514 199.378 188.237 197.033 185.117 194.49C178.837 189.413 172.915 183.91 167.393 178.02C161.826 172.165 156.514 166.053 151.202 159.928C141.86 149.11 129.496 134.387 118.373 123.989C112.407 118.451 106.012 113.289 98.7907 109.386C91.52 105.508 83.2872 103.609 75.0918 103.56C74.0642 103.535 73.0398 103.594 72.0154 103.625C69.9675 103.736 67.9278 103.964 65.9061 104.309C63.8853 104.666 61.8878 105.144 59.9246 105.741C56.2036 106.984 56.3033 107.031 54.1859 107.951C50.7389 109.678 50.7358 109.765 48.8209 110.959C45.7289 113.134 45.5888 113.361 43.9883 114.759C41.3603 117.332 40.3919 118.423 38.0721 121.792C33.47 128.712 30.7049 136.444 26.2398 143.016C20.0122 152.078 11.2657 155.832 0.305176 156.012C32.4362 156.084 29.0609 126.546 46.9059 113.488Z" fill="#0F1014" fill-opacity="0.12"/>
<path d="M10.0637 146.692C12.1219 145.99 11.7327 146.13 12.1842 145.94C14.7936 144.84 13.4484 145.406 14.915 144.697C15.8242 144.275 16.6618 143.718 17.5275 143.215C17.9447 142.938 18.3526 142.646 18.773 142.364C19.192 142.087 19.5944 141.786 19.978 141.462C20.7767 140.856 21.5388 140.204 22.2604 139.508C22.6714 139.153 24.1006 137.677 24.3684 137.367C26.3707 135.121 28.1439 132.682 29.6618 130.086C33.6443 123.342 37.549 115.67 42.5373 110.085C43.8382 108.606 45.2452 107.222 46.7471 105.946C47.8838 105.005 49.0753 104.133 50.3155 103.332C50.7296 103.071 51.1624 102.835 51.5859 102.584C65.0748 94.8861 82.9572 94.044 97.0065 101.254C100.544 103.023 103.937 105.067 107.154 107.366C110.381 109.662 113.485 112.125 116.455 114.743C119.438 117.357 122.328 120.085 125.155 122.879C141.157 138.709 151.554 152.317 165.877 166.634C171.528 172.286 177.454 177.7 183.84 182.551C184.622 183.172 185.444 183.753 186.263 184.334L188.71 186.084C212.179 202.243 225.31 198.449 249.258 181.671C255.796 177.1 262.149 172.258 268.619 167.609C271.845 165.276 275.114 162.998 278.455 160.832C280.116 159.746 281.806 158.694 283.525 157.675C285.243 156.655 286.979 155.683 288.731 154.757C292.244 152.884 295.925 151.345 299.726 150.157C303.534 148.958 307.505 148.354 311.499 148.367C299.302 148.134 287.351 153.554 268.177 166.991C253.231 177.476 240.007 188.123 228.053 192.585C226.95 193.008 225.562 193.464 225.25 193.561C223.384 194.164 221.472 194.617 219.533 194.916C219.048 194.975 218.562 195.012 218.079 195.062C217.596 195.122 217.109 195.15 216.622 195.146C215.647 195.19 214.67 195.17 213.698 195.083C213.075 195.083 211.104 194.804 210.793 194.739C209.828 194.582 208.872 194.374 207.928 194.117C205.157 193.474 200.097 191.572 194.489 188.144C192.795 187.128 191.145 186.034 189.507 184.903L187.138 183.16C186.331 182.582 185.522 182.01 184.753 181.385C178.481 176.512 172.541 171.226 166.973 165.565C153.251 151.82 142.299 137.665 126.22 121.816C123.371 119.02 120.463 116.263 117.43 113.64C114.407 111.001 111.248 108.521 107.967 106.21C104.681 103.887 101.218 101.822 97.6106 100.035C94.8995 98.6702 92.0593 97.5772 89.1318 96.7724C75.9512 93.236 61.8738 95.4579 51.0846 101.745C49.6554 102.615 50.5615 101.987 47.921 103.827C43.7236 107.18 40.9493 109.936 36.562 116.81C34.4633 120.057 31.4024 125.856 29.1512 129.8C27.012 133.395 26.218 134.421 24.0228 137.071C23.7612 137.382 22.3631 138.871 21.9708 139.219C21.0847 140.085 20.149 140.9 19.1684 141.658C16.8954 143.386 14.4036 144.807 11.7576 145.884L9.65272 146.64C7.16171 147.361 7.635 147.233 7.1368 147.342C4.95548 147.868 2.73382 148.211 0.495117 148.367C2.86532 148.246 5.22069 147.921 7.53536 147.398C9.99836 146.742 9.70877 146.814 10.0637 146.692Z" fill="#0F1014" fill-opacity="0.12"/>
<path d="M73.5753 88.5128C86.5255 87.2232 95.9945 90.6881 106.513 97.4222C108.14 98.485 109.742 99.5902 111.317 100.738C112.874 101.897 114.431 103.081 115.941 104.315C118.971 106.77 121.91 109.343 124.791 111.987C126.229 113.308 127.649 114.654 129.069 115.993C145.211 131.745 153.356 141.432 166.073 153.797C171.673 159.324 177.561 164.553 183.713 169.462C189.99 174.372 196.65 178.766 204.052 181.535C204.509 181.727 204.986 181.861 205.459 182.026C207.069 182.545 206.001 182.246 208.321 182.88C208.799 183.024 209.284 183.141 209.775 183.232C210.747 183.472 211.734 183.645 212.73 183.75C214.243 183.921 212.801 183.85 215.732 183.974C216.233 183.993 216.735 183.986 217.235 183.952C217.737 183.928 218.238 183.931 218.736 183.881C220.23 183.753 221.714 183.532 223.18 183.219C227.035 182.287 230.942 181.208 238.35 177.284C247.894 172.2 259.524 164.008 268.155 158.327C271.421 156.152 274.719 154.048 278.082 152.044C288.223 145.981 299.215 140.465 310.954 140.763C297.443 140.142 284.175 147.143 267.741 157.694C253.729 166.705 239.34 177.079 227.131 180.913C226.197 181.177 225.281 181.488 224.329 181.687C223.16 181.984 221.976 182.219 220.782 182.389C220.614 182.414 218.799 182.601 218.63 182.619C218.151 182.663 217.671 182.654 217.192 182.675C216.713 182.7 216.233 182.7 215.753 182.675C214.797 182.654 213.842 182.576 212.895 182.442C211.338 182.206 212.608 182.479 209.354 181.777L207.262 181.196C206.951 181.103 204.868 180.407 204.519 180.264C197.276 177.514 190.743 173.147 184.619 168.309C178.526 163.413 172.69 158.207 167.135 152.712C154.823 140.695 146.366 130.714 130.112 114.902C128.68 113.557 127.251 112.208 125.803 110.881C122.901 108.23 119.939 105.632 116.863 103.168C115.331 101.925 113.749 100.741 112.167 99.5726C99.7839 90.6073 88.5027 85.6911 73.4508 87.3226C37.0726 91.4992 36.2132 117.892 22.1296 131.431C16.4438 136.944 8.90537 139.716 1.0462 140.754C8.98944 139.859 16.5497 137.243 22.4129 131.724C36.9854 118.137 37.77 92.2947 73.5753 88.5128Z" fill="#0F1014" fill-opacity="0.12"/>
<path d="M48.0081 92.5773C48.7336 91.9558 49.4373 91.3343 50.1878 90.7469C50.5645 90.4548 50.9288 90.1503 51.3149 89.8706C53.3109 88.438 52.6726 88.8886 53.6565 88.2453C56.0388 86.6807 58.5765 85.3654 61.2292 84.3205C67.0008 82.0532 73.0968 80.7158 79.2891 80.3583C80.2232 80.3273 81.1854 80.2775 82.1351 80.3024C84.981 80.3161 87.8192 80.6012 90.6107 81.1539C91.5449 81.3341 91.0622 81.2253 93.3696 81.8033C106.005 85.6878 115.322 92.972 124.9 100.965C125.638 101.586 126.351 102.208 127.079 102.829C127.808 103.451 128.524 104.072 129.237 104.725C130.654 106.014 132.096 107.279 133.487 108.597C149.371 123.37 167.007 143.063 183.809 156.077C189.903 160.81 196.439 165.089 203.606 168.135C212.387 171.836 218.736 172.134 226.524 170.22C239.144 167.056 253.99 157.168 267.52 149.057C280.66 141.177 295.217 132.37 310.023 133.184C298.446 132.314 287.367 137.261 277.197 142.752C252.617 156.115 232.191 172.038 215.015 169.95C204.478 168.741 193.054 161.457 184.715 154.921C167.116 141.055 151.563 123.268 134.515 107.491C133.114 106.17 131.663 104.902 130.24 103.606C129.52 102.963 128.786 102.338 128.06 101.704C127.335 101.07 126.615 100.43 125.88 99.821C124.398 98.578 122.929 97.335 121.418 96.1386C119.908 94.9422 118.379 93.7582 116.826 92.6084C113.715 90.3024 110.472 88.1794 107.114 86.2503C103.74 84.3128 100.196 82.685 96.5269 81.3869C85.0371 77.316 72.0745 78.8667 60.8493 83.323C58.5961 84.242 56.4226 85.3447 54.3509 86.6201C53.9336 86.8718 53.5382 87.1515 53.1303 87.4156C51.1096 88.7604 49.1934 90.2552 47.3978 91.8874C35.1046 103.246 32.1621 114.765 22.5499 123.554C16.7988 128.836 9.59974 131.705 1.99902 133.187C30.4184 128.249 30.2191 108.709 48.0081 92.5773Z" fill="#0F1014" fill-opacity="0.12"/>
<path d="M47.2982 88.4539C48.6246 87.1507 50.0228 85.9223 51.4862 84.7745C52.2304 84.2152 52.9591 83.6403 53.7313 83.1213C59.8749 78.8912 66.8332 75.9831 74.1638 74.5817C86.8805 72.0956 97.732 73.1864 109.203 79.3736C113.158 81.5178 112.205 80.9802 114.076 82.1144C120.375 85.9368 126.13 89.902 134.384 96.9904C140.058 101.866 145.482 107.034 150.856 112.264C169.227 130.095 186.353 147.868 205.895 155.842C206.771 156.219 207.666 156.552 208.576 156.839C209.024 157.006 209.482 157.147 209.946 157.262C210.866 157.543 211.802 157.77 212.749 157.942C229.631 161.429 246.427 150.826 266.667 139.713C282.709 130.854 295.671 124.694 308.74 125.67C304.988 125.333 301.208 125.523 297.509 126.233C270.839 131.388 240.153 159.832 217.108 157.252C213.06 156.852 209.946 156.261 203.862 153.489C186.328 145.475 170.143 128.88 151.952 111.155C146.565 105.922 141.104 100.741 135.384 95.8437C129.664 90.9462 123.682 86.3097 117.262 82.3226C112.591 79.5258 114.086 80.3525 108.624 77.4438C106.073 76.1629 103.424 75.0864 100.703 74.2243C91.8065 71.3592 83.0661 71.5332 73.9241 73.4133C66.5071 74.9515 59.3423 77.913 53.1677 82.3196C52.3861 82.8572 51.645 83.4507 50.8946 84.0256C47.0367 87.2451 44.1066 89.93 37.6735 98.7027C35.4628 101.736 33.3143 104.8 30.9789 107.715C29.6805 109.38 28.0333 111.273 27.3389 111.975C26.0617 113.337 24.7004 114.618 23.263 115.81C17.5305 120.623 10.565 123.871 3.27881 125.658C29.2228 119.576 32.6479 103.308 47.2982 88.4539Z" fill="#0F1014" fill-opacity="0.12"/>
<path d="M85.8872 66.8721C89.4026 66.4619 93.1672 66.3065 96.6826 66.7446C115.605 69.0318 137.498 87.5219 151.709 100.403C169.212 116.251 185.453 132.641 203.217 141.361C205.707 142.583 208.268 143.655 210.886 144.571C212.762 145.212 214.691 145.688 216.65 145.994C218.699 146.239 218.749 146.252 219.082 146.267C220.938 146.411 222.803 146.411 224.659 146.267C225.076 146.252 227.084 146.028 227.427 145.957C230.171 145.552 232.878 144.929 235.523 144.092C253.729 138.383 277.394 122.044 296.129 118.666C299.728 118.001 303.403 117.842 307.046 118.194C303.401 117.764 299.714 117.846 296.092 118.436C280.582 120.959 262.083 132.007 245.418 139.21C236.955 142.899 232.284 144.027 227.262 144.804C226.929 144.857 224.967 145.055 224.568 145.065C222.099 145.228 219.62 145.124 217.173 144.754C216.064 144.584 214.964 144.356 213.879 144.07C212.297 143.635 213.648 144.07 210.665 143.082C209.781 142.737 206.751 141.597 203.815 140.111C191.31 133.896 179.294 123.467 168.91 114.067C163.501 109.157 158.177 104.144 152.752 99.2218C147.328 94.2995 141.783 89.4952 135.975 84.9985C127.88 78.7337 117.193 71.5987 107.64 68.0436C97.925 64.4202 90.4675 64.5041 80.2761 66.4121C78.4733 66.7571 76.6642 67.1238 74.8737 67.5899C67.6826 69.387 60.9066 72.5525 54.9176 76.9126C51.9645 79.119 49.2108 81.5792 46.6879 84.2651C36.3284 95.1012 30.6457 106.329 15.1298 114.16C11.8629 115.804 8.45663 117.156 4.95087 118.2C44.3276 107.339 37.9288 72.4066 85.8872 66.8721Z" fill="#0F1014" fill-opacity="0.12"/>
<path d="M34.457 94.9146C46.3392 83.9573 54.2575 70.3648 76.3466 63.5592C90.0628 59.4479 104.816 59.4665 117.589 65.2404C126.681 69.3797 133.534 74.156 137.022 76.5395C139.513 78.2549 143.769 81.5396 144.476 82.0803C145.862 83.1804 147.25 84.2805 148.627 85.3961C150.003 86.5117 151.37 87.6398 152.721 88.7896C158.155 93.3453 163.479 98.047 168.866 102.69L172.914 106.155L177.015 109.573C179.764 111.829 182.536 114.07 185.375 116.226C195.442 123.89 211.027 134.135 223.746 134.356C244.497 134.713 272.15 114.265 294.398 111.002C297.914 110.475 301.485 110.432 305.013 110.875C301.486 110.354 297.904 110.318 294.367 110.769C271.888 113.663 244.02 133.722 223.774 133.166C207.997 132.737 188.168 116.817 177.971 108.417L173.892 104.999L169.844 101.534C164.476 96.891 159.154 92.1768 153.705 87.5931C142.913 78.5253 131.199 69.7464 118.177 63.8917C105.028 58.0277 89.8012 58.0774 75.9761 62.4187C49.3315 70.9304 43.3686 88.8051 25.8848 101.263C20.0875 105.376 13.7119 108.61 6.96552 110.86C13.7893 108.769 20.2541 105.652 26.137 101.618C29.0669 99.584 31.8473 97.3439 34.457 94.9146Z" fill="#0F1014" fill-opacity="0.12"/>
<path d="M27.9274 94.6034C46.6287 82.6237 53.8309 67.1822 77.8848 59.0652C82.7425 57.445 87.7489 56.3083 92.8309 55.6717C112.507 53.3783 123.162 59.0434 127.665 61.054C132.391 63.4096 139.97 67.0423 153.73 77.3999C164.7 85.6536 175.072 94.7339 186.135 102.991C191.665 107.111 197.366 111.052 203.42 114.43C224.858 126.384 232.801 123.818 262.79 112.254C265.997 111.011 269.211 109.768 272.443 108.631C278.561 106.487 282.824 105.06 289.154 103.864C293.548 103.183 295.214 103.112 298.776 103.208C300.064 103.285 301.348 103.43 302.621 103.643L301.348 103.432C290.381 101.605 277.06 106.157 262.513 111.546C246.944 117.341 234.034 122.503 222.968 120.782C211.263 118.985 196.501 108.973 187.026 101.825C167.574 87.2011 152.151 71.8156 130.641 60.8645C124.177 57.6575 121.3 56.7252 118.576 55.9452C105.996 52.387 91.1744 53.2354 77.508 57.9434C53.149 66.4332 46.0091 82.0892 27.7126 94.2584C24.8473 96.1571 21.8738 97.8878 18.8072 99.4419C15.7449 101.011 12.596 102.405 9.37555 103.618C12.6264 102.475 15.8105 101.152 18.913 99.6532C22.0128 98.1446 25.0226 96.4585 27.9274 94.6034Z" fill="#0F1014" fill-opacity="0.12"/>
<path d="M79.6129 54.92C81.1698 54.3979 82.7267 53.8292 84.3334 53.4004C85.1274 53.1766 85.9152 52.9249 86.7185 52.726C90.6512 51.7689 89.5676 52.0175 91.548 51.6166C92.3576 51.4613 93.164 51.2779 93.9799 51.1443C98.8934 50.4171 101.59 49.9416 108.764 49.9012C110.411 49.9603 112.065 49.9541 113.706 50.1188C115.652 50.271 115.801 50.2773 116.169 50.3301C120.979 50.9516 118.619 50.6408 121.048 51.0666C122.757 51.3773 123.016 51.4271 123.461 51.5545C125.052 51.974 126.656 52.3376 128.21 52.8814C143.115 57.4216 158.921 69.5193 170.691 78.1646C176.068 82.0863 181.405 86.0609 186.848 89.9081C189.57 91.8307 192.322 93.7149 195.106 95.5608C197.893 97.4036 200.711 99.1686 203.563 100.909C212.664 106.372 217.263 108.035 221.844 109.225C237.245 112.898 251.387 105.931 270.503 99.9269C279.878 97.0058 290.157 94.442 299.875 96.5086C290.148 94.1903 279.894 96.5614 270.335 99.3582C256.839 103.339 250.472 106.105 241.688 107.929C234.838 109.349 230.833 109.15 228.806 109.085C228.476 109.085 228.52 109.085 226.969 108.926C224.933 108.716 222.92 108.319 220.956 107.739C215.053 106.061 209.031 102.652 204.263 99.7529C201.461 98.0064 198.634 96.2289 195.878 94.3861C193.122 92.5433 190.395 90.657 187.692 88.7179C182.29 84.8521 176.946 80.8837 171.581 76.9464C158.696 67.4466 150.788 61.4086 138.037 55.1437C134.995 53.7107 131.862 52.4785 128.658 51.455C127.067 50.9019 125.42 50.5228 123.788 50.1063C123.378 49.9975 122.962 49.9093 122.542 49.8422C119.784 49.3264 119.429 49.2549 118.806 49.1927C115.16 48.7452 116.144 48.8571 115.048 48.7732C110.688 48.4624 112.656 48.6054 108.755 48.4873C105.395 48.4922 102.038 48.6997 98.7034 49.1088C88.428 50.2804 77.7073 53.7702 69.9882 57.8535C68.4781 58.5807 67.0457 59.457 65.5854 60.2743C64.8661 60.7032 64.1686 61.1693 63.4586 61.6137C48.7367 70.983 41.5751 81.9589 21.1705 92.3631C18.2124 93.8796 15.191 95.2697 12.1063 96.5334C15.2201 95.3422 18.2768 94.0225 21.2764 92.5744C48.4254 79.361 52.4016 64.9823 79.6129 54.92Z" fill="#0F1014" fill-opacity="0.12"/>
<path d="M64.3057 59.2677C72.3645 54.0469 81.2624 50.247 90.6108 48.0339C101.948 45.3831 116.978 43.9443 128.583 46.2501C130.14 46.592 131.697 46.853 133.226 47.3191C153.279 52.832 169.75 66.2163 187.197 77.9691C195.698 83.7181 209.211 92.786 220.841 96.9253C223.902 98.0129 227.109 98.8209 230.394 98.9887C243.662 99.6879 258.87 93.1589 277.689 89.666C284.144 88.5193 290.431 87.9506 296.789 89.523C290.378 87.7704 284.157 88.221 277.621 89.262C258.079 92.5156 243.444 98.7245 230.457 97.8917C224.229 97.5095 218.095 94.6909 212.534 91.863C209.685 90.418 206.888 88.858 204.127 87.2203C198.628 83.948 193.309 80.3588 188.013 76.7323C170.548 64.852 155.218 52.4684 135.954 46.477C130.262 44.9232 132.883 45.6286 128.848 44.7523C117.047 42.4434 101.758 43.963 90.2901 46.7442C80.8466 49.0924 71.8773 53.0414 63.7732 58.4194C49.6522 67.6457 43.434 75.3432 23.9169 85.3527C21.0605 86.8236 18.1647 88.2137 15.2295 89.523C18.1938 88.28 21.1249 86.9593 24.0228 85.5609C43.6271 76.0082 50.9694 67.7669 64.3057 59.2677Z" fill="#0F1014" fill-opacity="0.12"/>
<path d="M110.368 40.8804C130.386 39.3048 138.217 41.275 148.932 45.1098C162.284 49.9545 177.578 60.051 187.418 66.2412C203.837 76.5242 215.442 84.7406 228.831 87.1832C248.33 90.8749 274.121 77.0835 293.336 82.7518C274.258 76.5988 247.931 89.9178 229.033 86.1173C216.174 83.6157 204.746 75.5018 188.209 65.0044C171.242 54.1994 153.313 42.3378 133.612 39.5224C128.956 38.9506 124.262 38.7531 119.575 38.9319C96.7511 39.6249 82.0292 44.1868 66.2455 53.8265C53.5288 61.5954 45.9094 68.5502 26.959 78.5596C24.2251 80.0098 21.4622 81.4103 18.6702 82.7611C42.3909 72.0928 53.6783 62.4345 66.7562 54.6687C79.9959 46.763 92.8745 42.2259 110.368 40.8804Z" fill="#0F1014" fill-opacity="0.12"/>
<path d="M38.3461 67.8845C63.7856 54.0528 76.222 42.1849 102.515 37.7411L104.713 37.3837C117.321 35.4726 136.122 35.5192 140.266 35.917C141.729 36.0286 143.184 36.2205 144.625 36.4919C146.027 36.7187 145.127 36.5354 148.957 37.3744C163.551 41.3304 173.527 47.2347 187.353 54.8669C202.651 63.3972 217.397 72.3035 227.262 75.2246C241.196 79.2147 254.638 74.8952 271.913 74.1339C280.719 73.7268 285.738 74.7554 289.559 76.1041C279.648 72.3035 266.517 73.8138 254.028 75.0848C233.05 77.2912 227.838 75.6193 211.438 66.7751C191.783 56.2094 172.976 43.7325 155.844 37.7971C150.669 36.15 150.003 36.0319 146.017 35.1712C143.785 34.7617 141.533 34.4723 139.27 34.3041C130.358 34.0089 115.605 34.3787 106.731 35.7212C104.199 36.0817 105.837 35.8113 102.284 36.4111C76.44 40.7865 62.0077 53.9409 38.1406 67.5272C35.552 69.0043 32.9468 70.4545 30.3251 71.8778C27.7033 73.301 25.0752 74.7098 22.441 76.1041C25.1251 74.7865 27.7904 73.4502 30.4371 72.0953C33.0839 70.7404 35.7202 69.3368 38.3461 67.8845Z" fill="#0F1014" fill-opacity="0.12"/>
<path d="M41.628 61.3153C68.0577 46.4176 77.0659 40.8986 91.52 36.2248C101.369 33.0613 108.443 31.7592 116.633 30.8643C123.756 30.1402 130.915 29.8372 138.074 29.9568C152.363 30.336 163.999 32.6542 187.072 43.9409C197.373 48.9814 207.362 54.7273 217.874 59.4788C222.074 61.3619 226.387 63.2078 229.961 64.2862C247.623 69.6219 267.837 61.9431 285.464 69.6592C269.491 62.1451 251.144 67.6703 234.399 64.3452C214.741 60.1624 184.304 36.5915 155.377 30.3111C144.52 27.9556 131.918 28.1078 120.789 29.0184C109.235 29.8664 97.8647 32.3861 87.0362 36.4983C74.1078 41.4393 65.1744 46.9242 41.4132 60.958L33.9806 65.3303C31.5041 66.7805 29.0193 68.2255 26.5262 69.6654C29.0546 68.3022 31.5778 66.9255 34.0958 65.5354L41.628 61.3153Z" fill="#0F1014" fill-opacity="0.12"/>
<path d="M154.901 24.8917C166.954 26.0912 175.396 28.6922 186.742 33.2821C208.134 41.9833 217.435 48.8976 232.378 53.4813C247.869 58.2017 265.932 55.4981 281.058 63.4535C273.654 59.2893 265.648 57.8164 257.154 56.6945C241.401 54.6062 235.448 55.0848 217.379 46.2282C212.397 43.8012 207.517 41.1909 202.51 38.7701C173.017 24.497 159.425 22.042 132.092 22.7909C131.619 22.7909 131.65 22.7909 127.917 23.0147C91.5013 25.4634 65.2273 41.455 30.9415 63.4348C62.6397 44.3544 87.6122 28.8569 121.839 25.0688C133.017 23.8413 145.858 23.9967 154.901 24.8917Z" fill="#0F1014" fill-opacity="0.12"/>
<path d="M77.1655 32.9586C80.2793 31.4763 82.1943 30.6403 84.4735 29.6304C84.8846 29.4595 89.2905 27.5701 91.9092 26.6347C103.847 22.2033 115.101 19.7576 126.92 18.4027C132.837 17.6631 140.957 17.4083 146.93 17.371C154.963 17.4674 161.776 17.66 170.843 19.2356C176.09 20.1657 181.25 21.5273 186.272 23.3065C226.465 37.5298 220.953 39.876 246.299 46.4423C251.503 47.7693 256.724 49.0061 261.809 50.6935C266.894 52.3809 271.842 54.5096 276.354 57.4245C273.588 55.5129 270.646 53.8698 267.566 52.5176C266.944 52.2504 266.343 51.9614 265.717 51.7159C264.471 51.228 263.226 50.7215 261.943 50.2926C256.871 48.4902 251.668 47.1353 246.496 45.6965C232.343 41.7872 230.304 40.4851 216.653 34.0183C206.941 29.3756 196.862 25.5626 186.761 21.8988C184.678 21.1343 181.016 19.9752 179.02 19.4811C166.331 15.9975 151.977 15.4412 138.852 16.0006C133.462 16.1895 128.085 16.6635 122.745 17.4207C110.704 19.0855 98.9331 22.318 87.7337 27.0356C85.0278 28.1698 82.0199 29.5682 80.3665 30.3296C63.521 38.4776 51.5205 45.9917 35.6465 57.4245C43.6738 51.9862 52.2273 46.3305 62.9169 40.3795C67.5907 37.7567 72.3329 35.2675 77.1655 32.9586Z" fill="#0F1014" fill-opacity="0.12"/>
<path d="M155.303 9.78601C171.693 10.1372 186.527 13.0427 201.075 18.0428C205.982 19.7364 210.802 21.6911 215.579 23.7514C220.355 25.8117 225.092 28.0057 229.843 30.1561C232.22 31.2314 234.607 32.2921 237.005 33.3383L244.191 36.4272C248.977 38.4875 253.713 40.6535 258.294 43.1271C260.59 44.3577 262.829 45.6815 265.013 47.0986C267.205 48.5084 269.324 50.0278 271.362 51.6512C267.365 48.2911 263.057 45.3173 258.496 42.7698C253.953 40.1874 249.248 37.9033 244.484 35.7342C242.115 34.6497 239.717 33.6086 237.344 32.5427C234.971 31.4769 232.605 30.3674 230.248 29.2705C225.527 27.0548 220.823 24.8049 216.055 22.6638C211.288 20.5227 206.462 18.4934 201.517 16.7594C186.882 11.6102 172.12 8.62999 155.324 8.23222C121.879 7.58896 93.5284 16.0851 65.8532 33.1549C56.9896 38.6742 48.5583 44.8563 40.6316 51.6481C75.5712 24.0373 111.302 8.83509 155.303 9.78601Z" fill="#0F1014" fill-opacity="0.12"/>
<path d="M186.281 4.0403C196.258 6.01026 206.021 8.93558 215.436 12.7757C224.859 16.6164 233.878 21.3765 242.364 26.9866C246.611 29.7772 250.717 32.7739 254.682 35.9768C258.647 39.1797 262.449 42.5597 266.087 46.1168C251.759 31.5138 234.638 19.9308 215.741 12.0547C177.709 -3.85914 134.238 -3.86226 96.2498 12.0392C77.3573 19.9323 60.2413 31.5239 45.9126 46.1292C60.9926 31.4273 78.19 20.2587 96.555 12.7757C124.965 1.17307 156.16 -1.86392 186.281 4.0403Z" fill="#0F1014" fill-opacity="0.12"/>
</g>
<defs>
<clipPath id="clip0_407_3414">
<rect width="312" height="312" fill="white"/>
</clipPath>
</defs>
</svg>
