<svg width="312" height="312" viewBox="0 0 312 312" fill="none" xmlns="http://www.w3.org/2000/svg">
<g clip-path="url(#clip0_407_3448)">
<path d="M275.331 201.37L160.661 234.068C160.554 234.099 160.461 234.168 160.4 234.262C160.34 234.356 160.315 234.469 160.33 234.58C160.346 234.691 160.4 234.792 160.485 234.866C160.569 234.94 160.677 234.981 160.789 234.982C160.832 234.982 160.875 234.975 160.916 234.963L275.585 202.256C275.687 202.209 275.768 202.128 275.814 202.026C275.861 201.925 275.869 201.811 275.838 201.703C275.808 201.596 275.739 201.504 275.646 201.443C275.553 201.382 275.441 201.356 275.331 201.37Z" fill="#0F1014" fill-opacity="0.12"/>
<path d="M284.221 187.753L174.543 223.583C174.483 223.6 174.426 223.63 174.378 223.669C174.329 223.708 174.289 223.757 174.259 223.813C174.23 223.868 174.212 223.929 174.206 223.991C174.201 224.054 174.208 224.116 174.228 224.176C174.247 224.236 174.278 224.291 174.319 224.338C174.361 224.385 174.411 224.424 174.467 224.451C174.524 224.478 174.585 224.494 174.648 224.497C174.71 224.5 174.773 224.49 174.832 224.469L284.51 188.629C284.571 188.612 284.627 188.583 284.676 188.543C284.724 188.504 284.765 188.455 284.794 188.4C284.823 188.344 284.841 188.284 284.847 188.221C284.852 188.159 284.845 188.096 284.826 188.036C284.806 187.977 284.775 187.922 284.734 187.875C284.692 187.827 284.642 187.789 284.586 187.762C284.529 187.734 284.468 187.718 284.405 187.715C284.343 187.712 284.28 187.722 284.221 187.744V187.753Z" fill="#0F1014" fill-opacity="0.12"/>
<path d="M291.966 174.068L188.008 212.148C187.907 212.187 187.822 212.26 187.769 212.354C187.716 212.449 187.697 212.559 187.716 212.665C187.736 212.772 187.791 212.869 187.874 212.939C187.957 213.009 188.061 213.048 188.17 213.049C188.224 213.051 188.278 213.041 188.328 213.021L292.286 174.957C292.347 174.94 292.405 174.91 292.455 174.87C292.505 174.83 292.546 174.78 292.575 174.723C292.605 174.666 292.623 174.604 292.627 174.54C292.632 174.476 292.623 174.412 292.601 174.351C292.58 174.291 292.546 174.236 292.503 174.189C292.459 174.142 292.406 174.105 292.347 174.079C292.288 174.054 292.225 174.041 292.161 174.041C292.097 174.041 292.034 174.055 291.975 174.08L291.966 174.068Z" fill="#0F1014" fill-opacity="0.12"/>
<path d="M298.488 160.446L200.926 199.878C200.827 199.92 200.746 199.995 200.695 200.09C200.645 200.185 200.628 200.294 200.649 200.399C200.669 200.505 200.725 200.6 200.807 200.669C200.889 200.739 200.993 200.777 201.1 200.78C201.16 200.779 201.219 200.767 201.274 200.745L298.852 161.31C298.909 161.287 298.96 161.253 299.004 161.21C299.047 161.167 299.082 161.116 299.106 161.06C299.13 161.003 299.142 160.943 299.143 160.881C299.143 160.82 299.131 160.76 299.108 160.703C299.085 160.646 299.051 160.594 299.008 160.551C298.965 160.507 298.914 160.473 298.858 160.449C298.801 160.425 298.741 160.413 298.679 160.412C298.618 160.412 298.557 160.423 298.501 160.446H298.488Z" fill="#0F1014" fill-opacity="0.12"/>
<path d="M303.718 147.044L213.136 186.921C213.038 186.964 212.959 187.039 212.91 187.134C212.862 187.229 212.847 187.338 212.869 187.442C212.891 187.546 212.948 187.64 213.03 187.707C213.113 187.775 213.216 187.812 213.322 187.813C213.387 187.813 213.45 187.799 213.509 187.772L304.094 147.899C304.208 147.849 304.297 147.756 304.341 147.641C304.386 147.526 304.383 147.397 304.334 147.284C304.284 147.17 304.191 147.081 304.076 147.037C303.96 146.992 303.832 146.995 303.718 147.044Z" fill="#0F1014" fill-opacity="0.12"/>
<path d="M307.6 134.005L224.506 173.403C224.451 173.429 224.402 173.466 224.361 173.511C224.32 173.557 224.288 173.61 224.267 173.668C224.247 173.725 224.238 173.787 224.241 173.848C224.244 173.909 224.259 173.969 224.286 174.024C224.312 174.079 224.349 174.129 224.395 174.17C224.44 174.211 224.493 174.243 224.551 174.263C224.609 174.284 224.67 174.293 224.731 174.289C224.792 174.286 224.852 174.271 224.907 174.245L308.001 134.844C308.056 134.818 308.106 134.781 308.147 134.736C308.189 134.69 308.22 134.637 308.241 134.579C308.261 134.521 308.27 134.46 308.267 134.399C308.264 134.338 308.248 134.278 308.221 134.222C308.167 134.112 308.071 134.027 307.955 133.986C307.839 133.946 307.711 133.952 307.6 134.005Z" fill="#0F1014" fill-opacity="0.12"/>
<path d="M310.089 121.472L234.932 159.49C234.823 159.545 234.739 159.641 234.7 159.758C234.661 159.874 234.67 160.001 234.724 160.111C234.751 160.166 234.789 160.214 234.835 160.254C234.881 160.294 234.934 160.324 234.992 160.344C235.05 160.363 235.111 160.37 235.171 160.365C235.232 160.361 235.291 160.344 235.346 160.316L310.518 122.301C310.572 122.274 310.621 122.235 310.661 122.189C310.701 122.142 310.731 122.088 310.75 122.03C310.769 121.972 310.777 121.91 310.772 121.849C310.767 121.788 310.75 121.728 310.723 121.674C310.695 121.619 310.657 121.57 310.61 121.53C310.564 121.49 310.51 121.46 310.451 121.441C310.393 121.422 310.332 121.415 310.27 121.419C310.209 121.424 310.15 121.441 310.095 121.469L310.089 121.472Z" fill="#0F1014" fill-opacity="0.12"/>
<path d="M311.789 109.775C311.731 109.668 311.634 109.587 311.517 109.551C311.401 109.515 311.275 109.526 311.167 109.582L244.255 145.319C244.164 145.369 244.092 145.447 244.05 145.542C244.008 145.637 243.999 145.743 244.024 145.843C244.05 145.944 244.108 146.033 244.19 146.097C244.271 146.161 244.372 146.195 244.476 146.196C244.553 146.197 244.629 146.177 244.696 146.14L311.599 110.403C311.653 110.374 311.7 110.335 311.739 110.288C311.778 110.241 311.807 110.186 311.824 110.128C311.842 110.07 311.848 110.009 311.842 109.948C311.836 109.887 311.818 109.829 311.789 109.775Z" fill="#0F1014" fill-opacity="0.12"/>
<path d="M252.235 131.686C252.276 131.758 252.335 131.818 252.407 131.86C252.478 131.902 252.56 131.925 252.642 131.925C252.722 131.926 252.8 131.905 252.869 131.866L311.251 99.2804C311.355 99.2197 311.432 99.1214 311.466 99.0057C311.499 98.89 311.487 98.7658 311.431 98.6589C311.372 98.5536 311.273 98.4758 311.157 98.4421C311.041 98.4085 310.917 98.4216 310.81 98.4786L252.416 131.052C252.308 131.113 252.229 131.214 252.195 131.332C252.162 131.451 252.176 131.578 252.235 131.686Z" fill="#0F1014" fill-opacity="0.12"/>
<path d="M259.137 117.482C259.199 117.585 259.298 117.66 259.414 117.692C259.529 117.724 259.653 117.71 259.759 117.653L309.458 89.0633C309.559 88.9989 309.631 88.8981 309.66 88.7817C309.689 88.6654 309.671 88.5424 309.612 88.4385C309.552 88.3345 309.455 88.2575 309.34 88.2234C309.225 88.1893 309.102 88.2007 308.995 88.2554L259.296 116.845C259.191 116.909 259.115 117.012 259.085 117.131C259.056 117.25 259.074 117.376 259.137 117.482Z" fill="#0F1014" fill-opacity="0.12"/>
<path d="M264.697 103.482C264.758 103.585 264.857 103.66 264.973 103.692C265.089 103.724 265.212 103.71 265.318 103.653L306.27 79.8303C306.372 79.7677 306.446 79.6684 306.477 79.5529C306.508 79.4374 306.494 79.3143 306.437 79.2088C306.407 79.1557 306.366 79.1091 306.317 79.0719C306.269 79.0347 306.213 79.0074 306.154 78.9918C306.095 78.9762 306.033 78.9725 305.972 78.981C305.912 78.9894 305.853 79.0098 305.8 79.041L264.864 102.861C264.761 102.922 264.686 103.021 264.655 103.137C264.623 103.253 264.638 103.377 264.697 103.482Z" fill="#0F1014" fill-opacity="0.12"/>
<path d="M269.249 90.0918C269.33 90.0921 269.409 90.0718 269.479 90.0327L301.714 71.7292C301.822 71.6682 301.9 71.567 301.933 71.4478C301.966 71.3286 301.951 71.2012 301.89 71.0937C301.829 70.9861 301.727 70.9072 301.608 70.8743C301.489 70.8413 301.362 70.8571 301.254 70.9181L269.019 89.2217C268.93 89.2728 268.861 89.3517 268.822 89.4463C268.782 89.5408 268.775 89.6457 268.801 89.7448C268.827 89.8438 268.885 89.9315 268.966 89.9942C269.047 90.0569 269.147 90.0912 269.249 90.0918Z" fill="#0F1014" fill-opacity="0.12"/>
<path d="M271.536 76.7289C271.575 76.8054 271.634 76.8698 271.707 76.9148C271.78 76.9598 271.864 76.9837 271.95 76.9837C272.024 76.9843 272.098 76.9661 272.164 76.9309L295.803 64.8269C295.861 64.801 295.913 64.7637 295.955 64.7172C295.998 64.6708 296.031 64.6161 296.052 64.5566C296.073 64.497 296.082 64.4338 296.077 64.3709C296.073 64.3079 296.056 64.2464 296.028 64.1901C295.999 64.1339 295.959 64.084 295.911 64.0436C295.862 64.0032 295.806 63.973 295.746 63.955C295.685 63.9369 295.622 63.9314 295.559 63.9386C295.496 63.9459 295.436 63.9658 295.381 63.9972L271.738 76.1012C271.684 76.1291 271.635 76.1675 271.596 76.2142C271.556 76.2608 271.526 76.3149 271.507 76.3732C271.489 76.4315 271.481 76.4929 271.486 76.5539C271.491 76.6149 271.508 76.6744 271.536 76.7289Z" fill="#0F1014" fill-opacity="0.12"/>
<path d="M272.733 64.2243C272.764 64.3152 272.824 64.394 272.902 64.4497C272.981 64.5054 273.075 64.5352 273.171 64.535C273.223 64.5346 273.274 64.5262 273.323 64.5102L288.594 59.2118C288.652 59.1913 288.705 59.1598 288.75 59.1188C288.796 59.0779 288.833 59.0283 288.859 58.9731C288.886 58.9178 288.901 58.8579 288.904 58.7968C288.907 58.7356 288.899 58.6744 288.878 58.6167C288.858 58.5589 288.826 58.5057 288.785 58.4602C288.744 58.4147 288.695 58.3776 288.639 58.3512C288.584 58.3248 288.524 58.3096 288.463 58.3063C288.402 58.3031 288.341 58.3119 288.283 58.3323L273.012 63.6152C272.953 63.6355 272.899 63.6677 272.852 63.7098C272.806 63.7518 272.768 63.8029 272.742 63.8598C272.716 63.9168 272.702 63.9784 272.7 64.0411C272.698 64.1037 272.71 64.166 272.733 64.2243Z" fill="#0F1014" fill-opacity="0.12"/>
<path d="M272.773 52.8719L279.983 54.9229C280.024 54.9343 280.067 54.9396 280.11 54.9384C280.222 54.9377 280.33 54.8967 280.414 54.8229C280.498 54.7491 280.553 54.6475 280.569 54.5367C280.584 54.4258 280.559 54.3131 280.498 54.2191C280.438 54.1251 280.345 54.0561 280.238 54.0248L273.028 51.9738C272.909 51.94 272.781 51.9549 272.673 52.0152C272.565 52.0755 272.485 52.1763 272.452 52.2954C272.418 52.4145 272.433 52.5421 272.493 52.6503C272.553 52.7584 272.654 52.8381 272.773 52.8719Z" fill="#0F1014" fill-opacity="0.12"/>
<path d="M270.669 52.0209H270.691C270.811 52.0211 270.926 51.975 271.013 51.8922C271.1 51.8094 271.152 51.6964 271.157 51.5766L271.608 41.7225C271.613 41.599 271.569 41.4785 271.486 41.3872C271.403 41.2959 271.287 41.241 271.163 41.2346C271.04 41.2311 270.921 41.2754 270.83 41.3583C270.739 41.4412 270.684 41.5561 270.676 41.6789L270.225 51.533C270.222 51.5943 270.231 51.6555 270.252 51.7132C270.273 51.7708 270.305 51.8239 270.346 51.8692C270.387 51.9145 270.437 51.9512 270.492 51.9773C270.548 52.0033 270.608 52.0181 270.669 52.0209Z" fill="#0F1014" fill-opacity="0.12"/>
<path d="M260.104 50.4791C260.161 50.5046 260.222 50.5184 260.285 50.5196C260.347 50.5209 260.409 50.5096 260.467 50.4864C260.525 50.4632 260.578 50.4286 260.622 50.3847C260.666 50.3407 260.701 50.2883 260.725 50.2305L268.351 32.2066C268.399 32.0925 268.4 31.9639 268.354 31.849C268.307 31.7342 268.217 31.6427 268.102 31.5944C267.988 31.5462 267.86 31.5453 267.745 31.5919C267.63 31.6386 267.539 31.7289 267.49 31.843L259.864 49.8669C259.816 49.98 259.814 50.1075 259.859 50.2219C259.904 50.3364 259.991 50.4288 260.104 50.4791Z" fill="#0F1014" fill-opacity="0.12"/>
<path d="M248.776 50.3864C248.884 50.4419 249.01 50.4532 249.126 50.4178C249.242 50.3824 249.339 50.3031 249.398 50.1969L263.64 23.7141C263.698 23.6049 263.711 23.477 263.675 23.3584C263.64 23.2398 263.558 23.1403 263.449 23.0818C263.34 23.0232 263.212 23.0105 263.093 23.0463C262.974 23.0822 262.875 23.1637 262.816 23.2729L248.578 49.7556C248.549 49.8099 248.531 49.8695 248.525 49.9309C248.519 49.9922 248.526 50.054 248.544 50.1128C248.563 50.1715 248.593 50.226 248.633 50.273C248.673 50.32 248.722 50.3585 248.776 50.3864Z" fill="#0F1014" fill-opacity="0.12"/>
<path d="M236.735 51.7379C236.805 51.7779 236.884 51.7993 236.965 51.8C237.047 51.8004 237.127 51.779 237.198 51.7381C237.269 51.6971 237.328 51.6381 237.369 51.567L257.59 16.4514C257.651 16.3443 257.668 16.217 257.636 16.0975C257.604 15.978 257.526 15.8762 257.419 15.8144C257.311 15.7526 257.184 15.7358 257.065 15.7679C256.945 15.7999 256.843 15.8781 256.782 15.9853L236.561 51.1008C236.5 51.2085 236.484 51.3359 236.517 51.4551C236.549 51.5744 236.628 51.676 236.735 51.7379Z" fill="#0F1014" fill-opacity="0.12"/>
<path d="M224.084 54.5095C224.154 54.5509 224.235 54.5723 224.317 54.5717C224.398 54.5723 224.479 54.5514 224.55 54.511C224.621 54.4707 224.68 54.4122 224.721 54.3417L250.218 10.4752C250.275 10.3688 250.289 10.2445 250.256 10.1283C250.223 10.0122 250.147 9.91331 250.042 9.85251C249.938 9.79172 249.814 9.77373 249.697 9.80236C249.58 9.83099 249.478 9.904 249.414 10.006L223.913 53.8725C223.882 53.9255 223.862 53.9841 223.854 54.0448C223.846 54.1055 223.85 54.1672 223.866 54.2264C223.882 54.2856 223.91 54.341 223.947 54.3896C223.984 54.4382 224.031 54.4789 224.084 54.5095Z" fill="#0F1014" fill-opacity="0.12"/>
<path d="M210.957 58.6738C211.029 58.7129 211.109 58.7332 211.19 58.7329C211.272 58.7329 211.353 58.7114 211.424 58.6705C211.495 58.6296 211.554 58.5707 211.594 58.4998L241.614 5.90417C241.675 5.79662 241.69 5.66923 241.657 5.55006C241.624 5.43088 241.546 5.32966 241.438 5.26867C241.33 5.20768 241.203 5.19192 241.084 5.22485C240.965 5.25777 240.863 5.33669 240.802 5.44425L210.783 58.0461C210.725 58.1527 210.71 58.2781 210.743 58.3954C210.775 58.5127 210.852 58.6126 210.957 58.6738Z" fill="#0F1014" fill-opacity="0.12"/>
<path d="M197.502 64.1775C197.571 64.2166 197.649 64.2369 197.728 64.2365C197.812 64.2365 197.894 64.214 197.965 64.1714C198.037 64.1287 198.096 64.0675 198.136 63.9941L231.865 2.75327C231.899 2.6996 231.922 2.63952 231.932 2.57672C231.942 2.51392 231.939 2.44973 231.923 2.38811C231.908 2.32648 231.88 2.26873 231.841 2.21839C231.802 2.16805 231.753 2.1262 231.697 2.0954C231.642 2.06461 231.58 2.04553 231.517 2.03933C231.454 2.03313 231.39 2.03995 231.329 2.05937C231.269 2.07878 231.213 2.11039 231.165 2.15223C231.117 2.19407 231.078 2.24527 231.051 2.30268L197.331 63.5436C197.271 63.6506 197.255 63.7769 197.287 63.8954C197.319 64.0139 197.396 64.1152 197.502 64.1775Z" fill="#0F1014" fill-opacity="0.12"/>
<path d="M183.862 70.9649C183.928 71.0002 184.002 71.0183 184.077 71.0178C184.162 71.018 184.245 70.9949 184.318 70.9511C184.391 70.9073 184.451 70.8444 184.49 70.7692L221.085 1.0788C221.142 0.96918 221.154 0.841299 221.117 0.723286C221.08 0.605272 220.997 0.506795 220.888 0.449514C220.778 0.392234 220.65 0.380842 220.532 0.417849C220.414 0.454856 220.316 0.537228 220.258 0.646843L183.657 70.3341C183.601 70.445 183.591 70.5737 183.629 70.692C183.668 70.8103 183.752 70.9084 183.862 70.9649Z" fill="#0F1014" fill-opacity="0.12"/>
<path d="M170.183 78.9571C170.247 78.9902 170.319 79.0073 170.391 79.0068C170.478 79.0064 170.563 78.9817 170.637 78.9356C170.71 78.8895 170.769 78.8237 170.808 78.7457L209.385 0.894913C209.418 0.839744 209.439 0.778433 209.446 0.714816C209.454 0.651199 209.449 0.586642 209.431 0.525178C209.413 0.463714 209.382 0.406663 209.341 0.357594C209.299 0.308526 209.248 0.268495 209.191 0.239998C209.134 0.211502 209.071 0.195154 209.007 0.191978C208.943 0.188803 208.879 0.198868 208.819 0.221543C208.759 0.244218 208.704 0.279015 208.658 0.323762C208.613 0.368508 208.576 0.422245 208.552 0.481606L169.984 78.3324C169.928 78.4418 169.918 78.5687 169.955 78.6856C169.992 78.8026 170.074 78.9001 170.183 78.9571Z" fill="#0F1014" fill-opacity="0.12"/>
<path d="M156.622 88.0684C156.683 88.0979 156.75 88.1128 156.817 88.1119C156.906 88.1122 156.993 88.0869 157.068 88.039C157.143 87.991 157.203 87.9225 157.24 87.8416L196.899 2.20007C196.924 2.14437 196.939 2.08414 196.941 2.02284C196.944 1.96153 196.934 1.90035 196.913 1.84279C196.892 1.78522 196.859 1.73239 196.818 1.68732C196.776 1.64225 196.726 1.60582 196.67 1.58011C196.615 1.5544 196.554 1.53991 196.493 1.53748C196.432 1.53504 196.371 1.5447 196.313 1.56591C196.256 1.58712 196.203 1.61947 196.158 1.66109C196.113 1.70272 196.076 1.75281 196.05 1.80852L156.392 87.45C156.366 87.5057 156.352 87.5659 156.349 87.6272C156.347 87.6884 156.357 87.7495 156.378 87.8069C156.4 87.8644 156.432 87.917 156.474 87.9619C156.516 88.0068 156.566 88.043 156.622 88.0684Z" fill="#0F1014" fill-opacity="0.12"/>
<path d="M143.315 98.1991C143.372 98.226 143.435 98.2398 143.498 98.2395C143.59 98.2396 143.679 98.2128 143.755 98.1625C143.831 98.1122 143.891 98.0407 143.927 97.9567L183.757 4.97201C183.805 4.85827 183.807 4.72987 183.761 4.61507C183.715 4.50026 183.625 4.40844 183.511 4.35982C183.398 4.31119 183.269 4.30974 183.154 4.35578C183.04 4.40182 182.948 4.49158 182.899 4.60532L143.069 97.5776C143.044 97.6344 143.03 97.6957 143.028 97.758C143.027 97.8203 143.038 97.8822 143.061 97.9402C143.084 97.9981 143.118 98.0509 143.162 98.0953C143.205 98.1398 143.257 98.1751 143.315 98.1991Z" fill="#0F1014" fill-opacity="0.12"/>
<path d="M130.422 109.24C130.475 109.261 130.532 109.272 130.589 109.271C130.685 109.271 130.778 109.24 130.856 109.185C130.934 109.129 130.993 109.051 131.024 108.961L170.108 9.20768C170.154 9.0923 170.151 8.96364 170.102 8.84999C170.052 8.73635 169.96 8.64703 169.844 8.6017C169.729 8.55637 169.6 8.55874 169.486 8.60828C169.373 8.65781 169.284 8.75046 169.238 8.86585L130.157 108.619C130.133 108.677 130.12 108.739 130.12 108.802C130.12 108.865 130.133 108.928 130.158 108.986C130.182 109.044 130.218 109.096 130.264 109.14C130.309 109.184 130.363 109.218 130.422 109.24Z" fill="#0F1014" fill-opacity="0.12"/>
<path d="M118.088 121.064C118.137 121.083 118.19 121.092 118.243 121.092C118.339 121.093 118.434 121.063 118.512 121.007C118.591 120.952 118.65 120.873 118.681 120.781L156.112 14.8444C156.132 14.7867 156.141 14.7255 156.138 14.6643C156.135 14.6031 156.119 14.5432 156.093 14.488C156.067 14.4327 156.03 14.3832 155.984 14.3422C155.938 14.3013 155.885 14.2697 155.828 14.2493C155.77 14.2289 155.709 14.2201 155.647 14.2233C155.586 14.2266 155.526 14.2418 155.471 14.2682C155.416 14.2946 155.366 14.3317 155.325 14.3772C155.284 14.4227 155.253 14.4759 155.232 14.5336L117.777 120.471C117.757 120.53 117.75 120.593 117.755 120.655C117.76 120.717 117.777 120.778 117.806 120.833C117.835 120.889 117.875 120.938 117.924 120.977C117.972 121.017 118.028 121.047 118.088 121.064Z" fill="#0F1014" fill-opacity="0.12"/>
<path d="M106.412 133.551C106.458 133.563 106.505 133.57 106.552 133.57C106.651 133.57 106.748 133.538 106.828 133.479C106.908 133.421 106.967 133.338 106.997 133.243L141.885 21.8152C141.923 21.6969 141.911 21.5688 141.854 21.4589C141.796 21.3491 141.698 21.2665 141.579 21.2294C141.461 21.1923 141.333 21.2037 141.223 21.2612C141.113 21.3186 141.031 21.4172 140.994 21.5355L106.108 132.967C106.071 133.085 106.082 133.212 106.139 133.322C106.196 133.431 106.295 133.514 106.412 133.551Z" fill="#0F1014" fill-opacity="0.12"/>
<path d="M95.5671 146.553C95.6063 146.565 95.6472 146.571 95.6883 146.572C95.7907 146.571 95.8903 146.537 95.9716 146.475C96.053 146.413 96.1117 146.325 96.1389 146.227L127.619 30.0439C127.639 29.9835 127.647 29.9196 127.642 29.8559C127.637 29.7923 127.619 29.7304 127.589 29.6741C127.559 29.6177 127.518 29.5681 127.468 29.5284C127.418 29.4886 127.361 29.4595 127.299 29.4429C127.237 29.4262 127.173 29.4224 127.11 29.4317C127.047 29.441 126.986 29.4631 126.932 29.4967C126.878 29.5303 126.831 29.5747 126.795 29.6272C126.758 29.6796 126.733 29.7389 126.72 29.8015L95.2377 145.981C95.2217 146.04 95.2175 146.102 95.2255 146.163C95.2334 146.224 95.2532 146.282 95.2838 146.335C95.3144 146.388 95.3552 146.435 95.4038 146.472C95.4524 146.51 95.5079 146.537 95.5671 146.553Z" fill="#0F1014" fill-opacity="0.12"/>
<path d="M85.6508 159.937C85.6849 159.94 85.7192 159.94 85.7534 159.937C85.8586 159.937 85.9607 159.902 86.043 159.836C86.1254 159.771 86.1832 159.679 86.2071 159.577L113.46 39.4351C113.479 39.374 113.484 39.3098 113.476 39.2465C113.468 39.1832 113.448 39.1222 113.415 39.0672C113.383 39.0122 113.34 38.9644 113.289 38.9267C113.237 38.8891 113.178 38.8624 113.116 38.8484C113.054 38.8343 112.99 38.8332 112.927 38.845C112.864 38.8568 112.805 38.8814 112.752 38.9172C112.699 38.953 112.654 38.9992 112.62 39.053C112.586 39.1068 112.563 39.1671 112.553 39.23L85.2965 159.369C85.2818 159.429 85.2794 159.492 85.2893 159.554C85.2992 159.615 85.3213 159.674 85.3543 159.727C85.3873 159.78 85.4305 159.826 85.4814 159.862C85.5323 159.898 85.5899 159.924 85.6508 159.937Z" fill="#0F1014" fill-opacity="0.12"/>
<path d="M76.7726 173.549H76.8565C76.9662 173.549 77.0725 173.51 77.1567 173.44C77.2408 173.369 77.2974 173.271 77.3164 173.163L99.5635 49.9048C99.5796 49.7857 99.5492 49.665 99.4785 49.5678C99.4078 49.4707 99.3023 49.4046 99.184 49.3833C99.0657 49.3621 98.9438 49.3873 98.8437 49.4538C98.7436 49.5203 98.6731 49.6228 98.6467 49.7401L76.3965 172.999C76.3844 173.06 76.3846 173.122 76.397 173.183C76.4094 173.244 76.4339 173.302 76.4689 173.353C76.5039 173.404 76.5488 173.448 76.601 173.481C76.6531 173.515 76.7114 173.538 76.7726 173.549Z" fill="#0F1014" fill-opacity="0.12"/>
<path d="M69.0377 187.247H69.0968C69.2103 187.247 69.32 187.206 69.4052 187.131C69.4904 187.056 69.5454 186.952 69.5598 186.84L86.0796 61.3344C86.0876 61.2732 86.0834 61.211 86.0674 61.1514C86.0513 61.0918 86.0236 61.0359 85.986 60.987C85.9483 60.9381 85.9014 60.8971 85.8479 60.8663C85.7944 60.8355 85.7353 60.8156 85.6741 60.8076C85.6129 60.7997 85.5507 60.8039 85.4911 60.8199C85.4315 60.836 85.3757 60.8637 85.3267 60.9013C85.2778 60.939 85.2368 60.9859 85.206 61.0394C85.1753 61.0929 85.1553 61.152 85.1474 61.2132L68.6369 186.722C68.6285 186.783 68.6323 186.844 68.648 186.904C68.6637 186.963 68.6909 187.019 68.7282 187.068C68.7654 187.116 68.812 187.157 68.8651 187.188C68.9182 187.219 68.9769 187.239 69.0377 187.247Z" fill="#0F1014" fill-opacity="0.12"/>
<path d="M62.5243 200.873H62.5616C62.6787 200.874 62.7916 200.83 62.8775 200.75C62.9634 200.67 63.016 200.561 63.0246 200.445L73.1584 73.5811C73.1633 73.5199 73.1561 73.4583 73.1372 73.3999C73.1183 73.3414 73.0881 73.2873 73.0483 73.2406C72.9678 73.1462 72.8532 73.0876 72.7296 73.0777C72.606 73.0678 72.4835 73.1074 72.389 73.1878C72.2946 73.2682 72.236 73.3829 72.2262 73.5065L62.0955 200.37C62.0904 200.431 62.0974 200.493 62.1163 200.551C62.1351 200.61 62.1653 200.664 62.2052 200.711C62.245 200.758 62.2937 200.796 62.3485 200.824C62.4033 200.852 62.463 200.869 62.5243 200.873Z" fill="#0F1014" fill-opacity="0.12"/>
<path d="M57.3036 214.282C57.4251 214.282 57.5418 214.235 57.6289 214.15C57.716 214.065 57.7665 213.95 57.7697 213.828L60.9239 86.5236C60.9256 86.4624 60.9151 86.4015 60.8932 86.3443C60.8713 86.2871 60.8383 86.2348 60.7962 86.1904C60.7541 86.146 60.7036 86.1103 60.6477 86.0853C60.5917 86.0604 60.5314 86.0467 60.4702 86.0451C60.409 86.0435 60.3481 86.0539 60.2909 86.0758C60.2337 86.0977 60.1814 86.1307 60.137 86.1728C60.0925 86.2149 60.0568 86.2654 60.0319 86.3213C60.007 86.3773 59.9933 86.4376 59.9917 86.4988L56.8499 213.8C56.8466 213.924 56.8924 214.045 56.9774 214.135C57.0624 214.225 57.1797 214.278 57.3036 214.282Z" fill="#0F1014" fill-opacity="0.12"/>
<path d="M53.4223 227.328C53.4835 227.326 53.5437 227.312 53.5995 227.287C53.6553 227.262 53.7056 227.226 53.7474 227.181C53.7892 227.136 53.8219 227.084 53.8434 227.026C53.8649 226.969 53.8749 226.908 53.8729 226.847L49.5223 100.014C49.5166 99.8911 49.4631 99.7751 49.3731 99.6909C49.2831 99.6067 49.1638 99.561 49.0406 99.5636C48.9794 99.5656 48.9191 99.5796 48.8634 99.6049C48.8076 99.6302 48.7573 99.6663 48.7155 99.711C48.6736 99.7557 48.641 99.8083 48.6195 99.8656C48.5979 99.923 48.5879 99.984 48.59 100.045L52.9406 226.878C52.9422 226.939 52.956 226.999 52.9811 227.055C53.0063 227.111 53.0423 227.162 53.0871 227.204C53.132 227.246 53.1847 227.278 53.2422 227.3C53.2997 227.321 53.3609 227.331 53.4223 227.328Z" fill="#0F1014" fill-opacity="0.12"/>
<path d="M50.9238 239.867H50.9642C51.0869 239.854 51.1996 239.793 51.2777 239.698C51.3557 239.602 51.3927 239.48 51.3806 239.357L39.1274 113.908C39.1215 113.846 39.1036 113.787 39.0747 113.733C39.0458 113.678 39.0065 113.63 38.959 113.591C38.9116 113.552 38.8569 113.523 38.7981 113.505C38.7392 113.487 38.6775 113.481 38.6162 113.487C38.555 113.492 38.4956 113.51 38.4413 113.539C38.387 113.568 38.3389 113.607 38.2998 113.655C38.2607 113.702 38.2314 113.757 38.2134 113.816C38.1954 113.875 38.1892 113.937 38.1952 113.998L50.4545 239.444C50.4654 239.561 50.5198 239.669 50.6067 239.747C50.6936 239.825 50.8068 239.868 50.9238 239.867Z" fill="#0F1014" fill-opacity="0.12"/>
<path d="M49.3855 251.371C49.4038 251.48 49.4601 251.579 49.5443 251.65C49.6285 251.721 49.7352 251.76 49.8454 251.76C49.8712 251.763 49.8973 251.763 49.9231 251.76C49.9834 251.75 50.0411 251.728 50.093 251.696C50.1449 251.664 50.1899 251.622 50.2254 251.572C50.261 251.522 50.2863 251.466 50.3 251.407C50.3137 251.347 50.3155 251.285 50.3053 251.225L29.7767 128.05C29.7667 127.989 29.7447 127.931 29.7121 127.878C29.6794 127.825 29.6367 127.779 29.5863 127.743C29.536 127.707 29.479 127.681 29.4186 127.667C29.3582 127.653 29.2956 127.65 29.2344 127.66C29.1732 127.67 29.1146 127.692 29.0618 127.725C29.0091 127.758 28.9633 127.8 28.9271 127.851C28.8909 127.901 28.865 127.958 28.8508 128.019C28.8366 128.079 28.8344 128.142 28.8444 128.203L49.3855 251.371Z" fill="#0F1014" fill-opacity="0.12"/>
<path d="M49.746 262.524C49.7705 262.626 49.8285 262.717 49.9108 262.782C49.9932 262.847 50.0949 262.882 50.1997 262.882C50.2358 262.886 50.2724 262.886 50.3085 262.882C50.4284 262.852 50.5319 262.777 50.5965 262.671C50.6611 262.566 50.6815 262.44 50.6534 262.319L21.6039 142.289C21.575 142.169 21.4995 142.065 21.3941 142C21.2886 141.936 21.1617 141.916 21.0414 141.944C20.9211 141.973 20.8171 142.049 20.7524 142.154C20.6877 142.26 20.6676 142.387 20.6964 142.507L49.746 262.524Z" fill="#0F1014" fill-opacity="0.12"/>
<path d="M177.212 290.275L53.1862 272.534C53.1258 272.525 53.0642 272.529 53.0051 272.544C52.9459 272.559 52.8903 272.585 52.8415 272.622C52.7927 272.659 52.7517 272.705 52.7207 272.757C52.6897 272.81 52.6694 272.868 52.6611 272.929C52.6502 272.981 52.6502 273.035 52.6611 273.087L52.2695 273C52.3428 272.942 52.3963 272.862 52.423 272.772C52.4497 272.682 52.4481 272.586 52.4187 272.497L14.6959 156.466C14.6576 156.348 14.574 156.251 14.4635 156.194C14.3531 156.138 14.2248 156.128 14.107 156.166C13.9891 156.205 13.8913 156.288 13.8351 156.399C13.7788 156.509 13.7688 156.637 13.8071 156.755L50.3086 269.001L9.124 170.426C9.10312 170.365 9.07011 170.31 9.02702 170.263C8.98393 170.216 8.93167 170.179 8.87347 170.153C8.81528 170.127 8.75238 170.113 8.68866 170.112C8.62494 170.112 8.56175 170.124 8.503 170.149C8.44425 170.173 8.3912 170.21 8.3471 170.256C8.303 170.302 8.26881 170.356 8.24663 170.416C8.22445 170.476 8.21475 170.539 8.21813 170.603C8.22152 170.667 8.23792 170.729 8.26632 170.786L49.1992 268.765L4.97229 184.015C4.91501 183.905 4.81653 183.823 4.69852 183.786C4.58051 183.749 4.45263 183.76 4.34301 183.818C4.2334 183.875 4.15102 183.973 4.11401 184.091C4.07701 184.209 4.0884 184.337 4.14568 184.447L48.065 268.575L2.25006 197.101C2.1803 197.004 2.07604 196.938 1.95878 196.915C1.84151 196.893 1.72018 196.917 1.61978 196.981C1.51938 197.046 1.44756 197.146 1.41913 197.262C1.3907 197.378 1.40781 197.501 1.46695 197.604L46.8592 268.432L0.988386 209.5C0.909491 209.412 0.800304 209.358 0.682826 209.348C0.565347 209.337 0.448313 209.372 0.355307 209.444C0.2623 209.517 0.200238 209.622 0.181625 209.738C0.163012 209.855 0.189233 209.974 0.255004 210.072L45.5696 268.302L1.24321 221.116C1.1583 221.028 1.04195 220.976 0.919379 220.973C0.796803 220.97 0.67787 221.015 0.588351 221.099C0.498831 221.182 0.445939 221.298 0.441128 221.421C0.436317 221.543 0.479976 221.663 0.56265 221.753L44.2178 268.218L2.96481 231.806C2.87209 231.724 2.75042 231.682 2.62657 231.689C2.50273 231.696 2.38686 231.752 2.30444 231.845C2.22202 231.938 2.17982 232.059 2.1871 232.183C2.19439 232.307 2.25057 232.423 2.34329 232.505L42.7417 268.171L6.15317 241.446C6.05303 241.373 5.92802 241.343 5.80563 241.362C5.68325 241.381 5.57352 241.448 5.50058 241.549C5.42764 241.649 5.39747 241.774 5.4167 241.896C5.43593 242.018 5.50299 242.128 5.60313 242.201L41.1755 268.183L10.7959 249.973C10.7434 249.938 10.6843 249.914 10.6221 249.902C10.56 249.89 10.4961 249.892 10.4344 249.905C10.3728 249.919 10.3145 249.945 10.2633 249.982C10.212 250.019 10.1688 250.066 10.1363 250.121C10.1038 250.175 10.0827 250.235 10.0742 250.298C10.0658 250.36 10.0701 250.424 10.0871 250.485C10.104 250.546 10.1331 250.603 10.1727 250.652C10.2123 250.701 10.2615 250.742 10.3173 250.772L39.4663 268.243L16.8059 257.232C16.7508 257.206 16.691 257.19 16.6299 257.186C16.5688 257.183 16.5075 257.191 16.4497 257.211C16.3918 257.231 16.3385 257.263 16.2927 257.303C16.2469 257.344 16.2096 257.393 16.1829 257.448C16.1561 257.503 16.1405 257.563 16.1369 257.624C16.1333 257.686 16.1417 257.747 16.1618 257.805C16.1819 257.863 16.2131 257.916 16.2538 257.962C16.2944 258.007 16.3437 258.045 16.3988 258.071L37.6142 268.379L24.146 263.18C24.0889 263.158 24.028 263.148 23.9667 263.149C23.9055 263.151 23.8452 263.164 23.7892 263.189C23.7332 263.214 23.6827 263.249 23.6405 263.294C23.5982 263.338 23.5652 263.39 23.5431 263.448C23.5211 263.505 23.5105 263.566 23.512 263.627C23.5135 263.688 23.5271 263.748 23.5519 263.804C23.5767 263.86 23.6123 263.911 23.6567 263.953C23.701 263.995 23.7532 264.028 23.8104 264.05L35.6191 268.603L32.7291 267.745C32.6703 267.728 32.6087 267.722 32.5478 267.729C32.4869 267.735 32.4278 267.754 32.374 267.783C32.3202 267.812 32.2727 267.852 32.2342 267.9C32.1956 267.947 32.1669 268.002 32.1495 268.061C32.1322 268.119 32.1266 268.181 32.1331 268.242C32.1395 268.303 32.1579 268.362 32.1872 268.416C32.2165 268.47 32.2561 268.517 32.3038 268.556C32.3514 268.594 32.4062 268.623 32.465 268.64L41.8933 271.437C41.9134 271.523 41.9573 271.602 42.0199 271.664C42.0826 271.726 42.1615 271.769 42.2476 271.788L45.3023 272.45L46.5174 272.811L47.6144 273.233L48.6088 273.715L49.5069 274.256L50.3273 274.852L51.0731 275.511L51.7505 276.232L52.3721 277.025L52.9314 277.895L53.4348 278.858L54.7618 282.04C54.7974 282.125 54.8575 282.198 54.9344 282.249C55.0113 282.299 55.1015 282.326 55.1937 282.326H55.2434L59.3454 290.188C59.3851 290.263 59.4446 290.326 59.5174 290.37C59.5903 290.414 59.6737 290.437 59.7587 290.437C59.8345 290.438 59.9094 290.42 59.9763 290.384C60.0842 290.327 60.1653 290.23 60.202 290.113C60.2387 289.997 60.2279 289.871 60.1721 289.762L58.6183 286.757L65.2716 297.14C65.3133 297.206 65.3711 297.26 65.4396 297.298C65.5081 297.335 65.585 297.355 65.6631 297.354C65.7467 297.354 65.8288 297.331 65.9006 297.289C65.9725 297.246 66.0315 297.185 66.0716 297.111C66.1116 297.038 66.1312 296.955 66.1282 296.872C66.1252 296.788 66.0998 296.707 66.0547 296.636L58.6587 285.095L72.447 302.808C72.4901 302.864 72.5456 302.91 72.6092 302.941C72.6728 302.972 72.7428 302.989 72.8136 302.988C72.9176 302.989 73.0186 302.954 73.0995 302.889C73.1479 302.851 73.1884 302.805 73.2187 302.752C73.2489 302.699 73.2684 302.64 73.2759 302.579C73.2834 302.519 73.2788 302.457 73.2624 302.398C73.246 302.339 73.2181 302.284 73.1803 302.236L58.6462 283.56L80.8063 307.143C80.8498 307.189 80.9022 307.226 80.9605 307.251C81.0188 307.276 81.0816 307.289 81.145 307.289C81.2611 307.288 81.3722 307.242 81.4558 307.162C81.5456 307.077 81.598 306.96 81.6015 306.836C81.605 306.713 81.5593 306.593 81.4744 306.503L58.5779 282.136L90.2502 310.105C90.3358 310.181 90.4464 310.223 90.561 310.223C90.6273 310.222 90.6928 310.208 90.7533 310.181C90.8138 310.153 90.8679 310.114 90.9121 310.064C90.9931 309.971 91.034 309.849 91.0259 309.726C91.0177 309.602 90.9612 309.487 90.8686 309.405L58.4846 280.816L100.685 311.615C100.735 311.654 100.791 311.682 100.852 311.698C100.912 311.715 100.975 311.719 101.037 311.71C101.099 311.702 101.159 311.681 101.212 311.649C101.266 311.617 101.313 311.574 101.35 311.524C101.387 311.473 101.413 311.416 101.427 311.355C101.442 311.294 101.443 311.231 101.433 311.169C101.422 311.107 101.399 311.048 101.365 310.996C101.331 310.943 101.287 310.898 101.235 310.863L58.351 279.548L112.006 311.711C112.078 311.756 112.161 311.78 112.246 311.78C112.348 311.78 112.447 311.747 112.529 311.685C112.61 311.623 112.669 311.536 112.696 311.437C112.724 311.339 112.718 311.234 112.679 311.139C112.641 311.044 112.573 310.965 112.485 310.913L58.1646 278.361L124.045 310.369C124.109 310.399 124.179 310.415 124.25 310.415C124.356 310.415 124.458 310.379 124.54 310.313C124.622 310.247 124.68 310.156 124.703 310.053C124.727 309.95 124.715 309.842 124.669 309.747C124.623 309.652 124.547 309.576 124.452 309.53L57.9501 277.211L136.733 307.615C136.787 307.636 136.844 307.647 136.901 307.646C136.997 307.646 137.09 307.615 137.168 307.56C137.245 307.504 137.304 307.426 137.336 307.336C137.38 307.22 137.376 307.092 137.326 306.979C137.276 306.867 137.184 306.778 137.069 306.733L57.6953 276.114L149.897 303.461C149.939 303.473 149.983 303.479 150.027 303.479C150.14 303.48 150.249 303.44 150.334 303.367C150.42 303.294 150.476 303.192 150.492 303.081C150.508 302.969 150.484 302.856 150.423 302.761C150.362 302.667 150.269 302.597 150.161 302.566L57.3784 275.054L163.393 297.97C163.425 297.973 163.457 297.973 163.489 297.97C163.613 297.983 163.737 297.946 163.834 297.868C163.93 297.79 163.992 297.677 164.005 297.553C164.018 297.43 163.982 297.306 163.904 297.209C163.826 297.112 163.712 297.05 163.589 297.037L56.9713 273.992L177.073 291.173H177.141C177.265 291.182 177.387 291.141 177.48 291.06C177.574 290.979 177.631 290.863 177.64 290.74C177.648 290.616 177.608 290.494 177.526 290.401C177.445 290.307 177.33 290.25 177.206 290.241L177.212 290.275Z" fill="#0F1014" fill-opacity="0.12"/>
<path d="M190.87 282.282L64.8611 272.704C64.7375 272.695 64.6152 272.735 64.5211 272.816C64.427 272.896 64.3688 273.011 64.3593 273.135C64.3498 273.259 64.3898 273.381 64.4705 273.475C64.5512 273.569 64.666 273.627 64.7897 273.637L190.805 283.214H190.839C190.963 283.219 191.083 283.175 191.174 283.091C191.265 283.007 191.319 282.89 191.324 282.767C191.329 282.643 191.284 282.523 191.2 282.432C191.116 282.341 191 282.287 190.876 282.282H190.87Z" fill="#0F1014" fill-opacity="0.12"/>
<path d="M204.416 273.174L77.3164 271.387C77.1941 271.386 77.0765 271.433 76.9892 271.519C76.9018 271.605 76.8519 271.721 76.8503 271.844C76.8486 271.967 76.896 272.087 76.9822 272.176C77.0684 272.265 77.1863 272.317 77.3102 272.319L204.41 274.106C204.532 274.107 204.65 274.059 204.737 273.974C204.824 273.888 204.874 273.771 204.876 273.649C204.878 273.525 204.83 273.406 204.744 273.316C204.658 273.227 204.54 273.176 204.416 273.174Z" fill="#0F1014" fill-opacity="0.12"/>
<path d="M217.704 263.05L90.4458 268.59C90.3222 268.593 90.2046 268.644 90.1189 268.733C90.0332 268.823 89.9865 268.942 89.989 269.066C89.9915 269.189 90.0429 269.307 90.1321 269.393C90.2213 269.478 90.3408 269.525 90.4644 269.523H90.4862L217.744 263.982C217.868 263.976 217.984 263.922 218.068 263.831C218.151 263.741 218.196 263.62 218.192 263.497C218.19 263.435 218.176 263.375 218.15 263.319C218.124 263.263 218.087 263.212 218.042 263.171C217.997 263.129 217.943 263.097 217.885 263.076C217.827 263.055 217.765 263.046 217.704 263.05Z" fill="#0F1014" fill-opacity="0.12"/>
<path d="M230.582 252.024L104.069 264.355C103.946 264.36 103.83 264.415 103.746 264.506C103.663 264.598 103.619 264.719 103.625 264.842C103.631 264.966 103.685 265.082 103.777 265.166C103.868 265.249 103.989 265.293 104.113 265.287H104.16L230.678 252.956C230.739 252.95 230.799 252.932 230.853 252.903C230.907 252.874 230.955 252.835 230.994 252.788C231.034 252.74 231.063 252.685 231.081 252.627C231.099 252.568 231.105 252.506 231.099 252.445C231.093 252.384 231.075 252.324 231.046 252.27C231.017 252.215 230.978 252.167 230.931 252.128C230.883 252.089 230.829 252.06 230.77 252.042C230.711 252.024 230.649 252.018 230.588 252.024H230.582Z" fill="#0F1014" fill-opacity="0.12"/>
<path d="M242.925 240.216L118.066 258.706C117.942 258.715 117.827 258.772 117.746 258.866C117.665 258.96 117.625 259.082 117.634 259.206C117.643 259.329 117.701 259.444 117.795 259.525C117.888 259.606 118.011 259.647 118.134 259.638H118.203L243.062 241.132C243.122 241.124 243.18 241.103 243.233 241.072C243.285 241.04 243.331 240.999 243.368 240.95C243.404 240.901 243.43 240.845 243.445 240.785C243.46 240.726 243.462 240.664 243.453 240.604C243.433 240.483 243.367 240.375 243.268 240.302C243.169 240.23 243.046 240.198 242.925 240.216Z" fill="#0F1014" fill-opacity="0.12"/>
<path d="M254.581 227.726L132.264 251.713C132.141 251.725 132.027 251.785 131.948 251.881C131.869 251.977 131.831 252.1 131.843 252.224C131.855 252.348 131.916 252.462 132.012 252.541C132.108 252.619 132.231 252.657 132.355 252.645H132.445L254.762 228.645C254.878 228.617 254.979 228.544 255.043 228.443C255.108 228.342 255.131 228.22 255.107 228.103C255.084 227.985 255.017 227.881 254.919 227.812C254.821 227.743 254.7 227.714 254.581 227.732V227.726Z" fill="#0F1014" fill-opacity="0.12"/>
<path d="M265.427 214.733L146.516 243.485C146.392 243.499 146.279 243.562 146.202 243.66C146.125 243.757 146.09 243.882 146.104 244.005C146.118 244.129 146.181 244.242 146.279 244.319C146.377 244.396 146.501 244.431 146.625 244.417C146.661 244.421 146.697 244.421 146.733 244.417L265.644 215.666C265.765 215.637 265.869 215.561 265.933 215.456C265.998 215.35 266.018 215.224 265.989 215.103C265.961 214.983 265.885 214.879 265.78 214.814C265.674 214.75 265.547 214.729 265.427 214.758V214.733Z" fill="#0F1014" fill-opacity="0.12"/>
</g>
<defs>
<clipPath id="clip0_407_3448">
<rect width="312" height="312" fill="white"/>
</clipPath>
</defs>
</svg>
