<svg width="170" height="170" viewBox="0 0 170 170" fill="none" xmlns="http://www.w3.org/2000/svg">
<path d="M42.5 0C31.2283 0 20.4183 4.47767 12.448 12.448C4.47767 20.4183 0 31.2283 0 42.5L0 127.5C0 138.772 4.47767 149.582 12.448 157.552C20.4183 165.522 31.2283 170 42.5 170H127.5C138.772 170 149.582 165.522 157.552 157.552C165.522 149.582 170 138.772 170 127.5V0H42.5Z" fill="#B1EC52"/>
<path d="M140.479 63.732H120.075L100.638 84.9993V42.4993H84.8945V52.8567C84.3881 52.1892 83.8357 51.5333 83.2373 50.8888C80.0158 47.724 76.1673 45.2688 71.9396 43.6812C67.7118 42.0936 63.1986 41.4087 58.6902 41.6707C54.3624 41.4714 50.0475 42.2816 46.0868 44.0373C42.126 45.7929 38.628 48.4459 35.8693 51.7865C33.6368 54.519 32.0188 57.7002 31.1252 61.1137C30.2316 64.5273 30.0834 68.0932 30.6906 71.5691C34.3502 87.9339 49.5411 90.5578 60.6926 92.0078C69.4964 93.1471 77.955 94.7698 77.7133 102.607C77.4717 110.444 68.2881 112.688 62.1427 112.688C46.4339 112.688 45.916 101.088 45.916 101.088H29.137C29.427 107.456 31.8602 113.539 36.0419 118.35C41.9111 124.944 50.715 128.259 62.2117 128.259C70.4802 128.446 78.533 125.61 84.86 120.284V127.189H100.603V107.337L106.196 101.26L122.112 127.396H140.445L117.382 89.1077L140.479 63.732ZM46.4684 67.875C45.0874 61.7986 51.1292 56.4128 59.0009 56.4128C65.9059 56.4128 73.1215 58.0009 75.8145 67.875H84.8945V82.8588C73.6049 73.6061 49.0923 79.4063 46.4684 67.875Z" fill="#4D5759"/>
</svg>
